G04 Layer_Physical_Order=3*
G04 Layer_Color=13278208*
%FSLAX25Y25*%
%MOIN*%
G70*
G01*
G75*
%ADD52C,0.01772*%
%ADD66C,0.00400*%
%ADD67C,0.01000*%
%ADD70C,0.04500*%
%ADD115C,0.00500*%
%ADD116C,0.03937*%
%ADD122C,0.05118*%
%ADD134C,0.07000*%
%ADD136C,0.01800*%
%ADD161R,0.18898X0.18898*%
D52*
X-72146Y176279D02*
D03*
X-69685Y174311D02*
D03*
X-67224Y172441D02*
D03*
X-72047Y168504D02*
D03*
X-69685Y166535D02*
D03*
X-67224Y164567D02*
D03*
X-69685Y162500D02*
D03*
X-72146Y160531D02*
D03*
X-67224D02*
D03*
Y156595D02*
D03*
X-72146Y152657D02*
D03*
X-69685Y150689D02*
D03*
X-67224Y148721D02*
D03*
X-69685Y146260D02*
D03*
Y143307D02*
D03*
D66*
X-2681Y83784D02*
Y86448D01*
Y83784D02*
X-787Y81890D01*
X-2681Y86448D02*
X-1500Y87629D01*
Y100862D01*
X-4724Y85536D02*
X-3224Y87036D01*
X-4724Y70472D02*
Y85536D01*
X-3224Y87036D02*
Y94716D01*
X-136614Y140551D02*
Y201181D01*
X-5980Y96879D02*
Y108495D01*
X-7418Y95441D02*
X-5980Y96879D01*
X-12205Y120424D02*
X-5180Y113399D01*
Y96547D02*
Y113399D01*
X-6618Y95109D02*
X-5180Y96547D01*
X-13780Y114567D02*
X-12052D01*
X-5980Y108495D01*
X2756Y105118D02*
Y113386D01*
X-1500Y100862D02*
X2756Y105118D01*
X25664Y114399D02*
Y145742D01*
X27165Y147244D01*
X27165Y151968D02*
X28665Y150468D01*
Y83096D02*
Y150468D01*
X22847Y77277D02*
X28665Y83096D01*
X25591Y155856D02*
X29465Y151981D01*
Y82764D02*
Y151981D01*
X27509Y80808D02*
X29465Y82764D01*
X27240Y155338D02*
X30265Y152312D01*
Y82433D02*
Y152312D01*
X28309Y80477D02*
X30265Y82433D01*
X28740Y154969D02*
X31065Y152644D01*
Y82101D02*
Y152644D01*
X29109Y80146D02*
X31065Y82101D01*
X30240Y154600D02*
X31865Y152975D01*
Y81770D02*
Y152975D01*
X29909Y79814D02*
X31865Y81770D01*
X13842Y139854D02*
X14492Y139204D01*
Y123153D02*
Y139204D01*
X12598Y121260D02*
X14492Y123153D01*
X17961Y119082D02*
Y136867D01*
X14642Y140186D02*
X17961Y136867D01*
X14642Y140186D02*
Y143279D01*
X13842Y139854D02*
Y143610D01*
X33858Y58661D02*
Y152113D01*
Y58661D02*
X34252Y58268D01*
X31040Y154932D02*
X33858Y152113D01*
X39295Y91810D02*
Y145217D01*
X24741Y114608D02*
Y153231D01*
X23560Y114558D02*
Y149669D01*
X20472Y138342D02*
X22760Y136054D01*
Y120348D02*
Y136054D01*
X19454Y109320D02*
X24741Y114608D01*
X24191Y153780D02*
X24741Y153231D01*
X24191Y153780D02*
X24191D01*
X22489Y155483D02*
X24191Y153780D01*
X22489Y155483D02*
Y155743D01*
X25272Y114007D02*
X25664Y114399D01*
X25272Y112765D02*
Y114007D01*
X17854Y115442D02*
X22760Y120348D01*
X20472Y138342D02*
Y154330D01*
X22441Y150787D02*
X23560Y149669D01*
X18654Y109652D02*
X23560Y114558D01*
X17791Y161190D02*
Y187083D01*
X18110Y187402D01*
X17791Y161190D02*
X18972Y160009D01*
X13141Y154518D02*
X14492Y153167D01*
X15292Y143929D02*
Y160451D01*
X18172Y149934D02*
Y158702D01*
X18972Y150265D02*
Y160009D01*
Y150265D02*
X19561Y149677D01*
Y118419D02*
Y149677D01*
X18172Y149934D02*
X18761Y149346D01*
Y118750D02*
Y149346D01*
X14642Y143279D02*
X15292Y143929D01*
X14492Y144261D02*
Y153167D01*
X13842Y143610D02*
X14492Y144261D01*
X25272Y112765D02*
X25909Y112127D01*
Y84571D02*
Y112127D01*
X21247Y79909D02*
X25909Y84571D01*
X26784Y82346D02*
Y113373D01*
X26772Y113386D02*
X26784Y113373D01*
X22047Y77609D02*
X26784Y82346D01*
X-18823Y72760D02*
Y98653D01*
Y72760D02*
X-16535Y70472D01*
X-18035Y99440D02*
Y110311D01*
X-18823Y98653D02*
X-18035Y99440D01*
X105118Y92520D02*
Y92913D01*
X116142Y103937D01*
Y183071D01*
X119291Y186221D01*
X128612Y168860D02*
X132283Y165188D01*
X124841Y168860D02*
X128612D01*
X132283Y159843D02*
Y165188D01*
X124803Y168898D02*
X124841Y168860D01*
X7874Y26772D02*
X22047Y40945D01*
X12598Y113386D02*
Y121260D01*
X19454Y44368D02*
Y109320D01*
X18654Y45689D02*
Y109652D01*
X22047Y40945D02*
Y77609D01*
X22847Y33871D02*
Y77277D01*
X29109Y26201D02*
Y80146D01*
X27509Y36412D02*
Y80808D01*
X29909Y25869D02*
Y79814D01*
X28309Y36080D02*
Y80477D01*
X13564Y9524D02*
X29909Y25869D01*
X16626Y13717D02*
X29109Y26201D01*
X6746Y14517D02*
X28309Y36080D01*
X6415Y15317D02*
X27509Y36412D01*
X21247Y44040D02*
Y79909D01*
X5906Y28698D02*
X21247Y44040D01*
X17854Y48881D02*
Y115442D01*
X0Y31028D02*
X17854Y48881D01*
X1969Y29004D02*
X18654Y45689D01*
X3937Y28851D02*
X19454Y44368D01*
X9449Y20472D02*
X22847Y33871D01*
X3937Y19685D02*
Y28851D01*
X5906Y25197D02*
Y28698D01*
X25591Y155856D02*
Y157480D01*
X27240Y155338D02*
Y160161D01*
X28740Y154969D02*
Y157874D01*
X30240Y154600D02*
Y159055D01*
X31040Y154932D02*
Y174472D01*
X29134Y160161D02*
X30240Y159055D01*
X29134Y160161D02*
Y161024D01*
X26772Y160630D02*
X27240Y160161D01*
X24803Y180709D02*
X31040Y174472D01*
X9946Y166929D02*
X18172Y158702D01*
X5043Y38902D02*
Y162279D01*
X-42619Y14517D02*
X6746D01*
X1969Y22835D02*
Y29004D01*
X14935Y116057D02*
X17961Y119082D01*
X15735Y115725D02*
X18761Y118750D01*
X14935Y70600D02*
Y116057D01*
X7161Y62826D02*
X14935Y70600D01*
X15735Y69279D02*
Y115725D01*
X8661Y62205D02*
X15735Y69279D01*
X16535Y115394D02*
X19561Y118419D01*
X16535Y68504D02*
Y115394D01*
X12992Y64961D02*
X16535Y68504D01*
X12992Y54724D02*
Y64961D01*
X7161Y53412D02*
Y62826D01*
X7087Y53337D02*
X7161Y53412D01*
X394Y34252D02*
X5043Y38902D01*
X3543Y163779D02*
X5043Y162279D01*
X10410Y165333D02*
X15292Y160451D01*
X-18035Y110311D02*
X-15280Y113067D01*
X-14567Y76378D02*
Y111024D01*
X-16535Y74410D02*
X-14567Y76378D01*
X-30481Y165279D02*
X-29453Y164251D01*
X-39051Y165279D02*
X-30481D01*
X-40157Y164173D02*
X-39051Y165279D01*
X-33846Y160299D02*
X-31976Y162169D01*
Y162906D02*
X-31102Y163779D01*
X-31976Y162169D02*
Y162906D01*
X-33268Y164173D02*
X-32776Y163681D01*
Y162500D02*
Y163681D01*
X-34646Y160630D02*
X-32776Y162500D01*
X-33858Y164173D02*
X-33268D01*
X-34252Y163779D02*
X-33858Y164173D01*
X-33846Y149669D02*
Y160299D01*
X-34646Y150000D02*
Y160630D01*
X-62054Y149544D02*
X-44144D01*
X-43357Y148757D02*
X-35889D01*
X-44144Y149544D02*
X-43357Y148757D01*
X-43688Y147957D02*
X-35558D01*
X-44475Y148744D02*
X-43688Y147957D01*
X-61723Y148744D02*
X-44475D01*
X-66414Y145184D02*
X-62054Y149544D01*
X-66083Y144384D02*
X-61723Y148744D01*
X-68609Y145184D02*
X-66414D01*
X-68609Y144384D02*
X-66083D01*
X-44088Y140558D02*
X-43763Y140883D01*
X-44088Y140558D02*
X-44088D01*
X-47154Y136361D02*
X-43432Y140083D01*
X-3937Y174015D02*
Y176137D01*
X-8661Y180861D02*
X-3937Y176137D01*
X-70472Y199606D02*
X-27318D01*
X-16763Y189051D01*
X-16763D01*
X-15945Y188233D01*
Y187008D02*
Y188233D01*
X17323Y10630D02*
X19291Y12598D01*
X25197D01*
X38583Y25984D01*
Y35280D01*
X40083Y36780D01*
Y86930D01*
X37870Y89143D02*
X40083Y86930D01*
X37870Y89143D02*
Y90385D01*
X39295Y91810D01*
X37083Y147430D02*
X39295Y145217D01*
X37083Y147430D02*
Y179847D01*
X27165Y189764D02*
X37083Y179847D01*
X-125797Y9017D02*
X-45856D01*
X-42288Y13717D02*
X16626D01*
X-125466Y9817D02*
X-46188D01*
X-125135Y10617D02*
X-46519D01*
X-44712Y10161D02*
X-25669D01*
X-45856Y9017D02*
X-44712Y10161D01*
X-46188Y9817D02*
X-42288Y13717D01*
X-46519Y10617D02*
X-42619Y14517D01*
X-42950Y15317D02*
X6415D01*
X-46850Y11417D02*
X-42950Y15317D01*
X-124803Y11417D02*
X-46850D01*
X-25031Y9524D02*
X13564D01*
X-25669Y10161D02*
X-25031Y9524D01*
X-155905Y183465D02*
Y203543D01*
X-162992Y176378D02*
X-155905Y183465D01*
X-178740Y176378D02*
X-162992D01*
X-155905Y203543D02*
X-153937Y205512D01*
X-91657Y182996D02*
X-91339Y182677D01*
X-100713Y192051D02*
X-91657Y182996D01*
X-108827Y220941D02*
X-108509Y221260D01*
X17717D01*
X20866Y218110D01*
Y181496D02*
Y218110D01*
X20079Y168504D02*
X21110Y169535D01*
Y172275D01*
X20866Y172519D02*
X21110Y172275D01*
X20866Y172519D02*
Y181496D01*
X-18504Y166929D02*
X-18110Y167323D01*
Y177165D01*
X-27953Y161658D02*
X-26453Y163158D01*
X-27953Y160630D02*
Y161658D01*
X-26453Y163158D02*
Y168972D01*
X-29453Y160008D02*
Y164251D01*
Y160008D02*
X-27953Y158508D01*
Y157480D02*
Y158508D01*
X-41657Y163552D02*
X-39838Y161733D01*
X-41657Y163552D02*
Y165382D01*
X-42888Y166613D02*
X-41657Y165382D01*
X-42988Y156224D02*
Y165582D01*
X-48819Y169291D02*
X-44488Y164960D01*
X-45669Y168263D02*
X-42988Y165582D01*
X-32677Y175197D02*
X-26453Y168972D01*
X89764Y163779D02*
X90551Y164567D01*
X89764Y118110D02*
Y163779D01*
X-91220Y184917D02*
X-90673D01*
X-90551Y185039D01*
Y200635D01*
X-96776Y206859D02*
X-90551Y200635D01*
X-96776Y206859D02*
Y210314D01*
X-98785Y212324D02*
X-96776Y210314D01*
X-99213Y212324D02*
X-98785D01*
X-100713Y192051D02*
Y213461D01*
X-16772Y204724D02*
X-13386Y201339D01*
Y194488D02*
Y201339D01*
Y194488D02*
X-8661Y189764D01*
Y180861D02*
Y189764D01*
X-42888Y166613D02*
Y169812D01*
X-47091Y174016D02*
X-42888Y169812D01*
X-48819Y174016D02*
X-47091D01*
X61886Y142204D02*
Y161098D01*
Y142204D02*
X63705Y140385D01*
X1948Y165333D02*
X10410D01*
X394Y163779D02*
X1948Y165333D01*
X3543Y166929D02*
X9946D01*
X-75468Y179602D02*
X-73053Y177187D01*
X-94881Y179602D02*
X-75468D01*
X-73053Y177187D02*
X-72146Y176279D01*
X-73053Y177187D02*
X-73053D01*
X-38880Y140558D02*
X-35427D01*
X-39205Y140883D02*
X-38880Y140558D01*
X-43763Y140883D02*
X-39205D01*
X-39211Y139758D02*
X-35427D01*
X-39536Y140083D02*
X-39211Y139758D01*
X-43432Y140083D02*
X-39536D01*
X-148819Y51181D02*
X-140008D01*
X-156299Y58661D02*
Y70866D01*
Y58661D02*
X-148819Y51181D01*
X-148031Y51981D02*
X-139677D01*
X-154724Y58674D02*
X-148031Y51981D01*
X-154724Y58674D02*
Y74410D01*
X-152362Y57506D02*
Y77953D01*
Y57506D02*
X-147638Y52781D01*
X-139346D01*
X-154724Y74410D02*
X-154331Y74803D01*
Y75197D01*
X-146850Y53581D02*
X-139014D01*
X-150787Y57518D02*
X-146850Y53581D01*
X-150787Y57518D02*
Y73228D01*
X-139014Y53581D02*
X-128347Y42913D01*
X-139346Y52781D02*
X-129147Y42582D01*
X-130746Y13966D02*
Y41919D01*
X-140008Y51181D02*
X-130746Y41919D01*
X-129946Y14298D02*
Y42251D01*
X-139677Y51981D02*
X-129946Y42251D01*
X-129147Y14629D02*
Y42582D01*
Y14629D02*
X-125135Y10617D01*
X-128347Y14961D02*
Y42913D01*
X-130746Y13966D02*
X-125797Y9017D01*
X-129946Y14298D02*
X-125466Y9817D01*
X-128347Y14961D02*
X-124803Y11417D01*
X-45669Y168263D02*
Y170472D01*
X-48819Y169291D02*
Y170941D01*
X-46216Y153543D02*
X-45276D01*
X-47957Y155284D02*
X-46216Y153543D01*
X-47957Y155284D02*
Y165329D01*
X-51981Y169353D02*
X-47957Y165329D01*
X-43307Y155905D02*
X-42988Y156224D01*
X-39838Y151649D02*
Y161733D01*
Y151649D02*
X-38976Y150787D01*
X-46457Y163385D02*
Y164960D01*
X-51181Y169685D02*
X-46457Y164960D01*
X-51981Y169353D02*
Y169457D01*
X-60083Y177559D02*
X-51981Y169457D01*
X-51181Y169685D02*
Y173622D01*
X-60630Y177559D02*
X-60083D01*
X-29209Y60949D02*
Y93382D01*
X-29921Y94095D02*
X-29209Y93382D01*
X-29921Y60236D02*
X-29209Y60949D01*
X-47638Y50000D02*
X-47244Y49606D01*
X-47638Y50000D02*
Y94882D01*
X63705Y75419D02*
Y140385D01*
Y75419D02*
X68579Y70545D01*
Y65673D02*
Y70545D01*
Y65673D02*
X70079Y64173D01*
X-98032Y76378D02*
X-97638Y76772D01*
Y132677D01*
X-70040Y94133D02*
Y105118D01*
X-70079Y94095D02*
X-70040Y94133D01*
X-104724Y139764D02*
X-97638Y132677D01*
X-104724Y139764D02*
Y180709D01*
X-102437Y182996D01*
X-91657D01*
X101172Y133080D02*
X104331Y129921D01*
X101172Y133080D02*
Y159064D01*
X99606Y160630D02*
X101172Y159064D01*
X-99213Y212324D02*
X-98938Y212598D01*
X-100713Y213461D02*
X-99606Y214567D01*
X-65048Y140558D02*
X-62902D01*
X-59428Y137083D02*
X-47563D01*
X-63234Y139758D02*
X-59759Y136283D01*
X-65748Y139058D02*
X-65048Y139758D01*
X-35427Y139758D02*
X-34252Y138583D01*
X-65748Y141258D02*
X-65048Y140558D01*
X-35427Y140558D02*
X-34252Y141732D01*
X-65048Y139758D02*
X-63234D01*
X-62902Y140558D02*
X-59428Y137083D01*
X-47563D02*
X-44088Y140558D01*
X-59759Y136283D02*
X-47232D01*
X-47154Y136361D01*
X-47154D01*
X-69291Y139370D02*
Y139836D01*
X-66369Y142757D01*
X-63383D01*
X-62432Y141807D01*
X-50625D01*
X-48412Y144020D01*
X-30240D01*
X-29453Y143232D01*
X-26303D02*
X-24803Y141732D01*
X-29453Y143232D02*
X-26303D01*
X-35427Y127959D02*
X-34252Y129134D01*
X-35427Y127228D02*
Y127959D01*
X-69747Y127959D02*
X-67379Y125591D01*
X-72922Y127959D02*
X-69747D01*
X-73622Y128659D02*
X-72922Y127959D01*
X-67379Y125591D02*
X-61024D01*
X-59618Y126996D01*
X-36790D02*
X-36227Y127559D01*
X-73622Y126459D02*
X-72922Y127159D01*
X-70079D02*
X-67710Y124791D01*
X-72922Y127159D02*
X-70079D01*
X-67710Y124791D02*
X-60692D01*
X-59287Y126196D01*
X-36458D02*
X-35427Y127228D01*
X-37795Y129528D02*
X-36614D01*
X-36227Y129140D01*
Y127559D02*
Y129140D01*
X-8268Y74410D02*
X-7418Y75259D01*
Y95441D01*
X-6618Y93867D02*
Y95109D01*
Y93867D02*
X-4724Y91973D01*
Y90158D02*
Y91973D01*
X-9084Y118434D02*
Y123200D01*
Y118434D02*
X-4331Y113681D01*
Y95822D02*
Y113681D01*
Y95822D02*
X-3224Y94716D01*
X-12205Y120424D02*
Y125984D01*
X-12205Y125984D02*
X-12205Y125984D01*
X-15280Y126059D02*
X-12205Y129134D01*
X-15280Y113067D02*
Y126059D01*
X0Y24803D02*
Y31028D01*
X-20866Y113779D02*
Y122047D01*
X-21654Y122835D02*
X-20866Y122047D01*
X-59287Y126196D02*
X-49153D01*
X-49046Y126303D01*
X-47804D01*
X-47697Y126196D01*
X-36458D01*
X-59618Y126996D02*
X-49485D01*
X-49378Y127103D01*
X-47472D01*
X-47366Y126996D01*
X-36790D01*
X-70102Y151106D02*
X-69685Y150689D01*
X-69818Y156595D02*
X-67224D01*
X-71304Y158080D02*
X-69818Y156595D01*
Y160531D02*
X-67224D01*
X-71304Y159046D02*
X-69818Y160531D01*
X-94882Y155905D02*
X-94488D01*
X-98032Y147638D02*
X-96925Y146531D01*
X-98031Y150787D02*
X-96925Y149681D01*
X-98031Y162992D02*
X-97713Y162673D01*
X-94120D01*
X-98031Y166141D02*
X-93307D01*
X-90246Y163081D01*
X-73095Y161481D02*
X-72146Y160531D01*
X-94120Y162673D02*
X-92927Y161481D01*
X-69904Y162281D02*
X-69685Y162500D01*
X-94488Y164173D02*
X-92596Y162281D01*
X-71432Y163081D02*
X-69946Y164567D01*
X-67224D01*
X-79375Y166142D02*
X-70079D01*
X-69685Y166535D01*
X-98031Y169291D02*
X-82524D01*
X-79375Y166142D01*
X-94095Y170866D02*
X-74410D01*
X-72047Y168504D01*
X-73013Y170955D02*
X-71304D01*
X-69818Y172441D01*
X-67224D01*
X-75568Y173511D02*
X-73013Y170955D01*
X-81232Y173511D02*
X-75568D01*
X-97638Y175590D02*
X-83311D01*
X-81232Y173511D01*
X-80901Y174311D02*
X-69685D01*
X-97638Y178740D02*
X-85330D01*
X-80901Y174311D01*
X-99606Y181496D02*
X-96775D01*
X-94881Y179602D01*
X-94882Y153543D02*
X-94169Y154256D01*
X-90246Y163081D02*
X-71432D01*
X-92596Y162281D02*
X-69904D01*
X-92927Y161481D02*
X-73095D01*
X-94488Y160630D02*
X-80162D01*
X-94488Y155905D02*
X-92988Y157405D01*
X-80162Y160630D02*
X-78578Y159046D01*
X-71304D01*
X-92988Y157405D02*
X-80237D01*
X-79562Y158080D01*
X-71304D01*
X-78724Y154256D02*
X-78330Y154650D01*
X-74138D01*
X-72146Y152657D01*
X-96925Y146531D02*
X-94261D01*
X-92835Y147957D01*
X-87745D01*
X-94169Y154256D02*
X-78724D01*
X-87745Y147957D02*
X-86842Y148860D01*
X-85599D01*
X-86644Y152485D02*
X-85401D01*
X-84023Y151106D02*
X-70102D01*
X-96925Y149681D02*
X-89448D01*
X-86644Y152485D01*
X-85401D02*
X-84023Y151106D01*
X-70761Y144384D02*
X-69685Y143307D01*
X-70761Y145184D02*
X-69685Y146260D01*
X-72379Y144384D02*
X-70761D01*
X-72047Y145184D02*
X-70761D01*
X-72533Y145669D02*
X-72047Y145184D01*
X-81890Y145669D02*
X-72533D01*
X-72864Y144869D02*
X-72379Y144384D01*
X-82221Y144869D02*
X-72864D01*
X-82788Y146568D02*
X-81890Y145669D01*
X-83120Y145768D02*
X-82221Y144869D01*
X-85800Y145768D02*
X-83120D01*
X-85428Y146568D02*
X-82788D01*
X-86221Y147360D02*
X-85428Y146568D01*
X-86408Y145160D02*
X-85800Y145768D01*
X-69685Y146260D02*
X-68609Y145184D01*
X-35889Y148757D02*
X-34646Y150000D01*
X-69685Y143307D02*
X-68609Y144384D01*
X-35558Y147957D02*
X-33846Y149669D01*
X-85599Y148860D02*
X-84771Y148031D01*
X-71304Y150206D02*
X-69818Y148721D01*
X-73416Y150206D02*
X-71304D01*
X-75590Y148031D02*
X-73416Y150206D01*
X-69818Y148721D02*
X-67224D01*
X-84771Y148031D02*
X-75590D01*
X-176378Y128347D02*
X-148819D01*
X-136614Y140551D01*
X61886Y161098D02*
X65994Y165207D01*
Y175197D01*
X-116779Y221579D02*
X-116142Y220941D01*
X-128421Y221579D02*
X-116779D01*
X-135039Y214961D02*
X-128421Y221579D01*
X-135039Y208268D02*
Y214961D01*
X-137795Y205512D02*
X-135039Y208268D01*
X-116142Y220941D02*
X-108827D01*
X-153937Y205512D02*
X-137795D01*
X-132283Y210630D02*
X-131102Y211811D01*
X-132283Y191732D02*
Y210630D01*
D67*
X-8737Y174761D02*
X-6727Y176772D01*
X-6693D01*
X-8737Y170410D02*
Y174761D01*
X-12218Y166929D02*
X-8737Y170410D01*
X-14018Y171415D02*
X-10630Y174803D01*
X-14018Y165009D02*
Y171415D01*
X-13533Y163034D02*
Y164525D01*
X-13533Y163034D02*
X-13533Y163034D01*
X-13533Y161440D02*
Y163034D01*
X-14018Y165009D02*
X-13533Y164525D01*
X-13533Y161440D02*
X-13512Y161418D01*
Y159322D02*
Y161418D01*
X-15354Y157480D02*
X-13512Y159322D01*
X-55118Y146457D02*
X-54105Y145444D01*
X-30540D01*
X-27953Y148031D01*
X-105905Y120669D02*
X-100000D01*
X-119685Y201575D02*
Y212205D01*
Y201575D02*
X-106299Y188189D01*
D70*
X76378Y6299D02*
X84252Y14173D01*
X74410Y4331D02*
X76378Y6299D01*
X175984Y146063D02*
X176378D01*
X181496Y140945D01*
Y127165D02*
Y140945D01*
X177953Y123622D02*
X181496Y127165D01*
X146850Y123622D02*
X177953D01*
X142520Y119291D02*
X146850Y123622D01*
X-135433Y4331D02*
Y35827D01*
X-148425D02*
X-135433D01*
Y4331D02*
X74410D01*
X84252Y14173D02*
X91732D01*
D115*
X224409Y230315D02*
Y261811D01*
X-196851Y230315D02*
X196850D01*
Y261811D02*
X224409D01*
X196850Y230315D02*
X224410D01*
X196850D02*
Y261811D01*
X-196851Y230315D02*
X132283D01*
X-224409Y230315D02*
Y261811D01*
Y230315D02*
X-196850D01*
X-196850Y230315D02*
Y261811D01*
X-224410Y261811D02*
X-193307D01*
X-196851Y261811D02*
X196850D01*
X224410Y-31496D02*
Y-0D01*
X196851Y0D02*
X224410D01*
X224410Y0D01*
X196851Y-31496D02*
Y-0D01*
Y-31496D02*
X224410D01*
X224410Y0D02*
X224410Y-0D01*
X-224409Y-31496D02*
X-196850D01*
X-224409D02*
Y-0D01*
X-196850D01*
Y-31496D02*
Y-0D01*
Y-31496D02*
X196851D01*
X-196850Y0D02*
X196851D01*
X-224409Y250000D02*
X-224409Y-31496D01*
X196850Y250000D02*
X196851Y-19685D01*
X224410Y250000D02*
X224410Y-19685D01*
X-196850Y-31496D02*
Y250000D01*
D116*
X-135827Y201181D02*
D03*
D122*
X104331Y129921D02*
D03*
D134*
X-16772Y204724D02*
D03*
D136*
X-787Y81890D02*
D03*
X27165Y147244D02*
D03*
X20472Y154330D02*
D03*
X22441Y150787D02*
D03*
X22489Y155743D02*
D03*
X13141Y154518D02*
D03*
X105118Y92520D02*
D03*
X119291Y186221D02*
D03*
X132283Y159843D02*
D03*
X124803Y168898D02*
D03*
X12598Y113386D02*
D03*
X26772D02*
D03*
X27165Y151968D02*
D03*
X28740Y157874D02*
D03*
X29134Y161024D02*
D03*
X25591Y157480D02*
D03*
X26772Y160630D02*
D03*
X12992Y54724D02*
D03*
X8661Y62205D02*
D03*
X7087Y53337D02*
D03*
X2756Y113386D02*
D03*
X394Y34252D02*
D03*
X-132283Y191732D02*
D03*
X-10630Y174803D02*
D03*
X-3937Y174015D02*
D03*
X-70472Y199606D02*
D03*
X18110Y187402D02*
D03*
X17323Y10630D02*
D03*
X27165Y189764D02*
D03*
X-178740Y176378D02*
D03*
X20866Y181496D02*
D03*
X-18504Y166929D02*
D03*
X-27953Y160630D02*
D03*
X-27953Y157480D02*
D03*
X-40157Y164173D02*
D03*
X-44488Y164960D02*
D03*
X90551Y164567D02*
D03*
X89764Y118110D02*
D03*
X-91220Y184917D02*
D03*
X-6693Y176772D02*
D03*
X-15945Y187008D02*
D03*
X175984Y146063D02*
D03*
X142520Y119291D02*
D03*
X-48819Y174016D02*
D03*
X-12218Y166929D02*
D03*
X-15354Y157480D02*
D03*
X34252Y58268D02*
D03*
X24803Y180709D02*
D03*
X3543Y163779D02*
D03*
X20079Y168504D02*
D03*
X3543Y166929D02*
D03*
X-156299Y70866D02*
D03*
X-154331Y75197D02*
D03*
X-152362Y77953D02*
D03*
X-150787Y73228D02*
D03*
X-18110Y177165D02*
D03*
X-38976Y150787D02*
D03*
X-43307Y155905D02*
D03*
X-46457Y163385D02*
D03*
X-45669Y170472D02*
D03*
X-48819Y170941D02*
D03*
X-51181Y173622D02*
D03*
X-60630Y177559D02*
D03*
X-32677Y175197D02*
D03*
X-29921Y60236D02*
D03*
Y94095D02*
D03*
X-47244Y49606D02*
D03*
X-47638Y94882D02*
D03*
X70079Y64173D02*
D03*
X-98032Y76378D02*
D03*
X99606Y160630D02*
D03*
X-99213Y212324D02*
D03*
X-99606Y214567D02*
D03*
X-91339Y182677D02*
D03*
X-148425Y35827D02*
D03*
X-151181D02*
D03*
X84252Y14173D02*
D03*
Y6299D02*
D03*
X92126D02*
D03*
Y14173D02*
D03*
Y22047D02*
D03*
X84252D02*
D03*
X76378D02*
D03*
Y14173D02*
D03*
Y6299D02*
D03*
X-13780Y114567D02*
D03*
X-8268Y74410D02*
D03*
X-14567Y111024D02*
D03*
X-16535Y74410D02*
D03*
X-45276Y153543D02*
D03*
X-27953Y148031D02*
D03*
X-65748Y139058D02*
D03*
X-34252Y138583D02*
D03*
X-65748Y141258D02*
D03*
X-34252Y141732D02*
D03*
X-55118Y146457D02*
D03*
X-69291Y139370D02*
D03*
X-24803Y141732D02*
D03*
X-34252Y129134D02*
D03*
X-73622Y128659D02*
D03*
Y126459D02*
D03*
X-37795Y129528D02*
D03*
X-21654Y122835D02*
D03*
X-4724Y90158D02*
D03*
X-9084Y123200D02*
D03*
X-4724Y70472D02*
D03*
X-12205Y129134D02*
D03*
X-12205Y125984D02*
D03*
X-16535Y70472D02*
D03*
X7874Y26772D02*
D03*
X5906Y25197D02*
D03*
X0Y24803D02*
D03*
X1969Y22835D02*
D03*
X9449Y20472D02*
D03*
X3937Y19685D02*
D03*
X394Y163779D02*
D03*
X-20866Y113779D02*
D03*
X-70079Y94095D02*
D03*
X-70040Y105118D02*
D03*
X-94882Y153543D02*
D03*
Y155905D02*
D03*
X-98032Y147638D02*
D03*
X-98031Y150787D02*
D03*
X-94488Y160630D02*
D03*
X-98031Y162992D02*
D03*
X-94488Y164173D02*
D03*
X-98031Y166141D02*
D03*
Y169291D02*
D03*
X-94095Y170866D02*
D03*
X-97638Y175590D02*
D03*
Y178740D02*
D03*
X-99606Y181496D02*
D03*
X-106299Y188189D02*
D03*
X-105905Y120669D02*
D03*
X-100000D02*
D03*
X-119685Y212205D02*
D03*
X-86408Y145160D02*
D03*
X-86221Y147360D02*
D03*
X-34252Y163779D02*
D03*
X-31102D02*
D03*
X-176378Y128347D02*
D03*
X65994Y175197D02*
D03*
X-131102Y211811D02*
D03*
D161*
X84646Y14173D02*
D03*
M02*
