G04 Layer_Physical_Order=1*
G04 Layer_Color=65280*
%FSLAX25Y25*%
%MOIN*%
G70*
G01*
G75*
G04:AMPARAMS|DCode=10|XSize=18.7mil|YSize=25mil|CornerRadius=4.68mil|HoleSize=0mil|Usage=FLASHONLY|Rotation=90.000|XOffset=0mil|YOffset=0mil|HoleType=Round|Shape=RoundedRectangle|*
%AMROUNDEDRECTD10*
21,1,0.01870,0.01565,0,0,90.0*
21,1,0.00935,0.02500,0,0,90.0*
1,1,0.00935,0.00783,0.00468*
1,1,0.00935,0.00783,-0.00468*
1,1,0.00935,-0.00783,-0.00468*
1,1,0.00935,-0.00783,0.00468*
%
%ADD10ROUNDEDRECTD10*%
G04:AMPARAMS|DCode=11|XSize=18.7mil|YSize=25mil|CornerRadius=4.68mil|HoleSize=0mil|Usage=FLASHONLY|Rotation=0.000|XOffset=0mil|YOffset=0mil|HoleType=Round|Shape=RoundedRectangle|*
%AMROUNDEDRECTD11*
21,1,0.01870,0.01565,0,0,0.0*
21,1,0.00935,0.02500,0,0,0.0*
1,1,0.00935,0.00468,-0.00783*
1,1,0.00935,-0.00468,-0.00783*
1,1,0.00935,-0.00468,0.00783*
1,1,0.00935,0.00468,0.00783*
%
%ADD11ROUNDEDRECTD11*%
%ADD12R,0.02362X0.01654*%
%ADD13R,0.05906X0.05906*%
%ADD14R,0.03543X0.03543*%
%ADD15R,0.05315X0.05000*%
%ADD16R,0.03500X0.03500*%
%ADD17R,0.03937X0.03937*%
%ADD18R,0.01575X0.01969*%
%ADD19R,0.01575X0.02559*%
%ADD20R,0.02362X0.01181*%
%ADD21R,0.02953X0.04331*%
%ADD22R,0.04606X0.07087*%
%ADD23R,0.06102X0.05315*%
%ADD24R,0.04724X0.04331*%
%ADD25R,0.07480X0.05315*%
%ADD26C,0.03500*%
%ADD27R,0.05512X0.06299*%
%ADD28R,0.05669X0.06299*%
%ADD29R,0.07874X0.07874*%
%ADD30R,0.05315X0.01575*%
%ADD31R,0.13780X0.04409*%
%ADD32R,0.03500X0.03500*%
%ADD33R,0.05000X0.05315*%
%ADD34R,0.02658X0.00787*%
%ADD35R,0.06102X0.01575*%
%ADD36R,0.05315X0.02559*%
%ADD37R,0.06299X0.05906*%
%ADD38R,0.18898X0.18898*%
%ADD39R,0.03543X0.05512*%
%ADD40R,0.01969X0.01969*%
%ADD41R,0.05906X0.05906*%
%ADD42R,0.01969X0.01969*%
%ADD43R,0.03937X0.03937*%
%ADD44R,0.01969X0.01575*%
%ADD45R,0.02559X0.01575*%
%ADD46R,0.02500X0.01500*%
%ADD47R,0.02500X0.01100*%
%ADD48R,0.01500X0.02500*%
%ADD49R,0.01100X0.02500*%
%ADD50R,0.09843X0.06890*%
%ADD51C,0.01378*%
%ADD52C,0.01772*%
%ADD53R,0.01181X0.03150*%
%ADD54R,0.09370X0.06496*%
%ADD55R,0.06299X0.10236*%
%ADD56R,0.03347X0.01181*%
%ADD57R,0.03150X0.01181*%
%ADD58R,0.06496X0.09370*%
%ADD59R,0.01654X0.02362*%
%ADD60R,0.01102X0.03937*%
%ADD61R,0.14764X0.14764*%
%ADD62R,0.03937X0.01102*%
%ADD63R,0.02165X0.03150*%
%ADD64R,0.03937X0.06890*%
%ADD65R,0.04331X0.05118*%
%ADD66C,0.00400*%
%ADD67C,0.01000*%
%ADD68C,0.02000*%
%ADD69C,0.02500*%
%ADD70C,0.04500*%
%ADD71C,0.00800*%
%ADD72C,0.01500*%
%ADD73R,0.05906X0.03543*%
%ADD74R,0.08563X0.11024*%
%ADD75R,0.08268X0.05906*%
%ADD76R,0.16142X0.16142*%
%ADD77R,0.05512X0.03150*%
%ADD78R,0.06299X0.09843*%
%ADD79R,0.11811X0.11024*%
%ADD80R,0.16535X0.16929*%
%ADD81R,0.23622X0.08661*%
%ADD82R,0.11024X0.07874*%
%ADD83R,0.16929X0.06299*%
%ADD84R,0.07874X0.03150*%
%ADD85R,0.12205X0.10630*%
%ADD86R,0.12992X0.11417*%
%ADD87R,0.04724X0.03150*%
%ADD88R,0.06693X0.11024*%
%ADD89R,0.12205X0.05906*%
%ADD90R,0.09843X0.04331*%
%ADD91R,0.14567X0.14173*%
%ADD92R,0.11417X0.04724*%
%ADD93R,0.09055X0.04724*%
%ADD94R,0.11024X0.04724*%
%ADD95R,0.04331X0.16929*%
%ADD96R,0.11417X0.21654*%
%ADD97R,0.46457X0.11811*%
%ADD98R,0.13386X0.26378*%
%ADD99R,0.12205X0.03543*%
%ADD100R,0.07874X0.16535*%
%ADD101R,0.15551X0.10531*%
%ADD102R,0.25984X0.06890*%
%ADD103R,0.19685X0.25984*%
%ADD104R,0.03937X0.14961*%
%ADD105R,0.12205X0.07874*%
%ADD106R,0.07480X0.17323*%
%ADD107R,0.14173X0.19685*%
%ADD108R,0.28346X0.17716*%
%ADD109R,0.17323X0.09055*%
%ADD110R,0.23228X0.07480*%
%ADD111R,0.16142X0.10236*%
%ADD112R,0.08268X0.05512*%
%ADD113R,0.09055X0.18504*%
%ADD114R,0.06299X0.03150*%
%ADD115C,0.00500*%
%ADD116C,0.03937*%
%ADD117C,0.10827*%
%ADD118O,0.05906X0.15748*%
%ADD119O,0.05906X0.13780*%
%ADD120O,0.05118X0.11811*%
%ADD121O,0.11811X0.05118*%
%ADD122C,0.05118*%
%ADD123R,0.05118X0.05118*%
%ADD124O,0.06299X0.03543*%
%ADD125O,0.12992X0.07087*%
%ADD126C,0.05000*%
%ADD127C,0.07874*%
%ADD128C,0.12795*%
%ADD129C,0.05906*%
%ADD130O,0.07087X0.12992*%
%ADD131C,0.06890*%
%ADD132R,0.06890X0.06890*%
%ADD133R,0.07000X0.07000*%
%ADD134C,0.07000*%
%ADD135R,0.06890X0.06890*%
%ADD136C,0.01800*%
D10*
X-175984Y212795D02*
D03*
Y216142D02*
D03*
X-113386Y122343D02*
D03*
Y125689D02*
D03*
X-90158Y138878D02*
D03*
Y142224D02*
D03*
X-124409Y214469D02*
D03*
Y217815D02*
D03*
X-72835Y104232D02*
D03*
Y107579D02*
D03*
X-94882Y130610D02*
D03*
Y133957D02*
D03*
Y138878D02*
D03*
Y142224D02*
D03*
X-42520Y171555D02*
D03*
Y174902D02*
D03*
X20866Y40059D02*
D03*
Y43406D02*
D03*
X55118Y73524D02*
D03*
Y76870D02*
D03*
X59842D02*
D03*
Y73524D02*
D03*
X66929Y76870D02*
D03*
Y73524D02*
D03*
X-119685Y217815D02*
D03*
Y214469D02*
D03*
X16535Y25492D02*
D03*
Y28839D02*
D03*
X-77953Y104232D02*
D03*
Y107579D02*
D03*
X26378Y28445D02*
D03*
Y25098D02*
D03*
X-137008Y117028D02*
D03*
Y113681D02*
D03*
X-20472Y190059D02*
D03*
Y193405D02*
D03*
D11*
X14862Y177953D02*
D03*
X18209D02*
D03*
X-129626Y106201D02*
D03*
X-126279D02*
D03*
X-38681Y190157D02*
D03*
X-35335D02*
D03*
X-25098D02*
D03*
X-28445D02*
D03*
X-106791Y142126D02*
D03*
X-103445D02*
D03*
X-112500Y168110D02*
D03*
X-115847D02*
D03*
X-112500Y156693D02*
D03*
X-115847D02*
D03*
X-107185Y181496D02*
D03*
X-103839D02*
D03*
X37106Y152756D02*
D03*
X33760D02*
D03*
X31201Y51968D02*
D03*
X27854D02*
D03*
X-116831Y177953D02*
D03*
X-120177D02*
D03*
X9547Y190157D02*
D03*
X6201D02*
D03*
X14862Y182283D02*
D03*
X18209D02*
D03*
X32185Y14961D02*
D03*
X35531D02*
D03*
X32185Y9843D02*
D03*
X35531D02*
D03*
X44587Y152756D02*
D03*
X41240D02*
D03*
X50689Y175197D02*
D03*
X54035D02*
D03*
X60138D02*
D03*
X63484D02*
D03*
X41043Y51968D02*
D03*
X37697D02*
D03*
X-120177Y182677D02*
D03*
X-116831D02*
D03*
X-115059Y222441D02*
D03*
X-111713D02*
D03*
X63681Y81496D02*
D03*
X67028D02*
D03*
X-166437Y224410D02*
D03*
X-169783D02*
D03*
D12*
X-91142Y103347D02*
D03*
Y105905D02*
D03*
Y108465D02*
D03*
X-83661D02*
D03*
Y105905D02*
D03*
X-83661Y103347D02*
D03*
D13*
X-190945Y117520D02*
D03*
X-190847Y103740D02*
D03*
X-190945Y138779D02*
D03*
X-190846Y125000D02*
D03*
X-190945Y160433D02*
D03*
X-190846Y146653D02*
D03*
X-190945Y182087D02*
D03*
X-190846Y168307D02*
D03*
X-190945Y203740D02*
D03*
X-190846Y189961D02*
D03*
Y211614D02*
D03*
X-190945Y225394D02*
D03*
X-59842Y185827D02*
D03*
X-45669D02*
D03*
X-118504Y193701D02*
D03*
X-104331D02*
D03*
X102953Y66535D02*
D03*
X69488Y135039D02*
D03*
Y100394D02*
D03*
X103347D02*
D03*
D14*
X-188386Y110630D02*
D03*
X-188386Y131890D02*
D03*
Y153543D02*
D03*
Y175197D02*
D03*
Y196850D02*
D03*
Y218504D02*
D03*
D15*
X70473Y160236D02*
D03*
Y168110D02*
D03*
X74410Y58661D02*
D03*
Y66535D02*
D03*
X39370Y81890D02*
D03*
Y89764D02*
D03*
X-85827Y189370D02*
D03*
Y181496D02*
D03*
X-95276Y189764D02*
D03*
Y197638D02*
D03*
X42913Y44488D02*
D03*
Y36614D02*
D03*
X27165Y173622D02*
D03*
Y165748D02*
D03*
D16*
X-95276Y207480D02*
D03*
Y213779D02*
D03*
D17*
X66535Y25984D02*
D03*
D18*
X70276Y29921D02*
D03*
Y22047D02*
D03*
X67716D02*
D03*
X65158Y29921D02*
D03*
X67716D02*
D03*
X65158Y22047D02*
D03*
D19*
X70276Y25984D02*
D03*
D20*
X-57578Y54233D02*
D03*
X-62894Y54232D02*
D03*
Y52067D02*
D03*
X-57579D02*
D03*
Y58760D02*
D03*
X-62894D02*
D03*
Y60925D02*
D03*
X-57578Y60926D02*
D03*
X-159744Y29035D02*
D03*
X-159745Y26870D02*
D03*
X-154429Y29035D02*
D03*
Y26870D02*
D03*
X-111122Y66634D02*
D03*
X-116437D02*
D03*
Y68799D02*
D03*
X-111122Y68800D02*
D03*
D21*
X-2756Y6693D02*
D03*
X-7087D02*
D03*
X-11417D02*
D03*
X-15748D02*
D03*
X-20079D02*
D03*
X-24409D02*
D03*
X-28740D02*
D03*
X-33071D02*
D03*
D22*
X-37795Y8071D02*
D03*
D23*
X6791Y7185D02*
D03*
D24*
X7283Y30709D02*
D03*
Y45079D02*
D03*
D25*
X-29429Y48819D02*
D03*
X-6102D02*
D03*
D26*
X210630Y13779D02*
D03*
X-212598Y216535D02*
D03*
D27*
X-175394Y7087D02*
D03*
D28*
Y32283D02*
D03*
D29*
X-184744Y15551D02*
D03*
Y23819D02*
D03*
D30*
X-175197Y14567D02*
D03*
Y17126D02*
D03*
Y24803D02*
D03*
Y22244D02*
D03*
Y19685D02*
D03*
D31*
X-139764Y82677D02*
D03*
Y72835D02*
D03*
Y64961D02*
D03*
Y55118D02*
D03*
D32*
X-107087Y116142D02*
D03*
X-100787D02*
D03*
D33*
X60630Y15354D02*
D03*
X68504D02*
D03*
X89764Y29921D02*
D03*
X97638D02*
D03*
D34*
X-70276Y52756D02*
D03*
Y54724D02*
D03*
Y58661D02*
D03*
Y60630D02*
D03*
X-73819D02*
D03*
Y58661D02*
D03*
Y54724D02*
D03*
Y52756D02*
D03*
X-126969Y60630D02*
D03*
Y62598D02*
D03*
Y68504D02*
D03*
Y66535D02*
D03*
X-123425D02*
D03*
Y68504D02*
D03*
Y62598D02*
D03*
Y60630D02*
D03*
D35*
X-72047Y56693D02*
D03*
X-125197Y64567D02*
D03*
D36*
X-165354Y35827D02*
D03*
X-155905D02*
D03*
D37*
X107087Y18504D02*
D03*
Y9843D02*
D03*
D38*
X92126Y14173D02*
D03*
D39*
X21260Y18602D02*
D03*
X17323Y10630D02*
D03*
X25197D02*
D03*
D40*
X5118Y184646D02*
D03*
Y180709D02*
D03*
X10630Y182677D02*
D03*
D41*
X39764Y159449D02*
D03*
Y173622D02*
D03*
X43701Y58661D02*
D03*
Y72835D02*
D03*
X-122047Y21063D02*
D03*
X-92520Y56890D02*
D03*
X-114961Y80512D02*
D03*
D42*
X35433Y28346D02*
D03*
X31496D02*
D03*
X33465Y22835D02*
D03*
D43*
X79232Y28740D02*
D03*
D44*
X75295Y32480D02*
D03*
X83169D02*
D03*
Y29921D02*
D03*
X75295Y27362D02*
D03*
Y29921D02*
D03*
X83169Y27362D02*
D03*
D45*
X79232Y32480D02*
D03*
D46*
X-102953Y170472D02*
D03*
Y176673D02*
D03*
X-107283D02*
D03*
Y170472D02*
D03*
X-102953Y147638D02*
D03*
Y153839D02*
D03*
X-107283D02*
D03*
Y147638D02*
D03*
X-102953Y159055D02*
D03*
Y165256D02*
D03*
X-107283D02*
D03*
Y159055D02*
D03*
D47*
X-102953Y172638D02*
D03*
Y174606D02*
D03*
X-107283D02*
D03*
Y172638D02*
D03*
X-102953Y149803D02*
D03*
Y151772D02*
D03*
X-107283D02*
D03*
Y149803D02*
D03*
X-102953Y161221D02*
D03*
Y163189D02*
D03*
X-107283D02*
D03*
Y161221D02*
D03*
D48*
X-20079Y180118D02*
D03*
X-13878D02*
D03*
Y184449D02*
D03*
X-20079D02*
D03*
X-6299Y180118D02*
D03*
X-98D02*
D03*
Y184449D02*
D03*
X-6299D02*
D03*
X-59842Y107996D02*
D03*
X-66043D02*
D03*
Y103665D02*
D03*
X-59842D02*
D03*
D49*
X-17913Y180118D02*
D03*
X-15945D02*
D03*
Y184449D02*
D03*
X-17913D02*
D03*
X-4134Y180118D02*
D03*
X-2165D02*
D03*
Y184449D02*
D03*
X-4134D02*
D03*
X-62008Y107996D02*
D03*
X-63976D02*
D03*
Y103665D02*
D03*
X-62008D02*
D03*
D50*
X107087Y43701D02*
D03*
X91339Y43799D02*
D03*
D51*
X-35827Y171654D02*
D03*
Y168504D02*
D03*
Y165354D02*
D03*
Y162205D02*
D03*
Y159055D02*
D03*
Y155905D02*
D03*
Y152756D02*
D03*
Y149606D02*
D03*
Y146457D02*
D03*
Y143307D02*
D03*
Y140157D02*
D03*
Y137008D02*
D03*
Y133858D02*
D03*
Y127559D02*
D03*
Y124409D02*
D03*
Y121260D02*
D03*
X-32677Y171654D02*
D03*
Y168504D02*
D03*
Y165354D02*
D03*
Y162205D02*
D03*
Y159055D02*
D03*
Y155905D02*
D03*
Y152756D02*
D03*
Y149606D02*
D03*
Y146457D02*
D03*
Y143307D02*
D03*
Y140157D02*
D03*
Y137008D02*
D03*
Y133858D02*
D03*
Y127559D02*
D03*
Y124409D02*
D03*
Y121260D02*
D03*
X-29528Y171654D02*
D03*
Y168504D02*
D03*
Y165354D02*
D03*
Y162205D02*
D03*
Y159055D02*
D03*
Y155905D02*
D03*
Y152756D02*
D03*
Y149606D02*
D03*
Y146457D02*
D03*
Y143307D02*
D03*
Y140157D02*
D03*
Y137008D02*
D03*
Y133858D02*
D03*
Y130709D02*
D03*
Y127559D02*
D03*
Y124409D02*
D03*
Y121260D02*
D03*
X-26378Y171654D02*
D03*
Y168504D02*
D03*
Y165354D02*
D03*
Y162205D02*
D03*
Y159055D02*
D03*
Y155905D02*
D03*
Y152756D02*
D03*
Y149606D02*
D03*
Y146457D02*
D03*
Y143307D02*
D03*
Y140157D02*
D03*
Y137008D02*
D03*
Y133858D02*
D03*
Y130709D02*
D03*
Y127559D02*
D03*
Y124409D02*
D03*
Y121260D02*
D03*
X-23228Y171654D02*
D03*
Y168504D02*
D03*
Y165354D02*
D03*
Y162205D02*
D03*
Y159055D02*
D03*
Y155905D02*
D03*
Y152756D02*
D03*
Y149606D02*
D03*
Y146457D02*
D03*
Y143307D02*
D03*
Y140157D02*
D03*
Y137008D02*
D03*
Y133858D02*
D03*
Y130709D02*
D03*
Y127559D02*
D03*
Y124409D02*
D03*
Y121260D02*
D03*
X-20079Y171654D02*
D03*
Y168504D02*
D03*
Y165354D02*
D03*
Y162205D02*
D03*
Y159055D02*
D03*
Y155905D02*
D03*
Y152756D02*
D03*
Y149606D02*
D03*
Y146457D02*
D03*
Y143307D02*
D03*
Y140157D02*
D03*
Y137008D02*
D03*
Y133858D02*
D03*
Y130709D02*
D03*
Y127559D02*
D03*
Y124409D02*
D03*
Y121260D02*
D03*
X-16929Y171654D02*
D03*
Y168504D02*
D03*
Y165354D02*
D03*
Y162205D02*
D03*
Y159055D02*
D03*
Y155905D02*
D03*
Y152756D02*
D03*
Y149606D02*
D03*
Y146457D02*
D03*
Y143307D02*
D03*
Y140157D02*
D03*
Y137008D02*
D03*
Y133858D02*
D03*
Y130709D02*
D03*
Y127559D02*
D03*
Y124409D02*
D03*
Y121260D02*
D03*
X-13780Y171654D02*
D03*
Y168504D02*
D03*
Y165354D02*
D03*
Y162205D02*
D03*
Y159055D02*
D03*
Y155905D02*
D03*
Y152756D02*
D03*
Y149606D02*
D03*
Y146457D02*
D03*
Y143307D02*
D03*
Y140157D02*
D03*
Y137008D02*
D03*
Y133858D02*
D03*
Y130709D02*
D03*
Y127559D02*
D03*
Y124409D02*
D03*
Y121260D02*
D03*
X-10630Y171654D02*
D03*
Y168504D02*
D03*
Y165354D02*
D03*
Y162205D02*
D03*
Y159055D02*
D03*
Y155905D02*
D03*
Y152756D02*
D03*
Y149606D02*
D03*
Y146457D02*
D03*
Y143307D02*
D03*
Y140157D02*
D03*
Y137008D02*
D03*
Y133858D02*
D03*
Y130709D02*
D03*
Y127559D02*
D03*
Y124409D02*
D03*
Y121260D02*
D03*
X-7480Y171654D02*
D03*
Y168504D02*
D03*
Y165354D02*
D03*
Y162205D02*
D03*
Y159055D02*
D03*
Y155905D02*
D03*
Y152756D02*
D03*
Y149606D02*
D03*
Y146457D02*
D03*
Y143307D02*
D03*
Y140157D02*
D03*
Y137008D02*
D03*
Y133858D02*
D03*
Y130709D02*
D03*
Y127559D02*
D03*
Y124409D02*
D03*
Y121260D02*
D03*
X-4331Y171654D02*
D03*
Y168504D02*
D03*
Y165354D02*
D03*
Y162205D02*
D03*
Y159055D02*
D03*
Y155905D02*
D03*
Y152756D02*
D03*
Y149606D02*
D03*
Y146457D02*
D03*
Y143307D02*
D03*
Y140157D02*
D03*
Y137008D02*
D03*
Y133858D02*
D03*
Y130709D02*
D03*
Y127559D02*
D03*
Y124409D02*
D03*
Y121260D02*
D03*
X-1181Y171654D02*
D03*
Y168504D02*
D03*
Y165354D02*
D03*
Y162205D02*
D03*
Y159055D02*
D03*
Y155905D02*
D03*
Y152756D02*
D03*
Y149606D02*
D03*
Y146457D02*
D03*
Y143307D02*
D03*
Y140157D02*
D03*
Y137008D02*
D03*
Y133858D02*
D03*
Y130709D02*
D03*
Y127559D02*
D03*
Y124409D02*
D03*
Y121260D02*
D03*
X1969Y171654D02*
D03*
Y168504D02*
D03*
Y165354D02*
D03*
Y162205D02*
D03*
Y159055D02*
D03*
Y155905D02*
D03*
Y152756D02*
D03*
Y149606D02*
D03*
Y146457D02*
D03*
Y143307D02*
D03*
Y140157D02*
D03*
Y137008D02*
D03*
Y133858D02*
D03*
Y130709D02*
D03*
Y127559D02*
D03*
Y124409D02*
D03*
Y121260D02*
D03*
X5118Y171654D02*
D03*
Y168504D02*
D03*
Y165354D02*
D03*
Y162205D02*
D03*
Y159055D02*
D03*
Y155905D02*
D03*
Y152756D02*
D03*
Y149606D02*
D03*
Y146457D02*
D03*
Y143307D02*
D03*
Y140157D02*
D03*
Y137008D02*
D03*
Y133858D02*
D03*
Y130709D02*
D03*
Y127559D02*
D03*
Y124409D02*
D03*
Y121260D02*
D03*
X8268Y171654D02*
D03*
Y168504D02*
D03*
Y165354D02*
D03*
Y162205D02*
D03*
Y159055D02*
D03*
Y155905D02*
D03*
Y152756D02*
D03*
Y149606D02*
D03*
Y146457D02*
D03*
Y143307D02*
D03*
Y140157D02*
D03*
Y137008D02*
D03*
Y133858D02*
D03*
Y130709D02*
D03*
Y127559D02*
D03*
Y124409D02*
D03*
Y121260D02*
D03*
X11417Y171654D02*
D03*
Y168504D02*
D03*
Y165354D02*
D03*
Y162205D02*
D03*
Y159055D02*
D03*
Y155905D02*
D03*
Y152756D02*
D03*
Y149606D02*
D03*
Y146457D02*
D03*
Y143307D02*
D03*
Y140157D02*
D03*
Y137008D02*
D03*
Y133858D02*
D03*
Y130709D02*
D03*
Y127559D02*
D03*
Y124409D02*
D03*
Y121260D02*
D03*
X14567Y171654D02*
D03*
Y168504D02*
D03*
Y165354D02*
D03*
Y162205D02*
D03*
Y159055D02*
D03*
Y155905D02*
D03*
Y152756D02*
D03*
Y149606D02*
D03*
Y146457D02*
D03*
Y143307D02*
D03*
Y140157D02*
D03*
Y137008D02*
D03*
Y133858D02*
D03*
Y130709D02*
D03*
Y127559D02*
D03*
Y124409D02*
D03*
Y121260D02*
D03*
Y118110D02*
D03*
X11417D02*
D03*
X8268D02*
D03*
X5118D02*
D03*
X1969D02*
D03*
X-1181D02*
D03*
X-4331D02*
D03*
X-7480D02*
D03*
X-10630D02*
D03*
X-13780D02*
D03*
X-16929D02*
D03*
X-20079D02*
D03*
X-23228D02*
D03*
X-26378D02*
D03*
X-29528D02*
D03*
X-32677D02*
D03*
X-35827D02*
D03*
X17717D02*
D03*
Y121260D02*
D03*
Y124409D02*
D03*
Y127559D02*
D03*
Y130709D02*
D03*
Y133858D02*
D03*
Y137008D02*
D03*
Y140157D02*
D03*
Y143307D02*
D03*
Y146457D02*
D03*
Y149606D02*
D03*
Y152756D02*
D03*
Y155905D02*
D03*
Y159055D02*
D03*
Y162205D02*
D03*
Y165354D02*
D03*
Y168504D02*
D03*
Y171654D02*
D03*
X-32677Y130709D02*
D03*
X-35827D02*
D03*
X-82284Y170079D02*
D03*
Y166929D02*
D03*
Y163779D02*
D03*
Y160630D02*
D03*
Y157480D02*
D03*
Y154331D02*
D03*
Y151181D02*
D03*
Y148031D02*
D03*
Y144882D02*
D03*
Y141732D02*
D03*
Y138583D02*
D03*
Y135433D02*
D03*
Y132283D02*
D03*
Y129134D02*
D03*
Y125984D02*
D03*
Y122835D02*
D03*
X-79134Y170079D02*
D03*
Y166929D02*
D03*
Y163779D02*
D03*
Y160630D02*
D03*
Y157480D02*
D03*
Y154331D02*
D03*
Y151181D02*
D03*
Y148031D02*
D03*
Y144882D02*
D03*
Y141732D02*
D03*
Y138583D02*
D03*
Y135433D02*
D03*
Y132283D02*
D03*
Y129134D02*
D03*
Y125984D02*
D03*
Y122835D02*
D03*
X-75984Y170079D02*
D03*
Y166929D02*
D03*
Y163779D02*
D03*
Y160630D02*
D03*
Y157480D02*
D03*
Y154331D02*
D03*
Y151181D02*
D03*
Y148031D02*
D03*
Y144882D02*
D03*
Y141732D02*
D03*
Y138583D02*
D03*
Y135433D02*
D03*
Y132283D02*
D03*
Y129134D02*
D03*
Y125984D02*
D03*
Y122835D02*
D03*
X-63386Y170079D02*
D03*
Y166929D02*
D03*
Y163779D02*
D03*
Y160630D02*
D03*
Y157480D02*
D03*
Y154331D02*
D03*
Y151181D02*
D03*
Y148031D02*
D03*
Y144882D02*
D03*
Y141732D02*
D03*
Y138583D02*
D03*
Y135433D02*
D03*
Y132283D02*
D03*
Y129134D02*
D03*
Y125984D02*
D03*
Y122835D02*
D03*
X-60236Y170079D02*
D03*
Y166929D02*
D03*
Y163779D02*
D03*
Y160630D02*
D03*
Y157480D02*
D03*
Y154331D02*
D03*
Y151181D02*
D03*
Y148031D02*
D03*
Y144882D02*
D03*
Y141732D02*
D03*
Y138583D02*
D03*
Y135433D02*
D03*
Y132283D02*
D03*
Y129134D02*
D03*
Y125984D02*
D03*
Y122835D02*
D03*
X-57087Y170079D02*
D03*
Y166929D02*
D03*
Y163779D02*
D03*
Y160630D02*
D03*
Y157480D02*
D03*
Y154331D02*
D03*
Y151181D02*
D03*
Y148031D02*
D03*
Y144882D02*
D03*
Y141732D02*
D03*
Y138583D02*
D03*
Y135433D02*
D03*
Y132283D02*
D03*
Y129134D02*
D03*
Y125984D02*
D03*
Y122835D02*
D03*
D52*
X-34252Y64567D02*
D03*
X-30315D02*
D03*
X-22441D02*
D03*
X-18504D02*
D03*
X-14567D02*
D03*
X-10630D02*
D03*
X-6693D02*
D03*
X-2756D02*
D03*
X1181D02*
D03*
X5118D02*
D03*
X9055D02*
D03*
X12992D02*
D03*
X16929D02*
D03*
X24803D02*
D03*
X28740D02*
D03*
X-34252Y68504D02*
D03*
X-22441D02*
D03*
X-18504D02*
D03*
X-14567D02*
D03*
X-10630D02*
D03*
X-6693D02*
D03*
X-2756D02*
D03*
X1181D02*
D03*
X5118D02*
D03*
X9055D02*
D03*
X12992D02*
D03*
X16929D02*
D03*
X28740D02*
D03*
X-22441Y72441D02*
D03*
X-18504D02*
D03*
X-14567D02*
D03*
X-10630D02*
D03*
X-6693D02*
D03*
X-2756D02*
D03*
X1181D02*
D03*
X5118D02*
D03*
X9055D02*
D03*
X12992D02*
D03*
X16929D02*
D03*
X-22441Y76378D02*
D03*
X-18504D02*
D03*
X-14567D02*
D03*
X-10630D02*
D03*
X-6693D02*
D03*
X-2756D02*
D03*
X1181D02*
D03*
X5118D02*
D03*
X9055D02*
D03*
X12992D02*
D03*
X16929D02*
D03*
X-22441Y80315D02*
D03*
X-18504D02*
D03*
X-14567D02*
D03*
X-10630D02*
D03*
X-6693D02*
D03*
X-2756D02*
D03*
X1181D02*
D03*
X5118D02*
D03*
X9055D02*
D03*
X12992D02*
D03*
X16929D02*
D03*
X-22441Y84252D02*
D03*
X-18504D02*
D03*
X-14567D02*
D03*
X-10630D02*
D03*
X-6693D02*
D03*
X-2756D02*
D03*
X1181D02*
D03*
X5118D02*
D03*
X9055D02*
D03*
X12992D02*
D03*
X16929D02*
D03*
X-22441Y88189D02*
D03*
X-18504D02*
D03*
X-14567D02*
D03*
X-10630D02*
D03*
X-6693D02*
D03*
X-2756D02*
D03*
X1181D02*
D03*
X5118D02*
D03*
X9055D02*
D03*
X12992D02*
D03*
X16929D02*
D03*
X-22441Y92126D02*
D03*
X-18504D02*
D03*
X-14567D02*
D03*
X-10630D02*
D03*
X-6693D02*
D03*
X-2756D02*
D03*
X1181D02*
D03*
X5118D02*
D03*
X9055D02*
D03*
X12992D02*
D03*
X16929D02*
D03*
X-34252Y96063D02*
D03*
X-22441D02*
D03*
X-18504D02*
D03*
X-14567D02*
D03*
X-10630D02*
D03*
X-6693D02*
D03*
X-2756D02*
D03*
X1181D02*
D03*
X5118D02*
D03*
X9055D02*
D03*
X12992D02*
D03*
X16929D02*
D03*
X-34252Y100000D02*
D03*
X-30315D02*
D03*
X-22441D02*
D03*
X-18504D02*
D03*
X-14567D02*
D03*
X-10630D02*
D03*
X-6693D02*
D03*
X-2756D02*
D03*
X1181D02*
D03*
X5118D02*
D03*
X9055D02*
D03*
X12992D02*
D03*
X16929D02*
D03*
X24803D02*
D03*
X28740D02*
D03*
Y96063D02*
D03*
X-72146Y176279D02*
D03*
X-67224D02*
D03*
X-69685Y174311D02*
D03*
Y170472D02*
D03*
X-67224Y172441D02*
D03*
X-72146D02*
D03*
X-72047Y168504D02*
D03*
X-67224Y168504D02*
D03*
X-69685Y166535D02*
D03*
X-72047Y164567D02*
D03*
X-67224Y164567D02*
D03*
X-69685Y162500D02*
D03*
X-72146Y160531D02*
D03*
X-67224D02*
D03*
X-69685Y158563D02*
D03*
X-72146Y156595D02*
D03*
X-67224D02*
D03*
X-69685Y154626D02*
D03*
X-72146Y152657D02*
D03*
X-67224D02*
D03*
X-69685Y150689D02*
D03*
X-72146Y148721D02*
D03*
X-67224D02*
D03*
X-69685Y146260D02*
D03*
Y143307D02*
D03*
D53*
X-107874Y135433D02*
D03*
X-105905D02*
D03*
X-103937D02*
D03*
X-101969D02*
D03*
X-100000D02*
D03*
Y123622D02*
D03*
X-101969D02*
D03*
X-103937D02*
D03*
X-105905D02*
D03*
X-107874D02*
D03*
D54*
X-103937Y129528D02*
D03*
D55*
X57087Y164173D02*
D03*
X61024Y62992D02*
D03*
X-72835Y185827D02*
D03*
X-108661Y211417D02*
D03*
D56*
X51279Y169095D02*
D03*
Y167126D02*
D03*
Y165157D02*
D03*
Y163189D02*
D03*
Y161221D02*
D03*
Y159252D02*
D03*
X62845Y159252D02*
D03*
Y161221D02*
D03*
Y163189D02*
D03*
Y165157D02*
D03*
Y167126D02*
D03*
Y169095D02*
D03*
X55216Y67913D02*
D03*
Y65945D02*
D03*
Y63976D02*
D03*
Y62008D02*
D03*
Y60039D02*
D03*
Y58071D02*
D03*
X66782Y58071D02*
D03*
Y60039D02*
D03*
Y62008D02*
D03*
Y63976D02*
D03*
Y65945D02*
D03*
Y67913D02*
D03*
X-67028Y180905D02*
D03*
Y182874D02*
D03*
Y184843D02*
D03*
Y186811D02*
D03*
Y188779D02*
D03*
Y190748D02*
D03*
X-78592Y190748D02*
D03*
Y188779D02*
D03*
Y186811D02*
D03*
Y184843D02*
D03*
Y182874D02*
D03*
Y180905D02*
D03*
X-114469Y216339D02*
D03*
Y214370D02*
D03*
Y212402D02*
D03*
Y210433D02*
D03*
Y208465D02*
D03*
Y206496D02*
D03*
X-102903Y206496D02*
D03*
Y208465D02*
D03*
Y210433D02*
D03*
Y212402D02*
D03*
Y214370D02*
D03*
Y216339D02*
D03*
D57*
X53150Y16929D02*
D03*
Y14961D02*
D03*
Y12992D02*
D03*
Y11024D02*
D03*
Y9055D02*
D03*
X41339D02*
D03*
Y11024D02*
D03*
Y12992D02*
D03*
Y14961D02*
D03*
Y16929D02*
D03*
D58*
X47244Y12992D02*
D03*
D59*
X-170669Y218307D02*
D03*
X-168110D02*
D03*
X-165551D02*
D03*
Y210827D02*
D03*
X-168110D02*
D03*
X-170669Y210827D02*
D03*
D60*
X-51968Y70473D02*
D03*
X-53937D02*
D03*
X-55905D02*
D03*
X-57874D02*
D03*
X-59842D02*
D03*
X-61811D02*
D03*
X-63779D02*
D03*
X-65748D02*
D03*
X-50000D02*
D03*
Y94882D02*
D03*
X-51968D02*
D03*
X-53937D02*
D03*
X-55905D02*
D03*
X-57874D02*
D03*
X-59842D02*
D03*
X-61811Y94882D02*
D03*
X-63779D02*
D03*
X-65748D02*
D03*
D61*
X-57874Y82677D02*
D03*
D62*
X-45669Y86614D02*
D03*
Y84646D02*
D03*
Y82677D02*
D03*
Y80709D02*
D03*
Y78740D02*
D03*
Y76772D02*
D03*
Y74803D02*
D03*
Y88583D02*
D03*
X-45669Y90551D02*
D03*
X-70079Y88583D02*
D03*
Y86614D02*
D03*
Y84646D02*
D03*
Y82677D02*
D03*
X-70079Y90551D02*
D03*
X-70079Y74803D02*
D03*
Y76772D02*
D03*
Y78740D02*
D03*
Y80709D02*
D03*
D63*
X31102Y36220D02*
D03*
X27362D02*
D03*
X34843D02*
D03*
Y45669D02*
D03*
X27362D02*
D03*
X31102D02*
D03*
D64*
X-37795Y182283D02*
D03*
X-25984D02*
D03*
D65*
X-90256Y85039D02*
D03*
Y94488D02*
D03*
X-83760D02*
D03*
Y85039D02*
D03*
D66*
X-19685Y78347D02*
X-16929D01*
X-21654Y80315D02*
X-19685Y78347D01*
X-22441Y80315D02*
X-21654D01*
X-10630Y124409D02*
X-9084Y122863D01*
X-1500Y91051D02*
X-787Y91763D01*
X-1500Y89536D02*
Y91051D01*
Y89536D02*
X-1181Y89217D01*
Y85827D02*
Y89217D01*
X-787Y91763D02*
Y100787D01*
X-2362Y102362D02*
X-787Y100787D01*
X-4090Y102362D02*
X-2362D01*
X-9154Y107426D02*
X-4090Y102362D01*
X-9154Y107426D02*
Y119783D01*
X-155912Y202362D02*
Y204668D01*
X-99213Y77318D02*
Y89764D01*
X-111430Y101981D02*
X-99213Y89764D01*
X-99532Y76999D02*
X-99213Y77318D01*
X-115354Y101981D02*
X-111430D01*
X-99532Y69217D02*
Y76999D01*
X-65164Y67070D02*
Y67720D01*
X-65748Y68304D02*
X-65164Y67720D01*
X-65698Y66535D02*
X-65164Y67070D01*
X-65748Y68304D02*
Y70473D01*
X-99532Y69217D02*
X-96850Y66535D01*
X-65698D01*
X-154662Y205918D02*
X-126834D01*
X-155912Y204668D02*
X-154662Y205918D01*
X-126834D02*
X-124016Y203100D01*
X-159449Y201181D02*
X-157093D01*
X-118110Y104737D02*
Y149557D01*
X-124016Y155462D02*
X-118110Y149557D01*
Y104737D02*
X-115354Y101981D01*
X-124016Y155462D02*
Y203100D01*
X-100013Y77649D02*
Y89432D01*
X-111761Y101181D02*
X-100013Y89432D01*
X-100331Y77331D02*
X-100013Y77649D01*
X-115686Y101181D02*
X-111761D01*
X-100331Y68885D02*
Y77331D01*
X-63779Y68304D02*
Y70473D01*
X-64364Y67720D02*
X-63779Y68304D01*
X-64364Y66739D02*
Y67720D01*
X-65367Y65735D02*
X-64364Y66739D01*
X-100331Y68885D02*
X-97182Y65735D01*
X-65367D01*
X-127165Y205118D02*
X-124816Y202768D01*
X-154331Y205118D02*
X-127165D01*
X-153931Y201181D02*
X-151575D01*
X-155112Y204337D02*
X-154331Y205118D01*
X-118910Y104406D02*
Y149225D01*
X-124816Y155131D02*
X-118910Y149225D01*
Y104406D02*
X-115686Y101181D01*
X-124816Y155131D02*
Y202768D01*
X-157093Y201181D02*
X-155912Y202362D01*
X-155112D02*
X-153931Y201181D01*
X-155112Y202362D02*
Y204337D01*
X-168110Y145669D02*
Y201181D01*
X10236Y182283D02*
X10630Y182677D01*
X10236Y177953D02*
Y182283D01*
Y174409D02*
Y177953D01*
X14862D01*
X6224Y185752D02*
Y197471D01*
X-7520Y203976D02*
X-3937Y200394D01*
X-7480Y107874D02*
Y118110D01*
Y107874D02*
X-7480Y107874D01*
X-11417Y109257D02*
Y117323D01*
X-12992Y107682D02*
X-11417Y109257D01*
X14567Y105512D02*
Y117717D01*
X12598Y103543D02*
X14567Y105512D01*
X-175984Y201181D02*
X-175984Y201181D01*
Y212795D01*
Y216142D02*
X-172441D01*
X-170669Y214370D01*
Y210827D02*
Y214370D01*
X-163779Y132283D02*
Y205512D01*
X-165551Y207283D02*
X-163779Y205512D01*
X-165551Y207283D02*
Y210827D01*
X-16142Y184646D02*
X-15945Y184843D01*
X-180315Y67170D02*
X-176575Y63430D01*
Y42913D02*
Y63430D01*
X8661Y146457D02*
X10236Y144882D01*
X26544Y148744D02*
X63705D01*
X64173Y149213D01*
X26213Y149544D02*
X47969D01*
X49606Y151181D01*
X25956Y149287D02*
X26213Y149544D01*
X21820Y149287D02*
X25956D01*
X26287Y148487D02*
X26544Y148744D01*
X21488Y148487D02*
X26287D01*
X26722Y147687D02*
X27165Y147244D01*
X21157Y147687D02*
X26722D01*
X20813Y148031D02*
X21157Y147687D01*
X14319Y148031D02*
X20813D01*
X20369Y149606D02*
X21488Y148487D01*
X17717Y149606D02*
X20369D01*
X20212Y150895D02*
X21820Y149287D01*
X15856Y150895D02*
X20212D01*
X12706Y149644D02*
X14319Y148031D01*
X12706Y149644D02*
Y151467D01*
X11417Y152756D02*
X12706Y151467D01*
X68534Y143096D02*
X71501Y146063D01*
X71653D01*
X37174Y143096D02*
X68534D01*
X12992Y144882D02*
X12992D01*
X11417Y146457D02*
X12992Y144882D01*
X12598Y154331D02*
X12992Y154724D01*
X-26440Y27103D02*
X7542D01*
X12992Y138583D02*
Y141732D01*
X11417Y143307D02*
X12992Y141732D01*
X23095Y135147D02*
X48927D01*
X21881Y133933D02*
X23095Y135147D01*
X20639Y133933D02*
X21881D01*
X48927Y135147D02*
X52372Y138592D01*
X19424Y135147D02*
X20639Y133933D01*
X14567Y137008D02*
X16428Y135147D01*
X19424D01*
X11417Y137008D02*
X12992Y135433D01*
X11417Y137008D02*
X11417D01*
X16141Y154330D02*
X20472D01*
X14567Y152756D02*
X16141Y154330D01*
X20472Y152756D02*
X22441Y150787D01*
X17717Y152756D02*
X20472D01*
X24198Y161337D02*
X24906Y160630D01*
X20633Y161337D02*
X24198D01*
X19926Y160630D02*
X20633Y161337D01*
X24326Y158337D02*
X24969Y158980D01*
X19690Y158337D02*
X24326D01*
X18972Y159055D02*
X19690Y158337D01*
X16142Y160630D02*
X19926D01*
X17717Y159055D02*
X18972D01*
X26212Y158980D02*
X27319Y157874D01*
X24969Y158980D02*
X26212D01*
X27165Y151968D02*
Y153188D01*
X23110Y157243D02*
X27165Y153188D01*
X15904Y157243D02*
X23110D01*
X14567Y155905D02*
X15904Y157243D01*
X24906Y160630D02*
X26772D01*
X18898Y162205D02*
X19291Y162598D01*
X17717Y162205D02*
X18898D01*
X22569Y164098D02*
X24537Y162130D01*
X18670Y164098D02*
X22569D01*
X24537Y162130D02*
X27393D01*
X18276Y163704D02*
X18670Y164098D01*
X11094Y163704D02*
X18276D01*
X14567Y159055D02*
X16142Y160630D01*
X27319Y157874D02*
X28740D01*
X27393Y162130D02*
X28499Y161024D01*
X29134D01*
X11417Y159055D02*
X12354Y158118D01*
X12691D01*
X13141Y154518D02*
Y154575D01*
X14567Y149606D02*
X15856Y150895D01*
Y144596D02*
X35674D01*
X17717Y155905D02*
X22489D01*
X9843Y144882D02*
X10236D01*
X14567Y143307D02*
X15856Y144596D01*
X23154Y85039D02*
X23228D01*
X21654Y85739D02*
Y129921D01*
X20954Y85039D02*
X21654Y85739D01*
X22454D02*
Y130253D01*
X-17018Y98031D02*
Y117508D01*
X-17275Y117764D02*
X-17018Y117508D01*
X-18504Y92126D02*
X-16535Y94095D01*
X-17323Y97853D02*
Y98031D01*
Y97853D02*
X-17018Y97549D01*
X-16053Y94577D02*
Y96678D01*
X-15823Y96908D02*
Y98653D01*
X-16053Y96678D02*
X-15823Y96908D01*
X-16067Y98897D02*
Y116934D01*
Y98897D02*
X-15823Y98653D01*
X9557Y169793D02*
Y173730D01*
X10236Y174409D01*
X6585Y157194D02*
Y157274D01*
X10128Y162739D02*
X11094Y163704D01*
X10128Y160916D02*
Y162739D01*
X18110Y38583D02*
Y49606D01*
X12992Y54724D02*
X18110Y49606D01*
Y38583D02*
X20472Y36220D01*
X27362D01*
X6585Y157194D02*
X10128D01*
X-83661Y108465D02*
Y113976D01*
X-81102Y116535D01*
X-76772D01*
X-42520Y123228D02*
X-41339Y124409D01*
X-27953Y129134D02*
Y129134D01*
X10128Y157194D02*
X11417Y155905D01*
X-63779Y94882D02*
Y97638D01*
X-64567Y98425D02*
X-63779Y97638D01*
X-67028Y98425D02*
X-64567D01*
X-72835Y104232D02*
X-67028Y98425D01*
X-63705Y99925D02*
Y103394D01*
Y99925D02*
X-61811Y98031D01*
X-62008Y102982D02*
X-59842Y100817D01*
Y94882D02*
Y100817D01*
X-63976Y103665D02*
X-63705Y103394D01*
X-24803Y122942D02*
Y125984D01*
X2756Y113386D02*
X3829Y114459D01*
Y126270D01*
X5118Y127559D01*
X16535Y28839D02*
Y31033D01*
X11816Y35752D02*
X16535Y31033D01*
X-33539Y35752D02*
X11816D01*
X-34646Y34646D02*
X-33539Y35752D01*
X9843Y154331D02*
X12598D01*
X12992Y154724D02*
X13141Y154575D01*
X8268Y152756D02*
X9843Y154331D01*
X-22441Y80315D02*
X-22441Y80315D01*
X-24803Y80315D02*
X-22441D01*
X-14567Y84252D02*
Y84646D01*
X-16142Y86221D02*
X-14567Y84646D01*
X-12992Y94095D02*
Y107682D01*
Y91339D02*
Y94095D01*
X-10630Y121260D02*
X-9154Y119783D01*
X-11417Y117323D02*
X-10630Y118110D01*
X-126969Y68504D02*
X-123425D01*
X-126969Y66535D02*
X-123425D01*
X-126969Y62598D02*
X-123425D01*
X-126969Y60630D02*
X-123425D01*
X9397Y184261D02*
X21250D01*
X9046Y183910D02*
X9397Y184261D01*
X21250D02*
X24803Y180709D01*
X-38052Y133995D02*
X-36328Y135719D01*
X-46200Y133995D02*
X-38052D01*
X-46850Y134646D02*
X-46200Y133995D01*
X-37770Y133146D02*
X-37058Y133858D01*
X-47472Y133146D02*
X-37770D01*
X-37058Y133858D02*
X-35827D01*
X-36328Y135719D02*
X-33966D01*
X-46054Y132346D02*
X-34190D01*
X-50766Y127634D02*
X-46054Y132346D01*
X-34190D02*
X-32677Y133858D01*
X-48184Y133858D02*
X-47472Y133146D01*
X-50394Y133858D02*
X-48184D01*
X-61886Y136933D02*
X-45744D01*
X-42595Y140083D01*
X-38902D01*
X-35827Y137008D01*
X-63386Y135433D02*
X-61886Y136933D01*
X-33966Y135719D02*
X-32677Y137008D01*
X-58736Y127634D02*
X-50766D01*
X-51550Y124728D02*
X-45963Y130315D01*
X-27953Y132283D02*
X-26378Y133858D01*
Y133858D01*
X8012Y177366D02*
Y192008D01*
X6631Y173166D02*
Y175984D01*
X-190846Y189961D02*
X-184449D01*
X-184252Y190157D01*
X-77953Y209449D02*
X5906D01*
X8268Y207087D01*
Y192263D02*
Y207087D01*
X8012Y192008D02*
X8268Y192263D01*
X6631Y175984D02*
X8012Y177366D01*
X9046Y175581D02*
Y183910D01*
X-5437Y173150D02*
Y174637D01*
X3227Y175668D02*
Y178662D01*
X2694Y175134D02*
X3227Y175668D01*
X3150Y178740D02*
X3227Y178662D01*
X1727Y173235D02*
Y176924D01*
X108Y171616D02*
X1727Y173235D01*
X108Y171120D02*
Y171616D01*
X-1500Y171973D02*
Y175030D01*
Y171973D02*
X-1181Y171654D01*
X-1500Y175030D02*
X-98Y176432D01*
Y180118D01*
X-4256Y176544D02*
X-2437Y174725D01*
Y173001D02*
Y174725D01*
X-2743Y172694D02*
X-2437Y173001D01*
X-4331Y171654D02*
Y173622D01*
X-3937Y174015D01*
X-6191Y172396D02*
X-5437Y173150D01*
X-8437Y172610D02*
Y174637D01*
Y172610D02*
X-7480Y171654D01*
X-8193Y174881D02*
Y176303D01*
X-8437Y174637D02*
X-8193Y174881D01*
X-12280Y174969D02*
Y181368D01*
X-13260Y173989D02*
X-12280Y174969D01*
X-13878Y177613D02*
Y180118D01*
X-16929Y174562D02*
X-13878Y177613D01*
X-5193Y174881D02*
Y177393D01*
X-5437Y174637D02*
X-5193Y174881D01*
X-9843Y177953D02*
X-8193Y176303D01*
X-16929Y171654D02*
Y174562D01*
X-13267Y173989D02*
X-13260D01*
X-12879Y181968D02*
X-12280Y181368D01*
X-15068Y172187D02*
X-13267Y173989D01*
X-15068Y170365D02*
Y172187D01*
X-15354Y170079D02*
X-15068Y170365D01*
X-2743Y170091D02*
Y172694D01*
X-4331Y168504D02*
X-2743Y170091D01*
X-6191Y169793D02*
Y172396D01*
X-7480Y168504D02*
X-6191Y169793D01*
X-177362Y146653D02*
X-177165Y146457D01*
X-190846Y146653D02*
X-177362D01*
X-17913Y184449D02*
Y188080D01*
X-18214Y188381D02*
X-17913Y188080D01*
X-13878Y184449D02*
X-13316Y185011D01*
Y188621D01*
X22454Y85739D02*
X23154Y85039D01*
X18048Y136676D02*
X18380Y137008D01*
X-41339Y167564D02*
X-40385Y166610D01*
X-51500Y162280D02*
X-49606Y164173D01*
X-27953Y142126D02*
X-27559D01*
X-41732Y153253D02*
X-39079Y155905D01*
X-90256Y94095D02*
Y94488D01*
X-31496Y138583D02*
X-29921Y140157D01*
X-69685Y162491D02*
X-62097D01*
X-37795Y180709D02*
X-32934D01*
X-83760Y85039D02*
X-81988Y83268D01*
X-23547Y116979D02*
X-22822Y117704D01*
X-36933Y165673D02*
X-36220Y164961D01*
X-173153Y167791D02*
X-172047Y168898D01*
X-173153Y119457D02*
Y167791D01*
X20079Y182283D02*
X20866Y181496D01*
X18209Y182283D02*
X20079D01*
X-21324Y166599D02*
X-20079Y165354D01*
X-21324Y166599D02*
Y166936D01*
X-18504Y166929D02*
X-16929Y165354D01*
Y165354D02*
Y165354D01*
X-23228Y162205D02*
X-21654Y160630D01*
X-27953Y163779D02*
X-26378Y165354D01*
Y165354D01*
X-27953Y160630D02*
Y160630D01*
X-26378Y162205D01*
X-27953Y157480D02*
X-26378Y159055D01*
X-31102Y157480D02*
X-31102D01*
X-27953Y154330D02*
Y154331D01*
X-31102Y160630D02*
X-29528Y159055D01*
X-34252Y160630D02*
X-32677Y159055D01*
X-42126Y160630D02*
X-34252D01*
X-44488Y164960D02*
X-43775Y165673D01*
X-36933D01*
X-47957Y164007D02*
X-42171Y169793D01*
X-47319Y165776D02*
Y170944D01*
X-48757Y164338D02*
X-47319Y165776D01*
X8268Y171654D02*
Y174803D01*
X9046Y175581D01*
X2165Y181496D02*
Y192913D01*
X787Y180118D02*
X2165Y181496D01*
X-98Y180118D02*
X787D01*
X-7520Y203976D02*
X-6772Y204724D01*
X-11736Y199760D02*
X-7520Y203976D01*
X-3937Y200394D02*
X3302D01*
X6224Y197471D01*
X5118Y184646D02*
X6224Y185752D01*
X5118Y175437D02*
Y176378D01*
X3829Y174148D02*
X5118Y175437D01*
X8268Y168504D02*
X9557Y169793D01*
X5118Y171654D02*
X6631Y173166D01*
X16142Y166929D02*
X22047D01*
X-190945Y225394D02*
X-190748D01*
X-190945Y182087D02*
X-190748D01*
X-171653Y142126D02*
X-168110Y145669D01*
X-31343Y110630D02*
X-28028Y113946D01*
X-31890Y110630D02*
X-31343D01*
X-28239Y167215D02*
X-27953Y166929D01*
X-28239Y167215D02*
Y169038D01*
X-29528Y170327D02*
X-28239Y169038D01*
X-29528Y170327D02*
Y171654D01*
X-27953Y170079D02*
Y173524D01*
Y170079D02*
X-26378Y168504D01*
X-31201Y176772D02*
X-27953Y173524D01*
X-40650Y176772D02*
X-31201D01*
X-42520Y174902D02*
X-40650Y176772D01*
X-4256Y176544D02*
Y179996D01*
X-15945Y181693D02*
X-15670Y181968D01*
X-12879D01*
X-6299Y178499D02*
X-5193Y177393D01*
X-6299Y178499D02*
Y180118D01*
X-11736Y186386D02*
Y199760D01*
Y186386D02*
X-9843Y184493D01*
Y177953D02*
Y184493D01*
X-7799Y183100D02*
Y195591D01*
Y183100D02*
X-6667Y181968D01*
X-8599Y181040D02*
Y196001D01*
X-9055Y196457D02*
X-8599Y196001D01*
Y181040D02*
X-7677Y180118D01*
X-15945Y184843D02*
Y187008D01*
X-19980Y184547D02*
Y187008D01*
X-20079Y184449D02*
X-19980Y184547D01*
X-32677Y188036D02*
X-29921Y185280D01*
Y179959D02*
Y185280D01*
X-32677Y188036D02*
Y190157D01*
X-25098Y183169D02*
Y190157D01*
X-25984Y182283D02*
X-25098Y183169D01*
X-47319Y170944D02*
X-44896Y173366D01*
X-39728D01*
X-37973Y175122D01*
X-49925D02*
X-48819Y174016D01*
X-56527Y175122D02*
X-49925D01*
X-29921Y179959D02*
X-28201Y178239D01*
X-24695D01*
X-33858Y182764D02*
Y185827D01*
Y182764D02*
X-28533Y177439D01*
X-32934Y180709D02*
X-28864Y176639D01*
X-27538Y177439D02*
X-24803Y174704D01*
X-27869Y176639D02*
X-26378Y175147D01*
X-28864Y176639D02*
X-27869D01*
X-28533Y177439D02*
X-27538D01*
X-26378Y171654D02*
Y175147D01*
X-24803Y166929D02*
Y174704D01*
X-21728Y170004D02*
Y175272D01*
X-23228Y168504D02*
X-21728Y170004D01*
X-15945Y180118D02*
Y181693D01*
X35674Y144596D02*
X37174Y143096D01*
X73622Y164961D02*
X74803Y166142D01*
Y170079D01*
X-21413Y21654D02*
X-16763Y26303D01*
X-28740Y14326D02*
X-21413Y21654D01*
X-20079Y20866D02*
X-16142Y24803D01*
X-20079Y6693D02*
Y20866D01*
X-16142Y24803D02*
X0D01*
X-28740Y6693D02*
Y14326D01*
X-16763Y26303D02*
X2001D01*
X6890Y30315D02*
X7283Y30709D01*
X-7087Y30315D02*
X6890D01*
X6693Y170079D02*
X7087D01*
X6979Y169971D02*
X7087Y170079D01*
X6979Y166643D02*
Y169971D01*
Y166643D02*
X8268Y165354D01*
X3543Y163779D02*
X5118Y162205D01*
X20079Y168504D02*
X20079Y168504D01*
X17717Y168504D02*
X20079D01*
X14567Y165354D02*
X16142Y166929D01*
X12992D02*
X12992D01*
X11417Y165354D02*
X12992Y166929D01*
X432Y166929D02*
X3543D01*
X-1143Y165354D02*
X432Y166929D01*
X-80905Y182874D02*
X-78592D01*
X-81496Y182283D02*
X-80905Y182874D01*
X-81496Y177165D02*
Y182283D01*
X3829Y170365D02*
Y174148D01*
X2694Y172379D02*
Y175134D01*
X1969Y171654D02*
X2694Y172379D01*
X1969Y168504D02*
X3829Y170365D01*
X18380Y137008D02*
X49213D01*
X51968Y139764D01*
X59439Y138592D02*
X60236Y137795D01*
X52372Y138592D02*
X59439D01*
X9843Y138582D02*
X10236D01*
X10236Y138583D01*
X9843D02*
X10236D01*
X8268Y140157D02*
X9843Y138583D01*
X-26378Y127559D02*
X-24803Y125984D01*
X8268Y159055D02*
X10128Y160916D01*
X11417Y162205D02*
X12992Y160630D01*
Y160630D02*
Y160630D01*
X-18110Y177165D02*
X-17913Y177362D01*
Y180118D01*
X-20079Y177012D02*
X-18790Y175723D01*
X-20079Y177012D02*
Y180118D01*
X-18790Y169793D02*
Y175723D01*
X-24695Y178239D02*
X-21728Y175272D01*
X-24803Y166929D02*
X-23228Y165354D01*
X-31102Y166929D02*
X-29528Y165354D01*
X-29528D01*
X-41339Y167323D02*
X-41339Y167323D01*
X-41339Y167323D02*
Y167564D01*
X-41019Y149287D02*
X-38355D01*
X-45276Y153543D02*
X-41019Y149287D01*
X-37973Y175122D02*
X-35206D01*
X-48757Y158723D02*
Y164338D01*
X-38024Y148487D02*
X-36904Y149606D01*
X-42341Y148487D02*
X-38024D01*
X-48500Y154646D02*
X-42341Y148487D01*
X-36904Y149606D02*
X-35827D01*
X-48500Y154646D02*
Y154952D01*
X-43307Y159055D02*
X-35827D01*
X-44882Y160630D02*
X-43307Y159055D01*
X-42018Y157194D02*
X-33966D01*
X-43307Y155905D02*
X-42018Y157194D01*
X-39295Y153377D02*
X-38417Y154256D01*
X-39295Y151106D02*
Y153377D01*
Y151106D02*
X-38976Y150787D01*
X-36747Y150895D02*
X-30817D01*
X-38355Y149287D02*
X-36747Y150895D01*
X-45035Y147687D02*
X-37692D01*
X-50000Y152653D02*
X-45035Y147687D01*
X-51500Y156859D02*
Y162280D01*
X-49528Y155980D02*
X-48500Y154952D01*
X-50621Y155980D02*
X-49528D01*
X-47957Y157405D02*
Y164007D01*
Y157405D02*
X-46457Y155905D01*
X-42171Y169793D02*
X-33966D01*
X-50000Y157480D02*
X-48757Y158723D01*
X-37299Y148081D02*
X-34203D01*
X-38976Y168110D02*
X-36221D01*
X-50394Y164567D02*
X-49999D01*
X-49606Y164173D01*
X-50000Y152653D02*
Y154330D01*
X-51500Y156859D02*
X-50621Y155980D01*
X-37692Y147687D02*
X-37299Y148081D01*
X-41629Y153149D02*
X-41339D01*
X-41732Y153253D02*
X-41629Y153149D01*
X-46457Y163385D02*
X-44882D01*
X-42126Y160630D01*
X-33966Y169793D02*
X-32677Y168504D01*
X-40385Y166610D02*
X-36394D01*
X-36361Y166643D01*
X-33966D01*
X-32677Y165354D01*
X-35206Y175122D02*
X-34327Y174243D01*
Y171480D02*
Y174243D01*
Y171480D02*
X-32640Y169793D01*
X-30817D01*
X-60236Y171413D02*
X-56527Y175122D01*
X-647Y170365D02*
X108Y171120D01*
X-25984Y180709D02*
X-20079Y174803D01*
Y171654D02*
Y174803D01*
X-25984Y180709D02*
Y182283D01*
X-26378Y159055D02*
X-26378D01*
X-31102Y157480D02*
X-29527Y155905D01*
X-1143Y170365D02*
X-647D01*
X-2470Y169038D02*
X-1143Y170365D01*
X-2470Y167215D02*
Y169038D01*
X-4331Y165354D02*
X-2470Y167215D01*
X-1181Y165354D02*
X-1143D01*
X67028Y81496D02*
Y87303D01*
X66929Y87402D02*
X67028Y87303D01*
X-79921Y80709D02*
X-70079D01*
X-81988Y82776D02*
X-79921Y80709D01*
X-81988Y82776D02*
Y83268D01*
X-77953Y83366D02*
Y87795D01*
Y83366D02*
X-76870Y82284D01*
X-73622D01*
X-73228Y82677D01*
X-70079D01*
X-79921Y89764D02*
X-77953Y87795D01*
X-85925Y89764D02*
X-79921D01*
X-90256Y94095D02*
X-85925Y89764D01*
X-36780Y95595D02*
X-35280Y94095D01*
X-38114Y95595D02*
X-36780D01*
X-39764Y97244D02*
X-38114Y95595D01*
X-35280Y94095D02*
X-29921D01*
X-45669Y80709D02*
X-42126D01*
X-52756Y97933D02*
X-46457D01*
X-45768Y97244D02*
X-39764D01*
X-46457Y97933D02*
X-45768Y97244D01*
X-41732Y89370D02*
Y94095D01*
X-42520Y88583D02*
X-41732Y89370D01*
X-45669Y88583D02*
X-42520D01*
X66929Y73228D02*
X70079Y70079D01*
X66929Y73228D02*
Y73524D01*
X-2165Y177756D02*
Y180118D01*
X-2756Y177165D02*
X-2165Y177756D01*
X-4256Y179996D02*
X-4134Y180118D01*
X-50000Y94882D02*
X-47638D01*
X-49508Y111024D02*
X-46506D01*
X-38131Y119399D01*
X-52817Y115279D02*
X-43382D01*
X-55424Y112673D02*
X-52817Y115279D01*
X-43382D02*
X-37402Y121260D01*
X-57314Y112673D02*
X-55424D01*
X-32677Y115354D02*
Y118110D01*
X-32677Y118110D02*
X-32677Y118110D01*
X-42864Y108951D02*
X-34252Y117564D01*
X-56983Y108951D02*
X-42864D01*
X-59449Y111417D02*
X-56983Y108951D01*
X69882Y63976D02*
X70079Y64173D01*
X66782Y63976D02*
X69882D01*
X66782Y65945D02*
X69488D01*
X70079Y66535D01*
Y70079D01*
X-74803Y86730D02*
X-74103Y86030D01*
X51968Y139764D02*
X62205D01*
X63041Y164961D02*
X73622D01*
X62845Y165157D02*
X63041Y164961D01*
X-86158Y35421D02*
X-80709D01*
X-87795Y37058D02*
Y55856D01*
X-86995Y37389D02*
Y55524D01*
X-79140Y30709D02*
Y33852D01*
X-80709Y35421D02*
X-79140Y33852D01*
X-79632Y30216D02*
X-79140Y30709D01*
X-82677Y30216D02*
X-79632D01*
X-85827Y36220D02*
X-80377D01*
X-78340Y30709D02*
X-77848Y30216D01*
X-74803D01*
X-80377Y36220D02*
X-78340Y34183D01*
Y30709D02*
Y34183D01*
X-87795Y37058D02*
X-86158Y35421D01*
X-86995Y37389D02*
X-85827Y36220D01*
X-77946Y40551D02*
X-74803D01*
X-78347Y41283D02*
Y52553D01*
X-82677Y40551D02*
X-79534D01*
X-79146Y40951D02*
Y52884D01*
X-78347Y41283D02*
X-78340Y41276D01*
Y40945D02*
Y41276D01*
X-79146Y40951D02*
X-79140Y40945D01*
X-78340D02*
X-77946Y40551D01*
X-79534D02*
X-79140Y40945D01*
X-58420Y113779D02*
X-57314Y112673D01*
X-61811Y113779D02*
X-58420D01*
X-56693Y114276D02*
X-43410Y127559D01*
X-56693Y114173D02*
Y114276D01*
X-22366Y111736D02*
X-22047Y111417D01*
X-22366Y111736D02*
Y114401D01*
X-23547Y109921D02*
Y116979D01*
X-22366Y114401D02*
X-21939Y114828D01*
Y119971D01*
X-102903Y212402D02*
X-99410D01*
X-102903Y214370D02*
X-102707Y214567D01*
X-99606D01*
X-91339Y182677D02*
X-89173Y184843D01*
X-78592D01*
X-121312Y67920D02*
X-119426D01*
X-119229Y68116D01*
X-119095Y67120D02*
X-118898Y67317D01*
X-119229Y68116D02*
X-118501D01*
X-117818Y68799D01*
X-116437D01*
X-118898Y67317D02*
X-118501D01*
X-117818Y66634D01*
X-116437D01*
X-121897Y68504D02*
X-121312Y67920D01*
X-123425Y68504D02*
X-121897D01*
X-121312Y67120D02*
X-119095D01*
X-121897Y66535D02*
X-121312Y67120D01*
X-123425Y66535D02*
X-121897D01*
X-129081Y62014D02*
X-128497Y62598D01*
X-126969D01*
X-175197Y19685D02*
X-172339D01*
X-161808Y27553D02*
X-161126Y26870D01*
X-163786Y27553D02*
X-161808D01*
X-161126Y26870D02*
X-159745D01*
X-172339Y19685D02*
X-171460Y20565D01*
X-164117Y28353D02*
X-161808D01*
X-161125Y29035D01*
X-159744D01*
X-175197Y22244D02*
X-172339D01*
X-171460Y21365D01*
X-164948Y26391D02*
X-163786Y27553D01*
X-165748Y26722D02*
X-164117Y28353D01*
X-171460Y21365D02*
X-166824D01*
X-165748Y22441D01*
Y26722D01*
X-166493Y20565D02*
X-164948Y22110D01*
X-171460Y20565D02*
X-166493D01*
X-164948Y22110D02*
Y26391D01*
X38583Y14961D02*
X41339D01*
X16535Y15748D02*
Y25492D01*
X8268Y146457D02*
X8661D01*
X-15640Y117361D02*
Y122549D01*
X-13780Y124409D01*
Y114567D02*
Y118110D01*
Y114567D02*
X-13780Y114567D01*
X-8268Y74410D02*
X-6693Y72835D01*
Y72441D02*
Y72835D01*
X-13780Y121260D02*
X-12280Y119760D01*
X-16067Y116934D02*
X-15640Y117361D01*
X-18504Y72441D02*
X-16535Y74410D01*
X-18504Y72441D02*
Y72441D01*
X-13780Y90551D02*
X-12992Y91339D01*
X-22441Y84252D02*
X-20790Y85903D01*
Y89136D01*
X-19374Y90551D01*
X-13780D01*
X-14567Y111024D02*
X-12280Y113311D01*
Y119760D01*
X-6693Y96063D02*
Y96063D01*
Y96063D02*
X-5118Y94488D01*
X-18504Y96063D02*
X-17018Y97549D01*
X-18218Y119971D02*
X-16929Y121260D01*
X-20866Y97638D02*
Y99739D01*
X-4331Y121260D02*
X-2756Y119685D01*
Y111811D02*
Y119685D01*
X-37795Y180709D02*
Y182283D01*
Y189272D01*
X-38681Y190157D02*
X-37795Y189272D01*
X-16142Y184646D02*
X-15945Y184449D01*
X-16929Y168504D02*
X-15354Y170079D01*
X-15354D01*
X-20079Y168504D02*
X-18790Y169793D01*
X-23228Y137008D02*
Y137008D01*
X-24803Y135433D02*
X-23228Y137008D01*
X-26378Y152756D02*
Y152756D01*
X-35827Y152756D02*
X-35827Y152756D01*
X-30817Y169793D02*
X-29528Y168504D01*
Y159055D02*
Y159055D01*
Y155905D02*
X-29527D01*
X-32677D02*
Y155905D01*
X-36220Y164961D02*
X-35827Y165354D01*
X-23228Y162205D02*
Y162205D01*
X-33966Y157194D02*
X-32677Y155905D01*
X-30817Y150895D02*
X-29528Y149606D01*
X-34203Y148081D02*
X-32677Y149606D01*
X-36221Y168110D02*
X-35827Y168504D01*
X-72146Y176279D02*
X-70660Y177765D01*
X-62992Y170473D02*
Y174542D01*
X-63386Y170079D02*
X-62992Y170473D01*
X-69818Y176279D02*
X-67224D01*
X-79134Y166929D02*
X-77273Y168790D01*
X-62097D02*
X-60236Y166929D01*
X-61525Y165068D02*
X-60236Y163779D01*
X-63920Y168790D02*
X-62097D01*
X-66609Y173927D02*
X-65354Y172672D01*
X-79134Y170079D02*
X-74419Y174794D01*
X-71304D01*
X-69818Y176279D01*
X-70069Y173927D02*
X-69685Y174311D01*
X-75984Y170079D02*
Y170704D01*
X-72761Y173927D01*
X-70069D01*
X-66215Y177765D02*
X-62992Y174542D01*
X-70660Y177765D02*
X-66215D01*
X-63395Y165068D02*
X-61525D01*
X-66831Y168504D02*
X-63395Y165068D01*
X-65354Y170224D02*
X-63920Y168790D01*
X-65354Y170224D02*
Y172672D01*
X-63868Y166929D02*
X-63386D01*
X-65739Y168799D02*
X-63868Y166929D01*
X-65739Y168799D02*
Y169119D01*
X-67092Y170472D02*
X-65739Y169119D01*
X-69685Y170472D02*
X-67092D01*
X-67968Y173927D02*
X-66609D01*
X-69070Y172825D02*
X-67968Y173927D01*
X-71761Y172825D02*
X-69070D01*
X-72146Y172441D02*
X-71761Y172825D01*
X-67640Y172025D02*
X-67224Y172441D01*
X-70234Y172025D02*
X-67640D01*
X-71393Y170866D02*
X-70234Y172025D01*
X-77273Y168790D02*
X-74468D01*
X-72391Y170866D01*
X-71393D01*
X-75984Y166929D02*
X-75578Y167335D01*
X-73216D02*
X-72047Y168504D01*
X-75578Y167335D02*
X-73216D01*
X-74555Y166535D02*
X-69685D01*
X-76022Y165068D02*
X-74555Y166535D01*
X-77845Y165068D02*
X-76022D01*
X-79134Y163779D02*
X-77845Y165068D01*
X-68066Y166053D02*
X-65659D01*
X-63386Y163779D01*
X-69070Y165050D02*
X-68066Y166053D01*
X-75984Y163779D02*
X-75286Y163081D01*
X-67542Y164250D02*
X-67224Y164567D01*
X-75286Y163081D02*
X-71205D01*
X-70037Y164250D01*
X-67542D01*
X-72047Y164567D02*
X-71565Y165050D01*
X-69070D01*
X-69685Y162491D02*
Y162500D01*
X-62097Y162491D02*
X-60236Y160630D01*
X-67224Y160531D02*
X-63484D01*
X-63386Y160630D01*
X-73533Y161919D02*
X-72146Y160531D01*
X-77845Y161919D02*
X-73533D01*
X-79134Y160630D02*
X-77845Y161919D01*
X-75984Y160630D02*
X-73917Y158563D01*
X-69685D01*
X-67224Y156595D02*
X-66339Y157480D01*
X-63386D01*
X-67377Y158769D02*
X-61525D01*
X-60236Y157480D01*
X-63920Y155620D02*
X-61525D01*
X-60236Y154331D01*
X-64596Y154943D02*
X-63920Y155620D01*
X-63770Y154331D02*
X-63386D01*
X-69685Y154626D02*
X-69368Y154943D01*
X-64596D01*
X-72146Y156595D02*
X-69552D01*
X-67377Y158769D01*
X-72146Y152657D02*
X-71663Y152175D01*
X-75984Y154331D02*
X-71491D01*
X-65475Y152306D02*
Y152626D01*
X-63770Y154331D01*
X-67224Y148721D02*
X-64075D01*
X-63386Y148031D01*
X-39079Y155905D02*
X-35827D01*
X-35827Y152756D02*
X-35827Y152756D01*
X-35827D02*
X-35827Y152756D01*
X-37795Y152756D02*
X-35827D01*
X-34177Y154256D02*
X-32677Y152756D01*
X-38417Y154256D02*
X-34177D01*
X-29528Y152756D02*
Y152756D01*
X-27953Y151181D01*
Y151181D02*
Y151181D01*
X-42126Y152859D02*
X-41732Y153253D01*
X-27953Y154331D02*
X-27953Y154331D01*
X-26378Y152756D01*
X-69326Y148721D02*
X-67348Y146742D01*
X-62852D01*
X-62097Y147498D01*
Y147994D01*
X-60198Y149892D01*
X-58376D01*
X-57087Y151181D01*
X-72146Y148721D02*
X-69326D01*
X-66609Y151172D02*
X-65475Y152306D01*
X-67840Y151172D02*
X-66609D01*
X-64195Y150372D02*
X-63386Y151181D01*
X-69368Y150372D02*
X-64195D01*
X-69685Y150689D02*
X-69368Y150372D01*
X-60236Y170079D02*
Y171413D01*
X-75984Y144882D02*
X-75197D01*
X-34252Y144882D02*
X-32677Y146457D01*
X-75984Y135433D02*
X-73228D01*
X-75984Y135433D02*
X-75984Y135433D01*
X-29528Y143307D02*
X-27953Y144882D01*
X-27953D01*
X-63386Y144882D02*
X-63386D01*
X-27559Y142126D02*
X-26378Y143307D01*
X-27953Y141732D02*
Y142126D01*
X-79134Y138583D02*
Y138583D01*
X-61525Y140443D02*
X-60236Y141732D01*
X-61525Y138620D02*
Y140443D01*
X-62852Y137294D02*
X-61525Y138620D01*
X-45428Y144882D02*
X-34252D01*
X-32677Y143307D02*
X-32677D01*
X-31102Y141732D01*
X-29921Y140157D02*
X-29528D01*
X-31496Y138583D02*
X-31102D01*
X-48578Y141732D02*
X-45428Y144882D01*
X-63386Y138583D02*
Y139472D01*
X-65048Y139758D02*
X-63672D01*
X-65748Y139058D02*
X-65048Y139758D01*
X-63672D02*
X-63386Y139472D01*
X-35827Y140157D02*
X-34252Y138583D01*
X-35827Y140157D02*
X-35827D01*
X-65748Y141258D02*
X-65048Y140558D01*
X-63672D01*
X-63386Y140843D01*
Y141732D01*
X-34252Y141732D02*
X-32677Y140157D01*
X-34252Y141732D02*
Y141732D01*
X-63386Y144882D02*
X-61811Y143307D01*
X-66535Y135827D02*
X-65068Y137294D01*
X-62852D01*
X-50394Y147244D02*
X-49606Y146457D01*
X-35827D01*
X-50319Y140083D02*
X-49213Y138976D01*
X-58736Y140083D02*
X-50319D01*
X-60236Y138583D02*
X-58736Y140083D01*
X-75984Y138583D02*
X-70079D01*
X-69291Y139370D01*
X-26378Y140157D02*
X-24803Y141732D01*
X-26378Y140157D02*
X-26378D01*
X-75984Y132283D02*
X-73622D01*
X-73228Y132677D01*
X-29528Y137008D02*
X-27953Y138583D01*
X-29528Y137008D02*
X-29528D01*
X-63386Y132283D02*
X-61811Y133858D01*
X-61811D02*
X-61811D01*
X-79134Y129134D02*
X-77845Y130423D01*
X-71939D01*
X-71260Y131102D01*
X-60236Y129134D02*
X-58736Y127634D01*
X-63386Y129134D02*
X-61811Y130709D01*
Y130709D01*
X-27953Y135433D02*
X-26924D01*
X-26061Y136297D01*
Y136690D01*
X-26378Y137008D02*
X-26061Y136690D01*
X-31102Y132283D02*
X-29528Y133858D01*
X-31496Y132283D02*
X-31102D01*
X-31496D02*
X-31496Y132283D01*
X-31102D01*
X-75984Y122835D02*
X-71501D01*
X-65748Y128587D01*
Y129134D01*
X-77924Y124775D02*
X-77587D01*
X-79134Y125984D02*
X-77924Y124775D01*
X-35827Y133858D02*
X-35827Y133858D01*
X-75698Y127959D02*
X-74016D01*
X-75984Y128245D02*
X-75698Y127959D01*
X-74016D02*
X-73622Y128353D01*
X-75984Y128245D02*
Y129134D01*
X-73622Y128353D02*
Y128659D01*
X-35827Y130709D02*
Y130709D01*
X-75984Y125984D02*
Y126873D01*
X-75698Y127159D02*
X-74016D01*
X-75984Y126873D02*
X-75698Y127159D01*
X-73622Y126459D02*
Y126765D01*
X-74016Y127159D02*
X-73622Y126765D01*
X-34252Y129134D02*
X-32677Y130709D01*
Y130709D01*
X-37008Y129528D02*
X-35827Y130709D01*
X-37795Y129528D02*
X-37008D01*
X-26378Y149606D02*
X-26378D01*
X-24803Y148031D01*
X-24803Y154331D02*
X-24803D01*
X-26378Y155905D02*
X-26378Y155905D01*
X-24803Y154331D01*
X-7677Y180118D02*
X-6299D01*
X-4134D02*
Y180801D01*
X-5301Y181968D02*
X-4134Y180801D01*
X-4331Y165354D02*
X-4331D01*
X-7812Y198324D02*
X-7555Y198068D01*
Y195835D02*
Y198068D01*
X-7799Y195591D02*
X-7555Y195835D01*
X-6667Y181968D02*
X-5301D01*
X-31102Y129134D02*
X-29528Y130708D01*
Y130709D01*
X-27953Y129134D02*
X-26378Y130709D01*
X-79134Y138583D02*
X-77559Y140157D01*
X-73622D01*
X-80709Y143307D02*
X-79134Y144882D01*
X-30817Y126270D02*
X-29528Y127559D01*
X-30817Y124447D02*
Y126270D01*
X-32715Y122549D02*
X-30817Y124447D01*
X-33211Y122549D02*
X-32715D01*
X-34538Y121222D02*
X-33211Y122549D01*
X-34538Y120726D02*
Y121222D01*
X-35865Y119399D02*
X-34538Y120726D01*
X-34252Y119685D02*
X-32677Y121260D01*
X-31102Y122835D02*
X-29528Y124409D01*
X-26378Y116142D02*
Y118110D01*
X-23228Y121260D02*
X-21939Y119971D01*
X-27953Y125984D02*
X-26378Y124409D01*
X-27953Y125984D02*
Y125984D01*
X-23228Y127559D02*
X-23228D01*
X-21654Y125984D01*
X-23228Y124409D02*
X-23228D01*
X-21654Y122835D01*
X-20079Y127559D02*
X-18504Y125984D01*
X-18504D01*
X-13780Y127559D02*
X-13780D01*
X-4724Y90158D02*
Y90158D01*
X-6693Y92126D02*
X-4724Y90158D01*
X-10630Y124409D02*
X-10630D01*
X-9084Y122863D02*
Y123200D01*
X-6693Y68504D02*
X-4724Y70472D01*
X-6693Y68504D02*
Y68504D01*
X-12205Y129134D02*
X-10630Y127559D01*
X-12205Y129134D02*
Y129134D01*
X-13780Y127559D02*
X-12205Y125984D01*
Y125984D02*
Y125984D01*
X-18504Y68504D02*
X-16535Y70472D01*
X-18504Y68504D02*
Y68504D01*
X-33071Y6693D02*
Y20472D01*
X3108Y25197D02*
X5906D01*
X2001Y26303D02*
X3108Y25197D01*
X7542Y27103D02*
X7874Y26772D01*
X-33071Y20472D02*
X-26440Y27103D01*
X-11417Y6693D02*
Y20079D01*
X-8661Y22835D01*
X1969D01*
X-2756Y6693D02*
Y17717D01*
X-7087Y6693D02*
Y14517D01*
X-2756Y17717D02*
X-787Y19685D01*
X3937D01*
X-7087Y14517D02*
X-419Y21185D01*
X8736D01*
X9449Y20472D01*
X-17275Y117764D02*
X-16929Y118110D01*
X-55514Y60243D02*
X-54787D01*
X-56197Y60926D02*
X-55514Y60243D01*
X-57578Y60926D02*
X-56197D01*
X-57579Y58760D02*
X-56198D01*
X-55515Y59443D01*
X-54455D01*
X-77559Y53340D02*
X-75932D01*
X-75348Y52756D01*
X-78347Y52553D02*
X-77559Y53340D01*
X-68747Y52756D02*
X-68163Y53340D01*
X-67323D01*
X-66732Y52750D01*
X-75348Y52756D02*
X-73819D01*
X-70276D01*
X-68747D01*
X-66732Y52750D02*
X-64957D01*
X-64275Y52067D01*
X-62894D01*
X-75348Y54724D02*
X-73819D01*
X-75932Y54140D02*
X-75348Y54724D01*
X-73819D02*
X-70276D01*
X-68747D01*
X-68163Y54140D01*
X-66992D01*
X-77890D02*
X-75932D01*
X-79146Y52884D02*
X-77890Y54140D01*
X-64275Y54232D02*
X-62894D01*
X-66992Y54140D02*
X-66401Y53550D01*
X-64957D02*
X-64275Y54232D01*
X-66401Y53550D02*
X-64957D01*
X-75348Y58661D02*
X-73819D01*
X-75932Y59246D02*
X-75348Y58661D01*
X-70276D02*
X-68747D01*
X-73819D02*
X-70276D01*
X-68747D02*
X-68163Y59246D01*
X-65945D01*
X-64957Y59443D02*
X-64275Y58760D01*
X-62894D01*
X-65945Y59246D02*
X-65748Y59443D01*
X-64957D01*
X-75932Y60046D02*
X-75348Y60630D01*
X-68747D02*
X-68163Y60046D01*
X-66276D01*
X-66079Y60242D01*
X-64957D01*
X-64275Y60925D01*
X-75348Y60630D02*
X-73819D01*
X-70276D01*
X-68747D01*
X-64275Y60925D02*
X-62894D01*
X-86995Y55524D02*
X-83274Y59246D01*
X-87795Y55856D02*
X-83605Y60046D01*
X-83274Y59246D02*
X-75932D01*
X-83605Y60046D02*
X-75932D01*
X-61811Y68304D02*
Y70473D01*
Y68304D02*
X-61227Y67720D01*
X-60427D02*
X-59842Y68304D01*
Y70473D01*
X-150725Y60642D02*
X-132665D01*
X-150394Y59842D02*
X-132333D01*
X-130962Y61214D01*
X-132665Y60642D02*
X-131293Y62014D01*
X-168110Y45350D02*
X-167410Y46050D01*
X-164186D01*
X-150394Y59842D01*
X-128497Y60630D02*
X-126969D01*
X-167410Y46850D02*
X-164517D01*
X-168110Y47550D02*
X-167410Y46850D01*
X-164517D02*
X-150725Y60642D01*
X-130962Y61214D02*
X-129081D01*
X-128517Y60650D01*
X-128497Y60630D01*
X-131293Y62014D02*
X-129081D01*
X-130968Y67920D02*
X-129081D01*
X-128497Y68504D02*
X-126969D01*
X-131299Y67120D02*
X-129081D01*
X-128497Y66535D02*
X-126969D01*
X-132346Y69298D02*
X-130968Y67920D01*
X-129081D02*
X-128497Y68504D01*
X-136227Y69298D02*
X-132346D01*
X-139764Y72835D02*
X-136227Y69298D01*
X-132677Y68498D02*
X-131299Y67120D01*
X-129081D02*
X-128497Y66535D01*
X-136227Y68498D02*
X-132677D01*
X-139764Y64961D02*
X-136227Y68498D01*
X-123425Y60630D02*
X-121897D01*
X-121312Y61214D01*
X-120269D02*
X-119291Y60236D01*
X-121312Y61214D02*
X-120269D01*
X-121897Y62598D02*
X-121312Y62014D01*
X-119938D01*
X-123425Y62598D02*
X-121897D01*
X-119938Y62014D02*
X-118491Y60568D01*
X-143295Y48044D02*
X-121641D01*
X-142963Y47244D02*
X-121309D01*
X-121641Y48044D02*
X-119291Y50394D01*
X-121309Y47244D02*
X-118491Y50062D01*
X-154429Y29035D02*
X-153048D01*
X-152365Y28353D02*
X-149600D01*
X-153048Y29035D02*
X-152365Y28353D01*
X-149600D02*
X-146063Y31890D01*
Y45276D02*
X-143295Y48044D01*
X-146063Y31890D02*
Y45276D01*
X-154429Y26870D02*
X-153048D01*
X-152365Y27553D01*
X-149269D01*
X-145657Y31165D01*
Y31165D01*
X-145263Y31558D01*
Y44944D01*
X-142963Y47244D01*
X-119291Y50394D02*
Y60236D01*
X-118491Y50062D02*
Y60568D01*
X-1181Y162205D02*
X-1181D01*
X394Y163779D01*
X18371Y131877D02*
X19698D01*
X21654Y129921D01*
X18702Y132677D02*
X20029D01*
X22454Y130253D01*
X14567Y133858D02*
X15456D01*
X15742Y133133D02*
X16877Y131998D01*
X18251D01*
X15456Y133858D02*
X15742Y133572D01*
Y133133D02*
Y133572D01*
X18251Y131998D02*
X18371Y131877D01*
X16542Y133465D02*
Y133572D01*
Y133465D02*
X17209Y132798D01*
X16828Y133858D02*
X17717D01*
X17209Y132798D02*
X18582D01*
X16542Y133572D02*
X16828Y133858D01*
X18582Y132798D02*
X18702Y132677D01*
X17717Y137008D02*
X18048Y136676D01*
X17717Y149606D02*
X17717Y149606D01*
X-23228Y118110D02*
X-22822Y117704D01*
X-29528Y114567D02*
X-29528Y114567D01*
X-29528Y114567D02*
Y118110D01*
X-28028Y113946D02*
Y119760D01*
X-29528Y121260D02*
X-28028Y119760D01*
X-26378Y121260D02*
X-24878Y119760D01*
Y109130D02*
Y119760D01*
Y109130D02*
X-23228Y107480D01*
X-56197Y54233D02*
X-55514Y53550D01*
X-57578Y54233D02*
X-56197D01*
X-55514Y53550D02*
X-52750D01*
X-51384Y54915D01*
X-51968Y68304D02*
Y70473D01*
Y68304D02*
X-51384Y67720D01*
X-57579Y52067D02*
X-56198D01*
X-55515Y52750D01*
X-52418D01*
X-50584Y54584D01*
Y67720D02*
X-50000Y68304D01*
Y70473D01*
X-51384Y54915D02*
Y67720D01*
X-50584Y54584D02*
Y67720D01*
X-55321Y66001D02*
Y67720D01*
X-54521Y66332D02*
Y67720D01*
X-55321Y66001D02*
X-54331Y65010D01*
Y60699D02*
Y65010D01*
X-54521Y66332D02*
X-53531Y65342D01*
X-54787Y60243D02*
X-54331Y60699D01*
X-54455Y59443D02*
X-53531Y60367D01*
X-55905Y68304D02*
Y70473D01*
Y68304D02*
X-55321Y67720D01*
X-54521Y67720D02*
X-53937Y68304D01*
Y70473D01*
X-53531Y60367D02*
Y65342D01*
X-61480Y63373D02*
X-60427Y64426D01*
X-109741Y68800D02*
X-109058Y68117D01*
X-111122Y68800D02*
X-109741D01*
X-109058Y68117D02*
X-103606D01*
X-109741Y66634D02*
X-109058Y67317D01*
X-111122Y66634D02*
X-109741D01*
X-109058Y67317D02*
X-103937D01*
X-61227Y64758D02*
Y67720D01*
X-60427Y64426D02*
Y67720D01*
X-103606Y68117D02*
X-99269Y63779D01*
X-62205D01*
X-61227Y64758D01*
X-99600Y62980D02*
X-61873D01*
X-61480Y63373D01*
X-61480D01*
X-103937Y67317D02*
X-99600Y62980D01*
X-74803Y84530D02*
X-74103Y85230D01*
X-72247Y84646D02*
X-70079D01*
X-74103Y85230D02*
X-72831D01*
X-72247Y84646D01*
X-74103Y86030D02*
X-72831D01*
X-72247Y86614D01*
X-70079D01*
X-41339Y124409D02*
X-35827D01*
X-34252Y122835D02*
X-32677Y124409D01*
X-37795Y122835D02*
X-34252D01*
X-38189Y122441D02*
X-37795Y122835D01*
X-40157Y122441D02*
X-38189D01*
X-34327Y125909D02*
X-32677Y127559D01*
X-60236Y122835D02*
X-58947Y121546D01*
X-63386Y122835D02*
X-61297Y120746D01*
X-54401D01*
X-47244Y120079D02*
Y122593D01*
X-43928Y125909D01*
X-34327D01*
X-52540Y124728D02*
X-51550D01*
X-54401Y120746D02*
X-51919Y123228D01*
X-43410Y127559D02*
X-35827D01*
X-58947Y121546D02*
X-55723D01*
X-52540Y124728D01*
X-34252Y117564D02*
Y119685D01*
X-38131Y119399D02*
X-35865D01*
X-37402Y121260D02*
X-35827D01*
X-31102Y119685D02*
Y122835D01*
X-55905Y94882D02*
Y98032D01*
X-53937Y94882D02*
Y96752D01*
X-52756Y97933D01*
X-62008Y102982D02*
Y103665D01*
X-61811Y98031D02*
X-61811Y98031D01*
X-61811Y94882D02*
Y98031D01*
X-55905Y98032D02*
X-55193Y98744D01*
Y100862D01*
X-57087Y102756D02*
X-55193Y100862D01*
X-58933Y102756D02*
X-57087D01*
X-59842Y103665D02*
X-58933Y102756D01*
X-66658Y103665D02*
X-66043D01*
X-67004Y104012D02*
X-66658Y103665D01*
X-67004Y104012D02*
Y104165D01*
X-70079Y90551D02*
Y94095D01*
X-67957Y105118D02*
X-67004Y104165D01*
X-70040Y105118D02*
X-67957D01*
X-77953Y104232D02*
X-72835D01*
X-68843Y152175D02*
X-67840Y151172D01*
X-67542Y152975D02*
X-67224Y152657D01*
X-71491Y154331D02*
X-70135Y152975D01*
X-67542D01*
X-71663Y152175D02*
X-68843D01*
X-102953Y149803D02*
X-102437Y149287D01*
X-102953Y151772D02*
X-100196D01*
X-102953Y153839D02*
X-100492D01*
X-102953Y159055D02*
X-98819D01*
X-95276Y151181D02*
X-94882D01*
X-102953Y147638D02*
X-98032D01*
X-98032Y147638D01*
X-102437Y149287D02*
X-97170D01*
X-95276Y151181D01*
X-100196Y151772D02*
X-98031Y153937D01*
X-100492Y153839D02*
X-98425Y155905D01*
X-94882D01*
X-98819Y159055D02*
X-98032Y159843D01*
X-102953Y161221D02*
X-99803D01*
X-98031Y162992D01*
X-102953Y163189D02*
X-100984D01*
X-98032Y166141D01*
X-98031D01*
X-102953Y165256D02*
X-101038D01*
X-98031Y168263D01*
Y169291D01*
X-102953Y170472D02*
X-102559Y170866D01*
X-94095D01*
X-102953Y172638D02*
X-100197D01*
X-97638Y175197D01*
Y175590D01*
X-102953Y174606D02*
X-101378D01*
X-97638Y178347D01*
Y178740D01*
X-102953Y176673D02*
X-101673D01*
X-99606Y178740D01*
Y181496D01*
X-36146Y143626D02*
X-35827Y143307D01*
X-45669Y142520D02*
X-44563Y143626D01*
X-36146D01*
X-79134Y154331D02*
X-79134D01*
X-77953Y153150D01*
X-77709D01*
X-75197Y144882D02*
X-73622Y143307D01*
Y142913D02*
Y143307D01*
X-85752Y151181D02*
X-82284D01*
X-85948Y150985D02*
X-85752Y151181D01*
X-86023Y150985D02*
X-85948D01*
X-73610Y146838D02*
X-72047Y145276D01*
X-70669D01*
X-73610Y146838D02*
Y148083D01*
X-75984Y150292D02*
Y151181D01*
Y150292D02*
X-75698Y150006D01*
X-73632Y148105D02*
Y148379D01*
Y148105D02*
X-73610Y148083D01*
X-75259Y150006D02*
X-73632Y148379D01*
X-75698Y150006D02*
X-75259D01*
X-70669Y145276D02*
X-69685Y146260D01*
X-35827Y162205D02*
X-34252Y163779D01*
X-35827Y162205D02*
X-35827D01*
X-72379Y144476D02*
X-70854D01*
X-74410Y146506D02*
X-72379Y144476D01*
X-75984Y148031D02*
Y148921D01*
X-75698Y149206D01*
X-75590D01*
X-74432Y147774D02*
X-74410Y147752D01*
Y146506D02*
Y147752D01*
X-74432Y147774D02*
Y148047D01*
X-75590Y149206D02*
X-74432Y148047D01*
X-70854Y144476D02*
X-69685Y143307D01*
X-32677Y162205D02*
X-31102Y163779D01*
X-31102D01*
X-190945Y203740D02*
X-185925D01*
X-185827Y203642D01*
X-190846Y168307D02*
X-184658D01*
X-182283Y170682D01*
Y194094D01*
X-180315Y67170D02*
Y85039D01*
X-18218Y115233D02*
X-17966Y114981D01*
X-18218Y115233D02*
Y119971D01*
X-20866Y99739D02*
X-17966Y102639D01*
Y114981D01*
X-20079Y118110D02*
X-19366Y117397D01*
Y113158D02*
Y117397D01*
X-19685Y112839D02*
X-19366Y113158D01*
X-19685Y104331D02*
Y112839D01*
X-23547Y109921D02*
X-21185Y107558D01*
Y102287D02*
X-20866Y101969D01*
X-21185Y102287D02*
Y107558D01*
X-137008Y105905D02*
Y113681D01*
X-137795Y105118D02*
X-137008Y105905D01*
X-180315Y85039D02*
X-172122Y93232D01*
X-173819Y103740D02*
X-173622Y103937D01*
X-190847Y103740D02*
X-173819D01*
X-190945Y117520D02*
X-183661D01*
X-181890Y119291D01*
Y119685D01*
X-172122Y93232D02*
Y118426D01*
X-173153Y119457D02*
X-172122Y118426D01*
X-178937Y138779D02*
X-178740Y138583D01*
X-190945Y138779D02*
X-178937D01*
X-190846Y125000D02*
X-179725D01*
X-176378Y128347D01*
X63484Y175197D02*
X65059D01*
X65059Y175197D01*
X65994D01*
X62845Y167126D02*
X65391D01*
X65994Y167729D01*
Y175197D01*
X-93307Y224803D02*
X-77953Y209449D01*
X-127953Y224803D02*
X-93307D01*
X-131102Y221654D02*
X-127953Y224803D01*
X-131102Y211811D02*
Y221654D01*
D67*
X3347Y45079D02*
X7283D01*
X3150Y45276D02*
X3347Y45079D01*
X-35827Y171654D02*
Y174016D01*
X-45669Y76772D02*
X-41732D01*
X-58624Y124372D02*
X-57087Y122835D01*
X-60236Y125984D02*
X-58624Y124372D01*
X-92126Y144193D02*
X-90158Y142224D01*
X-92126Y144193D02*
Y144488D01*
X-98Y187697D02*
X0Y187795D01*
X-98Y184449D02*
Y187697D01*
X-6299Y187402D02*
X-6299Y187402D01*
X-6299Y184449D02*
Y187402D01*
X18209Y174409D02*
Y177953D01*
X17717Y173917D02*
X18209Y174409D01*
X17717Y171654D02*
Y173917D01*
X-163681Y218110D02*
X-162992D01*
X-163878Y218307D02*
X-163681Y218110D01*
X-165551Y218307D02*
X-163878D01*
X46063Y169685D02*
X47152D01*
X42028Y171752D02*
Y175197D01*
X12978Y132297D02*
Y132298D01*
X11417Y133858D02*
X12978Y132298D01*
Y132297D02*
X12992Y132283D01*
X11417Y130709D02*
X12992Y129134D01*
X9843Y125984D02*
X11417Y127559D01*
X9843Y125984D02*
X9843D01*
X12992Y88189D02*
Y88583D01*
X11417Y90158D02*
X12992Y88583D01*
X0Y90158D02*
X1181Y91339D01*
Y92126D01*
X11024Y86221D02*
X11024D01*
X9055Y84252D02*
X11024Y86221D01*
X9055Y88189D02*
X11024Y86221D01*
X2756Y98425D02*
Y98425D01*
X1181Y100000D02*
X2756Y98425D01*
X135039Y159843D02*
X137008Y157874D01*
X169685D01*
X33465Y153051D02*
Y155512D01*
Y153051D02*
X33760Y152756D01*
X6693Y151181D02*
X8268Y149606D01*
X5118Y152756D02*
X6693Y154331D01*
X5118Y155905D02*
X6693Y154331D01*
X6693Y160630D02*
Y160933D01*
X5118Y159055D02*
X6693Y160630D01*
X-83661Y105905D02*
X-81102D01*
X-94488D02*
X-91142D01*
X-67716Y94882D02*
X-67716Y94882D01*
X-65748D01*
X-87008Y113779D02*
X-86221Y114567D01*
X-87008Y103543D02*
Y113779D01*
Y103543D02*
X-86811Y103347D01*
X-83661D01*
X-114961Y105905D02*
X-112402Y108465D01*
X-91142D01*
X3543Y129134D02*
X5118Y130709D01*
X3543Y129134D02*
X3543D01*
X16461Y119703D02*
X17717Y118447D01*
Y118110D02*
Y118447D01*
X16461Y119703D02*
Y120004D01*
X-21260Y94882D02*
X-20472D01*
X-22441Y96063D02*
X-21260Y94882D01*
X-24016Y92126D02*
X-22441D01*
X-25591Y93701D02*
X-24016Y92126D01*
X-42126Y76772D02*
X-41732D01*
X-41732Y76772D02*
X-41732Y76772D01*
X12992Y180709D02*
X13287D01*
X14862Y182283D01*
X-5906Y141339D02*
X-5512D01*
X-6299D02*
X-5906D01*
X-5512D02*
X-4331Y140157D01*
X-7480Y137008D02*
Y140157D01*
X-10630Y173228D02*
Y174803D01*
Y173228D02*
X-9843Y172441D01*
X60138Y172933D02*
X60236Y172835D01*
X50689Y172441D02*
Y175197D01*
X-126772Y109055D02*
X-126279Y108563D01*
Y106201D02*
Y108563D01*
X-131102Y104724D02*
X-129626Y106201D01*
X-132677Y104724D02*
X-131102D01*
X-133933Y108587D02*
X-127165Y115354D01*
X-133933Y106618D02*
Y108587D01*
X-40945Y82677D02*
X-39764Y81496D01*
X-45669Y82677D02*
X-40945D01*
X-41732Y8661D02*
X-41142Y8071D01*
X-37795D01*
X27854Y51968D02*
X27953D01*
X25591D02*
X27854D01*
X-185039Y152756D02*
X-185039Y152756D01*
X-15333Y163759D02*
Y163779D01*
X-11733Y163308D02*
Y163645D01*
X9547Y190157D02*
X11811D01*
X-168110Y208563D02*
Y210827D01*
Y218307D01*
X-166437Y222146D02*
X-165551Y221260D01*
Y218307D02*
Y221260D01*
X-166437Y222146D02*
Y224410D01*
X-172047D02*
X-169783D01*
X-18012Y193405D02*
X-15748Y195669D01*
X-20472Y193405D02*
X-18012D01*
X-37795Y171654D02*
X-35827D01*
X-37894Y171555D02*
X-37795Y171654D01*
X-42520Y171555D02*
X-37894D01*
X-23228Y173622D02*
X-23228Y173622D01*
X-18898Y163385D02*
X-18898D01*
X-20079Y162205D02*
X-18898Y163385D01*
X-15333Y163759D02*
X-13780Y162205D01*
X-11733Y163308D02*
X-10630Y162205D01*
X-12218Y166929D02*
X-12205D01*
X-9055Y163779D02*
X-7480Y165354D01*
X-12205Y166929D02*
X-10630Y168504D01*
Y171654D02*
X-9843Y172441D01*
X-15312Y160672D02*
X-15312D01*
X-15354Y160630D02*
X-15312Y160672D01*
X-16929Y162205D02*
X-15354Y160630D01*
X-15354Y157480D02*
Y157480D01*
X-13780Y159055D01*
X-15354Y157480D02*
Y157480D01*
X-15354Y157480D02*
X-15354Y157480D01*
X-7255Y158830D02*
X-4556D01*
X-4331Y159055D01*
X-7480D02*
X-7255Y158830D01*
X-4331Y159055D02*
X-2756Y160630D01*
X-4331Y159055D02*
X-4331D01*
X59842Y172441D02*
X60236Y172835D01*
X60138Y172933D02*
Y175197D01*
X62845Y169095D02*
Y170325D01*
X63386Y170866D01*
X44587Y152756D02*
Y156988D01*
X47152Y169685D02*
X49711Y167126D01*
X51279D01*
X46063Y169685D02*
Y170125D01*
X6639Y163833D02*
X6639D01*
X39370Y89764D02*
X43307D01*
X44094Y90551D01*
X-75787Y180905D02*
X-74803Y181890D01*
X-78592Y180905D02*
X-75787D01*
X-35335Y190157D02*
Y192224D01*
X-34252Y193307D01*
X-12205Y135433D02*
X-10630Y133858D01*
X-12205Y135433D02*
X-12205Y135433D01*
X-13780Y146457D02*
X-10630Y143307D01*
X-15354Y148031D02*
X-13780Y146457D01*
X-11819Y145268D02*
X-10630Y146457D01*
X-12591Y145268D02*
X-11819D01*
X-15354Y148031D02*
Y148031D01*
X-2362Y135039D02*
X-2362D01*
X-4331Y137008D02*
X-2362Y135039D01*
X-2362Y135039D02*
Y135039D01*
Y135039D02*
X-1181Y133858D01*
X-7480Y140157D02*
X-6299Y141339D01*
X-7480Y140157D02*
X-7480D01*
X19610Y171653D02*
X19610Y171654D01*
X17717D02*
X19610D01*
X-13780Y143307D02*
X-12205Y141732D01*
X-20079Y140157D02*
X-20079D01*
X-18504Y141732D01*
X-20079Y143307D02*
X-18504Y141732D01*
X-20079Y143307D02*
X-20079D01*
X-18504Y141732D02*
Y141732D01*
Y141732D02*
X-16929Y140157D01*
X11417Y130709D02*
Y130709D01*
X-12205Y151181D02*
X-10630Y152756D01*
X-12205Y154331D02*
X-12205D01*
X-13780Y155905D02*
X-12205Y154331D01*
X-12205Y151181D02*
X-12205Y151181D01*
X-23228Y171654D02*
Y173622D01*
X-10630Y168504D02*
Y168504D01*
X-9420Y160265D02*
Y160601D01*
X-10630Y159055D02*
X-9420Y160265D01*
X37106Y152756D02*
X41240D01*
X61024Y81496D02*
X63681D01*
X-70079Y76772D02*
X-70079Y76772D01*
X-73622Y76772D02*
X-70079D01*
X-74410Y78740D02*
X-70079D01*
X-74803Y79134D02*
X-74410Y78740D01*
X-73228Y88583D02*
X-70079D01*
X-73228Y88583D02*
X-73228Y88583D01*
X-57874Y94882D02*
Y98032D01*
X-70079Y74803D02*
X-70079Y74803D01*
Y72441D02*
Y74803D01*
X-57874Y66929D02*
X-57874Y66929D01*
Y70473D01*
X-45669Y74803D02*
X-45669Y74803D01*
Y72933D02*
Y74803D01*
X-45669Y84646D02*
X-45669Y84646D01*
X-42126D01*
X51575Y66929D02*
Y69685D01*
Y66929D02*
X52559Y65945D01*
X55216D01*
X51575Y77165D02*
X51968D01*
X52264Y76870D01*
X55118D01*
Y73524D02*
X55216Y73425D01*
Y67913D02*
Y73425D01*
X58760Y76870D02*
X59842D01*
X55413Y73524D02*
X58760Y76870D01*
X55118Y73524D02*
X55413D01*
X62500D02*
X62598Y73622D01*
X59842Y73524D02*
X62500D01*
X72835Y73622D02*
X77165D01*
X69587Y76870D02*
X72835Y73622D01*
X66929Y76870D02*
X69587D01*
X-140551Y116929D02*
X-140453Y117028D01*
X-137008D01*
X77165Y73622D02*
X79134Y71653D01*
Y61024D02*
Y71653D01*
X66535Y68159D02*
Y69685D01*
Y68159D02*
X66782Y67913D01*
X31201Y51968D02*
X37697D01*
X27559Y49213D02*
X39764D01*
X27362Y49016D02*
X27559Y49213D01*
X39764D02*
X42913Y46063D01*
X27362Y45669D02*
Y49016D01*
X42028Y171752D02*
X42126Y171653D01*
X51279Y169095D02*
Y171555D01*
X54035Y175197D02*
X56299D01*
X-20079Y133858D02*
X-18504Y132283D01*
X-45669Y185827D02*
Y186614D01*
X-74803Y181890D02*
X-72835Y183858D01*
Y185827D01*
X-67028Y180905D02*
X-65158D01*
X-63779Y179528D01*
X-63386D01*
X-63759Y181777D02*
X-49719D01*
X-45669Y185827D01*
X-64855Y182874D02*
X-63759Y181777D01*
X-67028Y182874D02*
X-64855D01*
X-72047Y56693D02*
X-67323D01*
X-125197Y64567D02*
X-125197Y64567D01*
X-120473D01*
X-175197Y14567D02*
X-170571D01*
X-183760D02*
X-175197D01*
X-184744Y15551D02*
X-183760Y14567D01*
X-184744Y15551D02*
Y23819D01*
X31496Y25591D02*
Y28346D01*
X26378Y25098D02*
X31004D01*
X31496Y25591D01*
X33465Y20079D02*
Y22835D01*
X32185Y18799D02*
X33465Y20079D01*
X32185Y14961D02*
Y18799D01*
X29528Y9843D02*
X32185D01*
X48622Y31496D02*
X50000Y30118D01*
X55709D01*
X31102Y36220D02*
X34843D01*
X37402D01*
X20866Y43406D02*
X23031D01*
X25295Y45669D01*
X27362D01*
Y32480D02*
Y36220D01*
Y32480D02*
X28346Y31496D01*
X48622D01*
X42913Y44488D02*
Y46063D01*
X-10630Y96063D02*
X-9055Y94488D01*
Y94488D02*
Y94488D01*
X-10630Y92126D02*
X-10236D01*
X-9055Y90945D01*
X-10630Y88189D02*
X-9055Y86614D01*
Y86614D02*
Y86614D01*
X-14567Y88189D02*
X-12992Y86614D01*
X-12992D02*
X-12992D01*
X-5906Y119685D02*
X-4331Y118110D01*
X-5906Y119685D02*
Y119685D01*
X-28445Y190157D02*
Y193209D01*
X-28346Y193307D01*
X-35827Y174016D02*
X-35827Y174016D01*
Y173622D02*
Y174016D01*
X-60236Y144882D02*
X-58661Y143307D01*
X-60236Y148031D02*
X-58661Y146457D01*
Y146457D02*
Y146457D01*
X-58268Y158661D02*
X-57087Y157480D01*
X-58268Y158661D02*
X-58268D01*
X-57087Y160630D02*
X-55512Y159055D01*
Y159055D02*
Y159055D01*
Y159055D02*
X-55118Y158661D01*
X-58661Y165354D02*
X-57087Y163779D01*
X-58661Y165354D02*
Y165661D01*
X-57087Y166929D02*
X-55905Y165748D01*
Y165748D02*
Y165748D01*
X-57087Y170079D02*
Y172047D01*
X-57087Y172047D02*
X-57087Y172047D01*
X-57087Y172047D02*
Y172441D01*
X-57087Y135433D02*
X-57087D01*
Y129134D02*
X-54724D01*
X-54724Y129134D01*
X-26378Y146457D02*
Y146457D01*
X-27953Y148031D02*
X-26378Y146457D01*
X-57087Y141732D02*
X-55118D01*
X-57087Y138583D02*
X-54724D01*
X-55118Y141732D02*
X-55118Y141732D01*
X-54724Y138583D02*
X-54724Y138583D01*
X-58661Y133858D02*
X-57087Y135433D01*
X-60236D02*
X-58661Y133858D01*
X-58661D01*
X-57087Y135433D02*
Y135433D01*
X-57087D02*
X-57087Y135433D01*
X-58661Y133858D02*
X-57087Y132283D01*
X-58661Y133858D02*
Y133858D01*
X-57087Y144882D02*
X-56089D01*
X-55118Y145853D01*
Y146457D01*
Y141732D02*
Y143307D01*
X-60236Y132283D02*
X-59970D01*
X-57087Y129134D02*
Y129401D01*
X-59970Y132283D02*
X-57087Y129401D01*
X-58661Y124335D02*
X-58624Y124372D01*
X-57087Y125984D02*
X-56693D01*
X-55118Y124409D01*
X-63386Y125984D02*
X-61811Y127559D01*
Y127559D01*
X-24803Y138583D02*
X-23228Y140157D01*
X-24803Y138583D02*
Y138583D01*
X-23228Y143307D02*
Y143307D01*
X-24803Y144882D02*
X-23228Y143307D01*
X-24803Y144882D02*
X-23228Y146457D01*
X-24803Y144882D02*
Y144882D01*
X-23228Y149606D02*
Y149606D01*
X-24803Y151181D02*
X-23228Y149606D01*
X-24803Y151181D02*
X-23228Y152756D01*
X-24803Y151181D02*
Y151181D01*
X-23228Y155905D02*
Y155905D01*
X-24803Y157480D02*
X-23228Y155905D01*
Y159055D02*
Y159055D01*
X-24803Y157480D02*
X-23228Y159055D01*
X-4134Y184449D02*
X-2165D01*
X-98D01*
X-23228Y130709D02*
X-21654Y129134D01*
X-21654D02*
X-20079Y130709D01*
X-23228Y133858D02*
X-21654Y132283D01*
X-21654D01*
X-21654Y129134D02*
X-21654D01*
X-21654D01*
X-20079Y133858D02*
X-20079D01*
X-16929Y130709D02*
X-16929D01*
X-15354Y129134D01*
X-13780Y130709D02*
X-13780D01*
X-15354Y129134D02*
X-13780Y130709D01*
X-10630D02*
X-9055Y129134D01*
X-9055D01*
X-7480Y127559D02*
Y127559D01*
X-9055Y129134D02*
X-7480Y127559D01*
Y130709D02*
X-7480D01*
X-5906Y129134D01*
X-4331Y130709D02*
X-4331D01*
X-5906Y129134D02*
X-4331Y130709D01*
X-1181D02*
X-1181D01*
X394Y129134D01*
X1969Y130709D02*
X1969D01*
X394Y129134D02*
X1969Y130709D01*
X8268Y127559D02*
Y127559D01*
X9843Y129134D01*
X8268Y133858D02*
X9843Y135433D01*
Y135433D01*
X5118Y143307D02*
X6693Y141732D01*
X5118Y140157D02*
Y140157D01*
X6693Y141732D01*
X5118Y146457D02*
Y146457D01*
X6693Y148031D01*
X5118Y149606D02*
X5118D01*
X6693Y148031D01*
X5118Y152756D02*
Y152756D01*
X394Y160630D02*
X1969Y159055D01*
X-1181D02*
X-1181D01*
X394Y160630D01*
X-16929Y137008D02*
Y137008D01*
X-18504Y135433D02*
X-16929Y137008D01*
X-20079Y137008D02*
X-18504Y135433D01*
X-16929Y133858D01*
X-7480D02*
X-5906Y132283D01*
X-4331Y133858D02*
X-4331D01*
X-5906Y132283D02*
X-4331Y133858D01*
X-4331Y137008D02*
X-4331D01*
X-1181Y133858D02*
Y133858D01*
X1969Y133858D02*
Y133858D01*
X3543Y135433D01*
X1969Y137008D02*
X1969D01*
X3543Y135433D01*
X-1181Y137008D02*
X394Y138583D01*
X-1181Y140157D02*
X-1181D01*
X394Y138583D01*
X1969Y140157D01*
X5118Y133858D02*
X6693Y135433D01*
X5118Y137008D02*
Y137008D01*
Y137008D02*
X6693Y135433D01*
X-1181Y143307D02*
X394Y144882D01*
X-1181Y146457D02*
X-1181D01*
X394Y144882D01*
Y148031D02*
X1969Y146457D01*
X394Y148031D02*
X1969Y149606D01*
X394Y148031D02*
Y148031D01*
Y154331D02*
X1969Y152756D01*
Y155905D02*
Y155905D01*
X394Y154331D02*
X1969Y155905D01*
X-1181Y155905D02*
X394Y154331D01*
X-7480Y152756D02*
X-5906Y154331D01*
X-4331Y155905D01*
X-7480D02*
X-7480D01*
X-5906Y154331D01*
X-4331Y152756D02*
Y152756D01*
X-5906Y151181D02*
X-4331Y152756D01*
X-7480Y149606D02*
X-7480D01*
X-5906Y151181D01*
X-1181Y149606D02*
X394Y151181D01*
X-1181Y152756D02*
X-1181D01*
X394Y151181D01*
X-5906Y144882D02*
X-4331Y146457D01*
X-7480D02*
X-5906Y144882D01*
X-5906D01*
X-4331Y143307D01*
X-7480D02*
X-5906Y144882D01*
X-5906Y144882D01*
Y148031D02*
X-4331Y149606D01*
X-18504Y144882D02*
X-18504Y144882D01*
X-20079Y146457D02*
X-18504Y144882D01*
X-16929Y143307D01*
X-18504Y144882D02*
X-16929Y146457D01*
X-18504Y144882D02*
Y144882D01*
Y151181D02*
X-16929Y149606D01*
X-18504Y151181D02*
Y151181D01*
X-20079Y149606D02*
X-20079D01*
X-18504Y151181D01*
X-20079Y152756D02*
X-18504Y154331D01*
X-20079Y155905D02*
X-20079D01*
X-18504Y154331D01*
X-13780Y152756D02*
X-12205Y151181D01*
Y151181D02*
Y151181D01*
Y151181D02*
X-10630Y149606D01*
X-13780D02*
X-12205Y151181D01*
X-16929Y152756D02*
Y152756D01*
X-18504Y154331D02*
X-16929Y152756D01*
X-18504Y154331D02*
X-16929Y155905D01*
X-10630D02*
Y159055D01*
X-20079D02*
X-18504Y160630D01*
X-18504D02*
X-16929Y159055D01*
X-18504Y160630D02*
X-18504D01*
X-13780Y159055D02*
Y159055D01*
Y162205D02*
X-13780D01*
X-18504Y160630D02*
X-18504D01*
X-7480Y162205D02*
X-7480D01*
X-5906Y163779D01*
X-4331Y162205D02*
X-4331D01*
X-2756Y163779D01*
X-7480Y165354D02*
Y165354D01*
X1969Y143307D02*
X3543Y141732D01*
X3543D01*
X-4331Y127559D02*
Y127559D01*
X-2756Y129134D01*
X-18504Y141732D02*
X-18504D01*
X-13780Y140157D02*
X-13780D01*
X-12205Y141732D01*
X-10630Y140157D01*
X-13780Y137008D02*
X-13780D01*
X-12205Y138583D01*
X-10630Y137008D01*
X-13780Y133858D02*
X-13780D01*
X-12205Y135433D02*
Y135433D01*
X-13780Y133858D02*
X-12205Y135433D01*
X-12205D01*
X-79134Y120866D02*
Y122835D01*
Y120866D02*
X-79134Y120866D01*
X-82284Y129134D02*
Y129134D01*
X-83858Y130709D02*
X-82284Y129134D01*
X-82284Y132283D02*
X-82284D01*
X-83858Y130709D02*
X-82284Y132283D01*
X-79134Y135433D02*
X-79134D01*
X-75984Y141732D02*
Y141732D01*
X-77559Y143307D02*
X-75984Y141732D01*
X-82284Y138583D02*
X-80709Y140157D01*
X-79134Y141732D01*
X-82284D02*
X-82284D01*
X-80709Y140157D01*
X-79134Y151181D02*
Y151181D01*
X-82284Y157480D02*
X-80709Y159055D01*
X-82284Y160630D02*
Y160630D01*
Y163779D02*
X-82284D01*
X-80709Y165354D01*
X-83858Y165354D02*
X-82284Y166929D01*
X-83858Y165354D02*
Y165354D01*
X-82284Y170079D02*
Y172441D01*
X-82284Y172441D01*
X-79134Y148031D02*
Y148031D01*
X-37401Y116535D02*
X-35827Y118110D01*
X-37402Y116535D02*
X-37401D01*
X-12598Y70472D02*
X-10630Y68504D01*
X-14567Y76378D02*
X-12598Y74410D01*
X-10630Y72441D01*
X-12205Y77953D02*
X-10630Y76378D01*
X-12205Y77953D02*
Y77953D01*
X-12598Y78347D02*
X-12205Y77953D01*
X-24803Y68504D02*
X-22441D01*
X-24803Y68504D02*
X-24803Y68504D01*
X-24803Y72441D02*
X-22441D01*
X-24803Y72441D02*
X-24803Y72441D01*
X3150Y70472D02*
X5118Y68504D01*
X1181D02*
Y68504D01*
X3150Y70472D01*
X5118Y72441D02*
X5118D01*
X3150Y70472D02*
X5118Y72441D01*
X1181D02*
X3150Y74409D01*
Y74410D01*
Y78347D02*
X5118Y76378D01*
X5118Y80315D02*
X5118D01*
X3150Y78347D02*
X5118Y80315D01*
X3150Y86221D02*
X5118Y84252D01*
X3150Y86221D02*
X3150D01*
X5118Y88189D02*
X5118D01*
X3150Y86221D02*
X5118Y88189D01*
X3150Y94095D02*
X5118Y92126D01*
X3150Y94095D02*
X3150D01*
X5118Y96063D02*
X5118D01*
X3150Y94095D02*
X5118Y96063D01*
X9055Y92126D02*
X11024Y94095D01*
X9055Y92126D02*
X9055D01*
X11024Y94095D02*
X11024D01*
X9055Y96063D02*
X11024Y94095D01*
X9055Y84252D02*
X9055D01*
Y76378D02*
X11024Y78346D01*
X9055Y76378D02*
X9055D01*
X11024Y78346D02*
X11024D01*
X9055Y80315D02*
X11024Y78346D01*
X9055Y68504D02*
X11024Y70472D01*
X9055Y68504D02*
X9055D01*
X11024Y70472D02*
X11024D01*
X9055Y72441D02*
X11024Y70472D01*
X-24409Y6693D02*
Y10630D01*
X-24409Y10630D02*
X-24409Y10630D01*
X-24409Y10630D02*
Y11024D01*
X-15748Y6693D02*
Y11024D01*
X6791Y7185D02*
Y11319D01*
X6693Y11417D02*
X6791Y11319D01*
X3150Y45276D02*
X3543D01*
X-66043Y107996D02*
X-63976D01*
X-62008D01*
X-59842D01*
X-68232D02*
X-66043D01*
X-68504Y108268D02*
X-68232Y107996D01*
X-72835Y107579D02*
X-72146Y108268D01*
X-68504D01*
X-77953Y107579D02*
Y110236D01*
X-83465Y122835D02*
X-82284D01*
X-84252Y122047D02*
X-83465Y122835D01*
X-82284D02*
Y125984D01*
X-118504Y156693D02*
X-115847D01*
X-118504Y168110D02*
X-115847D01*
X-103445Y142126D02*
X-100787D01*
X-105905Y131496D02*
Y135433D01*
Y131496D02*
X-103937Y129528D01*
Y123622D02*
Y129528D01*
X-101969Y135433D02*
Y138583D01*
X-101575Y138976D01*
X-135039Y105512D02*
X-133933Y106618D01*
X-103839Y181398D02*
X-101969Y179528D01*
X-102903Y216339D02*
Y217864D01*
X-103150Y218110D02*
X-102903Y217864D01*
X-103839Y181398D02*
Y181496D01*
Y181890D01*
X-100000Y135433D02*
X-98032D01*
X-97244Y136221D01*
X-94882D01*
Y138878D01*
Y133957D02*
Y136221D01*
Y128347D02*
Y130610D01*
Y142224D02*
Y144488D01*
Y138878D02*
X-90158D01*
X-83858Y159055D02*
X-82284Y160630D01*
X-80709Y159055D02*
X-80709D01*
Y152756D02*
X-79134Y151181D01*
X-80709Y155905D02*
X-79134Y157480D01*
X-80709Y155905D02*
Y155905D01*
X-61811Y152756D02*
X-60236Y151181D01*
X-113386Y125689D02*
Y127953D01*
Y120079D02*
Y122343D01*
X-109449Y123622D02*
X-107874D01*
X-113386Y122343D02*
X-110728D01*
X-110630Y122441D01*
X-109449Y123622D01*
X-105905Y120669D02*
Y123622D01*
X-100000Y120669D02*
Y123622D01*
X-107087Y116142D02*
X-107087D01*
X-122441Y177953D02*
X-120177D01*
X-116831D02*
Y182677D01*
X-120177D02*
Y192027D01*
X-118504Y193701D01*
X-119685Y212205D02*
Y214469D01*
X-119587Y214370D02*
X-114469D01*
X-119685Y214469D02*
X-119587Y214370D01*
X-114469Y216339D02*
Y218602D01*
X-119685Y217815D02*
X-118012D01*
X-117224Y218602D01*
X-114469D01*
X-115059Y219193D02*
Y222441D01*
Y219193D02*
X-114469Y218602D01*
X-111713Y222441D02*
X-109449D01*
X-31102Y148031D02*
X-29528Y146457D01*
Y146457D02*
Y146457D01*
X-124409Y217815D02*
Y220079D01*
Y214469D02*
X-119685D01*
X-79134Y132283D02*
Y132283D01*
X-77559Y133858D01*
X-77559D01*
X-79134Y135433D02*
X-77559Y133858D01*
X-77559D01*
X-80709D02*
X-80709D01*
X-82284Y135433D02*
X-80709Y133858D01*
X-83872Y146471D02*
X-82284Y144882D01*
X-83872Y146471D02*
Y149592D01*
X-83858Y149606D01*
X-80709Y149606D02*
X-79134Y148031D01*
X-80709Y149606D02*
Y149606D01*
X-179528Y191155D02*
Y197244D01*
Y191155D02*
X-175278Y186906D01*
Y129792D02*
X-174578Y129092D01*
X-175278Y129792D02*
Y186906D01*
X-175984Y116535D02*
X-174578Y117942D01*
Y129092D01*
D68*
X-170669Y203740D02*
X-168110Y201181D01*
X-170669Y203740D02*
Y210827D01*
X-107283Y163189D02*
Y168110D01*
X-107185Y181496D02*
Y181890D01*
Y176772D02*
Y181496D01*
X187795Y130315D02*
Y167717D01*
X190883Y170804D01*
Y205574D01*
X190551Y205906D02*
X190883Y205574D01*
X-175197Y24803D02*
X-170079D01*
X-107283Y147638D02*
Y149803D01*
Y151772D01*
Y153839D01*
Y170472D02*
Y172638D01*
Y174606D01*
Y176673D01*
Y168110D02*
Y170472D01*
Y156693D02*
Y159055D01*
Y161221D01*
Y163189D01*
Y153839D02*
Y156693D01*
Y176673D02*
X-107185Y176772D01*
X-112500Y168110D02*
X-107283D01*
X-112500Y156693D02*
X-107283D01*
Y142618D02*
Y147638D01*
Y142618D02*
X-106791Y142126D01*
X-107480Y138976D02*
X-103937D01*
X-107480D02*
Y140551D01*
X-106791Y141240D01*
Y142126D01*
D69*
X-187008Y66929D02*
X-186033Y65954D01*
Y47432D02*
Y65954D01*
X-186614Y46850D02*
X-186033Y47432D01*
X-178740Y38976D02*
X-173228D01*
X-170079Y35827D01*
X-186614Y46850D02*
X-178740Y38976D01*
X-120276Y80512D02*
X-114961D01*
X178439Y142004D02*
X179406Y141038D01*
X167989Y142004D02*
X178439D01*
X167323Y141339D02*
X167989Y142004D01*
X131021Y111220D02*
X170126D01*
X179406Y120501D01*
Y141038D01*
X133606Y122812D02*
X168875D01*
X119705Y108911D02*
X133606Y122812D01*
X111864Y108911D02*
X119705D01*
X103347Y100394D02*
X111864Y108911D01*
X132405Y125712D02*
X155633D01*
X118504Y111811D02*
X132405Y125712D01*
X80905Y111811D02*
X118504D01*
X69488Y100394D02*
X80905Y111811D01*
X111024Y91223D02*
X131021Y111220D01*
X79921Y151575D02*
X145669D01*
X74410Y146063D02*
X79921Y151575D01*
X74410Y139961D02*
Y146063D01*
X112598Y50787D02*
X118110Y45276D01*
X118504D01*
X145669Y151575D02*
X159449Y137795D01*
X93307Y50787D02*
X112598D01*
X69488Y135039D02*
X74410Y139961D01*
X-170079Y35827D02*
X-165354D01*
X-155905D02*
X-151181D01*
X-122441Y82677D02*
X-120276Y80512D01*
X175197Y129134D02*
Y129921D01*
X102953Y66535D02*
X111024Y74606D01*
Y91223D01*
X167323Y137795D02*
Y141339D01*
X168875Y122812D02*
X175197Y129134D01*
X155633Y125712D02*
X159449Y129528D01*
Y129921D01*
X-114961Y80512D02*
X-114173D01*
X-139764Y82677D02*
X-122441D01*
D70*
X169685Y154724D02*
X175984D01*
X169685Y157874D02*
Y188583D01*
Y154724D02*
Y157874D01*
X175984Y150394D02*
Y154724D01*
Y146063D02*
Y150394D01*
X145276Y197638D02*
X160630D01*
X145276D02*
Y201575D01*
X160630Y197638D02*
X169685Y188583D01*
D71*
X6693Y129134D02*
X8268Y130709D01*
X6693Y116142D02*
Y129134D01*
X20866Y40059D02*
X27559D01*
X28767Y38851D01*
X34127D01*
X-22835Y187402D02*
Y187697D01*
X-23130Y187402D02*
X-22835D01*
Y187697D02*
X-20472Y190059D01*
X21260Y18602D02*
Y27165D01*
X22539Y28445D01*
X26378D01*
X35531Y9843D02*
Y14961D01*
X39370Y9055D02*
X41339D01*
X35531Y9843D02*
X38583D01*
X39370Y9055D01*
X70276Y22047D02*
X72146D01*
X83465Y35039D02*
X84645D01*
X83169Y32480D02*
Y34744D01*
X83465Y35039D01*
X31102Y40945D02*
Y45669D01*
X34843Y40748D02*
Y45669D01*
Y40748D02*
X35433Y40157D01*
X31102Y40945D02*
X31496Y40551D01*
X31890D01*
X34127Y38851D02*
X35433Y40157D01*
X33649Y30131D02*
X35433Y28346D01*
X26378Y28445D02*
X28064Y30131D01*
X33649D01*
X103937Y1575D02*
Y5512D01*
X17323Y5512D02*
Y10630D01*
Y5512D02*
X21260Y1575D01*
X103937D01*
D72*
X-103937Y135433D02*
Y138976D01*
X-107874Y135433D02*
Y138583D01*
X-107480Y138976D01*
D73*
X42717Y12008D02*
D03*
D74*
X143750Y200394D02*
D03*
D75*
X97441Y23425D02*
D03*
D76*
X44291Y76968D02*
D03*
D77*
X56299Y62992D02*
D03*
D78*
X53937Y55709D02*
D03*
D79*
X45669Y56299D02*
D03*
D80*
X73228Y54134D02*
D03*
D81*
X35827Y173228D02*
D03*
D82*
X41732Y159449D02*
D03*
D83*
X44685Y158661D02*
D03*
D84*
X53543Y164173D02*
D03*
D85*
X67126Y158465D02*
D03*
D86*
X-49016Y184449D02*
D03*
D87*
X-67716Y185827D02*
D03*
D88*
X-60039Y188189D02*
D03*
D89*
X-62795Y191142D02*
D03*
D90*
X-86417Y202165D02*
D03*
D91*
X-84055Y193307D02*
D03*
D92*
X-152953Y35827D02*
D03*
D93*
X-166732D02*
D03*
D94*
X-172441Y25984D02*
D03*
D95*
X-169095Y32087D02*
D03*
D96*
X108465Y15551D02*
D03*
D97*
X125984Y30315D02*
D03*
D98*
X145669Y23031D02*
D03*
D99*
X57284Y13976D02*
D03*
D100*
X60630Y20472D02*
D03*
D101*
X60728Y25738D02*
D03*
D102*
X64173Y8169D02*
D03*
D103*
X83858Y17717D02*
D03*
D104*
X71260Y31890D02*
D03*
D105*
X75394Y35433D02*
D03*
D106*
X89961Y38976D02*
D03*
D107*
X93307Y43307D02*
D03*
D108*
X67323Y40748D02*
D03*
D109*
X48031Y45079D02*
D03*
D110*
X-93110Y207283D02*
D03*
D111*
X-100591Y188976D02*
D03*
D112*
X-104528Y194095D02*
D03*
D113*
X-117126Y199803D02*
D03*
D114*
X-112992Y211417D02*
D03*
D115*
X224409Y230315D02*
Y261811D01*
X-196851Y230315D02*
X196850D01*
Y261811D02*
X224409D01*
X196850Y230315D02*
X224410D01*
X196850D02*
Y261811D01*
X-196851Y230315D02*
X132283D01*
X-224409Y230315D02*
Y261811D01*
Y230315D02*
X-196850D01*
X-196850Y230315D02*
Y261811D01*
X-224410Y261811D02*
X-193307D01*
X-196851Y261811D02*
X196850D01*
X224410Y-31496D02*
Y-0D01*
X196851Y0D02*
X224410D01*
X224410Y0D01*
X196851Y-31496D02*
Y-0D01*
Y-31496D02*
X224410D01*
X224410Y0D02*
X224410Y-0D01*
X-224409Y-31496D02*
X-196850D01*
X-224409D02*
Y-0D01*
X-196850D01*
Y-31496D02*
Y-0D01*
Y-31496D02*
X196851D01*
X-196850Y0D02*
X196851D01*
X-224409Y250000D02*
X-224409Y-31496D01*
X196850Y250000D02*
X196851Y-19685D01*
X224410Y250000D02*
X224410Y-19685D01*
X-196850Y-31496D02*
Y250000D01*
D116*
X-151575Y201181D02*
D03*
X-159449D02*
D03*
X-127953D02*
D03*
X-135827D02*
D03*
X-143701D02*
D03*
X-167323D02*
D03*
X-175197D02*
D03*
D117*
X-150000Y11811D02*
D03*
X126378D02*
D03*
X50000Y218504D02*
D03*
X-150000D02*
D03*
D118*
X142520Y18898D02*
D03*
D119*
X166142D02*
D03*
D120*
X82480Y139961D02*
D03*
Y202953D02*
D03*
D121*
X166929Y225590D02*
D03*
Y117323D02*
D03*
D122*
X175197Y129921D02*
D03*
X112205Y137795D02*
D03*
Y129921D02*
D03*
X120079Y137795D02*
D03*
Y129921D02*
D03*
X127953Y137795D02*
D03*
Y129921D02*
D03*
X135827Y137795D02*
D03*
Y129921D02*
D03*
X143701Y137795D02*
D03*
Y129921D02*
D03*
X151575Y137795D02*
D03*
Y129921D02*
D03*
X159449Y137795D02*
D03*
Y129921D02*
D03*
X167323Y137795D02*
D03*
Y129921D02*
D03*
X104331D02*
D03*
Y137795D02*
D03*
X96457D02*
D03*
Y129921D02*
D03*
D123*
X175197Y137795D02*
D03*
D124*
X-185335Y6693D02*
D03*
Y32677D02*
D03*
D125*
X-155512Y42913D02*
D03*
Y94882D02*
D03*
D126*
X117913Y52244D02*
D03*
X127913Y57244D02*
D03*
X117913Y62244D02*
D03*
X127913Y67244D02*
D03*
X117913Y72244D02*
D03*
X127913Y77244D02*
D03*
X117913Y82244D02*
D03*
X127913Y87244D02*
D03*
X117913Y92244D02*
D03*
X127913Y97244D02*
D03*
X172244Y49902D02*
D03*
X166260Y59901D02*
D03*
X172244Y89705D02*
D03*
X166260Y99705D02*
D03*
D127*
X140945Y105571D02*
D03*
Y44035D02*
D03*
D128*
X152953Y97303D02*
D03*
Y52303D02*
D03*
D129*
X-64960Y40551D02*
D03*
X-74803D02*
D03*
X-82677D02*
D03*
X-92519D02*
D03*
X-64960Y30216D02*
D03*
X-74803D02*
D03*
X-82677D02*
D03*
X-92519D02*
D03*
X89173Y66535D02*
D03*
X-122047Y34843D02*
D03*
X-92520Y70669D02*
D03*
X55709Y135039D02*
D03*
Y100394D02*
D03*
X89567D02*
D03*
X-114961Y94291D02*
D03*
D130*
X-104724Y19390D02*
D03*
Y41634D02*
D03*
X-52756D02*
D03*
Y19390D02*
D03*
D131*
X29921Y220797D02*
D03*
X43376Y25197D02*
D03*
D132*
X29921Y206762D02*
D03*
D133*
X-76772Y204724D02*
D03*
D134*
X-66772D02*
D03*
X-56772D02*
D03*
X-46772D02*
D03*
X-36772D02*
D03*
X-26772D02*
D03*
X-16772D02*
D03*
X-6772D02*
D03*
X3228D02*
D03*
X13228D02*
D03*
X-76772Y214724D02*
D03*
X-66772D02*
D03*
X-56772D02*
D03*
X-46772D02*
D03*
X-36772D02*
D03*
X-26772D02*
D03*
X-16772D02*
D03*
X-6772D02*
D03*
X3228D02*
D03*
X13228D02*
D03*
D135*
X57411Y25197D02*
D03*
D136*
X-16929Y78347D02*
D03*
X-1181Y85827D02*
D03*
X9843Y119685D02*
D03*
X-46457Y103937D02*
D03*
X-97638Y138976D02*
D03*
X-92126Y144488D02*
D03*
X178347Y83465D02*
D03*
Y99606D02*
D03*
X0Y187795D02*
D03*
X-6299Y187402D02*
D03*
X91732Y74508D02*
D03*
X92126Y91339D02*
D03*
X-7480Y107874D02*
D03*
X12598Y103543D02*
D03*
X79528Y97244D02*
D03*
X2756Y90158D02*
D03*
X-787Y81890D02*
D03*
X-24803Y75984D02*
D03*
X-162992Y218110D02*
D03*
X-181890Y48819D02*
D03*
X-180315Y57874D02*
D03*
X-188583Y51968D02*
D03*
X-190157Y66929D02*
D03*
X-176575Y42913D02*
D03*
X-186614Y46850D02*
D03*
X-2756Y160630D02*
D03*
X27165Y147244D02*
D03*
X70866Y143307D02*
D03*
X12992Y144882D02*
D03*
Y138583D02*
D03*
Y135433D02*
D03*
X12992Y132283D02*
D03*
X12992Y129134D02*
D03*
X9843Y125984D02*
D03*
X20472Y154330D02*
D03*
X22441Y150787D02*
D03*
X21255Y159837D02*
D03*
X19291Y162598D02*
D03*
X22489Y155743D02*
D03*
X12691Y158118D02*
D03*
X13141Y154518D02*
D03*
X9843Y144882D02*
D03*
X23228Y85039D02*
D03*
X24409Y94095D02*
D03*
X11417Y90158D02*
D03*
X0D02*
D03*
X11024Y86221D02*
D03*
X-13780Y57874D02*
D03*
X-16535Y94095D02*
D03*
X2756Y98425D02*
D03*
X-17323Y98031D02*
D03*
X105118Y92520D02*
D03*
X119291Y186221D02*
D03*
X119685Y176772D02*
D03*
X119291Y218898D02*
D03*
X137795Y170374D02*
D03*
X135039Y159843D02*
D03*
X132283D02*
D03*
X124803Y168898D02*
D03*
X169685Y157874D02*
D03*
X10236Y174409D02*
D03*
X12598Y113386D02*
D03*
X26772D02*
D03*
X27165Y151968D02*
D03*
X28740Y157874D02*
D03*
X29134Y161024D02*
D03*
X25591Y157480D02*
D03*
X26772Y160630D02*
D03*
X33465Y155512D02*
D03*
X6693Y151181D02*
D03*
Y154331D02*
D03*
X6585Y157274D02*
D03*
X6693Y160933D02*
D03*
X12992Y54724D02*
D03*
X8661Y62205D02*
D03*
X7087Y53337D02*
D03*
X-76772Y116535D02*
D03*
X-42520Y123228D02*
D03*
X-27953Y129134D02*
D03*
X-81102Y105905D02*
D03*
X-94488D02*
D03*
X-61811Y100394D02*
D03*
X-65354Y100393D02*
D03*
X-67716Y94882D02*
D03*
X6693Y116142D02*
D03*
X-24803Y122942D02*
D03*
X-27953D02*
D03*
X-66535Y117323D02*
D03*
X-86221Y114567D02*
D03*
X-114961Y105905D02*
D03*
X2756Y113386D02*
D03*
X3543Y129134D02*
D03*
X16461Y119703D02*
D03*
X394Y119685D02*
D03*
Y34252D02*
D03*
X-24803Y80315D02*
D03*
X-16142Y86221D02*
D03*
X-12992Y94095D02*
D03*
X-20472Y94882D02*
D03*
X-25591Y93701D02*
D03*
X-103150Y192126D02*
D03*
X-96850D02*
D03*
X97244Y76378D02*
D03*
X-83071Y77165D02*
D03*
X-42126Y76772D02*
D03*
X-18504Y122835D02*
D03*
X12992Y180709D02*
D03*
X-40945Y129196D02*
D03*
Y135495D02*
D03*
X-46850Y134646D02*
D03*
X-45963Y130315D02*
D03*
X-27953Y132283D02*
D03*
X27165Y165748D02*
D03*
X96063Y190945D02*
D03*
X-184252Y190157D02*
D03*
X-132283Y191732D02*
D03*
X-6937Y174016D02*
D03*
X-10630Y174803D02*
D03*
X-3937Y174015D02*
D03*
X0Y174409D02*
D03*
X1727Y176924D02*
D03*
X-13780Y175590D02*
D03*
X3150Y178740D02*
D03*
X-177165Y146457D02*
D03*
X-70472Y199606D02*
D03*
X-13316Y188621D02*
D03*
X-18214Y188381D02*
D03*
X18110Y187402D02*
D03*
X17323Y10630D02*
D03*
X27165Y189764D02*
D03*
X-127165Y115354D02*
D03*
X-39764Y81496D02*
D03*
X-31496Y77165D02*
D03*
X-41732Y8661D02*
D03*
X-172047Y168898D02*
D03*
X85827Y215354D02*
D03*
X-179528Y52756D02*
D03*
X-175984Y116535D02*
D03*
X-34646Y34646D02*
D03*
X-178740Y138583D02*
D03*
X-176772Y190945D02*
D03*
X-185039Y152756D02*
D03*
X-178740Y176378D02*
D03*
X20866Y181496D02*
D03*
X-21324Y166936D02*
D03*
X-18504Y166929D02*
D03*
X-15333Y163779D02*
D03*
X-11733Y163645D02*
D03*
X-21654Y160630D02*
D03*
X-27953Y163779D02*
D03*
X-27953Y160630D02*
D03*
X-24803Y160630D02*
D03*
X-27953Y157480D02*
D03*
X-31102D02*
D03*
X-27953Y154330D02*
D03*
X-31102Y160630D02*
D03*
X-40157Y164173D02*
D03*
X-44488Y164960D02*
D03*
X11811Y190157D02*
D03*
X2165Y192913D02*
D03*
X5118Y176378D02*
D03*
X22047Y166929D02*
D03*
X-182677Y219783D02*
D03*
X-190748Y225394D02*
D03*
X-182677Y198031D02*
D03*
X-190748Y182087D02*
D03*
X-180413Y185531D02*
D03*
Y163779D02*
D03*
X-190945Y160433D02*
D03*
X-171653Y142126D02*
D03*
X-163779Y132283D02*
D03*
X-31890Y110630D02*
D03*
X-168110Y208563D02*
D03*
X-166437Y222146D02*
D03*
X-172047Y224410D02*
D03*
X-27953Y166929D02*
D03*
X175984Y150394D02*
D03*
X141339Y198425D02*
D03*
X145276Y201575D02*
D03*
X141339Y204724D02*
D03*
X150787Y203150D02*
D03*
X161417Y175984D02*
D03*
X177559Y205512D02*
D03*
X167323D02*
D03*
X187795Y130315D02*
D03*
X190551Y205906D02*
D03*
X177559Y197244D02*
D03*
X188583Y192913D02*
D03*
X160630Y161221D02*
D03*
X150787Y191732D02*
D03*
Y187795D02*
D03*
X142913D02*
D03*
Y191732D02*
D03*
X157480Y189370D02*
D03*
X90551Y164567D02*
D03*
X89764Y118110D02*
D03*
X165354Y171653D02*
D03*
X161811Y154331D02*
D03*
X150394D02*
D03*
X-124409Y71653D02*
D03*
X-164961Y57087D02*
D03*
X-91220Y184917D02*
D03*
X3937Y188189D02*
D03*
X-6693Y176772D02*
D03*
X-3150Y188189D02*
D03*
X-10236Y187007D02*
D03*
X-23130Y187402D02*
D03*
X-15748Y195669D02*
D03*
X-16142Y190551D02*
D03*
X-15945Y187008D02*
D03*
X-19980D02*
D03*
X-30709Y188189D02*
D03*
X-26772Y188081D02*
D03*
X187795Y176378D02*
D03*
X181496D02*
D03*
X175197D02*
D03*
X189764Y105905D02*
D03*
X183858D02*
D03*
X160630Y168898D02*
D03*
X162598Y171653D02*
D03*
X175984Y146063D02*
D03*
X142520Y119291D02*
D03*
X156693Y114961D02*
D03*
X161811Y150394D02*
D03*
X157087D02*
D03*
X-48819Y174016D02*
D03*
X-32677Y190157D02*
D03*
X-33858Y185827D02*
D03*
X-23228Y173622D02*
D03*
X-18898Y163385D02*
D03*
X-12218Y166929D02*
D03*
X-9055Y163779D02*
D03*
X-15312Y160672D02*
D03*
X-15354Y157480D02*
D03*
X-5906Y160630D02*
D03*
X131496Y41339D02*
D03*
X34252Y58268D02*
D03*
X24803Y180709D02*
D03*
X37795Y144596D02*
D03*
X41752Y139370D02*
D03*
X74803Y170079D02*
D03*
X27165Y172835D02*
D03*
X35039Y170079D02*
D03*
Y175591D02*
D03*
X40551D02*
D03*
Y170079D02*
D03*
X59842Y172441D02*
D03*
X63386Y170866D02*
D03*
X50787Y172441D02*
D03*
X46063Y175591D02*
D03*
X55118Y159055D02*
D03*
X59055D02*
D03*
X71653D02*
D03*
X67716Y160236D02*
D03*
Y154724D02*
D03*
X46063Y170125D02*
D03*
X118504Y45276D02*
D03*
X71653Y146063D02*
D03*
X-26772Y38583D02*
D03*
X-5118Y42126D02*
D03*
X-23622Y27165D02*
D03*
X-21413Y21654D02*
D03*
X-16142Y24803D02*
D03*
X-8661Y22835D02*
D03*
X-7087Y30315D02*
D03*
X6693Y170079D02*
D03*
X6639Y163833D02*
D03*
X3543Y163779D02*
D03*
X20079Y168504D02*
D03*
X12992Y166929D02*
D03*
X3543Y166929D02*
D03*
Y160630D02*
D03*
X44094Y90551D02*
D03*
X-81496Y177165D02*
D03*
X16142Y141446D02*
D03*
X44488Y140157D02*
D03*
X60236Y137795D02*
D03*
X9843Y138582D02*
D03*
X-34252Y193307D02*
D03*
X-40157Y138583D02*
D03*
X-15354Y148031D02*
D03*
X-2362Y135039D02*
D03*
X-5906Y141339D02*
D03*
X-156299Y70866D02*
D03*
X-154331Y75197D02*
D03*
X-152362Y77953D02*
D03*
X-150787Y73228D02*
D03*
X12992Y160630D02*
D03*
X19610Y171653D02*
D03*
X21260Y135433D02*
D03*
X6693Y144882D02*
D03*
X-12205Y154331D02*
D03*
Y151181D02*
D03*
X-18110Y177165D02*
D03*
X-9843Y177953D02*
D03*
X-31102Y166929D02*
D03*
X-38976Y168110D02*
D03*
X-41339Y167323D02*
D03*
X-50394Y164567D02*
D03*
X-50000Y154330D02*
D03*
Y157480D02*
D03*
X-46457Y155905D02*
D03*
X-38976Y150787D02*
D03*
X-41339Y153149D02*
D03*
X-43307Y155905D02*
D03*
X-44882Y160630D02*
D03*
X-46457Y163385D02*
D03*
X-45669Y170472D02*
D03*
X-48819Y170941D02*
D03*
X-51181Y173622D02*
D03*
X-60630Y177559D02*
D03*
X-32677Y175197D02*
D03*
X-9420Y160601D02*
D03*
X67716Y109055D02*
D03*
X84252Y73622D02*
D03*
X87795Y75197D02*
D03*
X178740Y59842D02*
D03*
X129921Y62205D02*
D03*
X97638Y94882D02*
D03*
Y68504D02*
D03*
X74311Y70472D02*
D03*
X84252Y61024D02*
D03*
X61024Y81496D02*
D03*
X66929Y87402D02*
D03*
X-73622Y76772D02*
D03*
X-63386Y82677D02*
D03*
X-74803Y79134D02*
D03*
X-90945Y94488D02*
D03*
X-83071Y85039D02*
D03*
X-90945D02*
D03*
X-83071Y94488D02*
D03*
X-73228Y88583D02*
D03*
X-57874Y88189D02*
D03*
Y98032D02*
D03*
X-70079Y72441D02*
D03*
X-57874Y77165D02*
D03*
Y66929D02*
D03*
X-45669Y72933D02*
D03*
X-31496Y81496D02*
D03*
X-37402Y94095D02*
D03*
X-42126Y84646D02*
D03*
X-52362Y82677D02*
D03*
X-63386Y88189D02*
D03*
Y77165D02*
D03*
X-52362D02*
D03*
Y88189D02*
D03*
X-57874Y82677D02*
D03*
X-29921Y60236D02*
D03*
X-42126Y80709D02*
D03*
X-29921Y94095D02*
D03*
X-41732D02*
D03*
X51575Y77165D02*
D03*
X62598Y73622D02*
D03*
X-2756Y177165D02*
D03*
X-47244Y49606D02*
D03*
X-47638Y94882D02*
D03*
X-49508Y111024D02*
D03*
X-52196Y113779D02*
D03*
X-32677Y115354D02*
D03*
X-59449Y111417D02*
D03*
X-132677Y104724D02*
D03*
X-99213Y51575D02*
D03*
X70079Y64173D02*
D03*
Y66535D02*
D03*
X-98032Y76378D02*
D03*
X-74803Y86730D02*
D03*
X38583Y83071D02*
D03*
X39370Y89764D02*
D03*
X44094Y83071D02*
D03*
Y77559D02*
D03*
X38583D02*
D03*
Y72047D02*
D03*
X44094D02*
D03*
X20954Y85039D02*
D03*
X66535Y69685D02*
D03*
X74410Y66535D02*
D03*
X59055Y59055D02*
D03*
X62992D02*
D03*
Y66929D02*
D03*
X59055D02*
D03*
X25591Y51968D02*
D03*
X46850Y138583D02*
D03*
X48425Y145669D02*
D03*
X49606Y151181D02*
D03*
X62205Y139764D02*
D03*
X64173Y149213D02*
D03*
X77953Y141339D02*
D03*
X71653Y154724D02*
D03*
X70473Y168110D02*
D03*
X59055D02*
D03*
X55118D02*
D03*
X56299Y175197D02*
D03*
X-59842Y197795D02*
D03*
X-66929Y192913D02*
D03*
X94095Y120079D02*
D03*
X96850Y122835D02*
D03*
X87008Y124409D02*
D03*
X-56693Y114173D02*
D03*
X-129921Y96457D02*
D03*
X-20866Y101969D02*
D03*
X-22047Y111417D02*
D03*
X99606Y160630D02*
D03*
X-18504Y132283D02*
D03*
Y135433D02*
D03*
X-49606Y184252D02*
D03*
X-53543Y188189D02*
D03*
X-45669D02*
D03*
X-53543Y180315D02*
D03*
X-45669D02*
D03*
X-53543Y193307D02*
D03*
X-99213Y212324D02*
D03*
X-99606Y214567D02*
D03*
X-91339Y182677D02*
D03*
X-74803Y181890D02*
D03*
X-63386Y179528D02*
D03*
X-92126Y205118D02*
D03*
X-85827D02*
D03*
X-88976Y207480D02*
D03*
X-85827Y209842D02*
D03*
X-92126D02*
D03*
X-81890Y199213D02*
D03*
X-87402D02*
D03*
Y193701D02*
D03*
X-81890D02*
D03*
Y188189D02*
D03*
X-87402D02*
D03*
X-70866Y181890D02*
D03*
Y189764D02*
D03*
X-74803D02*
D03*
X-85827Y181496D02*
D03*
X-67323Y56693D02*
D03*
X-120473Y64567D02*
D03*
X-177559Y66535D02*
D03*
Y73622D02*
D03*
X-170472D02*
D03*
Y66535D02*
D03*
X-187008Y66929D02*
D03*
X-148425Y35827D02*
D03*
X-151181D02*
D03*
X84252Y14173D02*
D03*
Y6299D02*
D03*
X92126D02*
D03*
Y14173D02*
D03*
Y22047D02*
D03*
X84252D02*
D03*
X76378D02*
D03*
Y14173D02*
D03*
Y6299D02*
D03*
X-175394Y32283D02*
D03*
X-170571Y14567D02*
D03*
X-175394Y7087D02*
D03*
X-184744Y15551D02*
D03*
Y23819D02*
D03*
X-169095Y50000D02*
D03*
X31496Y25591D02*
D03*
X29528Y9843D02*
D03*
X45276Y16535D02*
D03*
Y9449D02*
D03*
X49606Y16535D02*
D03*
Y9449D02*
D03*
X47638Y12992D02*
D03*
X25197Y10630D02*
D03*
X72146Y22047D02*
D03*
X68504Y15354D02*
D03*
X97638Y29921D02*
D03*
X103543Y43701D02*
D03*
X110630D02*
D03*
X80315Y35039D02*
D03*
X72441D02*
D03*
X64567D02*
D03*
X56693Y42913D02*
D03*
X64567D02*
D03*
X72441D02*
D03*
X80315D02*
D03*
X76378Y46850D02*
D03*
Y38976D02*
D03*
X68504D02*
D03*
Y46850D02*
D03*
X60630D02*
D03*
X84645Y35039D02*
D03*
X38583Y14961D02*
D03*
X16535Y15748D02*
D03*
X37402Y36220D02*
D03*
X56693Y35039D02*
D03*
X60630Y38976D02*
D03*
X35433Y40157D02*
D03*
X31890Y40551D02*
D03*
X42913Y36614D02*
D03*
X52756Y46850D02*
D03*
X48819Y42913D02*
D03*
X69882Y84646D02*
D03*
X78740Y81890D02*
D03*
X83465Y88583D02*
D03*
X-13780Y114567D02*
D03*
X-8268Y74410D02*
D03*
X-14567Y111024D02*
D03*
X-16535Y74410D02*
D03*
X-9055Y94488D02*
D03*
Y90945D02*
D03*
Y86614D02*
D03*
X-12992D02*
D03*
X-5118Y94488D02*
D03*
X-20866Y97638D02*
D03*
X-5906Y119685D02*
D03*
X-2756Y111811D02*
D03*
X-8661Y102264D02*
D03*
X787Y108760D02*
D03*
X-28346Y193307D02*
D03*
X-35827Y173622D02*
D03*
X-24803Y135433D02*
D03*
X-45276Y153543D02*
D03*
X-37795Y152756D02*
D03*
X-27953Y151181D02*
D03*
X-58661Y143307D02*
D03*
Y146457D02*
D03*
X-58268Y158661D02*
D03*
X-55118D02*
D03*
X-58661Y165661D02*
D03*
X-55905Y165748D02*
D03*
X-57087Y172441D02*
D03*
X-54724Y129134D02*
D03*
X-73228Y135433D02*
D03*
X-27953Y148031D02*
D03*
Y144882D02*
D03*
Y141732D02*
D03*
X-31102D02*
D03*
X-54724Y138583D02*
D03*
X-58661Y133858D02*
D03*
X-31102Y138583D02*
D03*
X-48578Y141732D02*
D03*
X-45669Y142520D02*
D03*
X-65748Y139058D02*
D03*
X-34252Y138583D02*
D03*
X-65748Y141258D02*
D03*
X-34252Y141732D02*
D03*
X-61811Y143307D02*
D03*
X-66535Y135827D02*
D03*
X-55118Y146457D02*
D03*
Y143307D02*
D03*
X-50394Y147244D02*
D03*
X-49213Y138976D02*
D03*
X-69291Y139370D02*
D03*
X-24803Y141732D02*
D03*
X-73228Y132677D02*
D03*
X-27953Y138583D02*
D03*
X-61811Y133858D02*
D03*
X-71260Y131102D02*
D03*
X-50394Y133858D02*
D03*
X-61811Y130709D02*
D03*
X-27953Y135433D02*
D03*
X-31102Y132283D02*
D03*
X-65748Y129134D02*
D03*
X-77587Y124775D02*
D03*
X-58661Y124335D02*
D03*
X-55118Y124409D02*
D03*
X-61811Y127559D02*
D03*
X-34252Y129134D02*
D03*
X-73622Y128659D02*
D03*
Y126459D02*
D03*
X-37795Y129528D02*
D03*
X-24803Y138583D02*
D03*
Y144882D02*
D03*
X-24803Y148031D02*
D03*
X-24803Y151181D02*
D03*
Y154331D02*
D03*
Y157480D02*
D03*
X-9055Y196457D02*
D03*
X-2756Y198031D02*
D03*
X-7812Y198324D02*
D03*
X-31102Y129134D02*
D03*
X-21654Y132283D02*
D03*
X-21654Y129134D02*
D03*
X-15354D02*
D03*
X-9055D02*
D03*
X-5906D02*
D03*
X394D02*
D03*
X9843D02*
D03*
Y135433D02*
D03*
X6693Y141732D02*
D03*
Y148031D02*
D03*
X394Y160630D02*
D03*
X-5906Y132283D02*
D03*
X3543Y135433D02*
D03*
X394Y138583D02*
D03*
X6693Y135433D02*
D03*
X394Y144882D02*
D03*
Y148031D02*
D03*
Y154331D02*
D03*
X-5906Y154331D02*
D03*
Y151181D02*
D03*
X394D02*
D03*
X-5906Y144882D02*
D03*
Y148031D02*
D03*
X-18504Y144882D02*
D03*
Y151181D02*
D03*
Y154331D02*
D03*
Y160630D02*
D03*
X-5906Y163779D02*
D03*
X-2756D02*
D03*
X3543Y141732D02*
D03*
X-2756Y129134D02*
D03*
X-18504Y141732D02*
D03*
X-12205D02*
D03*
Y138583D02*
D03*
X-12205Y135433D02*
D03*
X-79134Y120866D02*
D03*
X-83858Y130709D02*
D03*
X-73622Y140157D02*
D03*
X-80709Y143307D02*
D03*
X-77559D02*
D03*
X-80709Y140157D02*
D03*
Y165354D02*
D03*
X-83858D02*
D03*
X-82284Y172441D02*
D03*
X-18406Y157480D02*
D03*
X-24803Y132283D02*
D03*
X-37402Y116535D02*
D03*
X-27953Y125984D02*
D03*
X-21654D02*
D03*
Y122835D02*
D03*
X-18504Y125984D02*
D03*
X-4724Y90158D02*
D03*
X-9084Y123200D02*
D03*
X-4724Y70472D02*
D03*
X-12205Y129134D02*
D03*
X-12205Y125984D02*
D03*
X-16535Y70472D02*
D03*
X-12598D02*
D03*
Y74410D02*
D03*
X-12598Y78347D02*
D03*
X-24803Y68504D02*
D03*
Y72441D02*
D03*
X3150Y70472D02*
D03*
Y74410D02*
D03*
Y78347D02*
D03*
Y86221D02*
D03*
Y94095D02*
D03*
X11024Y94095D02*
D03*
Y78346D02*
D03*
Y70472D02*
D03*
X-24409Y11024D02*
D03*
X7874Y26772D02*
D03*
X5906Y25197D02*
D03*
X0Y24803D02*
D03*
X-15748Y11024D02*
D03*
X1969Y22835D02*
D03*
X9449Y20472D02*
D03*
X3937Y19685D02*
D03*
X6693Y11417D02*
D03*
X-29429Y48819D02*
D03*
X-6102D02*
D03*
X3543Y45276D02*
D03*
X-126772Y82677D02*
D03*
X-122835Y100394D02*
D03*
X-166535Y111024D02*
D03*
Y101575D02*
D03*
Y106299D02*
D03*
X-161811Y111024D02*
D03*
Y106299D02*
D03*
Y101575D02*
D03*
X-168110Y120472D02*
D03*
X-164961Y117323D02*
D03*
X-168110Y45350D02*
D03*
Y47550D02*
D03*
X-103937Y64567D02*
D03*
X-134252Y55118D02*
D03*
X-144882D02*
D03*
X-117323Y40551D02*
D03*
X394Y163779D02*
D03*
X-23228Y107480D02*
D03*
X-29528Y114567D02*
D03*
X-35039Y103937D02*
D03*
X-24803Y100787D02*
D03*
X-27165Y99213D02*
D03*
X-31102Y97244D02*
D03*
X-20866Y113779D02*
D03*
X-26378Y116142D02*
D03*
X-41732Y98819D02*
D03*
X-39961Y100591D02*
D03*
X-37402Y98819D02*
D03*
X-74803Y84530D02*
D03*
X-40157Y122441D02*
D03*
X-44882Y122834D02*
D03*
X-47244Y120079D02*
D03*
X-51919Y123228D02*
D03*
X-61811Y113779D02*
D03*
X-31102Y119685D02*
D03*
X-50394Y100394D02*
D03*
X-53150D02*
D03*
X-68504Y103543D02*
D03*
X-57480Y104331D02*
D03*
X-68504Y108268D02*
D03*
X-70079Y94095D02*
D03*
X-70040Y105118D02*
D03*
X-77953Y110236D02*
D03*
X-84252Y122047D02*
D03*
X-94882Y148031D02*
D03*
Y151181D02*
D03*
Y153543D02*
D03*
Y155905D02*
D03*
X-98032Y147638D02*
D03*
X-98031Y150787D02*
D03*
Y153937D02*
D03*
X-98032Y157480D02*
D03*
Y159843D02*
D03*
X-94488Y160630D02*
D03*
X-98031Y162992D02*
D03*
X-94488Y164173D02*
D03*
X-98031Y166141D02*
D03*
X-94095Y167717D02*
D03*
X-98031Y169291D02*
D03*
X-94095Y170866D02*
D03*
X-97638Y172441D02*
D03*
X-94095Y173622D02*
D03*
X-97638Y175590D02*
D03*
X-94095Y177165D02*
D03*
X-97638Y178740D02*
D03*
X-94094Y181102D02*
D03*
X-107283Y168110D02*
D03*
Y156693D02*
D03*
X-99606Y181496D02*
D03*
X-118504Y156693D02*
D03*
Y168110D02*
D03*
X-100787Y142126D02*
D03*
X-100394Y131496D02*
D03*
X-107480Y127559D02*
D03*
Y131496D02*
D03*
X-100394Y127559D02*
D03*
X-101575Y138976D02*
D03*
X-135039Y105512D02*
D03*
X-126772Y109055D02*
D03*
X-122441D02*
D03*
X-142913Y96063D02*
D03*
X-124803Y52756D02*
D03*
Y43307D02*
D03*
X-109449Y58366D02*
D03*
X-100000Y58268D02*
D03*
X-140551Y116929D02*
D03*
Y112992D02*
D03*
X-133465D02*
D03*
Y116929D02*
D03*
X-98425Y205118D02*
D03*
Y209842D02*
D03*
X-95276Y207480D02*
D03*
Y213779D02*
D03*
X-110630Y215354D02*
D03*
X-106693D02*
D03*
Y207480D02*
D03*
X-110630D02*
D03*
X-93701Y188189D02*
D03*
X-101969Y179528D02*
D03*
X-103150Y185039D02*
D03*
X-106299Y188189D02*
D03*
X-96850Y185039D02*
D03*
X-95276Y197638D02*
D03*
X-103150Y218110D02*
D03*
X-94882Y128347D02*
D03*
Y144488D02*
D03*
X-37795Y142126D02*
D03*
X-83858Y159055D02*
D03*
X-80709D02*
D03*
Y152756D02*
D03*
Y155905D02*
D03*
X-77709Y153150D02*
D03*
X-61811Y152756D02*
D03*
X-113386Y127953D02*
D03*
Y120079D02*
D03*
X-73622Y142913D02*
D03*
X-110630Y122441D02*
D03*
X-105905Y120669D02*
D03*
X-100000D02*
D03*
X-107087Y116142D02*
D03*
X-100787D02*
D03*
X-122441Y177953D02*
D03*
X-119685Y212205D02*
D03*
X-109449Y222441D02*
D03*
X-31102Y148031D02*
D03*
X-124409Y220079D02*
D03*
X-77559Y133858D02*
D03*
X-80709D02*
D03*
X-87795Y136614D02*
D03*
X-86408Y145160D02*
D03*
X-83858Y149606D02*
D03*
X-86221Y147360D02*
D03*
X-86023Y150985D02*
D03*
X-80709Y149606D02*
D03*
X-34252Y163779D02*
D03*
X-31102D02*
D03*
X-185827Y203642D02*
D03*
X-179528Y197244D02*
D03*
X-182283Y194094D02*
D03*
X-19685Y104331D02*
D03*
X-137795Y105118D02*
D03*
X-140157Y102756D02*
D03*
X-173622Y103937D02*
D03*
X-181890Y119685D02*
D03*
X-183071Y109449D02*
D03*
X-171653Y120079D02*
D03*
X-176378Y128347D02*
D03*
X56693Y172441D02*
D03*
X65994Y175197D02*
D03*
X-131102Y211811D02*
D03*
M02*
