G04 Layer_Color=61183*
%FSLAX25Y25*%
%MOIN*%
G70*
G01*
G75*
%ADD66C,0.00400*%
%ADD67C,0.01000*%
%ADD71C,0.00800*%
%ADD115C,0.00500*%
%ADD218R,0.02756X0.00787*%
%ADD219R,0.02756X0.01673*%
%ADD220R,0.02854X0.01476*%
D66*
X-192156Y108891D02*
X-190557D01*
Y109691D01*
X-190823Y109958D01*
X-191890D01*
X-192156Y109691D01*
Y108891D01*
X-190557Y110491D02*
Y111024D01*
Y110757D01*
X-192156D01*
X-191890Y110491D01*
X-190557Y111824D02*
Y112357D01*
Y112090D01*
X-192156D01*
X-191890Y111824D01*
X-151357Y10991D02*
Y12591D01*
X-150823Y12058D01*
X-150290Y12591D01*
Y10991D01*
X-148958D02*
Y12591D01*
X-149757Y11791D01*
X-148691D01*
X125043Y10991D02*
Y12591D01*
X125576Y12058D01*
X126110Y12591D01*
Y10991D01*
X126643Y12324D02*
X126909Y12591D01*
X127443D01*
X127709Y12324D01*
Y12058D01*
X127443Y11791D01*
X127176D01*
X127443D01*
X127709Y11524D01*
Y11258D01*
X127443Y10991D01*
X126909D01*
X126643Y11258D01*
X48643Y217691D02*
Y219291D01*
X49176Y218758D01*
X49710Y219291D01*
Y217691D01*
X51309D02*
X50243D01*
X51309Y218758D01*
Y219024D01*
X51042Y219291D01*
X50509D01*
X50243Y219024D01*
X-151057Y217691D02*
Y219291D01*
X-150523Y218758D01*
X-149990Y219291D01*
Y217691D01*
X-149457D02*
X-148924D01*
X-149191D01*
Y219291D01*
X-149457Y219024D01*
X-62257Y53991D02*
Y52391D01*
X-61190D01*
X-60657D02*
X-60124D01*
X-60391D01*
Y53991D01*
X-60657Y53724D01*
X-59324Y52658D02*
X-59058Y52391D01*
X-58525D01*
X-58258Y52658D01*
Y53724D01*
X-58525Y53991D01*
X-59058D01*
X-59324Y53724D01*
Y53458D01*
X-59058Y53191D01*
X-58258D01*
X167144Y18858D02*
Y18325D01*
Y18591D01*
X168477D01*
X168743Y18325D01*
Y18058D01*
X168477Y17791D01*
X168743Y19391D02*
Y19924D01*
Y19657D01*
X167144D01*
X167410Y19391D01*
X-15890Y21024D02*
X-16157Y21291D01*
X-16690D01*
X-16957Y21024D01*
Y20758D01*
X-16690Y20491D01*
X-16157D01*
X-15890Y20224D01*
Y19958D01*
X-16157Y19691D01*
X-16690D01*
X-16957Y19958D01*
X-15357Y21291D02*
Y19691D01*
X-14558D01*
X-14291Y19958D01*
Y21024D01*
X-14558Y21291D01*
X-15357D01*
X-13758Y19691D02*
X-13225D01*
X-13491D01*
Y21291D01*
X-13758Y21024D01*
X208910Y14591D02*
X207843D01*
Y13791D01*
X208377D01*
X207843D01*
Y12991D01*
X209443Y14591D02*
X209976D01*
X209709D01*
Y12991D01*
X209443D01*
X209976D01*
X210776Y14591D02*
Y12991D01*
X211575D01*
X211842Y13258D01*
Y14324D01*
X211575Y14591D01*
X210776D01*
X213441Y12991D02*
X212375D01*
X213441Y14058D01*
Y14324D01*
X213175Y14591D01*
X212642D01*
X212375Y14324D01*
X160743Y172291D02*
Y170958D01*
X161010Y170691D01*
X161543D01*
X161810Y170958D01*
Y172291D01*
X162343Y170691D02*
X162876D01*
X162609D01*
Y172291D01*
X162343Y172024D01*
X163676D02*
X163942Y172291D01*
X164475D01*
X164742Y172024D01*
Y171758D01*
X164475Y171491D01*
X164209D01*
X164475D01*
X164742Y171224D01*
Y170958D01*
X164475Y170691D01*
X163942D01*
X163676Y170958D01*
X-182857Y18391D02*
X-184456D01*
Y19191D01*
X-184190Y19458D01*
X-183656D01*
X-183390Y19191D01*
Y18391D01*
X-184190Y19991D02*
X-184456Y20257D01*
Y20791D01*
X-184190Y21057D01*
X-183923D01*
X-183656Y20791D01*
Y20524D01*
Y20791D01*
X-183390Y21057D01*
X-183123D01*
X-182857Y20791D01*
Y20257D01*
X-183123Y19991D01*
X-163857Y67591D02*
X-165456D01*
Y68391D01*
X-165190Y68658D01*
X-164656D01*
X-164390Y68391D01*
Y67591D01*
X-163857Y70257D02*
Y69191D01*
X-164923Y70257D01*
X-165190D01*
X-165456Y69991D01*
Y69457D01*
X-165190Y69191D01*
X156343Y73691D02*
X154744D01*
Y74491D01*
X155010Y74758D01*
X155544D01*
X155810Y74491D01*
Y73691D01*
X156343Y75291D02*
Y75824D01*
Y75557D01*
X154744D01*
X155010Y75291D01*
X-151956Y152391D02*
X-150623D01*
X-150357Y152658D01*
Y153191D01*
X-150623Y153458D01*
X-151956D01*
X-150357Y155057D02*
Y153991D01*
X-151423Y155057D01*
X-151690D01*
X-151956Y154791D01*
Y154257D01*
X-151690Y153991D01*
Y155590D02*
X-151956Y155857D01*
Y156390D01*
X-151690Y156657D01*
X-151423D01*
X-151156Y156390D01*
Y156123D01*
Y156390D01*
X-150890Y156657D01*
X-150623D01*
X-150357Y156390D01*
Y155857D01*
X-150623Y155590D01*
X-192156Y130791D02*
X-190557D01*
Y131591D01*
X-190823Y131858D01*
X-191890D01*
X-192156Y131591D01*
Y130791D01*
X-190557Y132391D02*
Y132924D01*
Y132657D01*
X-192156D01*
X-191890Y132391D01*
X-192156Y152191D02*
X-190557D01*
Y152991D01*
X-190823Y153258D01*
X-191890D01*
X-192156Y152991D01*
Y152191D01*
X-191890Y153791D02*
X-192156Y154057D01*
Y154591D01*
X-191890Y154857D01*
X-191623D01*
X-191356Y154591D01*
X-191090Y154857D01*
X-190823D01*
X-190557Y154591D01*
Y154057D01*
X-190823Y153791D01*
X-191090D01*
X-191356Y154057D01*
X-191623Y153791D01*
X-191890D01*
X-191356Y154057D02*
Y154591D01*
X-192156Y173891D02*
X-190557D01*
Y174691D01*
X-190823Y174958D01*
X-191890D01*
X-192156Y174691D01*
Y173891D01*
Y175491D02*
Y176557D01*
X-191890D01*
X-190823Y175491D01*
X-190557D01*
X-192156Y195491D02*
X-190557D01*
Y196291D01*
X-190823Y196558D01*
X-191890D01*
X-192156Y196291D01*
Y195491D01*
X-191890Y197091D02*
X-192156Y197357D01*
Y197891D01*
X-191890Y198157D01*
X-191623D01*
X-191356Y197891D01*
Y197624D01*
Y197891D01*
X-191090Y198157D01*
X-190823D01*
X-190557Y197891D01*
Y197357D01*
X-190823Y197091D01*
X-192156Y216491D02*
X-190557D01*
Y217291D01*
X-190823Y217558D01*
X-191890D01*
X-192156Y217291D01*
Y216491D01*
X-190557Y218091D02*
Y218624D01*
Y218357D01*
X-192156D01*
X-191890Y218091D01*
X-192156Y219424D02*
Y220490D01*
X-191890D01*
X-190823Y219424D01*
X-190557D01*
X-214090Y217291D02*
X-215157D01*
Y216491D01*
X-214623D01*
X-215157D01*
Y215691D01*
X-213557Y217291D02*
X-213024D01*
X-213291D01*
Y215691D01*
X-213557D01*
X-213024D01*
X-212224Y217291D02*
Y215691D01*
X-211425D01*
X-211158Y215958D01*
Y217024D01*
X-211425Y217291D01*
X-212224D01*
X-210625Y215691D02*
X-210092D01*
X-210358D01*
Y217291D01*
X-210625Y217024D01*
X-80057Y12791D02*
Y14391D01*
X-79257D01*
X-78990Y14124D01*
Y13591D01*
X-79257Y13325D01*
X-80057D01*
X-77658Y12791D02*
Y14391D01*
X-78457Y13591D01*
X-77391D01*
X-36990Y190724D02*
X-37257Y190991D01*
X-37790D01*
X-38057Y190724D01*
Y189658D01*
X-37790Y189391D01*
X-37257D01*
X-36990Y189658D01*
X-36457Y189391D02*
X-35924D01*
X-36191D01*
Y190991D01*
X-36457Y190724D01*
X-26990D02*
X-27257Y190991D01*
X-27790D01*
X-28057Y190724D01*
Y189658D01*
X-27790Y189391D01*
X-27257D01*
X-26990Y189658D01*
X-25391Y189391D02*
X-26457D01*
X-25391Y190458D01*
Y190724D01*
X-25657Y190991D01*
X-26191D01*
X-26457Y190724D01*
X-113890Y123758D02*
X-114156Y123491D01*
Y122958D01*
X-113890Y122691D01*
X-112823D01*
X-112557Y122958D01*
Y123491D01*
X-112823Y123758D01*
Y124291D02*
X-112557Y124557D01*
Y125091D01*
X-112823Y125357D01*
X-113890D01*
X-114156Y125091D01*
Y124557D01*
X-113890Y124291D01*
X-113623D01*
X-113356Y124557D01*
Y125357D01*
X-106090Y142624D02*
X-106357Y142891D01*
X-106890D01*
X-107157Y142624D01*
Y141558D01*
X-106890Y141291D01*
X-106357D01*
X-106090Y141558D01*
X-105557Y141291D02*
X-105024D01*
X-105291D01*
Y142891D01*
X-105557Y142624D01*
X-104224D02*
X-103958Y142891D01*
X-103425D01*
X-103158Y142624D01*
Y141558D01*
X-103425Y141291D01*
X-103958D01*
X-104224Y141558D01*
Y142624D01*
X-114790Y168624D02*
X-115057Y168891D01*
X-115590D01*
X-115857Y168624D01*
Y167558D01*
X-115590Y167291D01*
X-115057D01*
X-114790Y167558D01*
X-114257Y167291D02*
X-113724D01*
X-113991D01*
Y168891D01*
X-114257Y168624D01*
X-112924Y167291D02*
X-112391D01*
X-112658D01*
Y168891D01*
X-112924Y168624D01*
X-115090Y157224D02*
X-115357Y157491D01*
X-115890D01*
X-116157Y157224D01*
Y156158D01*
X-115890Y155891D01*
X-115357D01*
X-115090Y156158D01*
X-114557Y155891D02*
X-114024D01*
X-114291D01*
Y157491D01*
X-114557Y157224D01*
X-112158Y155891D02*
X-113224D01*
X-112158Y156958D01*
Y157224D01*
X-112425Y157491D01*
X-112958D01*
X-113224Y157224D01*
X-90690Y139458D02*
X-90956Y139191D01*
Y138658D01*
X-90690Y138391D01*
X-89623D01*
X-89357Y138658D01*
Y139191D01*
X-89623Y139458D01*
X-89357Y141057D02*
Y139991D01*
X-90423Y141057D01*
X-90690D01*
X-90956Y140791D01*
Y140257D01*
X-90690Y139991D01*
X-89357Y142390D02*
X-90956D01*
X-90156Y141590D01*
Y142657D01*
X-106590Y182024D02*
X-106857Y182291D01*
X-107390D01*
X-107657Y182024D01*
Y180958D01*
X-107390Y180691D01*
X-106857D01*
X-106590Y180958D01*
X-104991Y180691D02*
X-106057D01*
X-104991Y181758D01*
Y182024D01*
X-105257Y182291D01*
X-105791D01*
X-106057Y182024D01*
X-103391Y182291D02*
X-103925Y182024D01*
X-104458Y181491D01*
Y180958D01*
X-104191Y180691D01*
X-103658D01*
X-103391Y180958D01*
Y181225D01*
X-103658Y181491D01*
X-104458D01*
X-104990Y116724D02*
X-105257Y116991D01*
X-105790D01*
X-106057Y116724D01*
Y115658D01*
X-105790Y115391D01*
X-105257D01*
X-104990Y115658D01*
X-103391Y115391D02*
X-104457D01*
X-103391Y116458D01*
Y116724D01*
X-103657Y116991D01*
X-104191D01*
X-104457Y116724D01*
X-102858D02*
X-102591Y116991D01*
X-102058D01*
X-101791Y116724D01*
Y116458D01*
X-102058Y116191D01*
X-101791Y115925D01*
Y115658D01*
X-102058Y115391D01*
X-102591D01*
X-102858Y115658D01*
Y115925D01*
X-102591Y116191D01*
X-102858Y116458D01*
Y116724D01*
X-102591Y116191D02*
X-102058D01*
X95010Y67024D02*
X94743Y67291D01*
X94210D01*
X93943Y67024D01*
Y65958D01*
X94210Y65691D01*
X94743D01*
X95010Y65958D01*
X95543Y67024D02*
X95809Y67291D01*
X96342D01*
X96609Y67024D01*
Y66758D01*
X96342Y66491D01*
X96076D01*
X96342D01*
X96609Y66224D01*
Y65958D01*
X96342Y65691D01*
X95809D01*
X95543Y65958D01*
X97942Y65691D02*
Y67291D01*
X97142Y66491D01*
X98209D01*
X34410Y153324D02*
X34143Y153591D01*
X33610D01*
X33343Y153324D01*
Y152258D01*
X33610Y151991D01*
X34143D01*
X34410Y152258D01*
X35743Y151991D02*
Y153591D01*
X34943Y152791D01*
X36009D01*
X37609Y153591D02*
X36542D01*
Y152791D01*
X37075Y153058D01*
X37342D01*
X37609Y152791D01*
Y152258D01*
X37342Y151991D01*
X36809D01*
X36542Y152258D01*
X-122590Y26858D02*
X-122856Y26591D01*
Y26058D01*
X-122590Y25791D01*
X-121523D01*
X-121257Y26058D01*
Y26591D01*
X-121523Y26858D01*
X-121257Y28191D02*
X-122856D01*
X-122056Y27391D01*
Y28457D01*
X-122856Y30057D02*
X-122590Y29524D01*
X-122056Y28990D01*
X-121523D01*
X-121257Y29257D01*
Y29790D01*
X-121523Y30057D01*
X-121790D01*
X-122056Y29790D01*
Y28990D01*
X69910Y163058D02*
X69644Y162791D01*
Y162258D01*
X69910Y161991D01*
X70977D01*
X71243Y162258D01*
Y162791D01*
X70977Y163058D01*
X71243Y164391D02*
X69644D01*
X70444Y163591D01*
Y164657D01*
X69644Y165190D02*
Y166257D01*
X69910D01*
X70977Y165190D01*
X71243D01*
X26610Y168658D02*
X26344Y168391D01*
Y167858D01*
X26610Y167591D01*
X27677D01*
X27943Y167858D01*
Y168391D01*
X27677Y168658D01*
X27943Y169991D02*
X26344D01*
X27144Y169191D01*
Y170257D01*
X26610Y170790D02*
X26344Y171057D01*
Y171590D01*
X26610Y171857D01*
X26877D01*
X27144Y171590D01*
X27410Y171857D01*
X27677D01*
X27943Y171590D01*
Y171057D01*
X27677Y170790D01*
X27410D01*
X27144Y171057D01*
X26877Y170790D01*
X26610D01*
X27144Y171057D02*
Y171590D01*
X28510Y52524D02*
X28243Y52791D01*
X27710D01*
X27443Y52524D01*
Y51458D01*
X27710Y51191D01*
X28243D01*
X28510Y51458D01*
X30109Y52791D02*
X29043D01*
Y51991D01*
X29576Y52258D01*
X29842D01*
X30109Y51991D01*
Y51458D01*
X29842Y51191D01*
X29309D01*
X29043Y51458D01*
X30642Y52791D02*
X31709D01*
Y52524D01*
X30642Y51458D01*
Y51191D01*
X-93090Y62758D02*
X-93356Y62491D01*
Y61958D01*
X-93090Y61691D01*
X-92023D01*
X-91757Y61958D01*
Y62491D01*
X-92023Y62758D01*
X-93356Y64357D02*
Y63291D01*
X-92556D01*
X-92823Y63824D01*
Y64091D01*
X-92556Y64357D01*
X-92023D01*
X-91757Y64091D01*
Y63557D01*
X-92023Y63291D01*
X-93090Y64890D02*
X-93356Y65157D01*
Y65690D01*
X-93090Y65957D01*
X-92823D01*
X-92556Y65690D01*
X-92290Y65957D01*
X-92023D01*
X-91757Y65690D01*
Y65157D01*
X-92023Y64890D01*
X-92290D01*
X-92556Y65157D01*
X-92823Y64890D01*
X-93090D01*
X-92556Y65157D02*
Y65690D01*
X73910Y61558D02*
X73644Y61291D01*
Y60758D01*
X73910Y60491D01*
X74977D01*
X75243Y60758D01*
Y61291D01*
X74977Y61558D01*
X73644Y63157D02*
Y62091D01*
X74444D01*
X74177Y62624D01*
Y62891D01*
X74444Y63157D01*
X74977D01*
X75243Y62891D01*
Y62357D01*
X74977Y62091D01*
Y63690D02*
X75243Y63957D01*
Y64490D01*
X74977Y64757D01*
X73910D01*
X73644Y64490D01*
Y63957D01*
X73910Y63690D01*
X74177D01*
X74444Y63957D01*
Y64757D01*
X38810Y84758D02*
X38544Y84491D01*
Y83958D01*
X38810Y83691D01*
X39877D01*
X40143Y83958D01*
Y84491D01*
X39877Y84758D01*
X38544Y86357D02*
X38810Y85824D01*
X39344Y85291D01*
X39877D01*
X40143Y85557D01*
Y86091D01*
X39877Y86357D01*
X39610D01*
X39344Y86091D01*
Y85291D01*
X38810Y86890D02*
X38544Y87157D01*
Y87690D01*
X38810Y87957D01*
X39877D01*
X40143Y87690D01*
Y87157D01*
X39877Y86890D01*
X38810D01*
X-124990Y215058D02*
X-125256Y214791D01*
Y214258D01*
X-124990Y213991D01*
X-123923D01*
X-123657Y214258D01*
Y214791D01*
X-123923Y215058D01*
Y215591D02*
X-123657Y215857D01*
Y216391D01*
X-123923Y216657D01*
X-124990D01*
X-125256Y216391D01*
Y215857D01*
X-124990Y215591D01*
X-124723D01*
X-124456Y215857D01*
Y216657D01*
X-124990Y217190D02*
X-125256Y217457D01*
Y217990D01*
X-124990Y218257D01*
X-124723D01*
X-124456Y217990D01*
X-124190Y218257D01*
X-123923D01*
X-123657Y217990D01*
Y217457D01*
X-123923Y217190D01*
X-124190D01*
X-124456Y217457D01*
X-124723Y217190D01*
X-124990D01*
X-124456Y217457D02*
Y217990D01*
X61010Y135524D02*
X60743Y135791D01*
X60210D01*
X59943Y135524D01*
Y134458D01*
X60210Y134191D01*
X60743D01*
X61010Y134458D01*
X61543Y134191D02*
X62076D01*
X61809D01*
Y135791D01*
X61543Y135524D01*
X62876Y134191D02*
X63409D01*
X63142D01*
Y135791D01*
X62876Y135524D01*
X64209Y135791D02*
X65275D01*
Y135524D01*
X64209Y134458D01*
Y134191D01*
X61010Y100924D02*
X60743Y101191D01*
X60210D01*
X59943Y100924D01*
Y99858D01*
X60210Y99591D01*
X60743D01*
X61010Y99858D01*
X61543Y99591D02*
X62076D01*
X61809D01*
Y101191D01*
X61543Y100924D01*
X62876Y99591D02*
X63409D01*
X63142D01*
Y101191D01*
X62876Y100924D01*
X64209D02*
X64475Y101191D01*
X65008D01*
X65275Y100924D01*
Y100658D01*
X65008Y100391D01*
X65275Y100125D01*
Y99858D01*
X65008Y99591D01*
X64475D01*
X64209Y99858D01*
Y100125D01*
X64475Y100391D01*
X64209Y100658D01*
Y100924D01*
X64475Y100391D02*
X65008D01*
X-129690Y106724D02*
X-129957Y106991D01*
X-130490D01*
X-130757Y106724D01*
Y105658D01*
X-130490Y105391D01*
X-129957D01*
X-129690Y105658D01*
X-129157Y105391D02*
X-128624D01*
X-128891D01*
Y106991D01*
X-129157Y106724D01*
X-126758Y105391D02*
X-127824D01*
X-126758Y106458D01*
Y106724D01*
X-127025Y106991D01*
X-127558D01*
X-127824Y106724D01*
X-126225D02*
X-125958Y106991D01*
X-125425D01*
X-125159Y106724D01*
Y105658D01*
X-125425Y105391D01*
X-125958D01*
X-126225Y105658D01*
Y106724D01*
X-86390Y183658D02*
X-86656Y183391D01*
Y182858D01*
X-86390Y182591D01*
X-85323D01*
X-85057Y182858D01*
Y183391D01*
X-85323Y183658D01*
X-85057Y184191D02*
Y184724D01*
Y184457D01*
X-86656D01*
X-86390Y184191D01*
X-85057Y186590D02*
Y185524D01*
X-86123Y186590D01*
X-86390D01*
X-86656Y186323D01*
Y185790D01*
X-86390Y185524D01*
X-86656Y188189D02*
X-86390Y187656D01*
X-85856Y187123D01*
X-85323D01*
X-85057Y187390D01*
Y187923D01*
X-85323Y188189D01*
X-85590D01*
X-85856Y187923D01*
Y187123D01*
X62810Y15924D02*
X62543Y16191D01*
X62010D01*
X61743Y15924D01*
Y14858D01*
X62010Y14591D01*
X62543D01*
X62810Y14858D01*
X63343Y14591D02*
X63876D01*
X63609D01*
Y16191D01*
X63343Y15924D01*
X65742Y14591D02*
X64676D01*
X65742Y15658D01*
Y15924D01*
X65475Y16191D01*
X64942D01*
X64676Y15924D01*
X66275D02*
X66542Y16191D01*
X67075D01*
X67342Y15924D01*
Y15658D01*
X67075Y15391D01*
X67342Y15124D01*
Y14858D01*
X67075Y14591D01*
X66542D01*
X66275Y14858D01*
Y15124D01*
X66542Y15391D01*
X66275Y15658D01*
Y15924D01*
X66542Y15391D02*
X67075D01*
X-73390Y104158D02*
X-73656Y103891D01*
Y103358D01*
X-73390Y103091D01*
X-72323D01*
X-72057Y103358D01*
Y103891D01*
X-72323Y104158D01*
X-72057Y104691D02*
Y105224D01*
Y104957D01*
X-73656D01*
X-73390Y104691D01*
X-72057Y107090D02*
Y106024D01*
X-73123Y107090D01*
X-73390D01*
X-73656Y106824D01*
Y106290D01*
X-73390Y106024D01*
X-72323Y107623D02*
X-72057Y107890D01*
Y108423D01*
X-72323Y108689D01*
X-73390D01*
X-73656Y108423D01*
Y107890D01*
X-73390Y107623D01*
X-73123D01*
X-72856Y107890D01*
Y108689D01*
X-119990Y178524D02*
X-120257Y178791D01*
X-120790D01*
X-121057Y178524D01*
Y177458D01*
X-120790Y177191D01*
X-120257D01*
X-119990Y177458D01*
X-119457Y177191D02*
X-118924D01*
X-119191D01*
Y178791D01*
X-119457Y178524D01*
X-118124D02*
X-117858Y178791D01*
X-117325D01*
X-117058Y178524D01*
Y178258D01*
X-117325Y177991D01*
X-117591D01*
X-117325D01*
X-117058Y177725D01*
Y177458D01*
X-117325Y177191D01*
X-117858D01*
X-118124Y177458D01*
X-116525Y177191D02*
X-115992D01*
X-116258D01*
Y178791D01*
X-116525Y178524D01*
X-95790Y208858D02*
X-96056Y208591D01*
Y208058D01*
X-95790Y207791D01*
X-94723D01*
X-94457Y208058D01*
Y208591D01*
X-94723Y208858D01*
X-94457Y209391D02*
Y209924D01*
Y209657D01*
X-96056D01*
X-95790Y209391D01*
Y210724D02*
X-96056Y210990D01*
Y211524D01*
X-95790Y211790D01*
X-95523D01*
X-95256Y211524D01*
Y211257D01*
Y211524D01*
X-94990Y211790D01*
X-94723D01*
X-94457Y211524D01*
Y210990D01*
X-94723Y210724D01*
X-94457Y213389D02*
Y212323D01*
X-95523Y213389D01*
X-95790D01*
X-96056Y213123D01*
Y212590D01*
X-95790Y212323D01*
Y191958D02*
X-96056Y191691D01*
Y191158D01*
X-95790Y190891D01*
X-94723D01*
X-94457Y191158D01*
Y191691D01*
X-94723Y191958D01*
X-94457Y192491D02*
Y193024D01*
Y192757D01*
X-96056D01*
X-95790Y192491D01*
Y193824D02*
X-96056Y194090D01*
Y194623D01*
X-95790Y194890D01*
X-95523D01*
X-95256Y194623D01*
Y194357D01*
Y194623D01*
X-94990Y194890D01*
X-94723D01*
X-94457Y194623D01*
Y194090D01*
X-94723Y193824D01*
X-95790Y195423D02*
X-96056Y195690D01*
Y196223D01*
X-95790Y196490D01*
X-95523D01*
X-95256Y196223D01*
Y195956D01*
Y196223D01*
X-94990Y196490D01*
X-94723D01*
X-94457Y196223D01*
Y195690D01*
X-94723Y195423D01*
X94710Y100924D02*
X94443Y101191D01*
X93910D01*
X93643Y100924D01*
Y99858D01*
X93910Y99591D01*
X94443D01*
X94710Y99858D01*
X95243Y99591D02*
X95776D01*
X95509D01*
Y101191D01*
X95243Y100924D01*
X96576D02*
X96842Y101191D01*
X97375D01*
X97642Y100924D01*
Y100658D01*
X97375Y100391D01*
X97109D01*
X97375D01*
X97642Y100125D01*
Y99858D01*
X97375Y99591D01*
X96842D01*
X96576Y99858D01*
X99242Y101191D02*
X98708Y100924D01*
X98175Y100391D01*
Y99858D01*
X98442Y99591D01*
X98975D01*
X99242Y99858D01*
Y100125D01*
X98975Y100391D01*
X98175D01*
X-115490Y85658D02*
X-115756Y85391D01*
Y84858D01*
X-115490Y84591D01*
X-114423D01*
X-114157Y84858D01*
Y85391D01*
X-114423Y85658D01*
X-114157Y86191D02*
Y86724D01*
Y86457D01*
X-115756D01*
X-115490Y86191D01*
X-115756Y88590D02*
Y87524D01*
X-114956D01*
X-115223Y88057D01*
Y88323D01*
X-114956Y88590D01*
X-114423D01*
X-114157Y88323D01*
Y87790D01*
X-114423Y87524D01*
X-115490Y89123D02*
X-115756Y89390D01*
Y89923D01*
X-115490Y90189D01*
X-115223D01*
X-114956Y89923D01*
Y89656D01*
Y89923D01*
X-114690Y90189D01*
X-114423D01*
X-114157Y89923D01*
Y89390D01*
X-114423Y89123D01*
X92610Y30424D02*
X92343Y30691D01*
X91810D01*
X91543Y30424D01*
Y29358D01*
X91810Y29091D01*
X92343D01*
X92610Y29358D01*
X94209Y30691D02*
X93143D01*
Y29891D01*
X93676Y30158D01*
X93942D01*
X94209Y29891D01*
Y29358D01*
X93942Y29091D01*
X93409D01*
X93143Y29358D01*
X94742Y30424D02*
X95009Y30691D01*
X95542D01*
X95809Y30424D01*
Y29358D01*
X95542Y29091D01*
X95009D01*
X94742Y29358D01*
Y30424D01*
X42410Y38858D02*
X42144Y38591D01*
Y38058D01*
X42410Y37791D01*
X43477D01*
X43743Y38058D01*
Y38591D01*
X43477Y38858D01*
X43743Y39391D02*
Y39924D01*
Y39657D01*
X42144D01*
X42410Y39391D01*
X42144Y41790D02*
Y40724D01*
X42944D01*
X42677Y41257D01*
Y41524D01*
X42944Y41790D01*
X43477D01*
X43743Y41524D01*
Y40990D01*
X43477Y40724D01*
X42144Y43389D02*
Y42323D01*
X42944D01*
X42677Y42856D01*
Y43123D01*
X42944Y43389D01*
X43477D01*
X43743Y43123D01*
Y42590D01*
X43477Y42323D01*
X-73356Y55391D02*
X-71757D01*
Y56191D01*
X-72023Y56458D01*
X-73090D01*
X-73356Y56191D01*
Y55391D01*
X-71757Y58057D02*
Y56991D01*
X-72823Y58057D01*
X-73090D01*
X-73356Y57791D01*
Y57257D01*
X-73090Y56991D01*
X-162057Y36591D02*
Y34991D01*
X-161257D01*
X-160990Y35258D01*
Y36324D01*
X-161257Y36591D01*
X-162057D01*
X-159391D02*
X-160457D01*
Y35791D01*
X-159924Y36058D01*
X-159658D01*
X-159391Y35791D01*
Y35258D01*
X-159658Y34991D01*
X-160191D01*
X-160457Y35258D01*
X95244Y12791D02*
X96843D01*
Y13591D01*
X96577Y13858D01*
X95510D01*
X95244Y13591D01*
Y12791D01*
Y15457D02*
X95510Y14924D01*
X96044Y14391D01*
X96577D01*
X96843Y14657D01*
Y15191D01*
X96577Y15457D01*
X96310D01*
X96044Y15191D01*
Y14391D01*
X19943Y15391D02*
Y13791D01*
X20743D01*
X21010Y14058D01*
Y15124D01*
X20743Y15391D01*
X19943D01*
X21543Y14058D02*
X21809Y13791D01*
X22343D01*
X22609Y14058D01*
Y15124D01*
X22343Y15391D01*
X21809D01*
X21543Y15124D01*
Y14858D01*
X21809Y14591D01*
X22609D01*
X-125456Y62491D02*
X-123857D01*
Y63291D01*
X-124123Y63558D01*
X-125190D01*
X-125456Y63291D01*
Y62491D01*
X-123857Y64091D02*
Y64624D01*
Y64357D01*
X-125456D01*
X-125190Y64091D01*
Y65424D02*
X-125456Y65690D01*
Y66224D01*
X-125190Y66490D01*
X-124123D01*
X-123857Y66224D01*
Y65690D01*
X-124123Y65424D01*
X-125190D01*
X7044Y180791D02*
X8643D01*
Y181591D01*
X8377Y181858D01*
X7310D01*
X7044Y181591D01*
Y180791D01*
X8643Y183457D02*
Y182391D01*
X7577Y183457D01*
X7310D01*
X7044Y183191D01*
Y182657D01*
X7310Y182391D01*
X8643Y183990D02*
Y184523D01*
Y184257D01*
X7044D01*
X7310Y183990D01*
X38944Y165191D02*
X40543D01*
Y166258D01*
Y167591D02*
X38944D01*
X39744Y166791D01*
Y167857D01*
X-61557Y60691D02*
Y59091D01*
X-60490D01*
X-59957Y60424D02*
X-59691Y60691D01*
X-59158D01*
X-58891Y60424D01*
Y60158D01*
X-59158Y59891D01*
X-58891Y59624D01*
Y59358D01*
X-59158Y59091D01*
X-59691D01*
X-59957Y59358D01*
Y59624D01*
X-59691Y59891D01*
X-59957Y60158D01*
Y60424D01*
X-59691Y59891D02*
X-59158D01*
X42944Y63791D02*
X44543D01*
Y64858D01*
Y65391D02*
Y65924D01*
Y65657D01*
X42944D01*
X43210Y65391D01*
Y66724D02*
X42944Y66990D01*
Y67523D01*
X43210Y67790D01*
X44277D01*
X44543Y67523D01*
Y66990D01*
X44277Y66724D01*
X43210D01*
X-54457Y186591D02*
Y184991D01*
X-53390D01*
X-52857D02*
X-52324D01*
X-52591D01*
Y186591D01*
X-52857Y186324D01*
X-51524Y184991D02*
X-50991D01*
X-51258D01*
Y186591D01*
X-51524Y186324D01*
X-159057Y28791D02*
Y27191D01*
X-157990D01*
X-157457D02*
X-156924D01*
X-157191D01*
Y28791D01*
X-157457Y28524D01*
X-155058Y27191D02*
X-156124D01*
X-155058Y28258D01*
Y28524D01*
X-155325Y28791D01*
X-155858D01*
X-156124Y28524D01*
X-113457Y194491D02*
Y192891D01*
X-112390D01*
X-111857D02*
X-111324D01*
X-111591D01*
Y194491D01*
X-111857Y194224D01*
X-110524D02*
X-110258Y194491D01*
X-109725D01*
X-109458Y194224D01*
Y193958D01*
X-109725Y193691D01*
X-109458Y193424D01*
Y193158D01*
X-109725Y192891D01*
X-110258D01*
X-110524Y193158D01*
Y193424D01*
X-110258Y193691D01*
X-110524Y193958D01*
Y194224D01*
X-110258Y193691D02*
X-109725D01*
X-115957Y68491D02*
Y66891D01*
X-114890D01*
X-113291D02*
X-114357D01*
X-113291Y67958D01*
Y68224D01*
X-113558Y68491D01*
X-114091D01*
X-114357Y68224D01*
X-112758D02*
X-112491Y68491D01*
X-111958D01*
X-111691Y68224D01*
Y67158D01*
X-111958Y66891D01*
X-112491D01*
X-112758Y67158D01*
Y68224D01*
X30743Y212491D02*
X29144D01*
Y213291D01*
X29410Y213558D01*
X29944D01*
X30210Y213291D01*
Y212491D01*
X29144Y215157D02*
Y214091D01*
X29944D01*
X29677Y214624D01*
Y214891D01*
X29944Y215157D01*
X30477D01*
X30743Y214891D01*
Y214357D01*
X30477Y214091D01*
X-33057Y208891D02*
Y210491D01*
X-32257D01*
X-31990Y210224D01*
Y209691D01*
X-32257Y209424D01*
X-33057D01*
X-30391Y210491D02*
X-30924Y210224D01*
X-31457Y209691D01*
Y209158D01*
X-31191Y208891D01*
X-30658D01*
X-30391Y209158D01*
Y209424D01*
X-30658Y209691D01*
X-31457D01*
X49043Y24391D02*
Y25991D01*
X49843D01*
X50110Y25724D01*
Y25191D01*
X49843Y24925D01*
X49043D01*
X50643Y25991D02*
X51709D01*
Y25724D01*
X50643Y24658D01*
Y24391D01*
X66810Y25458D02*
Y26524D01*
X66543Y26791D01*
X66010D01*
X65743Y26524D01*
Y25458D01*
X66010Y25191D01*
X66543D01*
X66277Y25725D02*
X66810Y25191D01*
X66543D02*
X66810Y25458D01*
X68409Y25191D02*
X67343D01*
X68409Y26258D01*
Y26524D01*
X68142Y26791D01*
X67609D01*
X67343Y26524D01*
X33210Y25058D02*
Y26124D01*
X32943Y26391D01*
X32410D01*
X32143Y26124D01*
Y25058D01*
X32410Y24791D01*
X32943D01*
X32677Y25324D02*
X33210Y24791D01*
X32943D02*
X33210Y25058D01*
X33743Y26124D02*
X34009Y26391D01*
X34543D01*
X34809Y26124D01*
Y25858D01*
X34543Y25591D01*
X34276D01*
X34543D01*
X34809Y25324D01*
Y25058D01*
X34543Y24791D01*
X34009D01*
X33743Y25058D01*
X79777Y29058D02*
X78710D01*
X78444Y28791D01*
Y28258D01*
X78710Y27991D01*
X79777D01*
X80043Y28258D01*
Y28791D01*
X79510Y28525D02*
X80043Y29058D01*
Y28791D02*
X79777Y29058D01*
X80043Y30391D02*
X78444D01*
X79244Y29591D01*
Y30657D01*
X6543Y189391D02*
Y190991D01*
X7343D01*
X7610Y190724D01*
Y190191D01*
X7343Y189925D01*
X6543D01*
X7077D02*
X7610Y189391D01*
X8143Y190724D02*
X8409Y190991D01*
X8942D01*
X9209Y190724D01*
Y190458D01*
X8942Y190191D01*
X8676D01*
X8942D01*
X9209Y189925D01*
Y189658D01*
X8942Y189391D01*
X8409D01*
X8143Y189658D01*
X-94057Y130991D02*
X-95656D01*
Y131791D01*
X-95390Y132058D01*
X-94856D01*
X-94590Y131791D01*
Y130991D01*
Y131525D02*
X-94057Y132058D01*
X-94323Y132591D02*
X-94057Y132857D01*
Y133391D01*
X-94323Y133657D01*
X-95390D01*
X-95656Y133391D01*
Y132857D01*
X-95390Y132591D01*
X-95123D01*
X-94856Y132857D01*
Y133657D01*
X-94057Y138591D02*
X-95656D01*
Y139391D01*
X-95390Y139658D01*
X-94856D01*
X-94590Y139391D01*
Y138591D01*
Y139125D02*
X-94057Y139658D01*
Y140191D02*
Y140724D01*
Y140457D01*
X-95656D01*
X-95390Y140191D01*
Y141524D02*
X-95656Y141790D01*
Y142324D01*
X-95390Y142590D01*
X-94323D01*
X-94057Y142324D01*
Y141790D01*
X-94323Y141524D01*
X-95390D01*
X-41757Y171191D02*
X-43356D01*
Y171991D01*
X-43090Y172258D01*
X-42556D01*
X-42290Y171991D01*
Y171191D01*
Y171724D02*
X-41757Y172258D01*
Y172791D02*
Y173324D01*
Y173057D01*
X-43356D01*
X-43090Y172791D01*
X-43356Y175190D02*
Y174124D01*
X-42556D01*
X-42823Y174657D01*
Y174924D01*
X-42556Y175190D01*
X-42023D01*
X-41757Y174924D01*
Y174390D01*
X-42023Y174124D01*
X14443Y181491D02*
Y183091D01*
X15243D01*
X15510Y182824D01*
Y182291D01*
X15243Y182025D01*
X14443D01*
X14976D02*
X15510Y181491D01*
X17109D02*
X16043D01*
X17109Y182558D01*
Y182824D01*
X16842Y183091D01*
X16309D01*
X16043Y182824D01*
X17642D02*
X17909Y183091D01*
X18442D01*
X18709Y182824D01*
Y181758D01*
X18442Y181491D01*
X17909D01*
X17642Y181758D01*
Y182824D01*
X21643Y39891D02*
X20044D01*
Y40691D01*
X20310Y40958D01*
X20844D01*
X21110Y40691D01*
Y39891D01*
Y40424D02*
X21643Y40958D01*
Y42557D02*
Y41491D01*
X20577Y42557D01*
X20310D01*
X20044Y42291D01*
Y41757D01*
X20310Y41491D01*
X21643Y43090D02*
Y43624D01*
Y43357D01*
X20044D01*
X20310Y43090D01*
X31743Y14191D02*
Y15791D01*
X32543D01*
X32810Y15524D01*
Y14991D01*
X32543Y14725D01*
X31743D01*
X32276D02*
X32810Y14191D01*
X34409D02*
X33343D01*
X34409Y15258D01*
Y15524D01*
X34143Y15791D01*
X33609D01*
X33343Y15524D01*
X36009Y14191D02*
X34942D01*
X36009Y15258D01*
Y15524D01*
X35742Y15791D01*
X35209D01*
X34942Y15524D01*
X31743Y9091D02*
Y10691D01*
X32543D01*
X32810Y10424D01*
Y9891D01*
X32543Y9624D01*
X31743D01*
X32276D02*
X32810Y9091D01*
X34409D02*
X33343D01*
X34409Y10158D01*
Y10424D01*
X34143Y10691D01*
X33609D01*
X33343Y10424D01*
X34942D02*
X35209Y10691D01*
X35742D01*
X36009Y10424D01*
Y10158D01*
X35742Y9891D01*
X35475D01*
X35742D01*
X36009Y9624D01*
Y9358D01*
X35742Y9091D01*
X35209D01*
X34942Y9358D01*
X40743Y151991D02*
Y153591D01*
X41543D01*
X41810Y153324D01*
Y152791D01*
X41543Y152524D01*
X40743D01*
X41276D02*
X41810Y151991D01*
X43409D02*
X42343D01*
X43409Y153058D01*
Y153324D01*
X43143Y153591D01*
X42609D01*
X42343Y153324D01*
X45009Y153591D02*
X44475Y153324D01*
X43942Y152791D01*
Y152258D01*
X44209Y151991D01*
X44742D01*
X45009Y152258D01*
Y152524D01*
X44742Y152791D01*
X43942D01*
X50243Y174391D02*
Y175991D01*
X51043D01*
X51310Y175724D01*
Y175191D01*
X51043Y174925D01*
X50243D01*
X50776D02*
X51310Y174391D01*
X52909D02*
X51843D01*
X52909Y175458D01*
Y175724D01*
X52643Y175991D01*
X52109D01*
X51843Y175724D01*
X53442Y174658D02*
X53709Y174391D01*
X54242D01*
X54509Y174658D01*
Y175724D01*
X54242Y175991D01*
X53709D01*
X53442Y175724D01*
Y175458D01*
X53709Y175191D01*
X54509D01*
X59943Y174391D02*
Y175991D01*
X60743D01*
X61010Y175724D01*
Y175191D01*
X60743Y174925D01*
X59943D01*
X60476D02*
X61010Y174391D01*
X61543Y175724D02*
X61809Y175991D01*
X62343D01*
X62609Y175724D01*
Y175458D01*
X62343Y175191D01*
X62076D01*
X62343D01*
X62609Y174925D01*
Y174658D01*
X62343Y174391D01*
X61809D01*
X61543Y174658D01*
X63142Y174391D02*
X63675D01*
X63409D01*
Y175991D01*
X63142Y175724D01*
X37243Y51191D02*
Y52791D01*
X38043D01*
X38310Y52524D01*
Y51991D01*
X38043Y51724D01*
X37243D01*
X37776D02*
X38310Y51191D01*
X38843Y52524D02*
X39109Y52791D01*
X39643D01*
X39909Y52524D01*
Y52258D01*
X39643Y51991D01*
X39376D01*
X39643D01*
X39909Y51724D01*
Y51458D01*
X39643Y51191D01*
X39109D01*
X38843Y51458D01*
X40442Y52524D02*
X40709Y52791D01*
X41242D01*
X41509Y52524D01*
Y52258D01*
X41242Y51991D01*
X40975D01*
X41242D01*
X41509Y51724D01*
Y51458D01*
X41242Y51191D01*
X40709D01*
X40442Y51458D01*
X55943Y73091D02*
X54344D01*
Y73891D01*
X54610Y74158D01*
X55144D01*
X55410Y73891D01*
Y73091D01*
Y73624D02*
X55943Y74158D01*
X54610Y74691D02*
X54344Y74957D01*
Y75491D01*
X54610Y75757D01*
X54877D01*
X55144Y75491D01*
Y75224D01*
Y75491D01*
X55410Y75757D01*
X55677D01*
X55943Y75491D01*
Y74957D01*
X55677Y74691D01*
X54344Y77357D02*
X54610Y76824D01*
X55144Y76290D01*
X55677D01*
X55943Y76557D01*
Y77090D01*
X55677Y77357D01*
X55410D01*
X55144Y77090D01*
Y76290D01*
X60643Y73091D02*
X59044D01*
Y73891D01*
X59310Y74158D01*
X59844D01*
X60110Y73891D01*
Y73091D01*
Y73624D02*
X60643Y74158D01*
X59310Y74691D02*
X59044Y74957D01*
Y75491D01*
X59310Y75757D01*
X59577D01*
X59844Y75491D01*
Y75224D01*
Y75491D01*
X60110Y75757D01*
X60377D01*
X60643Y75491D01*
Y74957D01*
X60377Y74691D01*
X59044Y76290D02*
Y77357D01*
X59310D01*
X60377Y76290D01*
X60643D01*
X67743Y73091D02*
X66144D01*
Y73891D01*
X66410Y74158D01*
X66944D01*
X67210Y73891D01*
Y73091D01*
Y73624D02*
X67743Y74158D01*
X66410Y74691D02*
X66144Y74957D01*
Y75491D01*
X66410Y75757D01*
X66677D01*
X66944Y75491D01*
Y75224D01*
Y75491D01*
X67210Y75757D01*
X67477D01*
X67743Y75491D01*
Y74957D01*
X67477Y74691D01*
X66410Y76290D02*
X66144Y76557D01*
Y77090D01*
X66410Y77357D01*
X66677D01*
X66944Y77090D01*
X67210Y77357D01*
X67477D01*
X67743Y77090D01*
Y76557D01*
X67477Y76290D01*
X67210D01*
X66944Y76557D01*
X66677Y76290D01*
X66410D01*
X66944Y76557D02*
Y77090D01*
X-120657Y181891D02*
Y183491D01*
X-119857D01*
X-119590Y183224D01*
Y182691D01*
X-119857Y182424D01*
X-120657D01*
X-120124D02*
X-119590Y181891D01*
X-118257D02*
Y183491D01*
X-119057Y182691D01*
X-117991D01*
X-117458Y183224D02*
X-117191Y183491D01*
X-116658D01*
X-116391Y183224D01*
Y182958D01*
X-116658Y182691D01*
X-116925D01*
X-116658D01*
X-116391Y182424D01*
Y182158D01*
X-116658Y181891D01*
X-117191D01*
X-117458Y182158D01*
X-118857Y213991D02*
X-120456D01*
Y214791D01*
X-120190Y215058D01*
X-119656D01*
X-119390Y214791D01*
Y213991D01*
Y214525D02*
X-118857Y215058D01*
Y216391D02*
X-120456D01*
X-119656Y215591D01*
Y216657D01*
X-118857Y217990D02*
X-120456D01*
X-119656Y217190D01*
Y218257D01*
X-115557Y221591D02*
Y223191D01*
X-114757D01*
X-114490Y222924D01*
Y222391D01*
X-114757Y222125D01*
X-115557D01*
X-115024D02*
X-114490Y221591D01*
X-113157D02*
Y223191D01*
X-113957Y222391D01*
X-112891D01*
X-111291Y223191D02*
X-112358D01*
Y222391D01*
X-111825Y222658D01*
X-111558D01*
X-111291Y222391D01*
Y221858D01*
X-111558Y221591D01*
X-112091D01*
X-112358Y221858D01*
X17343Y24991D02*
X15744D01*
Y25791D01*
X16010Y26058D01*
X16544D01*
X16810Y25791D01*
Y24991D01*
Y25525D02*
X17343Y26058D01*
X15744Y27657D02*
Y26591D01*
X16544D01*
X16277Y27124D01*
Y27391D01*
X16544Y27657D01*
X17077D01*
X17343Y27391D01*
Y26857D01*
X17077Y26591D01*
X16010Y28190D02*
X15744Y28457D01*
Y28990D01*
X16010Y29257D01*
X16277D01*
X16544Y28990D01*
Y28723D01*
Y28990D01*
X16810Y29257D01*
X17077D01*
X17343Y28990D01*
Y28457D01*
X17077Y28190D01*
X-77157Y103991D02*
X-78756D01*
Y104791D01*
X-78490Y105058D01*
X-77956D01*
X-77690Y104791D01*
Y103991D01*
Y104525D02*
X-77157Y105058D01*
X-78756Y106657D02*
Y105591D01*
X-77956D01*
X-78223Y106124D01*
Y106391D01*
X-77956Y106657D01*
X-77423D01*
X-77157Y106391D01*
Y105857D01*
X-77423Y105591D01*
X-77157Y107190D02*
Y107723D01*
Y107457D01*
X-78756D01*
X-78490Y107190D01*
X63243Y80691D02*
Y82291D01*
X64043D01*
X64310Y82024D01*
Y81491D01*
X64043Y81225D01*
X63243D01*
X63776D02*
X64310Y80691D01*
X65909Y82291D02*
X64843D01*
Y81491D01*
X65376Y81758D01*
X65642D01*
X65909Y81491D01*
Y80958D01*
X65642Y80691D01*
X65109D01*
X64843Y80958D01*
X67242Y80691D02*
Y82291D01*
X66442Y81491D01*
X67509D01*
X27143Y24591D02*
X25544D01*
Y25391D01*
X25810Y25658D01*
X26344D01*
X26610Y25391D01*
Y24591D01*
Y25124D02*
X27143Y25658D01*
X25544Y27257D02*
Y26191D01*
X26344D01*
X26077Y26724D01*
Y26991D01*
X26344Y27257D01*
X26877D01*
X27143Y26991D01*
Y26457D01*
X26877Y26191D01*
X25810Y27790D02*
X25544Y28057D01*
Y28590D01*
X25810Y28857D01*
X26077D01*
X26344Y28590D01*
X26610Y28857D01*
X26877D01*
X27143Y28590D01*
Y28057D01*
X26877Y27790D01*
X26610D01*
X26344Y28057D01*
X26077Y27790D01*
X25810D01*
X26344Y28057D02*
Y28590D01*
X-136257Y113191D02*
X-137856D01*
Y113991D01*
X-137590Y114258D01*
X-137056D01*
X-136790Y113991D01*
Y113191D01*
Y113725D02*
X-136257Y114258D01*
X-137856Y115857D02*
X-137590Y115324D01*
X-137056Y114791D01*
X-136523D01*
X-136257Y115057D01*
Y115591D01*
X-136523Y115857D01*
X-136790D01*
X-137056Y115591D01*
Y114791D01*
X-136257Y117457D02*
Y116390D01*
X-137323Y117457D01*
X-137590D01*
X-137856Y117190D01*
Y116657D01*
X-137590Y116390D01*
X-104357Y170991D02*
X-105956D01*
Y171791D01*
X-105690Y172058D01*
X-105156D01*
X-104890Y171791D01*
Y170991D01*
Y171525D02*
X-104357Y172058D01*
Y172591D02*
X-105956D01*
X-104357Y173657D01*
X-105956D01*
X-104357Y175257D02*
Y174190D01*
X-105423Y175257D01*
X-105690D01*
X-105956Y174990D01*
Y174457D01*
X-105690Y174190D01*
X-19557Y181491D02*
Y183091D01*
X-18757D01*
X-18490Y182824D01*
Y182291D01*
X-18757Y182025D01*
X-19557D01*
X-19024D02*
X-18490Y181491D01*
X-17957D02*
Y183091D01*
X-16891Y181491D01*
Y183091D01*
X-16358Y182824D02*
X-16091Y183091D01*
X-15558D01*
X-15291Y182824D01*
Y182558D01*
X-15558Y182291D01*
X-15825D01*
X-15558D01*
X-15291Y182025D01*
Y181758D01*
X-15558Y181491D01*
X-16091D01*
X-16358Y181758D01*
X-104357Y148191D02*
X-105956D01*
Y148991D01*
X-105690Y149258D01*
X-105156D01*
X-104890Y148991D01*
Y148191D01*
Y148724D02*
X-104357Y149258D01*
Y149791D02*
X-105956D01*
X-104357Y150857D01*
X-105956D01*
Y152457D02*
X-105690Y151924D01*
X-105156Y151390D01*
X-104623D01*
X-104357Y151657D01*
Y152190D01*
X-104623Y152457D01*
X-104890D01*
X-105156Y152190D01*
Y151390D01*
X-6457Y181491D02*
Y183091D01*
X-5657D01*
X-5390Y182824D01*
Y182291D01*
X-5657Y182025D01*
X-6457D01*
X-5923D02*
X-5390Y181491D01*
X-4857D02*
Y183091D01*
X-3791Y181491D01*
Y183091D01*
X-3258Y181491D02*
X-2725D01*
X-2991D01*
Y183091D01*
X-3258Y182824D01*
X-1125Y181491D02*
Y183091D01*
X-1925Y182291D01*
X-859D01*
X-104357Y158891D02*
X-105956D01*
Y159691D01*
X-105690Y159958D01*
X-105156D01*
X-104890Y159691D01*
Y158891D01*
Y159424D02*
X-104357Y159958D01*
Y160491D02*
X-105956D01*
X-104357Y161557D01*
X-105956D01*
X-104357Y162090D02*
Y162624D01*
Y162357D01*
X-105956D01*
X-105690Y162090D01*
X-105956Y164489D02*
X-105690Y163956D01*
X-105156Y163423D01*
X-104623D01*
X-104357Y163690D01*
Y164223D01*
X-104623Y164489D01*
X-104890D01*
X-105156Y164223D01*
Y163423D01*
X-65257Y104991D02*
Y106591D01*
X-64457D01*
X-64190Y106324D01*
Y105791D01*
X-64457Y105525D01*
X-65257D01*
X-64723D02*
X-64190Y104991D01*
X-63657D02*
Y106591D01*
X-62591Y104991D01*
Y106591D01*
X-62058Y104991D02*
X-61525D01*
X-61791D01*
Y106591D01*
X-62058Y106324D01*
X-60725Y106591D02*
X-59658D01*
Y106324D01*
X-60725Y105258D01*
Y104991D01*
X-71557Y160591D02*
X-70490D01*
X-71023D01*
Y158991D01*
X-69957D02*
Y160591D01*
X-69157D01*
X-68891Y160324D01*
Y159791D01*
X-69157Y159525D01*
X-69957D01*
X-68358Y158991D02*
X-67825D01*
X-68091D01*
Y160591D01*
X-68358Y160324D01*
X96543Y44591D02*
X97610D01*
X97076D01*
Y42991D01*
X98143Y44591D02*
Y43525D01*
X98676Y42991D01*
X99209Y43525D01*
Y44591D01*
X100809Y44324D02*
X100542Y44591D01*
X100009D01*
X99742Y44324D01*
Y44058D01*
X100009Y43791D01*
X100542D01*
X100809Y43525D01*
Y43258D01*
X100542Y42991D01*
X100009D01*
X99742Y43258D01*
X101342Y42991D02*
X101875D01*
X101608D01*
Y44591D01*
X101342Y44324D01*
X-11357Y146891D02*
Y145558D01*
X-11090Y145291D01*
X-10557D01*
X-10290Y145558D01*
Y146891D01*
X-9757Y145291D02*
X-9224D01*
X-9491D01*
Y146891D01*
X-9757Y146624D01*
X-3556Y80991D02*
X-2223D01*
X-1957Y81258D01*
Y81791D01*
X-2223Y82058D01*
X-3556D01*
X-1957Y83391D02*
X-3556D01*
X-2756Y82591D01*
Y83657D01*
X-70057Y146291D02*
Y144958D01*
X-69790Y144691D01*
X-69257D01*
X-68990Y144958D01*
Y146291D01*
X-67391D02*
X-68457D01*
Y145491D01*
X-67924Y145758D01*
X-67658D01*
X-67391Y145491D01*
Y144958D01*
X-67658Y144691D01*
X-68191D01*
X-68457Y144958D01*
X-104457Y130291D02*
Y128958D01*
X-104190Y128691D01*
X-103657D01*
X-103390Y128958D01*
Y130291D01*
X-102857D02*
X-101791D01*
Y130024D01*
X-102857Y128958D01*
Y128691D01*
X56244Y162391D02*
X57577D01*
X57843Y162658D01*
Y163191D01*
X57577Y163458D01*
X56244D01*
X57843Y163991D02*
Y164524D01*
Y164257D01*
X56244D01*
X56510Y163991D01*
X57843Y165324D02*
Y165857D01*
Y165590D01*
X56244D01*
X56510Y165324D01*
X46444Y10191D02*
X47777D01*
X48043Y10458D01*
Y10991D01*
X47777Y11258D01*
X46444D01*
X48043Y11791D02*
Y12324D01*
Y12057D01*
X46444D01*
X46710Y11791D01*
X46444Y13124D02*
Y14190D01*
X46710D01*
X47777Y13124D01*
X48043D01*
X60244Y60991D02*
X61577D01*
X61843Y61258D01*
Y61791D01*
X61577Y62058D01*
X60244D01*
X61843Y62591D02*
Y63124D01*
Y62857D01*
X60244D01*
X60510Y62591D01*
Y63924D02*
X60244Y64190D01*
Y64723D01*
X60510Y64990D01*
X60777D01*
X61044Y64723D01*
X61310Y64990D01*
X61577D01*
X61843Y64723D01*
Y64190D01*
X61577Y63924D01*
X61310D01*
X61044Y64190D01*
X60777Y63924D01*
X60510D01*
X61044Y64190D02*
Y64723D01*
X-73656Y183791D02*
X-72323D01*
X-72057Y184058D01*
Y184591D01*
X-72323Y184858D01*
X-73656D01*
X-72057Y185391D02*
Y185924D01*
Y185657D01*
X-73656D01*
X-73390Y185391D01*
X-72323Y186724D02*
X-72057Y186990D01*
Y187523D01*
X-72323Y187790D01*
X-73390D01*
X-73656Y187523D01*
Y186990D01*
X-73390Y186724D01*
X-73123D01*
X-72856Y186990D01*
Y187790D01*
X-109456Y209291D02*
X-108123D01*
X-107857Y209558D01*
Y210091D01*
X-108123Y210358D01*
X-109456D01*
X-107857Y211957D02*
Y210891D01*
X-108923Y211957D01*
X-109190D01*
X-109456Y211691D01*
Y211157D01*
X-109190Y210891D01*
Y212490D02*
X-109456Y212757D01*
Y213290D01*
X-109190Y213557D01*
X-108123D01*
X-107857Y213290D01*
Y212757D01*
X-108123Y212490D01*
X-109190D01*
X-170857Y215391D02*
Y214058D01*
X-170590Y213791D01*
X-170057D01*
X-169790Y214058D01*
Y215391D01*
X-168191Y213791D02*
X-169257D01*
X-168191Y214858D01*
Y215124D01*
X-168457Y215391D01*
X-168991D01*
X-169257Y215124D01*
X-166591Y213791D02*
X-167658D01*
X-166591Y214858D01*
Y215124D01*
X-166858Y215391D01*
X-167391D01*
X-167658Y215124D01*
X-60057Y83491D02*
Y82158D01*
X-59790Y81891D01*
X-59257D01*
X-58990Y82158D01*
Y83491D01*
X-57391Y81891D02*
X-58457D01*
X-57391Y82958D01*
Y83224D01*
X-57657Y83491D01*
X-58191D01*
X-58457Y83224D01*
X-55791Y83491D02*
X-56858D01*
Y82691D01*
X-56325Y82958D01*
X-56058D01*
X-55791Y82691D01*
Y82158D01*
X-56058Y81891D01*
X-56591D01*
X-56858Y82158D01*
X27943Y41791D02*
Y40458D01*
X28210Y40191D01*
X28743D01*
X29010Y40458D01*
Y41791D01*
X30609Y40191D02*
X29543D01*
X30609Y41258D01*
Y41524D01*
X30343Y41791D01*
X29809D01*
X29543Y41524D01*
X31142Y41791D02*
X32209D01*
Y41524D01*
X31142Y40458D01*
Y40191D01*
X-32957Y183091D02*
X-31890Y181491D01*
Y183091D02*
X-32957Y181491D01*
X-31357D02*
X-30824D01*
X-31091D01*
Y183091D01*
X-31357Y182824D01*
X-87856Y87691D02*
X-86257Y88758D01*
X-87856D02*
X-86257Y87691D01*
Y90091D02*
X-87856D01*
X-87056Y89291D01*
Y90357D01*
X-20990Y190658D02*
X-21256Y190391D01*
Y189858D01*
X-20990Y189591D01*
X-19923D01*
X-19657Y189858D01*
Y190391D01*
X-19923Y190658D01*
X-19657Y191991D02*
X-21256D01*
X-20456Y191191D01*
Y192257D01*
X-19923Y192790D02*
X-19657Y193057D01*
Y193590D01*
X-19923Y193857D01*
X-20990D01*
X-21256Y193590D01*
Y193057D01*
X-20990Y192790D01*
X-20723D01*
X-20456Y193057D01*
Y193857D01*
X-169190Y224924D02*
X-169457Y225191D01*
X-169990D01*
X-170257Y224924D01*
Y223858D01*
X-169990Y223591D01*
X-169457D01*
X-169190Y223858D01*
X-167591Y225191D02*
X-168657D01*
Y224391D01*
X-168124Y224658D01*
X-167858D01*
X-167591Y224391D01*
Y223858D01*
X-167858Y223591D01*
X-168391D01*
X-168657Y223858D01*
X-165991Y223591D02*
X-167058D01*
X-165991Y224658D01*
Y224924D01*
X-166258Y225191D01*
X-166791D01*
X-167058Y224924D01*
X14810Y178524D02*
X14543Y178791D01*
X14010D01*
X13743Y178524D01*
Y177458D01*
X14010Y177191D01*
X14543D01*
X14810Y177458D01*
X15343Y177191D02*
X15876D01*
X15609D01*
Y178791D01*
X15343Y178524D01*
X17742Y178791D02*
X16676D01*
Y177991D01*
X17209Y178258D01*
X17475D01*
X17742Y177991D01*
Y177458D01*
X17475Y177191D01*
X16942D01*
X16676Y177458D01*
X19342Y178791D02*
X18808Y178524D01*
X18275Y177991D01*
Y177458D01*
X18542Y177191D01*
X19075D01*
X19342Y177458D01*
Y177725D01*
X19075Y177991D01*
X18275D01*
X-175157Y212591D02*
X-176756D01*
Y213391D01*
X-176490Y213658D01*
X-175956D01*
X-175690Y213391D01*
Y212591D01*
Y213124D02*
X-175157Y213658D01*
X-176756Y215257D02*
X-176490Y214724D01*
X-175956Y214191D01*
X-175423D01*
X-175157Y214457D01*
Y214991D01*
X-175423Y215257D01*
X-175690D01*
X-175956Y214991D01*
Y214191D01*
X-175157Y215790D02*
Y216323D01*
Y216057D01*
X-176756D01*
X-176490Y215790D01*
X-88156Y103191D02*
X-86823D01*
X-86557Y103458D01*
Y103991D01*
X-86823Y104258D01*
X-88156D01*
X-86557Y105857D02*
Y104791D01*
X-87623Y105857D01*
X-87890D01*
X-88156Y105591D01*
Y105057D01*
X-87890Y104791D01*
X-86557Y107190D02*
X-88156D01*
X-87356Y106390D01*
Y107457D01*
D67*
X-83465Y100492D02*
G03*
X-83503Y100496I-39J-193D01*
G01*
X-187894Y107776D02*
G03*
X-187894Y107776I-197J0D01*
G01*
X-187894Y129035D02*
G03*
X-187894Y129035I-197J0D01*
G01*
Y150689D02*
G03*
X-187894Y150689I-197J0D01*
G01*
Y172343D02*
G03*
X-187894Y172343I-197J0D01*
G01*
Y193996D02*
G03*
X-187894Y193996I-197J0D01*
G01*
Y215650D02*
G03*
X-187894Y215650I-197J0D01*
G01*
X-173524Y210630D02*
G03*
X-173520Y210668I-193J39D01*
G01*
X-70472Y69882D02*
G03*
X-70472Y69882I-197J0D01*
G01*
X23425Y36024D02*
G03*
X23425Y36024I-197J0D01*
G01*
X114173Y38386D02*
X196851D01*
Y111220D01*
X114173D02*
X196851D01*
X114173Y38386D02*
Y111220D01*
D71*
X-104724Y228121D02*
Y225122D01*
X-103225Y223622D01*
X-101725Y225122D01*
Y228121D01*
X-100226Y223622D02*
X-98726D01*
X-99476D01*
Y228121D01*
X-100226Y227371D01*
X-89729Y228121D02*
X-91229D01*
X-91979Y227371D01*
Y224372D01*
X-91229Y223622D01*
X-89729D01*
X-88980Y224372D01*
Y227371D01*
X-89729Y228121D01*
X-87480Y226621D02*
Y224372D01*
X-86730Y223622D01*
X-84481D01*
Y226621D01*
X-82232Y227371D02*
Y226621D01*
X-82981D01*
X-81482D01*
X-82232D01*
Y224372D01*
X-81482Y223622D01*
X-76983D02*
X-78483D01*
X-79233Y224372D01*
Y225871D01*
X-78483Y226621D01*
X-76983D01*
X-76234Y225871D01*
Y225122D01*
X-79233D01*
X-74734Y226621D02*
Y223622D01*
Y225122D01*
X-73984Y225871D01*
X-73235Y226621D01*
X-72485D01*
X-70236Y223622D02*
Y226621D01*
X-67986D01*
X-67237Y225871D01*
Y223622D01*
X-63488D02*
X-64987D01*
X-65737Y224372D01*
Y225871D01*
X-64987Y226621D01*
X-63488D01*
X-62738Y225871D01*
Y225122D01*
X-65737D01*
X-60489Y227371D02*
Y226621D01*
X-61238D01*
X-59739D01*
X-60489D01*
Y224372D01*
X-59739Y223622D01*
X-52991Y228121D02*
Y223622D01*
Y225871D01*
X-52241Y226621D01*
X-50742D01*
X-49992Y225871D01*
Y223622D01*
X-47743Y227371D02*
Y226621D01*
X-48493D01*
X-46993D01*
X-47743D01*
Y224372D01*
X-46993Y223622D01*
X-43994Y227371D02*
Y226621D01*
X-44744D01*
X-43244D01*
X-43994D01*
Y224372D01*
X-43244Y223622D01*
X-40995Y222123D02*
Y226621D01*
X-38746D01*
X-37996Y225871D01*
Y224372D01*
X-38746Y223622D01*
X-40995D01*
X-36496Y226621D02*
X-35747D01*
Y225871D01*
X-36496D01*
Y226621D01*
Y224372D02*
X-35747D01*
Y223622D01*
X-36496D01*
Y224372D01*
X-32748Y223622D02*
X-29749Y226621D01*
X-28249Y223622D02*
X-25250Y226621D01*
X-23001Y223622D02*
X-21501D01*
X-20752Y224372D01*
Y225871D01*
X-21501Y226621D01*
X-23001D01*
X-23751Y225871D01*
Y224372D01*
X-23001Y223622D01*
X-19252Y226621D02*
Y224372D01*
X-18502Y223622D01*
X-16253D01*
Y226621D01*
X-14004Y227371D02*
Y226621D01*
X-14753D01*
X-13254D01*
X-14004D01*
Y224372D01*
X-13254Y223622D01*
X-8755D02*
X-10255D01*
X-11005Y224372D01*
Y225871D01*
X-10255Y226621D01*
X-8755D01*
X-8006Y225871D01*
Y225122D01*
X-11005D01*
X-6506Y226621D02*
Y223622D01*
Y225122D01*
X-5756Y225871D01*
X-5007Y226621D01*
X-4257D01*
X-2008Y223622D02*
Y226621D01*
X242D01*
X991Y225871D01*
Y223622D01*
X4740D02*
X3241D01*
X2491Y224372D01*
Y225871D01*
X3241Y226621D01*
X4740D01*
X5490Y225871D01*
Y225122D01*
X2491D01*
X7739Y227371D02*
Y226621D01*
X6990D01*
X8489D01*
X7739D01*
Y224372D01*
X8489Y223622D01*
X10738D02*
Y224372D01*
X11488D01*
Y223622D01*
X10738D01*
X14487D02*
X15987D01*
X15237D01*
Y226621D01*
X14487D01*
X18236Y223622D02*
X20485D01*
X21235Y224372D01*
X20485Y225122D01*
X18986D01*
X18236Y225871D01*
X18986Y226621D01*
X21235D01*
X36614Y188583D02*
Y193081D01*
X38863D01*
X39613Y192332D01*
Y190832D01*
X38863Y190082D01*
X36614D01*
X38114D02*
X39613Y188583D01*
X44112Y193081D02*
X41113D01*
Y188583D01*
X44112D01*
X41113Y190832D02*
X42612D01*
X45611Y193081D02*
Y190082D01*
X47111Y188583D01*
X48610Y190082D01*
Y193081D01*
X50110Y188583D02*
Y189332D01*
X50860D01*
Y188583D01*
X50110D01*
X58357D02*
X59857D01*
X59107D01*
Y193081D01*
X58357Y192332D01*
X62106Y188583D02*
Y189332D01*
X62856D01*
Y188583D01*
X62106D01*
X65855Y192332D02*
X66605Y193081D01*
X68104D01*
X68854Y192332D01*
Y189332D01*
X68104Y188583D01*
X66605D01*
X65855Y189332D01*
Y192332D01*
X112205Y30202D02*
X115204D01*
X113704Y31701D02*
Y28703D01*
X119702Y32451D02*
X116703D01*
Y30202D01*
X118203Y30952D01*
X118953D01*
X119702Y30202D01*
Y28703D01*
X118953Y27953D01*
X117453D01*
X116703Y28703D01*
X121202Y32451D02*
Y29452D01*
X122701Y27953D01*
X124201Y29452D01*
Y32451D01*
X130199D02*
X131698D01*
X130949D01*
Y27953D01*
X130199D01*
X131698D01*
X133948D02*
Y32451D01*
X136947Y27953D01*
Y32451D01*
X-168278Y2362D02*
X-164529D01*
X-163779Y3112D01*
Y4611D01*
X-164529Y5361D01*
X-168278D01*
X-167528Y9860D02*
X-168278Y9110D01*
Y7610D01*
X-167528Y6861D01*
X-166779D01*
X-166029Y7610D01*
Y9110D01*
X-165279Y9860D01*
X-164529D01*
X-163779Y9110D01*
Y7610D01*
X-164529Y6861D01*
X-168278Y11359D02*
X-163779D01*
Y13609D01*
X-164529Y14358D01*
X-165279D01*
X-166029Y13609D01*
Y11359D01*
Y13609D01*
X-166779Y14358D01*
X-167528D01*
X-168278Y13609D01*
Y11359D01*
X-167528Y23355D02*
X-168278Y22606D01*
Y21106D01*
X-167528Y20356D01*
X-166779D01*
X-166029Y21106D01*
Y22606D01*
X-165279Y23355D01*
X-164529D01*
X-163779Y22606D01*
Y21106D01*
X-164529Y20356D01*
X-168278Y24855D02*
Y26355D01*
Y25605D01*
X-163779D01*
Y24855D01*
Y26355D01*
X-168278Y30853D02*
Y29353D01*
X-167528Y28604D01*
X-164529D01*
X-163779Y29353D01*
Y30853D01*
X-164529Y31603D01*
X-167528D01*
X-168278Y30853D01*
X-184064Y105361D02*
X-184813Y104612D01*
Y103112D01*
X-184064Y102362D01*
X-183314D01*
X-182564Y103112D01*
Y104612D01*
X-181815Y105361D01*
X-181065D01*
X-180315Y104612D01*
Y103112D01*
X-181065Y102362D01*
X-184813Y106861D02*
Y109860D01*
Y108360D01*
X-180315D01*
Y111359D02*
X-184813D01*
Y113609D01*
X-184064Y114358D01*
X-182564D01*
X-181815Y113609D01*
Y111359D01*
Y112859D02*
X-180315Y114358D01*
X-184064Y118857D02*
X-184813Y118107D01*
Y116608D01*
X-184064Y115858D01*
X-181065D01*
X-180315Y116608D01*
Y118107D01*
X-181065Y118857D01*
X-182564D01*
Y117357D01*
X-184813Y123622D02*
X-180315D01*
X-181815Y125122D01*
X-180315Y126621D01*
X-184813D01*
Y128121D02*
Y129620D01*
Y128870D01*
X-180315D01*
Y128121D01*
Y129620D01*
X-184813Y134868D02*
Y131869D01*
X-182564D01*
Y133369D01*
Y131869D01*
X-180315D01*
X-184813Y136368D02*
Y137867D01*
Y137118D01*
X-180315D01*
Y136368D01*
Y137867D01*
Y156693D02*
X-184813D01*
Y158942D01*
X-184064Y159692D01*
X-182564D01*
X-181815Y158942D01*
Y156693D01*
Y158192D02*
X-180315Y159692D01*
X-184813Y164190D02*
Y161191D01*
X-182564D01*
Y162691D01*
Y161191D01*
X-180315D01*
X-184064Y173188D02*
X-184813Y172438D01*
Y170938D01*
X-184064Y170189D01*
X-183314D01*
X-182564Y170938D01*
Y172438D01*
X-181815Y173188D01*
X-181065D01*
X-180315Y172438D01*
Y170938D01*
X-181065Y170189D01*
X-184813Y174687D02*
Y176187D01*
Y175437D01*
X-180315D01*
Y174687D01*
Y176187D01*
X-184064Y181435D02*
X-184813Y180685D01*
Y179186D01*
X-184064Y178436D01*
X-181065D01*
X-180315Y179186D01*
Y180685D01*
X-181065Y181435D01*
X-182564D01*
Y179935D01*
X-180315Y182934D02*
X-184813D01*
X-180315Y185933D01*
X-184813D01*
X-180315Y187433D02*
X-183314D01*
X-184813Y188933D01*
X-183314Y190432D01*
X-180315D01*
X-182564D01*
Y187433D01*
X-184813Y191931D02*
X-180315D01*
Y194931D01*
X-179921Y212205D02*
X-184420D01*
Y214454D01*
X-183670Y215204D01*
X-182170D01*
X-181421Y214454D01*
Y212205D01*
X-184420Y216703D02*
X-179921D01*
X-181421Y218203D01*
X-179921Y219702D01*
X-184420D01*
X-179921Y221202D02*
X-184420D01*
Y223451D01*
X-183670Y224201D01*
X-182170D01*
X-181421Y223451D01*
Y221202D01*
Y222701D02*
X-179921Y224201D01*
X-90325Y203786D02*
Y202287D01*
Y203037D01*
X-86576D01*
X-85827Y202287D01*
Y201537D01*
X-86576Y200787D01*
X-90325Y205286D02*
Y208285D01*
Y206785D01*
X-85827D01*
Y209785D02*
X-88826D01*
X-90325Y211284D01*
X-88826Y212784D01*
X-85827D01*
X-88076D01*
Y209785D01*
X-89576Y217282D02*
X-90325Y216532D01*
Y215033D01*
X-89576Y214283D01*
X-86576D01*
X-85827Y215033D01*
Y216532D01*
X-86576Y217282D01*
X-88076D01*
Y215783D01*
D115*
X62500Y21063D02*
G03*
X62500Y21063I-204J0D01*
G01*
X-37205Y-9252D02*
G03*
X-36220Y-10236I984J0D01*
G01*
X6299D02*
G03*
X7283Y-9252I0J984D01*
G01*
X112121Y66535D02*
G03*
X112121Y66535I-16058J0D01*
G01*
X-105989Y27953D02*
G03*
X-105989Y27953I-16058J0D01*
G01*
X-76462Y63779D02*
G03*
X-76462Y63779I-16058J0D01*
G01*
X78657Y135039D02*
G03*
X78657Y135039I-16058J0D01*
G01*
Y100394D02*
G03*
X78657Y100394I-16058J0D01*
G01*
X112515D02*
G03*
X112515Y100394I-16058J0D01*
G01*
X-98902Y87402D02*
G03*
X-98902Y87402I-16058J0D01*
G01*
X-76870Y60630D02*
G03*
X-76870Y60630I-197J0D01*
G01*
X-119980Y60630D02*
G03*
X-119980Y60630I-197J0D01*
G01*
X84357Y24501D02*
G03*
X84357Y24501I-204J0D01*
G01*
X-101575Y168012D02*
G03*
X-101575Y168012I-98J0D01*
G01*
X-22441Y178839D02*
G03*
X-22441Y178839I-98J0D01*
G01*
X-101575Y145177D02*
G03*
X-101575Y145177I-98J0D01*
G01*
X-8661Y178839D02*
G03*
X-8661Y178839I-98J0D01*
G01*
X-101575Y156595D02*
G03*
X-101575Y156595I-98J0D01*
G01*
X-57284Y109276D02*
G03*
X-57284Y109276I-98J0D01*
G01*
X-96358Y135433D02*
G03*
X-96358Y135433I-197J0D01*
G01*
X50640Y170817D02*
G03*
X50640Y170817I-197J0D01*
G01*
X53347Y5610D02*
G03*
X53347Y5610I-197J0D01*
G01*
X54577Y69636D02*
G03*
X54577Y69636I-197J0D01*
G01*
X-65994Y179183D02*
G03*
X-65994Y179183I-197J0D01*
G01*
X-115108Y218061D02*
G03*
X-115108Y218061I-197J0D01*
G01*
X-82359Y80390D02*
G03*
X-82359Y80390I-220J0D01*
G01*
X-183071Y142913D02*
Y154331D01*
X-183268Y142717D02*
X-183071Y142913D01*
X-185827Y142717D02*
X-183268D01*
X-182480Y207677D02*
X-182283Y207480D01*
Y195276D02*
Y207480D01*
X-185827Y207677D02*
X-182480D01*
X-174114Y211221D02*
Y217717D01*
X-177854Y211221D02*
Y217717D01*
X-174114D01*
X-177854Y211221D02*
X-174114D01*
X13287Y176083D02*
X19783D01*
X13287Y179823D02*
X19783D01*
Y176083D02*
Y179823D01*
X13287Y176083D02*
Y179823D01*
X-93307Y101476D02*
Y110335D01*
Y101476D02*
X-81496D01*
Y110335D01*
X-93307D02*
X-81496D01*
X-131201Y104331D02*
X-124705D01*
X-131201Y108071D02*
X-124705D01*
Y104331D02*
Y108071D01*
X-131201Y104331D02*
Y108071D01*
X-196358Y114567D02*
X-194587D01*
X-196850Y114075D02*
X-196358Y114567D01*
X-196850Y107185D02*
Y114075D01*
Y107185D02*
X-196358Y106693D01*
X-194587D01*
Y99803D02*
X-185827D01*
X-194587D02*
Y121457D01*
X-185827D01*
Y99803D02*
Y121457D01*
X-196358Y135827D02*
X-194587D01*
X-196850Y135335D02*
X-196358Y135827D01*
X-196850Y128445D02*
Y135335D01*
Y128445D02*
X-196358Y127953D01*
X-194587D01*
Y121063D02*
X-185827D01*
X-194587D02*
Y142717D01*
X-185827D01*
Y121063D02*
Y142717D01*
X-196358Y157480D02*
X-194587D01*
X-196850Y156988D02*
X-196358Y157480D01*
X-196850Y150098D02*
Y156988D01*
Y150098D02*
X-196358Y149606D01*
X-194587D01*
Y142717D02*
X-185827D01*
X-194587D02*
Y164370D01*
X-185827D01*
Y142717D02*
Y164370D01*
X-196358Y179134D02*
X-194587D01*
X-196850Y178642D02*
X-196358Y179134D01*
X-196850Y171752D02*
Y178642D01*
Y171752D02*
X-196358Y171260D01*
X-194587D01*
Y164370D02*
X-185827D01*
X-194587D02*
Y186024D01*
X-185827D01*
Y164370D02*
Y186024D01*
X-196358Y200787D02*
X-194587D01*
X-196850Y200295D02*
X-196358Y200787D01*
X-196850Y193405D02*
Y200295D01*
Y193405D02*
X-196358Y192913D01*
X-194587D01*
Y186024D02*
X-185827D01*
X-194587D02*
Y207677D01*
X-185827D01*
Y186024D02*
Y207677D01*
Y229331D01*
X-194587D02*
X-185827D01*
X-194587Y207677D02*
Y229331D01*
Y207677D02*
X-185827D01*
X-196358Y214567D02*
X-194587D01*
X-196850Y215059D02*
X-196358Y214567D01*
X-196850Y215059D02*
Y221949D01*
X-196358Y222441D01*
X-194587D01*
X-111516Y120768D02*
Y127264D01*
X-115256Y120768D02*
Y127264D01*
X-111516D01*
X-115256Y120768D02*
X-111516D01*
X-88287Y137303D02*
Y143799D01*
X-92028Y137303D02*
Y143799D01*
X-88287D01*
X-92028Y137303D02*
X-88287D01*
X66929Y156791D02*
X74016D01*
Y171555D01*
X66929D02*
X74016D01*
X66929Y156791D02*
Y171555D01*
X70866Y55216D02*
X77953D01*
Y69980D01*
X70866D02*
X77953D01*
X70866Y55216D02*
Y69980D01*
X35827Y78445D02*
X42913D01*
Y93209D01*
X35827D02*
X42913D01*
X35827Y78445D02*
Y93209D01*
X-122539Y212894D02*
Y219390D01*
X-126279Y212894D02*
Y219390D01*
X-122539D01*
X-126279Y212894D02*
X-122539D01*
X-89370Y192815D02*
X-82284D01*
X-89370Y178051D02*
Y192815D01*
Y178051D02*
X-82284D01*
Y192815D01*
X-70965Y102657D02*
Y109153D01*
X-74705Y102657D02*
Y109153D01*
X-70965D01*
X-74705Y102657D02*
X-70965D01*
X-92618Y204823D02*
Y216437D01*
X-97933Y204823D02*
X-92618D01*
X-97933D02*
Y216437D01*
X-92618D01*
X-98819Y186319D02*
X-91732D01*
Y201083D01*
X-98819D02*
X-91732D01*
X-98819Y186319D02*
Y201083D01*
X39370Y47933D02*
X46457D01*
X39370Y33169D02*
Y47933D01*
Y33169D02*
X46457D01*
Y47933D01*
X72146Y20079D02*
Y31890D01*
X63287Y20079D02*
X72146D01*
X63287Y31890D02*
X72146D01*
X63287Y20079D02*
Y31890D01*
X-93012Y129035D02*
Y135531D01*
X-96752Y129035D02*
Y135531D01*
X-93012D01*
X-96752Y129035D02*
X-93012D01*
Y137303D02*
Y143799D01*
X-96752Y137303D02*
Y143799D01*
X-93012D01*
X-96752Y137303D02*
X-93012D01*
X-40650Y169980D02*
Y176476D01*
X-44390Y169980D02*
Y176476D01*
X-40650D01*
X-44390Y169980D02*
X-40650D01*
X22736Y38484D02*
Y44980D01*
X18996Y38484D02*
Y44980D01*
X22736D01*
X18996Y38484D02*
X22736D01*
X56988Y71949D02*
Y78445D01*
X53248Y71949D02*
Y78445D01*
X56988D01*
X53248Y71949D02*
X56988D01*
X57972D02*
Y78445D01*
X61713Y71949D02*
Y78445D01*
X57972Y71949D02*
X61713D01*
X57972Y78445D02*
X61713D01*
X65059Y71949D02*
Y78445D01*
X68799Y71949D02*
Y78445D01*
X65059Y71949D02*
X68799D01*
X65059Y78445D02*
X68799D01*
X-121555Y212894D02*
Y219390D01*
X-117815Y212894D02*
Y219390D01*
X-121555Y212894D02*
X-117815D01*
X-121555Y219390D02*
X-117815D01*
X18406Y23917D02*
Y30413D01*
X14665Y23917D02*
Y30413D01*
X18406D01*
X14665Y23917D02*
X18406D01*
X-76083Y102657D02*
Y109153D01*
X-79823Y102657D02*
Y109153D01*
X-76083D01*
X-79823Y102657D02*
X-76083D01*
X24508Y23524D02*
Y30020D01*
X28248Y23524D02*
Y30020D01*
X24508Y23524D02*
X28248D01*
X24508Y30020D02*
X28248D01*
X-138878Y112106D02*
Y118602D01*
X-135138Y112106D02*
Y118602D01*
X-138878Y112106D02*
X-135138D01*
X-138878Y118602D02*
X-135138D01*
X-18602Y188484D02*
Y194980D01*
X-22343Y188484D02*
Y194980D01*
X-18602D01*
X-22343Y188484D02*
X-18602D01*
X-161811Y0D02*
Y23622D01*
X-138189D01*
Y0D02*
Y23622D01*
X-161811Y0D02*
X-138189D01*
X114567D02*
Y23622D01*
X138189D01*
Y0D02*
Y23622D01*
X114567Y0D02*
X138189D01*
X38189Y206693D02*
Y230315D01*
X61811D01*
Y206693D02*
Y230315D01*
X38189Y206693D02*
X61811D01*
X-161811D02*
Y230315D01*
X-138189D01*
Y206693D02*
Y230315D01*
X-161811Y206693D02*
X-138189D01*
X-64862Y55709D02*
X-55610D01*
Y50591D02*
Y55709D01*
X-64862Y50591D02*
X-55610D01*
X-64862D02*
Y55709D01*
X139370Y1181D02*
Y36614D01*
X196457D01*
Y1181D02*
Y36614D01*
X139370Y1181D02*
X196457D01*
X194488Y16929D02*
X196457Y18898D01*
X194488Y20866D02*
X196457Y18898D01*
X186614D02*
X196457D01*
X-38583Y12303D02*
Y50197D01*
X-33858D01*
X-25000D02*
X-10531D01*
X-1673D02*
X8563D01*
X8563Y50197D02*
X8563Y50197D01*
X8563Y47933D02*
Y50197D01*
Y33563D02*
Y42224D01*
Y10531D02*
Y27854D01*
X-492Y5315D02*
X3051D01*
X-36220Y-10236D02*
X6299D01*
X-37205Y-9252D02*
Y3642D01*
X7283Y-9252D02*
Y3642D01*
X81201Y116240D02*
X160532D01*
X173327D02*
X196555D01*
X173327Y227067D02*
X196555D01*
X81299Y227067D02*
X160532D01*
X81103Y146358D02*
Y196555D01*
X81201Y116240D02*
Y133563D01*
Y209350D02*
Y227067D01*
X81299D01*
X196555Y158563D02*
X245276D01*
Y121358D02*
Y158563D01*
X196555Y121358D02*
X245276D01*
X196555Y116240D02*
Y121358D01*
Y184252D02*
X245276D01*
Y221457D01*
X196555D02*
X245276D01*
X196555Y158563D02*
Y184252D01*
Y221457D02*
Y227067D01*
X-196653Y36417D02*
X-170571D01*
X-196653Y2953D02*
Y36417D01*
Y2953D02*
X-170571D01*
Y36417D01*
X-197342Y40157D02*
Y97638D01*
X-131890Y42913D02*
Y94882D01*
X-197342D02*
X-163090D01*
X-148130D02*
X-131890D01*
X-197342Y42913D02*
X-163090D01*
X-147933D02*
X-131890D01*
X-179528Y129921D02*
X-122835D01*
X-179528Y102362D02*
Y206693D01*
X-122835D01*
Y102362D02*
Y206693D01*
X-179528Y102362D02*
X-122835D01*
X-107480Y-21161D02*
X-50000D01*
X-104724D02*
Y11811D01*
X-52756Y-21161D02*
Y11712D01*
X-104724Y27067D02*
Y34153D01*
X-52756Y26673D02*
Y34153D01*
X-100197Y46555D02*
X-57086D01*
X-40256Y188287D02*
X-33760D01*
X-40256Y192028D02*
X-33760D01*
Y188287D02*
Y192028D01*
X-40256Y188287D02*
Y192028D01*
X-30020D02*
X-23524D01*
X-30020Y188287D02*
X-23524D01*
X-30020D02*
Y192028D01*
X-23524Y188287D02*
Y192028D01*
X-108366Y140256D02*
X-101870D01*
X-108366Y143996D02*
X-101870D01*
Y140256D02*
Y143996D01*
X-108366Y140256D02*
Y143996D01*
X-117421Y169980D02*
X-110925D01*
X-117421Y166240D02*
X-110925D01*
X-117421D02*
Y169980D01*
X-110925Y166240D02*
Y169980D01*
X-117421Y158563D02*
X-110925D01*
X-117421Y154823D02*
X-110925D01*
X-117421D02*
Y158563D01*
X-110925Y154823D02*
Y158563D01*
X-108760Y179626D02*
X-102264D01*
X-108760Y183366D02*
X-102264D01*
Y179626D02*
Y183366D01*
X-108760Y179626D02*
Y183366D01*
X-109744Y113484D02*
X-98130D01*
X-109744D02*
Y118799D01*
X-98130D01*
Y113484D02*
Y118799D01*
X109449Y51772D02*
Y55709D01*
X107480Y53740D02*
X111417D01*
X32185Y154626D02*
X38681D01*
X32185Y150886D02*
X38681D01*
X32185D02*
Y154626D01*
X38681Y150886D02*
Y154626D01*
X-136811Y14567D02*
X-132874D01*
X-134843Y12598D02*
Y16535D01*
X23622Y177067D02*
X30709D01*
X23622Y162303D02*
Y177067D01*
Y162303D02*
X30709D01*
Y177067D01*
X26280Y53839D02*
X32776D01*
X26280Y50098D02*
X32776D01*
X26280D02*
Y53839D01*
X32776Y50098D02*
Y53839D01*
X-107283Y50394D02*
X-103347D01*
X-105315Y48425D02*
Y52362D01*
X75984Y120276D02*
Y124213D01*
X74016Y122244D02*
X77953D01*
X75984Y85630D02*
Y89567D01*
X74016Y87598D02*
X77953D01*
X57185Y11811D02*
Y18898D01*
Y11811D02*
X71949D01*
Y18898D01*
X57185D02*
X71949D01*
X-121752Y179823D02*
X-115256D01*
X-121752Y176083D02*
X-115256D01*
X-121752D02*
Y179823D01*
X-115256Y176083D02*
Y179823D01*
X109843Y85630D02*
Y89567D01*
X107874Y87598D02*
X111811D01*
X-129724Y74016D02*
X-125787D01*
X-127756Y72047D02*
Y75984D01*
X86319Y26378D02*
Y33465D01*
Y26378D02*
X101083D01*
Y33465D01*
X86319D02*
X101083D01*
X-76279Y62697D02*
X-67913D01*
X-76279Y50787D02*
Y62697D01*
Y50787D02*
X-67913D01*
Y62697D01*
X-169095Y33071D02*
Y38583D01*
X-152362D01*
Y33071D02*
Y38583D01*
X-169095Y33071D02*
X-152362D01*
X108661Y3937D02*
X109055D01*
X111024D02*
Y24409D01*
X81102D02*
X111024D01*
X81102Y3937D02*
X111024D01*
X81102D02*
Y24409D01*
X81890Y3937D02*
Y24409D01*
X81496Y3937D02*
Y24409D01*
X14469Y22441D02*
X28150D01*
X14469Y6693D02*
Y22441D01*
Y6693D02*
X28150D01*
Y22441D01*
X-129331Y58563D02*
X-120965D01*
Y70473D01*
X-129331D02*
X-120965D01*
X-129331Y58563D02*
Y70473D01*
X3248Y178740D02*
X12500D01*
X3248D02*
Y186614D01*
X12500D01*
Y178740D02*
Y186614D01*
X31890Y177165D02*
X47638D01*
Y155905D02*
Y177165D01*
X31890Y155905D02*
X47638D01*
X31890D02*
Y177165D01*
X-64862Y57284D02*
Y62402D01*
Y57284D02*
X-55610D01*
Y62402D01*
X-64862D02*
X-55610D01*
X35827Y76378D02*
X51575D01*
Y55118D02*
Y76378D01*
X35827Y55118D02*
X51575D01*
X35827D02*
Y76378D01*
X-42126Y177953D02*
Y193701D01*
X-63386Y177953D02*
X-42126D01*
X-63386D02*
Y193701D01*
X-42126D01*
X-152461Y25394D02*
Y30512D01*
X-161713D02*
X-152461D01*
X-161713Y25394D02*
Y30512D01*
Y25394D02*
X-152461D01*
X-100787Y185827D02*
Y201575D01*
X-122047Y185827D02*
X-100787D01*
X-122047D02*
Y201575D01*
X-100787D01*
X-118405Y65158D02*
Y70276D01*
Y65158D02*
X-109153D01*
Y70276D01*
X-118405D02*
X-109153D01*
X25000Y201969D02*
Y225590D01*
X34843D01*
Y201969D02*
Y225590D01*
X25000Y201969D02*
X34843D01*
X-84272Y197224D02*
X20728D01*
Y222224D01*
X-84272D02*
X20728D01*
X-84272Y197224D02*
Y222224D01*
Y202224D02*
X-79272Y197224D01*
X38583Y20276D02*
X62205D01*
X38583D02*
Y30118D01*
X62205D01*
Y20276D02*
Y30118D01*
X29528Y20965D02*
Y30217D01*
X37402D01*
Y20965D02*
Y30217D01*
X29528Y20965D02*
X37402D01*
X73327Y34350D02*
X85138D01*
Y25492D02*
Y34350D01*
X73327Y25492D02*
Y34350D01*
Y25492D02*
X85138D01*
X4626Y192028D02*
X11122D01*
X4626Y188287D02*
X11122D01*
X4626D02*
Y192028D01*
X11122Y188287D02*
Y192028D01*
X13287Y180413D02*
X19783D01*
X13287Y184153D02*
X19783D01*
Y180413D02*
Y184153D01*
X13287Y180413D02*
Y184153D01*
X30610Y13091D02*
X37106D01*
X30610Y16831D02*
X37106D01*
Y13091D02*
Y16831D01*
X30610Y13091D02*
Y16831D01*
Y7972D02*
X37106D01*
X30610Y11713D02*
X37106D01*
Y7972D02*
Y11713D01*
X30610Y7972D02*
Y11713D01*
X39665Y154626D02*
X46161D01*
X39665Y150886D02*
X46161D01*
X39665D02*
Y154626D01*
X46161Y150886D02*
Y154626D01*
X49114Y173327D02*
X55610D01*
X49114Y177067D02*
X55610D01*
Y173327D02*
Y177067D01*
X49114Y173327D02*
Y177067D01*
X58563Y173327D02*
X65059D01*
X58563Y177067D02*
X65059D01*
Y173327D02*
Y177067D01*
X58563Y173327D02*
Y177067D01*
X36122Y53839D02*
X42618D01*
X36122Y50098D02*
X42618D01*
X36122D02*
Y53839D01*
X42618Y50098D02*
Y53839D01*
X-121752Y180807D02*
X-115256D01*
X-121752Y184547D02*
X-115256D01*
Y180807D02*
Y184547D01*
X-121752Y180807D02*
Y184547D01*
X-116634Y220571D02*
X-110138D01*
X-116634Y224311D02*
X-110138D01*
Y220571D02*
Y224311D01*
X-116634Y220571D02*
Y224311D01*
X62106Y79626D02*
X68602D01*
X62106Y83366D02*
X68602D01*
Y79626D02*
Y83366D01*
X62106Y79626D02*
Y83366D01*
X-100787Y168799D02*
Y178347D01*
X-109449Y168799D02*
X-100787D01*
X-109449D02*
Y178347D01*
X-100787D01*
X-21752Y177953D02*
X-12205D01*
X-21752D02*
Y186614D01*
X-12205D01*
Y177953D02*
Y186614D01*
X-100787Y145965D02*
Y155512D01*
X-109449Y145965D02*
X-100787D01*
X-109449D02*
Y155512D01*
X-100787D01*
X-7972Y177953D02*
X1575D01*
X-7972D02*
Y186614D01*
X1575D01*
Y177953D02*
Y186614D01*
X-100787Y157382D02*
Y166929D01*
X-109449Y157382D02*
X-100787D01*
X-109449D02*
Y166929D01*
X-100787D01*
X-67716Y110161D02*
X-58169D01*
Y101500D02*
Y110161D01*
X-67716Y101500D02*
X-58169D01*
X-67716D02*
Y110161D01*
X85532Y38091D02*
X112894D01*
X85532Y49409D02*
X112894D01*
X85532Y38091D02*
Y49409D01*
X112894Y38091D02*
Y49409D01*
X-38583Y174409D02*
X20472D01*
Y115354D02*
Y174409D01*
X-38583Y115354D02*
X20472D01*
X-38583D02*
Y174409D01*
Y176870D01*
X-41043Y174409D02*
X-38583D01*
X-38189Y109843D02*
X32677D01*
X-38189Y54724D02*
Y109843D01*
Y54724D02*
X32677D01*
Y109843D01*
X-51968Y118898D02*
Y174016D01*
X-87402D02*
X-51968D01*
X-87402Y118898D02*
X-51968D01*
X-87402D02*
Y174016D01*
X-51968Y118898D02*
X-50000D01*
X-51968D02*
X-51968Y118898D01*
Y116929D02*
Y118898D01*
X-109843Y120669D02*
X-97933D01*
X-109843D02*
Y138386D01*
X-97933D01*
Y120669D02*
Y138386D01*
X49213Y172047D02*
X64961D01*
X49213Y156299D02*
Y172047D01*
Y156299D02*
X64961D01*
Y172047D01*
X38386Y6988D02*
Y18898D01*
X56102D01*
Y6988D02*
Y18898D01*
X38386Y6988D02*
X56102D01*
X53150Y70866D02*
X68898D01*
X53150Y55118D02*
Y70866D01*
Y55118D02*
X68898D01*
Y70866D01*
X-80709Y177953D02*
X-64961D01*
Y193701D01*
X-80709D02*
X-64961D01*
X-80709Y177953D02*
Y193701D01*
X-116535Y219291D02*
X-100787D01*
X-116535Y203543D02*
Y219291D01*
Y203543D02*
X-100787D01*
Y219291D01*
X-172539Y220472D02*
X-163681D01*
X-172539Y208661D02*
Y220472D01*
Y208661D02*
X-163681D01*
Y220472D01*
X-73130Y67421D02*
Y97933D01*
X-42618D01*
Y67421D02*
Y97933D01*
X-73130Y67421D02*
X-42618D01*
X37303Y33760D02*
Y48130D01*
X24902Y33760D02*
X37303D01*
X24902D02*
Y48130D01*
X37303D01*
X-23130Y177953D02*
Y186614D01*
X-40650D02*
X-23130D01*
X-40650Y177953D02*
Y186614D01*
Y177953D02*
X-23130D01*
X-93307Y81595D02*
X-80709D01*
X-93307D02*
Y97933D01*
X-80709D01*
Y81595D02*
Y97933D01*
X-171358Y226279D02*
X-164862D01*
X-171358Y222539D02*
X-164862D01*
X-171358D02*
Y226279D01*
X-164862Y222539D02*
Y226279D01*
X224409Y230315D02*
Y261811D01*
X-196851Y230315D02*
X196850D01*
Y261811D02*
X224409D01*
X196850Y230315D02*
X224410D01*
X196850D02*
Y261811D01*
X-196851Y230315D02*
X132283D01*
X-224409Y230315D02*
Y261811D01*
Y230315D02*
X-196850D01*
X-196850Y230315D02*
Y261811D01*
X-224410Y261811D02*
X-193307D01*
X-196851Y261811D02*
X196850D01*
X224410Y-31496D02*
Y-0D01*
X196851Y0D02*
X224410D01*
X224410Y0D01*
X196851Y-31496D02*
Y-0D01*
Y-31496D02*
X224410D01*
X224410Y0D02*
X224410Y-0D01*
X-224409Y-31496D02*
X-196850D01*
X-224409D02*
Y-0D01*
X-196850D01*
Y-31496D02*
Y-0D01*
Y-31496D02*
X196851D01*
X-196850Y0D02*
X196851D01*
X-224409Y250000D02*
X-224409Y-31496D01*
X196850Y250000D02*
X196851Y-19685D01*
X224410Y250000D02*
X224410Y-19685D01*
X-196850Y-31496D02*
Y250000D01*
D218*
X-153740Y33465D02*
D03*
Y38189D02*
D03*
D219*
X87008Y38927D02*
D03*
D220*
X86959Y48671D02*
D03*
M02*
