G04 Layer_Physical_Order=8*
G04 Layer_Color=255*
%FSLAX25Y25*%
%MOIN*%
G70*
G01*
G75*
G04:AMPARAMS|DCode=10|XSize=18.7mil|YSize=25mil|CornerRadius=4.68mil|HoleSize=0mil|Usage=FLASHONLY|Rotation=90.000|XOffset=0mil|YOffset=0mil|HoleType=Round|Shape=RoundedRectangle|*
%AMROUNDEDRECTD10*
21,1,0.01870,0.01565,0,0,90.0*
21,1,0.00935,0.02500,0,0,90.0*
1,1,0.00935,0.00783,0.00468*
1,1,0.00935,0.00783,-0.00468*
1,1,0.00935,-0.00783,-0.00468*
1,1,0.00935,-0.00783,0.00468*
%
%ADD10ROUNDEDRECTD10*%
G04:AMPARAMS|DCode=11|XSize=18.7mil|YSize=25mil|CornerRadius=4.68mil|HoleSize=0mil|Usage=FLASHONLY|Rotation=0.000|XOffset=0mil|YOffset=0mil|HoleType=Round|Shape=RoundedRectangle|*
%AMROUNDEDRECTD11*
21,1,0.01870,0.01565,0,0,0.0*
21,1,0.00935,0.02500,0,0,0.0*
1,1,0.00935,0.00468,-0.00783*
1,1,0.00935,-0.00468,-0.00783*
1,1,0.00935,-0.00468,0.00783*
1,1,0.00935,0.00468,0.00783*
%
%ADD11ROUNDEDRECTD11*%
%ADD12R,0.02362X0.01654*%
%ADD13R,0.05906X0.05906*%
%ADD14R,0.03543X0.03543*%
%ADD15R,0.05315X0.05000*%
%ADD16R,0.03500X0.03500*%
%ADD26C,0.03500*%
%ADD33R,0.05000X0.05315*%
%ADD40R,0.01969X0.01969*%
%ADD41R,0.05906X0.05906*%
%ADD46R,0.02500X0.01500*%
%ADD47R,0.02500X0.01100*%
%ADD48R,0.01500X0.02500*%
%ADD49R,0.01100X0.02500*%
%ADD52C,0.01772*%
%ADD59R,0.01654X0.02362*%
%ADD63R,0.02165X0.03150*%
%ADD64R,0.03937X0.06890*%
%ADD65R,0.04331X0.05118*%
%ADD66C,0.00400*%
%ADD67C,0.01000*%
%ADD68C,0.02000*%
%ADD69C,0.02500*%
%ADD70C,0.04500*%
%ADD71C,0.00800*%
%ADD115C,0.00500*%
%ADD116C,0.03937*%
%ADD117C,0.10827*%
%ADD118O,0.05906X0.15748*%
%ADD119O,0.05906X0.13780*%
%ADD120O,0.05118X0.11811*%
%ADD121O,0.11811X0.05118*%
%ADD122C,0.05118*%
%ADD123R,0.05118X0.05118*%
%ADD124O,0.06299X0.03543*%
%ADD125O,0.12992X0.07087*%
%ADD126C,0.05000*%
%ADD127C,0.07874*%
%ADD128C,0.12795*%
%ADD129C,0.05906*%
%ADD130O,0.07087X0.12992*%
%ADD131C,0.06890*%
%ADD132R,0.06890X0.06890*%
%ADD133R,0.07000X0.07000*%
%ADD134C,0.07000*%
%ADD135R,0.06890X0.06890*%
%ADD136C,0.01800*%
%ADD165C,0.01969*%
%ADD166R,0.01368X0.01969*%
%ADD167R,0.07087X0.06299*%
%ADD168R,0.06890X0.09843*%
%ADD169R,0.10000X0.05000*%
%ADD170R,0.06890X0.03937*%
%ADD171R,0.05512X0.03543*%
%ADD172R,0.15748X0.05906*%
%ADD173R,0.13386X0.05906*%
%ADD174R,0.03150X0.02165*%
%ADD175R,0.02953X0.01102*%
%ADD176R,0.09843X0.09843*%
%ADD177R,0.01102X0.02953*%
%ADD178R,0.10236X0.06299*%
%ADD179R,0.01181X0.03347*%
%ADD180R,0.09449X0.06496*%
%ADD181R,0.01102X0.03150*%
%ADD182R,0.05118X0.04331*%
%ADD183R,0.00984X0.01772*%
%ADD184R,0.01772X0.00984*%
%ADD185C,0.00600*%
%ADD186R,0.08268X0.06299*%
%ADD187R,0.03150X0.04331*%
%ADD188R,0.07087X0.12205*%
%ADD189R,0.19685X0.14961*%
%ADD190R,0.07087X0.17323*%
%ADD191R,0.03150X0.06693*%
%ADD192R,0.09843X0.07087*%
%ADD193R,0.04331X0.12992*%
%ADD194R,0.06693X0.23622*%
%ADD195R,0.16535X0.12598*%
%ADD196R,0.12205X0.11417*%
%ADD197R,0.10836X0.20472*%
%ADD198R,0.17716X0.13780*%
%ADD199R,0.08268X0.24410*%
%ADD200R,0.05512X0.07874*%
%ADD201R,0.11811X0.06299*%
%ADD202R,0.05512X0.11417*%
%ADD203R,0.06693X0.06693*%
%ADD204R,0.16142X0.11417*%
%ADD205R,0.08268X0.11417*%
%ADD206R,0.09843X0.10039*%
%ADD207R,0.04331X0.05118*%
%ADD208R,0.04331X0.03937*%
%ADD209R,0.04331X0.04724*%
%ADD210R,0.12106X0.05118*%
%ADD211R,0.04724X0.04724*%
%ADD212R,0.03937X0.04724*%
%ADD213R,0.26378X0.13386*%
%ADD214R,0.17913X0.09055*%
%ADD215R,0.03347X0.09055*%
%ADD216R,0.13780X0.04724*%
%ADD217R,0.09843X0.05217*%
G36*
X114173Y49606D02*
X114173Y1969D01*
X11417Y1969D01*
X11417Y49606D01*
X114173Y49606D01*
D02*
G37*
%LPC*%
G36*
X50106Y18373D02*
Y17035D01*
X51444D01*
X51396Y17277D01*
X50976Y17905D01*
X50348Y18325D01*
X50106Y18373D01*
D02*
G37*
G36*
X44776D02*
X44534Y18325D01*
X43906Y17905D01*
X43486Y17277D01*
X43438Y17035D01*
X44776D01*
Y18373D01*
D02*
G37*
G36*
X76378Y23373D02*
X75871Y23272D01*
X75441Y22985D01*
X75153Y22555D01*
X75052Y22047D01*
X75153Y21540D01*
X75441Y21110D01*
X75871Y20823D01*
X76378Y20722D01*
X76885Y20823D01*
X77315Y21110D01*
X77602Y21540D01*
X77703Y22047D01*
X77602Y22555D01*
X77315Y22985D01*
X76885Y23272D01*
X76378Y23373D01*
D02*
G37*
G36*
X72146D02*
X71638Y23272D01*
X71208Y22985D01*
X70921Y22555D01*
X70820Y22047D01*
X70921Y21540D01*
X71208Y21110D01*
X71638Y20823D01*
X72146Y20722D01*
X72653Y20823D01*
X73083Y21110D01*
X73370Y21540D01*
X73471Y22047D01*
X73370Y22555D01*
X73083Y22985D01*
X72653Y23272D01*
X72146Y23373D01*
D02*
G37*
G36*
X49106Y18373D02*
X48865Y18325D01*
X48237Y17905D01*
X47817Y17277D01*
X47738Y16883D01*
X47696Y16670D01*
X47186D01*
X47144Y16883D01*
X47065Y17277D01*
X46645Y17905D01*
X46017Y18325D01*
X45776Y18373D01*
Y16535D01*
Y14698D01*
X45961Y14735D01*
X46128Y14532D01*
X46239Y14319D01*
X45848Y13734D01*
X45800Y13492D01*
X49475D01*
X49428Y13734D01*
X49127Y14184D01*
X49427Y14634D01*
X49606Y14598D01*
X50348Y14746D01*
X50976Y15166D01*
X51396Y15794D01*
X51444Y16035D01*
X49606D01*
Y16535D01*
X49106D01*
Y18373D01*
D02*
G37*
G36*
X44776Y16035D02*
X43438D01*
X43486Y15794D01*
X43906Y15166D01*
X44534Y14746D01*
X44776Y14698D01*
Y16035D01*
D02*
G37*
G36*
X16535Y17074D02*
X16028Y16973D01*
X15598Y16685D01*
X15311Y16255D01*
X15210Y15748D01*
X15311Y15241D01*
X15598Y14811D01*
X16028Y14524D01*
X16535Y14423D01*
X17043Y14524D01*
X17473Y14811D01*
X17760Y15241D01*
X17861Y15748D01*
X17760Y16255D01*
X17473Y16685D01*
X17043Y16973D01*
X16535Y17074D01*
D02*
G37*
G36*
X69004Y17192D02*
Y15854D01*
X70342D01*
X70294Y16096D01*
X69874Y16724D01*
X69245Y17144D01*
X69004Y17192D01*
D02*
G37*
G36*
X68004D02*
X67763Y17144D01*
X67134Y16724D01*
X66714Y16096D01*
X66666Y15854D01*
X68004D01*
Y17192D01*
D02*
G37*
G36*
X84252Y23373D02*
X83745Y23272D01*
X83315Y22985D01*
X83027Y22555D01*
X82926Y22047D01*
X83027Y21540D01*
X83315Y21110D01*
X83745Y20823D01*
X84252Y20722D01*
X84759Y20823D01*
X85189Y21110D01*
X85476Y21540D01*
X85577Y22047D01*
X85476Y22555D01*
X85189Y22985D01*
X84759Y23272D01*
X84252Y23373D01*
D02*
G37*
G36*
X42876Y29614D02*
X42216Y29527D01*
X41134Y29079D01*
X40206Y28367D01*
X39493Y27439D01*
X39046Y26357D01*
X38959Y25697D01*
X42876D01*
Y29614D01*
D02*
G37*
G36*
X33334Y25091D02*
X31996D01*
Y23753D01*
X32237Y23801D01*
X32866Y24221D01*
X33286Y24849D01*
X33334Y25091D01*
D02*
G37*
G36*
X30996Y27428D02*
X30755Y27380D01*
X30126Y26960D01*
X29706Y26332D01*
X29658Y26091D01*
X30996D01*
Y27428D01*
D02*
G37*
G36*
X43876Y29614D02*
Y25697D01*
X47793D01*
X47706Y26357D01*
X47259Y27439D01*
X46546Y28367D01*
X45618Y29079D01*
X44536Y29527D01*
X43876Y29614D01*
D02*
G37*
G36*
X30996Y25091D02*
X29658D01*
X29706Y24849D01*
X30126Y24221D01*
X30755Y23801D01*
X30996Y23753D01*
Y25091D01*
D02*
G37*
G36*
X47793Y24697D02*
X43876D01*
Y20779D01*
X44536Y20866D01*
X45618Y21314D01*
X46546Y22027D01*
X47259Y22955D01*
X47706Y24036D01*
X47793Y24697D01*
D02*
G37*
G36*
X92126Y23373D02*
X91619Y23272D01*
X91189Y22985D01*
X90901Y22555D01*
X90800Y22047D01*
X90901Y21540D01*
X91189Y21110D01*
X91619Y20823D01*
X92126Y20722D01*
X92633Y20823D01*
X93063Y21110D01*
X93350Y21540D01*
X93451Y22047D01*
X93350Y22555D01*
X93063Y22985D01*
X92633Y23272D01*
X92126Y23373D01*
D02*
G37*
G36*
X61256Y29042D02*
X53566D01*
Y21352D01*
X61256D01*
Y29042D01*
D02*
G37*
G36*
X42876Y24697D02*
X38959D01*
X39046Y24036D01*
X39493Y22955D01*
X40206Y22027D01*
X41134Y21314D01*
X42216Y20866D01*
X42876Y20779D01*
Y24697D01*
D02*
G37*
G36*
X31365Y9342D02*
X30028D01*
Y8005D01*
X30269Y8053D01*
X30897Y8473D01*
X31317Y9101D01*
X31365Y9342D01*
D02*
G37*
G36*
X29028D02*
X27690D01*
X27738Y9101D01*
X28158Y8473D01*
X28786Y8053D01*
X29028Y8005D01*
Y9342D01*
D02*
G37*
G36*
X25197Y11955D02*
X24690Y11855D01*
X24260Y11567D01*
X23972Y11137D01*
X23871Y10630D01*
X23972Y10123D01*
X24260Y9693D01*
X24690Y9405D01*
X25197Y9304D01*
X25704Y9405D01*
X26134Y9693D01*
X26421Y10123D01*
X26522Y10630D01*
X26421Y11137D01*
X26134Y11567D01*
X25704Y11855D01*
X25197Y11955D01*
D02*
G37*
G36*
X17323D02*
X16816Y11855D01*
X16386Y11567D01*
X16098Y11137D01*
X15997Y10630D01*
X16098Y10123D01*
X16386Y9693D01*
X16816Y9405D01*
X17323Y9304D01*
X17830Y9405D01*
X18260Y9693D01*
X18547Y10123D01*
X18648Y10630D01*
X18547Y11137D01*
X18260Y11567D01*
X17830Y11855D01*
X17323Y11955D01*
D02*
G37*
G36*
X51444Y8949D02*
X50106D01*
Y7611D01*
X50348Y7659D01*
X50976Y8079D01*
X51396Y8708D01*
X51444Y8949D01*
D02*
G37*
G36*
X84252Y7625D02*
X83745Y7524D01*
X83315Y7237D01*
X83027Y6806D01*
X82926Y6299D01*
X83027Y5792D01*
X83315Y5362D01*
X83745Y5075D01*
X84252Y4974D01*
X84759Y5075D01*
X85189Y5362D01*
X85476Y5792D01*
X85577Y6299D01*
X85476Y6806D01*
X85189Y7237D01*
X84759Y7524D01*
X84252Y7625D01*
D02*
G37*
G36*
X76378D02*
X75871Y7524D01*
X75441Y7237D01*
X75153Y6806D01*
X75052Y6299D01*
X75153Y5792D01*
X75441Y5362D01*
X75871Y5075D01*
X76378Y4974D01*
X76885Y5075D01*
X77315Y5362D01*
X77602Y5792D01*
X77703Y6299D01*
X77602Y6806D01*
X77315Y7237D01*
X76885Y7524D01*
X76378Y7625D01*
D02*
G37*
G36*
X44776Y8949D02*
X43438D01*
X43486Y8708D01*
X43906Y8079D01*
X44534Y7659D01*
X44776Y7611D01*
Y8949D01*
D02*
G37*
G36*
X92126Y7625D02*
X91619Y7524D01*
X91189Y7237D01*
X90901Y6806D01*
X90800Y6299D01*
X90901Y5792D01*
X91189Y5362D01*
X91619Y5075D01*
X92126Y4974D01*
X92633Y5075D01*
X93063Y5362D01*
X93350Y5792D01*
X93451Y6299D01*
X93350Y6806D01*
X93063Y7237D01*
X92633Y7524D01*
X92126Y7625D01*
D02*
G37*
G36*
X44776Y11287D02*
X44534Y11239D01*
X43906Y10819D01*
X43486Y10190D01*
X43438Y9949D01*
X44776D01*
Y11287D01*
D02*
G37*
G36*
X68004Y14854D02*
X66666D01*
X66714Y14613D01*
X67134Y13984D01*
X67763Y13565D01*
X68004Y13517D01*
Y14854D01*
D02*
G37*
G36*
X92126Y15499D02*
X91619Y15398D01*
X91189Y15111D01*
X90901Y14681D01*
X90800Y14173D01*
X90901Y13666D01*
X91189Y13236D01*
X91619Y12949D01*
X92126Y12848D01*
X92633Y12949D01*
X93063Y13236D01*
X93350Y13666D01*
X93451Y14173D01*
X93350Y14681D01*
X93063Y15111D01*
X92633Y15398D01*
X92126Y15499D01*
D02*
G37*
G36*
X38583Y16286D02*
X38075Y16185D01*
X37645Y15898D01*
X37358Y15468D01*
X37257Y14961D01*
X37358Y14453D01*
X37645Y14023D01*
X38075Y13736D01*
X38583Y13635D01*
X39090Y13736D01*
X39520Y14023D01*
X39807Y14453D01*
X39908Y14961D01*
X39807Y15468D01*
X39520Y15898D01*
X39090Y16185D01*
X38583Y16286D01*
D02*
G37*
G36*
X70342Y14854D02*
X69004D01*
Y13517D01*
X69245Y13565D01*
X69874Y13984D01*
X70294Y14613D01*
X70342Y14854D01*
D02*
G37*
G36*
X84252Y15499D02*
X83745Y15398D01*
X83315Y15111D01*
X83027Y14681D01*
X82926Y14173D01*
X83027Y13666D01*
X83315Y13236D01*
X83745Y12949D01*
X84252Y12848D01*
X84759Y12949D01*
X85189Y13236D01*
X85476Y13666D01*
X85577Y14173D01*
X85476Y14681D01*
X85189Y15111D01*
X84759Y15398D01*
X84252Y15499D01*
D02*
G37*
G36*
X30028Y11680D02*
Y10343D01*
X31365D01*
X31317Y10584D01*
X30897Y11212D01*
X30269Y11632D01*
X30028Y11680D01*
D02*
G37*
G36*
X29028D02*
X28786Y11632D01*
X28158Y11212D01*
X27738Y10584D01*
X27690Y10343D01*
X29028D01*
Y11680D01*
D02*
G37*
G36*
X76378Y15499D02*
X75871Y15398D01*
X75441Y15111D01*
X75153Y14681D01*
X75052Y14173D01*
X75153Y13666D01*
X75441Y13236D01*
X75871Y12949D01*
X76378Y12848D01*
X76885Y12949D01*
X77315Y13236D01*
X77602Y13666D01*
X77703Y14173D01*
X77602Y14681D01*
X77315Y15111D01*
X76885Y15398D01*
X76378Y15499D01*
D02*
G37*
G36*
X49475Y12492D02*
X45800D01*
X45848Y12251D01*
X46239Y11665D01*
X46128Y11453D01*
X45961Y11250D01*
X45776Y11287D01*
Y9449D01*
Y7611D01*
X46017Y7659D01*
X46645Y8079D01*
X47065Y8708D01*
X47144Y9101D01*
X47186Y9314D01*
X47696D01*
X47738Y9101D01*
X47817Y8708D01*
X48237Y8079D01*
X48865Y7659D01*
X49106Y7611D01*
Y9449D01*
X49606D01*
Y9949D01*
X51444D01*
X51396Y10190D01*
X50976Y10819D01*
X50348Y11239D01*
X49606Y11386D01*
X49427Y11350D01*
X49127Y11800D01*
X49428Y12251D01*
X49475Y12492D01*
D02*
G37*
G36*
X31996Y27428D02*
Y26091D01*
X33334D01*
X33286Y26332D01*
X32866Y26960D01*
X32237Y27380D01*
X31996Y27428D01*
D02*
G37*
G36*
X80315Y44239D02*
X79808Y44138D01*
X79378Y43851D01*
X79090Y43421D01*
X78989Y42913D01*
X79090Y42406D01*
X79378Y41976D01*
X79808Y41689D01*
X80315Y41588D01*
X80822Y41689D01*
X81252Y41976D01*
X81539Y42406D01*
X81640Y42913D01*
X81539Y43421D01*
X81252Y43851D01*
X80822Y44138D01*
X80315Y44239D01*
D02*
G37*
G36*
X72441D02*
X71934Y44138D01*
X71504Y43851D01*
X71216Y43421D01*
X71115Y42913D01*
X71216Y42406D01*
X71504Y41976D01*
X71934Y41689D01*
X72441Y41588D01*
X72948Y41689D01*
X73378Y41976D01*
X73665Y42406D01*
X73766Y42913D01*
X73665Y43421D01*
X73378Y43851D01*
X72948Y44138D01*
X72441Y44239D01*
D02*
G37*
G36*
X105381Y43201D02*
X104043D01*
Y41863D01*
X104285Y41911D01*
X104913Y42331D01*
X105333Y42959D01*
X105381Y43201D01*
D02*
G37*
G36*
X103043D02*
X101706D01*
X101753Y42959D01*
X102173Y42331D01*
X102802Y41911D01*
X103043Y41863D01*
Y43201D01*
D02*
G37*
G36*
X64567Y44239D02*
X64060Y44138D01*
X63630Y43851D01*
X63342Y43421D01*
X63241Y42913D01*
X63342Y42406D01*
X63630Y41976D01*
X64060Y41689D01*
X64567Y41588D01*
X65074Y41689D01*
X65504Y41976D01*
X65791Y42406D01*
X65892Y42913D01*
X65791Y43421D01*
X65504Y43851D01*
X65074Y44138D01*
X64567Y44239D01*
D02*
G37*
G36*
X31890Y41877D02*
X31382Y41776D01*
X30952Y41488D01*
X30665Y41058D01*
X30564Y40551D01*
X30665Y40044D01*
X30952Y39614D01*
X31382Y39327D01*
X31890Y39226D01*
X32397Y39327D01*
X32827Y39614D01*
X33114Y40044D01*
X33215Y40551D01*
X33114Y41058D01*
X32827Y41488D01*
X32397Y41776D01*
X31890Y41877D01*
D02*
G37*
G36*
X35433Y41483D02*
X34926Y41382D01*
X34496Y41095D01*
X34209Y40665D01*
X34108Y40157D01*
X34209Y39650D01*
X34496Y39220D01*
X34926Y38933D01*
X35433Y38832D01*
X35940Y38933D01*
X36370Y39220D01*
X36658Y39650D01*
X36759Y40157D01*
X36658Y40665D01*
X36370Y41095D01*
X35940Y41382D01*
X35433Y41483D01*
D02*
G37*
G36*
X56693Y44239D02*
X56186Y44138D01*
X55756Y43851D01*
X55468Y43421D01*
X55367Y42913D01*
X55468Y42406D01*
X55756Y41976D01*
X56186Y41689D01*
X56693Y41588D01*
X57200Y41689D01*
X57630Y41976D01*
X57917Y42406D01*
X58018Y42913D01*
X57917Y43421D01*
X57630Y43851D01*
X57200Y44138D01*
X56693Y44239D01*
D02*
G37*
G36*
X48819D02*
X48312Y44138D01*
X47882Y43851D01*
X47594Y43421D01*
X47493Y42913D01*
X47594Y42406D01*
X47882Y41976D01*
X48312Y41689D01*
X48819Y41588D01*
X49326Y41689D01*
X49756Y41976D01*
X50043Y42406D01*
X50144Y42913D01*
X50043Y43421D01*
X49756Y43851D01*
X49326Y44138D01*
X48819Y44239D01*
D02*
G37*
G36*
X110130Y43201D02*
X108792D01*
X108840Y42959D01*
X109260Y42331D01*
X109889Y41911D01*
X110130Y41863D01*
Y43201D01*
D02*
G37*
G36*
X60630Y48176D02*
X60123Y48075D01*
X59693Y47788D01*
X59405Y47358D01*
X59304Y46850D01*
X59405Y46343D01*
X59693Y45913D01*
X60123Y45626D01*
X60630Y45525D01*
X61137Y45626D01*
X61567Y45913D01*
X61854Y46343D01*
X61955Y46850D01*
X61854Y47358D01*
X61567Y47788D01*
X61137Y48075D01*
X60630Y48176D01*
D02*
G37*
G36*
X52756D02*
X52249Y48075D01*
X51819Y47788D01*
X51531Y47358D01*
X51430Y46850D01*
X51531Y46343D01*
X51819Y45913D01*
X52249Y45626D01*
X52756Y45525D01*
X53263Y45626D01*
X53693Y45913D01*
X53980Y46343D01*
X54081Y46850D01*
X53980Y47358D01*
X53693Y47788D01*
X53263Y48075D01*
X52756Y48176D01*
D02*
G37*
G36*
X76378D02*
X75871Y48075D01*
X75441Y47788D01*
X75153Y47358D01*
X75052Y46850D01*
X75153Y46343D01*
X75441Y45913D01*
X75871Y45626D01*
X76378Y45525D01*
X76885Y45626D01*
X77315Y45913D01*
X77602Y46343D01*
X77703Y46850D01*
X77602Y47358D01*
X77315Y47788D01*
X76885Y48075D01*
X76378Y48176D01*
D02*
G37*
G36*
X68504D02*
X67997Y48075D01*
X67567Y47788D01*
X67279Y47358D01*
X67178Y46850D01*
X67279Y46343D01*
X67567Y45913D01*
X67997Y45626D01*
X68504Y45525D01*
X69011Y45626D01*
X69441Y45913D01*
X69728Y46343D01*
X69829Y46850D01*
X69728Y47358D01*
X69441Y47788D01*
X69011Y48075D01*
X68504Y48176D01*
D02*
G37*
G36*
X111130Y45538D02*
Y44201D01*
X112468D01*
X112420Y44442D01*
X112000Y45071D01*
X111371Y45491D01*
X111130Y45538D01*
D02*
G37*
G36*
X103043D02*
X102802Y45491D01*
X102173Y45071D01*
X101753Y44442D01*
X101706Y44201D01*
X103043D01*
Y45538D01*
D02*
G37*
G36*
X112468Y43201D02*
X111130D01*
Y41863D01*
X111371Y41911D01*
X112000Y42331D01*
X112420Y42959D01*
X112468Y43201D01*
D02*
G37*
G36*
X110130Y45538D02*
X109889Y45491D01*
X109260Y45071D01*
X108840Y44442D01*
X108792Y44201D01*
X110130D01*
Y45538D01*
D02*
G37*
G36*
X104043D02*
Y44201D01*
X105381D01*
X105333Y44442D01*
X104913Y45071D01*
X104285Y45491D01*
X104043Y45538D01*
D02*
G37*
G36*
X76378Y40302D02*
X75871Y40201D01*
X75441Y39914D01*
X75153Y39484D01*
X75052Y38976D01*
X75153Y38469D01*
X75441Y38039D01*
X75871Y37752D01*
X76378Y37651D01*
X76885Y37752D01*
X77315Y38039D01*
X77602Y38469D01*
X77703Y38976D01*
X77602Y39484D01*
X77315Y39914D01*
X76885Y40201D01*
X76378Y40302D01*
D02*
G37*
G36*
X64567Y36365D02*
X64060Y36264D01*
X63630Y35977D01*
X63342Y35547D01*
X63241Y35039D01*
X63342Y34532D01*
X63630Y34102D01*
X64060Y33815D01*
X64567Y33714D01*
X65074Y33815D01*
X65504Y34102D01*
X65791Y34532D01*
X65892Y35039D01*
X65791Y35547D01*
X65504Y35977D01*
X65074Y36264D01*
X64567Y36365D01*
D02*
G37*
G36*
X56693D02*
X56186Y36264D01*
X55756Y35977D01*
X55468Y35547D01*
X55367Y35039D01*
X55468Y34532D01*
X55756Y34102D01*
X56186Y33815D01*
X56693Y33714D01*
X57200Y33815D01*
X57630Y34102D01*
X57917Y34532D01*
X58018Y35039D01*
X57917Y35547D01*
X57630Y35977D01*
X57200Y36264D01*
X56693Y36365D01*
D02*
G37*
G36*
X80315D02*
X79808Y36264D01*
X79378Y35977D01*
X79090Y35547D01*
X78989Y35039D01*
X79090Y34532D01*
X79378Y34102D01*
X79808Y33815D01*
X80315Y33714D01*
X80822Y33815D01*
X81252Y34102D01*
X81539Y34532D01*
X81640Y35039D01*
X81539Y35547D01*
X81252Y35977D01*
X80822Y36264D01*
X80315Y36365D01*
D02*
G37*
G36*
X72441D02*
X71934Y36264D01*
X71504Y35977D01*
X71216Y35547D01*
X71115Y35039D01*
X71216Y34532D01*
X71504Y34102D01*
X71934Y33815D01*
X72441Y33714D01*
X72948Y33815D01*
X73378Y34102D01*
X73665Y34532D01*
X73766Y35039D01*
X73665Y35547D01*
X73378Y35977D01*
X72948Y36264D01*
X72441Y36365D01*
D02*
G37*
G36*
X84645Y36365D02*
X84138Y36264D01*
X83708Y35976D01*
X83421Y35546D01*
X83320Y35039D01*
X83421Y34532D01*
X83708Y34102D01*
X84138Y33815D01*
X84645Y33714D01*
X85153Y33815D01*
X85583Y34102D01*
X85870Y34532D01*
X85971Y35039D01*
X85870Y35546D01*
X85583Y35976D01*
X85153Y36264D01*
X84645Y36365D01*
D02*
G37*
G36*
X99476Y29421D02*
X98138D01*
Y28084D01*
X98379Y28131D01*
X99008Y28551D01*
X99427Y29180D01*
X99476Y29421D01*
D02*
G37*
G36*
X97138D02*
X95800D01*
X95848Y29180D01*
X96268Y28551D01*
X96896Y28131D01*
X97138Y28084D01*
Y29421D01*
D02*
G37*
G36*
X98138Y31759D02*
Y30421D01*
X99476D01*
X99427Y30663D01*
X99008Y31291D01*
X98379Y31711D01*
X98138Y31759D01*
D02*
G37*
G36*
X97138D02*
X96896Y31711D01*
X96268Y31291D01*
X95848Y30663D01*
X95800Y30421D01*
X97138D01*
Y31759D01*
D02*
G37*
G36*
X36902Y35721D02*
X35564D01*
X35612Y35479D01*
X36032Y34851D01*
X36660Y34431D01*
X36902Y34383D01*
Y35721D01*
D02*
G37*
G36*
X43413Y38452D02*
Y37114D01*
X44751D01*
X44703Y37356D01*
X44283Y37984D01*
X43655Y38404D01*
X43413Y38452D01*
D02*
G37*
G36*
X42413D02*
X42172Y38404D01*
X41544Y37984D01*
X41124Y37356D01*
X41076Y37114D01*
X42413D01*
Y38452D01*
D02*
G37*
G36*
X68504Y40302D02*
X67997Y40201D01*
X67567Y39914D01*
X67279Y39484D01*
X67178Y38976D01*
X67279Y38469D01*
X67567Y38039D01*
X67997Y37752D01*
X68504Y37651D01*
X69011Y37752D01*
X69441Y38039D01*
X69728Y38469D01*
X69829Y38976D01*
X69728Y39484D01*
X69441Y39914D01*
X69011Y40201D01*
X68504Y40302D01*
D02*
G37*
G36*
X60630D02*
X60123Y40201D01*
X59693Y39914D01*
X59405Y39484D01*
X59304Y38976D01*
X59405Y38469D01*
X59693Y38039D01*
X60123Y37752D01*
X60630Y37651D01*
X61137Y37752D01*
X61567Y38039D01*
X61854Y38469D01*
X61955Y38976D01*
X61854Y39484D01*
X61567Y39914D01*
X61137Y40201D01*
X60630Y40302D01*
D02*
G37*
G36*
X37902Y38058D02*
Y36720D01*
X39239D01*
X39191Y36962D01*
X38771Y37590D01*
X38143Y38010D01*
X37902Y38058D01*
D02*
G37*
G36*
X42413Y36114D02*
X41076D01*
X41124Y35873D01*
X41544Y35244D01*
X42172Y34824D01*
X42413Y34776D01*
Y36114D01*
D02*
G37*
G36*
X39239Y35721D02*
X37902D01*
Y34383D01*
X38143Y34431D01*
X38771Y34851D01*
X39191Y35479D01*
X39239Y35721D01*
D02*
G37*
G36*
X36902Y38058D02*
X36660Y38010D01*
X36032Y37590D01*
X35612Y36962D01*
X35564Y36720D01*
X36902D01*
Y38058D01*
D02*
G37*
G36*
X44751Y36114D02*
X43413D01*
Y34776D01*
X43655Y34824D01*
X44283Y35244D01*
X44703Y35873D01*
X44751Y36114D01*
D02*
G37*
%LPD*%
D10*
X-5118Y83563D02*
D03*
Y80216D02*
D03*
X9843Y114075D02*
D03*
Y117421D02*
D03*
X119685Y183563D02*
D03*
Y180217D02*
D03*
X9843Y181595D02*
D03*
Y178248D02*
D03*
X-101575Y133366D02*
D03*
Y136713D02*
D03*
X-83858Y140847D02*
D03*
Y144193D02*
D03*
X-14961Y107579D02*
D03*
Y104232D02*
D03*
X-113386Y122343D02*
D03*
Y125689D02*
D03*
X-56299Y131004D02*
D03*
Y134350D02*
D03*
X-83858Y128445D02*
D03*
Y125098D02*
D03*
X100394Y72736D02*
D03*
Y76083D02*
D03*
X94488Y72146D02*
D03*
Y68799D02*
D03*
X-15280Y126476D02*
D03*
Y123130D02*
D03*
X-22047Y72146D02*
D03*
Y68799D02*
D03*
X-15354Y153248D02*
D03*
Y149902D02*
D03*
X-24803Y129232D02*
D03*
Y125886D02*
D03*
X-14961Y141437D02*
D03*
Y138091D02*
D03*
X-40551Y140847D02*
D03*
Y144193D02*
D03*
X-11811Y161122D02*
D03*
Y157776D02*
D03*
X-62598Y154232D02*
D03*
Y157579D02*
D03*
X-77953Y140650D02*
D03*
Y137303D02*
D03*
X-12598Y169193D02*
D03*
Y172539D02*
D03*
X-16929Y170866D02*
D03*
Y174213D02*
D03*
X-16142Y131398D02*
D03*
Y134744D02*
D03*
X-25591Y190847D02*
D03*
Y194193D02*
D03*
X-21260Y169193D02*
D03*
Y172539D02*
D03*
X-24803Y167224D02*
D03*
Y170571D02*
D03*
X-59842Y192028D02*
D03*
Y195374D02*
D03*
X-83858Y167618D02*
D03*
Y170965D02*
D03*
X-57874Y69980D02*
D03*
Y73327D02*
D03*
X-88583Y148327D02*
D03*
Y151673D02*
D03*
Y144193D02*
D03*
Y140847D02*
D03*
X94488Y76279D02*
D03*
Y79626D02*
D03*
X-175197Y141831D02*
D03*
Y138484D02*
D03*
X-34252Y179429D02*
D03*
Y182776D02*
D03*
X-64173Y192028D02*
D03*
Y195374D02*
D03*
X-182677Y200295D02*
D03*
Y203642D02*
D03*
Y185531D02*
D03*
Y182185D02*
D03*
X-177165Y163878D02*
D03*
Y160531D02*
D03*
X-182677Y221949D02*
D03*
Y225295D02*
D03*
X-164961Y54429D02*
D03*
Y51083D02*
D03*
X-57874Y95374D02*
D03*
Y92028D02*
D03*
X177559Y199902D02*
D03*
Y203248D02*
D03*
X181890Y199902D02*
D03*
Y203248D02*
D03*
X190551Y199902D02*
D03*
Y203248D02*
D03*
X77559Y100689D02*
D03*
Y104035D02*
D03*
X157480Y183366D02*
D03*
Y186713D02*
D03*
Y178839D02*
D03*
Y175492D02*
D03*
X-9449Y183957D02*
D03*
Y180610D02*
D03*
X-5118Y183957D02*
D03*
Y180610D02*
D03*
X13780Y126083D02*
D03*
Y122736D02*
D03*
X85827Y220965D02*
D03*
Y217618D02*
D03*
X186221Y199902D02*
D03*
Y203248D02*
D03*
X6693Y126083D02*
D03*
Y122736D02*
D03*
X3937Y143209D02*
D03*
Y146555D02*
D03*
X-9843Y130610D02*
D03*
Y133957D02*
D03*
X-1969Y126083D02*
D03*
Y122736D02*
D03*
X-8268Y167224D02*
D03*
Y170571D02*
D03*
X394Y167224D02*
D03*
Y170571D02*
D03*
X9055Y162500D02*
D03*
Y165847D02*
D03*
X-3937Y167224D02*
D03*
Y170571D02*
D03*
X44094Y85335D02*
D03*
Y88681D02*
D03*
X9055Y155807D02*
D03*
Y159153D02*
D03*
X-9449Y137303D02*
D03*
Y140650D02*
D03*
X-7874Y148130D02*
D03*
Y144783D02*
D03*
X-6299Y126083D02*
D03*
Y122736D02*
D03*
X2362Y126083D02*
D03*
Y122736D02*
D03*
X3150Y155217D02*
D03*
Y151870D02*
D03*
X-7874Y155217D02*
D03*
Y151870D02*
D03*
X-2362Y155217D02*
D03*
Y151870D02*
D03*
Y148130D02*
D03*
Y144783D02*
D03*
X94488Y91240D02*
D03*
Y94587D02*
D03*
X156693Y120965D02*
D03*
Y117618D02*
D03*
X161811Y144390D02*
D03*
Y147736D02*
D03*
X157087Y144390D02*
D03*
Y147736D02*
D03*
X7087Y104232D02*
D03*
Y107579D02*
D03*
X-181890Y54429D02*
D03*
Y51083D02*
D03*
X-77953Y155732D02*
D03*
Y159079D02*
D03*
X-94882Y142224D02*
D03*
Y138878D02*
D03*
X-83858Y152570D02*
D03*
Y155917D02*
D03*
X66535Y76870D02*
D03*
Y73524D02*
D03*
X16535Y159439D02*
D03*
Y156093D02*
D03*
X-77953Y147638D02*
D03*
Y150984D02*
D03*
D11*
X175689Y99606D02*
D03*
X172343D02*
D03*
X-186909Y63779D02*
D03*
X-190256D02*
D03*
X-3839Y158661D02*
D03*
X-7185D02*
D03*
X8760Y90158D02*
D03*
X5413D02*
D03*
X135925Y152362D02*
D03*
X132579D02*
D03*
X132185Y167717D02*
D03*
X135531D02*
D03*
X-26870Y96063D02*
D03*
X-23524D02*
D03*
X-190256Y70866D02*
D03*
X-186909D02*
D03*
X-37106Y81496D02*
D03*
X-33760D02*
D03*
X-37106Y77165D02*
D03*
X-33760D02*
D03*
X-177657Y120079D02*
D03*
X-174311D02*
D03*
X-56595Y140945D02*
D03*
X-59941D02*
D03*
X-58366Y168898D02*
D03*
X-55020D02*
D03*
Y149213D02*
D03*
X-58366D02*
D03*
X-23327Y158268D02*
D03*
X-19980D02*
D03*
X-23327Y151969D02*
D03*
X-19980D02*
D03*
X-23327Y145669D02*
D03*
X-19980D02*
D03*
X-23327Y137795D02*
D03*
X-19980D02*
D03*
X-80216Y118504D02*
D03*
X-83563D02*
D03*
X-55020Y155905D02*
D03*
X-58366D02*
D03*
X-58760Y121546D02*
D03*
X-55413D02*
D03*
X-31004Y144882D02*
D03*
X-34350D02*
D03*
X75886Y55216D02*
D03*
X79232D02*
D03*
X86516Y72047D02*
D03*
X89862D02*
D03*
X123130Y62205D02*
D03*
X126476D02*
D03*
X8760Y85039D02*
D03*
X5413D02*
D03*
X9744Y141732D02*
D03*
X13091D02*
D03*
X8760Y94488D02*
D03*
X5413D02*
D03*
X9941Y132283D02*
D03*
X6594D02*
D03*
X8760Y72047D02*
D03*
X5413D02*
D03*
X492Y141339D02*
D03*
X-2854D02*
D03*
X-11713Y144882D02*
D03*
X-15059D02*
D03*
X9744Y147638D02*
D03*
X13091D02*
D03*
X-98Y158661D02*
D03*
X3248D02*
D03*
X41043Y141732D02*
D03*
X37697D02*
D03*
X-65256Y185827D02*
D03*
X-68602D02*
D03*
X3051Y137402D02*
D03*
X6398D02*
D03*
X-4429D02*
D03*
X-1083D02*
D03*
X-39862Y193307D02*
D03*
X-36516D02*
D03*
X-22343Y163386D02*
D03*
X-25689D02*
D03*
X15650Y135433D02*
D03*
X18996D02*
D03*
X-83957Y162598D02*
D03*
X-80610D02*
D03*
X-82185Y136614D02*
D03*
X-85532D02*
D03*
X9744Y151969D02*
D03*
X13091D02*
D03*
X-85335Y85039D02*
D03*
X-88681D02*
D03*
Y94488D02*
D03*
X-85335D02*
D03*
X48720Y168898D02*
D03*
X52067D02*
D03*
X-77067Y77165D02*
D03*
X-80413D02*
D03*
X-77067Y81496D02*
D03*
X-80413D02*
D03*
X-47146Y74803D02*
D03*
X-50492D02*
D03*
X-45571Y83858D02*
D03*
X-48917D02*
D03*
X-68602Y74803D02*
D03*
X-65256D02*
D03*
X64468Y106693D02*
D03*
X67815D02*
D03*
X-34350Y150394D02*
D03*
X-31004D02*
D03*
X132972Y97244D02*
D03*
X136319D02*
D03*
X-85335Y89764D02*
D03*
X-88681D02*
D03*
X-26280Y175197D02*
D03*
X-29626D02*
D03*
X172736Y59842D02*
D03*
X176083D02*
D03*
X175689Y83465D02*
D03*
X172343D02*
D03*
X132972Y92126D02*
D03*
X136319D02*
D03*
X52067Y175197D02*
D03*
X48720D02*
D03*
X-6004Y114567D02*
D03*
X-2657D02*
D03*
X132972Y87008D02*
D03*
X136319D02*
D03*
X-61122Y181777D02*
D03*
X-57776D02*
D03*
X-65256Y181890D02*
D03*
X-68602D02*
D03*
X132972Y82284D02*
D03*
X136319D02*
D03*
X-65256Y80315D02*
D03*
X-68602D02*
D03*
X-70177Y88583D02*
D03*
X-66831D02*
D03*
D12*
X-20669Y195866D02*
D03*
Y190748D02*
D03*
X-13189D02*
D03*
Y193307D02*
D03*
X-13189Y195866D02*
D03*
D13*
X-190847Y214567D02*
D03*
X-190945Y200787D02*
D03*
X102953Y66535D02*
D03*
X69488Y135039D02*
D03*
Y100394D02*
D03*
X103347D02*
D03*
D14*
X-188386Y207677D02*
D03*
D15*
X188583Y185039D02*
D03*
Y192913D02*
D03*
X-122835Y92520D02*
D03*
Y100394D02*
D03*
X-166535Y111024D02*
D03*
Y118898D02*
D03*
X-113779Y35039D02*
D03*
Y27165D02*
D03*
D16*
X-40945Y135495D02*
D03*
Y129196D02*
D03*
X-188583Y58268D02*
D03*
Y51968D02*
D03*
D26*
X210630Y13779D02*
D03*
X-212598Y216535D02*
D03*
D33*
X169685Y154331D02*
D03*
X161811D02*
D03*
X142520D02*
D03*
X150394D02*
D03*
X-116266Y67120D02*
D03*
X-124140D02*
D03*
X-107087Y51575D02*
D03*
X-99213D02*
D03*
X-45669Y193307D02*
D03*
X-53543D02*
D03*
X-92520Y64173D02*
D03*
X-84646D02*
D03*
X-138976Y83465D02*
D03*
X-131102D02*
D03*
X175984Y146063D02*
D03*
X168110D02*
D03*
X142520Y119291D02*
D03*
X150394D02*
D03*
X142520Y146063D02*
D03*
X150394D02*
D03*
X142913Y203150D02*
D03*
X150787D02*
D03*
D40*
X-21654Y80315D02*
D03*
Y76378D02*
D03*
X-27165Y78347D02*
D03*
X167323Y199606D02*
D03*
Y203543D02*
D03*
X172835Y201575D02*
D03*
D41*
X146850Y176772D02*
D03*
Y162598D02*
D03*
X-153150Y107874D02*
D03*
Y122047D02*
D03*
X-122047Y21063D02*
D03*
X-92520Y56890D02*
D03*
X-114961Y80512D02*
D03*
D46*
X19094Y88189D02*
D03*
Y94390D02*
D03*
X14764D02*
D03*
Y88189D02*
D03*
X-26772Y91929D02*
D03*
Y85728D02*
D03*
X-22441D02*
D03*
Y91929D02*
D03*
X-102953Y165354D02*
D03*
Y159153D02*
D03*
X-107283D02*
D03*
Y165354D02*
D03*
X-102953Y153937D02*
D03*
Y147736D02*
D03*
X-107283D02*
D03*
Y153937D02*
D03*
X-102953Y176772D02*
D03*
Y170571D02*
D03*
X-107283D02*
D03*
Y176772D02*
D03*
X-33268Y92126D02*
D03*
Y85925D02*
D03*
X-37598D02*
D03*
Y92126D02*
D03*
D47*
X19094Y90354D02*
D03*
Y92323D02*
D03*
X14764D02*
D03*
Y90354D02*
D03*
X-26772Y89764D02*
D03*
Y87795D02*
D03*
X-22441D02*
D03*
Y89764D02*
D03*
X-102953Y163189D02*
D03*
Y161221D02*
D03*
X-107283D02*
D03*
Y163189D02*
D03*
X-102953Y151772D02*
D03*
Y149803D02*
D03*
X-107283D02*
D03*
Y151772D02*
D03*
X-102953Y174606D02*
D03*
Y172638D02*
D03*
X-107283D02*
D03*
Y174606D02*
D03*
X-33268Y89961D02*
D03*
Y87992D02*
D03*
X-37598D02*
D03*
Y89961D02*
D03*
D48*
X-11024Y57677D02*
D03*
X-4823D02*
D03*
Y62008D02*
D03*
X-11024D02*
D03*
X-55118Y108071D02*
D03*
X-48917D02*
D03*
Y103740D02*
D03*
X-55118D02*
D03*
X-13780Y180118D02*
D03*
X-19980D02*
D03*
Y184449D02*
D03*
X-13780D02*
D03*
X-44094Y108071D02*
D03*
X-37894D02*
D03*
Y103740D02*
D03*
X-44094D02*
D03*
X-66142Y107996D02*
D03*
X-59941D02*
D03*
Y103665D02*
D03*
X-66142D02*
D03*
X-32283Y108071D02*
D03*
X-26083D02*
D03*
Y103740D02*
D03*
X-32283D02*
D03*
X-17323Y34055D02*
D03*
X-23524D02*
D03*
Y38386D02*
D03*
X-17323D02*
D03*
X-5118Y34055D02*
D03*
X-11319D02*
D03*
Y38386D02*
D03*
X-5118D02*
D03*
D49*
X-8858Y57677D02*
D03*
X-6890D02*
D03*
Y62008D02*
D03*
X-8858D02*
D03*
X-52953Y108071D02*
D03*
X-50984D02*
D03*
Y103740D02*
D03*
X-52953D02*
D03*
X-15945Y180118D02*
D03*
X-17913D02*
D03*
Y184449D02*
D03*
X-15945D02*
D03*
X-41929Y108071D02*
D03*
X-39961D02*
D03*
Y103740D02*
D03*
X-41929D02*
D03*
X-63976Y107996D02*
D03*
X-62008D02*
D03*
Y103665D02*
D03*
X-63976D02*
D03*
X-30118Y108071D02*
D03*
X-28150D02*
D03*
Y103740D02*
D03*
X-30118D02*
D03*
X-19488Y34055D02*
D03*
X-21457D02*
D03*
Y38386D02*
D03*
X-19488D02*
D03*
X-7283Y34055D02*
D03*
X-9252D02*
D03*
Y38386D02*
D03*
X-7283D02*
D03*
D52*
X-72146Y176279D02*
D03*
X-67224D02*
D03*
X-69685Y174311D02*
D03*
Y170472D02*
D03*
X-67224Y172441D02*
D03*
X-72146D02*
D03*
X-72047Y168504D02*
D03*
X-67224Y168504D02*
D03*
X-69685Y166535D02*
D03*
X-72047Y164567D02*
D03*
X-67224Y164567D02*
D03*
X-69685Y162500D02*
D03*
X-72146Y160531D02*
D03*
X-67224D02*
D03*
X-69685Y158563D02*
D03*
X-72146Y156595D02*
D03*
X-67224D02*
D03*
X-69685Y154626D02*
D03*
X-72146Y152657D02*
D03*
X-67224D02*
D03*
X-69685Y150689D02*
D03*
X-72146Y148721D02*
D03*
X-67224D02*
D03*
X-69685Y146260D02*
D03*
Y143307D02*
D03*
D59*
X167913Y168701D02*
D03*
X165354D02*
D03*
X162795D02*
D03*
Y161221D02*
D03*
X165354D02*
D03*
X167913Y161221D02*
D03*
D63*
X-117323Y43307D02*
D03*
X-113583D02*
D03*
X-121063D02*
D03*
Y52756D02*
D03*
X-113583D02*
D03*
X177559Y193701D02*
D03*
X173819D02*
D03*
X181299D02*
D03*
Y184252D02*
D03*
X173819D02*
D03*
D64*
X146457Y74144D02*
D03*
X134646D02*
D03*
D65*
X74311Y70472D02*
D03*
Y61024D02*
D03*
X80807D02*
D03*
Y70472D02*
D03*
D66*
X-16929Y78347D02*
X-15059Y80216D01*
X-5118D01*
X-2854Y85827D02*
X-1181D01*
X-5118Y83563D02*
X-2854Y85827D01*
X-90433Y142696D02*
Y149823D01*
X-88583Y151673D01*
X-94882Y142224D02*
X-90905D01*
X-90433Y142696D01*
X-88583Y140847D01*
X172244Y89705D02*
X172343Y89606D01*
Y83465D02*
Y89606D01*
X166260Y99705D02*
X166358Y99606D01*
X172343D01*
X-2756Y192673D02*
X1500Y188417D01*
X-2756Y192673D02*
Y198031D01*
X1500Y177152D02*
Y188417D01*
Y177152D02*
X1727Y176924D01*
X-11028Y107874D02*
X-7480D01*
X-11914Y108760D02*
X-11028Y107874D01*
X-7480D02*
Y107874D01*
X-8366Y108760D02*
X-7480Y107874D01*
X79528Y97244D02*
X79724Y97047D01*
Y93405D02*
Y97047D01*
X77756Y93405D02*
Y100492D01*
X74213Y98819D02*
X75787Y97244D01*
Y93405D02*
Y97244D01*
X74213Y98819D02*
Y110827D01*
X62217Y122822D02*
X74213Y110827D01*
X-20079Y81890D02*
X-787D01*
X-21654Y80315D02*
X-20079Y81890D01*
X-24650Y78347D02*
X-23303Y79694D01*
X-27165Y78347D02*
X-24650D01*
X-23303Y79694D02*
Y80936D01*
X-23622Y81255D02*
X-23303Y80936D01*
X-23622Y81255D02*
Y84547D01*
X-22441Y85728D01*
X-185138Y69095D02*
X-181890D01*
X-186909Y70866D02*
X-185138Y69095D01*
X74803Y129577D02*
Y139370D01*
X70866Y143307D02*
X74803Y139370D01*
X75603Y129909D02*
Y142507D01*
Y129909D02*
X83661Y121850D01*
X72047Y146063D02*
X75603Y142507D01*
X71653Y146063D02*
X72047D01*
X-5512Y88189D02*
X14764D01*
X-6299Y88976D02*
X-5512Y88189D01*
X-6299Y88976D02*
Y93307D01*
X-5118Y94488D01*
X-6890Y60433D02*
Y62008D01*
X-7480Y59842D02*
X-6890Y60433D01*
X-13780Y59842D02*
X-7480D01*
X-16535Y62598D02*
X-13780Y59842D01*
X-16535Y62598D02*
Y70472D01*
Y74410D02*
X-14098Y71972D01*
X-11977D01*
X-11024Y71019D01*
Y62008D02*
Y71019D01*
X-8858Y73819D02*
X-8268Y74410D01*
X-8858Y62008D02*
Y73819D01*
X-4823Y70374D02*
X-4724Y70472D01*
X-4823Y62008D02*
Y70374D01*
X-4724Y90158D02*
X-2559Y92323D01*
X14764D01*
X-16535Y94095D02*
X-16142Y94488D01*
X-14720D01*
X-13145Y96063D01*
X4228D01*
X-22441Y91929D02*
X-15157D01*
X-12992Y94095D01*
X4228Y96063D02*
X4504Y96338D01*
X13111D01*
X14764Y94685D01*
X3959Y96925D02*
X4172Y97138D01*
X-16217Y96925D02*
X3959D01*
X-17323Y98031D02*
X-16217Y96925D01*
X14864Y97138D02*
X16614Y95388D01*
X4172Y97138D02*
X14864D01*
X14764Y94390D02*
Y94685D01*
X16339Y90354D02*
X16614Y90630D01*
Y95388D01*
X14764Y90354D02*
X16339D01*
X-18110Y185039D02*
X-17717Y184646D01*
X119291Y186221D02*
Y190945D01*
Y183957D02*
Y186221D01*
X58563Y174311D02*
Y195571D01*
X56693Y172441D02*
X58563Y174311D01*
Y195571D02*
X83957Y220965D01*
X85827D01*
X132185Y167717D02*
X132283Y167618D01*
Y163386D02*
Y167618D01*
X137795Y165354D02*
Y170374D01*
X136221Y163779D02*
X137795Y165354D01*
X136221Y163386D02*
Y163779D01*
X132283Y159843D02*
X132283Y159843D01*
Y157087D02*
Y159843D01*
X136221Y144488D02*
Y157087D01*
Y144488D02*
X139370Y141339D01*
X140157D01*
X143701Y137795D01*
X143701Y129921D02*
X143701D01*
X139370Y134252D02*
X143701Y129921D01*
X139370Y134252D02*
Y139764D01*
X129921Y149213D02*
X139370Y139764D01*
X129921Y149213D02*
Y162992D01*
X130315Y163386D01*
X132283D01*
X119291Y183957D02*
X119685Y183563D01*
X9843Y174803D02*
X10236Y174409D01*
X9843Y174803D02*
Y178248D01*
X-9138Y30245D02*
Y34055D01*
X-42520Y116929D02*
Y123228D01*
X-66535Y108390D02*
Y117323D01*
Y108390D02*
X-66142Y107996D01*
X-5118Y34055D02*
X197D01*
X394Y34252D01*
X-24803Y80315D02*
Y89370D01*
X-24409Y89764D01*
X-22441D01*
X-16240Y85728D02*
X-16142Y85827D01*
X-22441Y85728D02*
X-16240D01*
X-16142Y85827D02*
Y86221D01*
X-2756Y177165D02*
X-2515Y176924D01*
X1727D01*
X-88383Y144485D02*
X-87008Y145860D01*
X3150Y178740D02*
Y186614D01*
X3937Y187402D01*
Y188189D01*
X-13780Y184449D02*
Y188157D01*
X-13316Y188621D01*
X-18214Y185340D02*
Y188381D01*
Y185340D02*
X-18012Y185138D01*
X-175689Y138583D02*
X-175492Y138779D01*
X-35039Y190551D02*
X-32677D01*
X-190846Y160531D02*
X-177165D01*
X-176772Y190945D02*
X-174409Y188583D01*
Y151575D02*
Y188583D01*
X-187795Y138189D02*
X-174409Y151575D01*
X-40015Y83366D02*
X-33957D01*
X-42126Y81255D02*
X-40015Y83366D01*
X-42126Y80709D02*
Y81255D01*
X-33268Y84055D02*
Y85925D01*
X-33957Y83366D02*
X-33268Y84055D01*
X-179134Y214567D02*
X-172047Y207480D01*
Y168898D02*
Y207480D01*
X64468Y106693D02*
Y115747D01*
Y96410D02*
Y106693D01*
X85827Y220965D02*
X87500Y219291D01*
X96063D01*
X-172435Y46850D02*
X-168810D01*
X-173616Y48031D02*
X-172435Y46850D01*
X-173616Y48031D02*
Y48625D01*
X-173031Y49209D01*
Y50295D01*
X-178740Y138583D02*
X-175689D01*
X-187795Y176181D02*
X-187598Y176378D01*
X-178740D01*
X-190650Y225295D02*
X-182677D01*
X-190748Y225394D02*
X-190650Y225295D01*
X-182776Y182087D02*
X-182677Y182185D01*
X-190748Y182087D02*
X-182776D01*
X-190945Y160433D02*
X-190846Y160531D01*
X-171949Y141831D02*
X-171653Y142126D01*
X-175197Y141831D02*
X-171949D01*
X-175492Y138779D02*
X-175197Y138484D01*
X-31890Y108465D02*
Y110630D01*
X161417Y193701D02*
X167323Y199606D01*
X161417Y175984D02*
Y193701D01*
X180217Y201575D02*
X181890Y203248D01*
X172835Y201575D02*
X180217D01*
X160630Y161221D02*
X162795D01*
X-166634Y52756D02*
X-164961Y51083D01*
X-170768Y52756D02*
X-166634D01*
X-16142Y190551D02*
X-15945Y190748D01*
X-13189D01*
X-18110Y185039D02*
X-18012Y185138D01*
X-15945Y184449D02*
Y187008D01*
X-19980Y184449D02*
Y187008D01*
X-32677Y190157D02*
Y190551D01*
X-37008Y188583D02*
X-35039Y190551D01*
X-37008Y177953D02*
Y188583D01*
Y177953D02*
X-35827Y176772D01*
X-31201D01*
X-29626Y175197D01*
X-34252Y182776D02*
Y185433D01*
X-33858Y185827D01*
X74803Y129577D02*
X81471Y122910D01*
Y93628D02*
Y122910D01*
X-23622Y27165D02*
X-23524Y27264D01*
Y34055D01*
X-21457Y21698D02*
X-21413Y21654D01*
X-21457Y21698D02*
Y34055D01*
X-19488Y28150D02*
X-16142Y24803D01*
X-19488Y28150D02*
Y34055D01*
X-17323Y31496D02*
X-8661Y22835D01*
X-17323Y31496D02*
Y34055D01*
X7161Y18185D02*
X9449Y20472D01*
X1791Y18185D02*
X7161D01*
X-11319Y31295D02*
X1791Y18185D01*
X-11319Y31295D02*
Y34055D01*
X-9138Y30245D02*
X-6846Y27953D01*
X-9252Y34055D02*
X-9138D01*
X3937Y19685D02*
Y22987D01*
X-1028Y27953D02*
X3937Y22987D01*
X-6846Y27953D02*
X-1028D01*
X-7283Y30512D02*
X-7087Y30315D01*
X-7283Y30512D02*
Y34055D01*
X45350Y129059D02*
Y139295D01*
X44488Y140157D02*
X45350Y139295D01*
X60236Y119979D02*
Y137795D01*
Y119979D02*
X64468Y115747D01*
X-156496Y71063D02*
X-156299Y70866D01*
X-166142Y71063D02*
X-156496D01*
X-166142Y75000D02*
X-154527D01*
X-154331Y75197D01*
X-169095Y78051D02*
X-168996Y77953D01*
X-152362D01*
X-166142Y73032D02*
X-150984D01*
X-150787Y73228D01*
X64468Y96410D02*
X70524Y90354D01*
X83661Y76575D02*
Y77559D01*
Y76575D02*
X85039Y75197D01*
X87795D01*
X81693Y75984D02*
X84055Y73622D01*
X84252D01*
X81693Y75984D02*
Y77559D01*
X74311Y56791D02*
X75886Y55216D01*
X74311Y56791D02*
Y61024D01*
Y61713D01*
X77756Y65158D01*
Y77559D01*
X80807Y70472D02*
Y74114D01*
X79724Y75197D02*
X80807Y74114D01*
X79724Y75197D02*
Y77559D01*
X80807Y70472D02*
X82382Y72047D01*
X86516D01*
X64173Y126365D02*
X77559Y112979D01*
Y104035D02*
Y112979D01*
X69729Y82480D02*
X72835D01*
X61036Y91173D02*
X69729Y82480D01*
X61036Y91173D02*
Y114505D01*
X66929Y87402D02*
Y90013D01*
X61836Y95105D02*
X66929Y90013D01*
Y87402D02*
X69540D01*
X70524Y86417D01*
X62636Y96427D02*
X70524Y88539D01*
Y88386D02*
Y88539D01*
X62636Y96427D02*
Y116448D01*
X-90945Y94488D02*
X-88681D01*
X-85335Y85039D02*
Y89764D01*
Y85039D02*
X-83071D01*
X-88681Y89764D02*
Y94488D01*
X-39097Y84575D02*
X-36100D01*
X-41732Y87211D02*
X-39097Y84575D01*
X-41732Y87211D02*
Y94095D01*
X-35433Y85242D02*
Y87402D01*
X-36100Y84575D02*
X-35433Y85242D01*
Y87402D02*
X-34843Y87992D01*
X-33268D01*
X-35433Y90551D02*
X-34843Y89961D01*
X-33268D01*
X-35433Y90551D02*
Y94882D01*
X-36146Y95595D02*
X-35433Y94882D01*
X-46925Y95595D02*
X-36146D01*
X-47638Y94882D02*
X-46925Y95595D01*
X-33268Y92126D02*
X-31890D01*
X-29921Y94095D01*
X-52953Y113023D02*
X-52196Y113779D01*
X-52953Y108071D02*
Y113023D01*
X-50984Y109547D02*
X-49508Y111024D01*
X-50984Y108071D02*
Y109547D01*
X-52196Y115127D02*
X-47244Y120079D01*
X-52196Y113779D02*
Y115127D01*
X-29693Y116854D02*
X-26619Y113779D01*
X-33298Y116854D02*
X-29693D01*
X-37894Y112259D02*
X-33298Y116854D01*
X-37894Y108071D02*
Y112259D01*
X-33630Y117654D02*
X-27890D01*
X-26378Y116142D01*
X-39961Y111323D02*
X-33630Y117654D01*
X-39961Y108071D02*
Y111323D01*
X-32677Y114681D02*
X-28150Y110154D01*
X-32677Y114681D02*
Y115354D01*
X-45276Y122441D02*
X-44882Y122834D01*
X-45276Y111713D02*
Y122441D01*
X-48917Y108071D02*
X-45276Y111713D01*
X-59941Y107996D02*
X-59449Y108488D01*
Y111417D01*
X68701Y80512D02*
X72835D01*
X45350Y129059D02*
X60236Y114173D01*
Y88976D02*
Y114173D01*
X46850Y128690D02*
X61036Y114505D01*
X46850Y128690D02*
Y138583D01*
X60236Y88976D02*
X68701Y80512D01*
X48425Y129527D02*
X61836Y116116D01*
Y95105D02*
Y116116D01*
X49925Y129159D02*
X62636Y116448D01*
X70524Y86417D02*
X72835D01*
X49925Y129159D02*
Y150862D01*
X49606Y151181D02*
X49925Y150862D01*
X48425Y129527D02*
Y145669D01*
X70524Y88386D02*
X72835D01*
X70524Y90354D02*
X72835D01*
X62217Y122822D02*
Y139751D01*
X62205Y139764D02*
X62217Y139751D01*
X64173Y126365D02*
Y149213D01*
X83661Y93405D02*
Y121850D01*
X85630Y93405D02*
Y122244D01*
X77953Y129921D02*
Y141339D01*
Y129921D02*
X85630Y122244D01*
X115023Y56287D02*
X121273D01*
X112205Y59105D02*
Y71654D01*
X115354Y57087D02*
X121604D01*
X113005Y59436D02*
Y71985D01*
X120788Y55118D02*
X122441D01*
X121273Y56287D02*
X122441Y55118D01*
X117913Y52244D02*
X120788Y55118D01*
X126353Y55684D02*
X127913Y57244D01*
X123007Y55684D02*
X126353D01*
X121604Y57087D02*
X123007Y55684D01*
X112205Y59105D02*
X115023Y56287D01*
X113005Y59436D02*
X115354Y57087D01*
X90843Y83865D02*
X101125D01*
X90259Y84449D02*
X90843Y83865D01*
X88583Y84449D02*
X90259D01*
Y82480D02*
X90843Y83065D01*
X88583Y82480D02*
X90259D01*
X101125Y83865D02*
X113005Y71985D01*
X100794Y83065D02*
X112205Y71654D01*
X90843Y83065D02*
X100794D01*
X90843Y87802D02*
X101962D01*
X112192Y77572D02*
X121197D01*
X111861Y76772D02*
X120866D01*
X90843Y87002D02*
X101631D01*
X121197Y77572D02*
X123635Y75134D01*
Y70472D02*
Y75134D01*
X126863Y67244D02*
X127913D01*
X123635Y70472D02*
X126863Y67244D01*
X120866Y76772D02*
X122835Y74803D01*
X117913Y72244D02*
X121063D01*
X122835Y70472D02*
Y74803D01*
X121063Y72244D02*
X122835Y70472D01*
X101962Y87802D02*
X112192Y77572D01*
X101631Y87002D02*
X111861Y76772D01*
X90259Y88386D02*
X90843Y87802D01*
X88583Y88386D02*
X90259D01*
X88583Y86417D02*
X90259D01*
X90843Y87002D01*
X132668Y134636D02*
X135827Y137795D01*
X132668Y128337D02*
Y134636D01*
X124409Y120079D02*
X132668Y128337D01*
X94095Y120079D02*
X124409D01*
X120866Y122835D02*
X127953Y129921D01*
X96850Y122835D02*
X120866D01*
X127953Y136239D02*
Y137795D01*
X124794Y133080D02*
X127953Y136239D01*
X95148Y133080D02*
X124794D01*
X87008Y124940D02*
X95148Y133080D01*
X87008Y124409D02*
Y124940D01*
X-56693Y114173D02*
X-55118Y112598D01*
Y108071D02*
Y112598D01*
X-130315Y99803D02*
X-129921Y99410D01*
Y96457D02*
Y99410D01*
X-175000Y55216D02*
Y56302D01*
X-174416Y56887D01*
Y59944D01*
X-173031Y55216D02*
Y56302D01*
X-173616Y56887D02*
X-173031Y56302D01*
X-175000Y60528D02*
X-174416Y59944D01*
X-175000Y60528D02*
Y62205D01*
X-173616Y59944D02*
X-173031Y60528D01*
Y62205D01*
X-173616Y56887D02*
Y59944D01*
X77559Y100689D02*
X77756Y100492D01*
X-2657Y111909D02*
Y114567D01*
X-2756Y111811D02*
X-2657Y111909D01*
X-2756Y105512D02*
Y111811D01*
Y105512D02*
X492Y102264D01*
X787D01*
X-6004Y111122D02*
Y114567D01*
X-8366Y108760D02*
X-6004Y111122D01*
X-14961Y107579D02*
X-13095D01*
X-11914Y108760D01*
X2756Y104232D02*
X7087D01*
X787Y102264D02*
X2756Y104232D01*
X-17913Y184449D02*
X-17717Y184646D01*
X-168810Y46050D02*
X-168110Y45350D01*
X-175000Y49209D02*
X-174416Y48625D01*
Y47700D02*
Y48625D01*
X-175000Y49209D02*
Y50295D01*
X-172766Y46050D02*
X-168810D01*
X-174416Y47700D02*
X-172766Y46050D01*
X-168810Y46850D02*
X-168110Y47550D01*
X70472Y88438D02*
X70524Y88386D01*
X81471Y93628D02*
X81693Y93405D01*
X-30118Y106496D02*
Y108071D01*
Y106496D02*
X-29528Y105905D01*
X-24803D01*
X-23228Y107480D01*
Y107480D01*
X-28150Y108071D02*
Y110154D01*
X-26083Y108071D02*
Y109547D01*
X-29528Y112992D02*
X-26083Y109547D01*
X-29528Y112992D02*
Y114567D01*
X-32283Y108071D02*
X-31890Y108465D01*
X-26619Y113779D02*
X-20866D01*
X-41929Y108071D02*
Y112008D01*
X-44094Y108071D02*
Y115354D01*
X-42520Y116929D01*
X-41929Y112008D02*
X-40945Y112992D01*
Y120472D01*
X-40157Y121260D01*
Y122441D01*
X-62008Y113583D02*
X-61811Y113779D01*
X-62008Y107996D02*
Y113583D01*
X-43853Y125984D02*
X-27953D01*
X-64173Y108193D02*
Y113539D01*
Y108193D02*
X-63976Y107996D01*
X-66142D02*
X-66142Y107996D01*
X-64173Y113539D02*
X-60389Y117323D01*
X-52515D01*
X-43853Y125984D01*
X-102953Y151772D02*
X-100122D01*
X-96138Y152287D02*
X-94882Y153543D01*
X-102953Y149803D02*
X-99119D01*
X-98135Y150787D01*
X-102953Y147736D02*
X-100054D01*
X-95276Y148031D02*
X-94882D01*
X-96382Y149138D02*
X-95276Y148031D01*
X-100122Y151772D02*
X-99606Y152287D01*
X-102953Y159153D02*
X-99705D01*
X-100054Y147736D02*
X-98653Y149138D01*
X-96382D01*
X-98135Y150787D02*
X-98031D01*
X-99606Y152287D02*
X-96138D01*
X-99705Y159153D02*
X-98032Y157480D01*
X-96698Y160630D02*
X-94488D01*
X-97410Y161343D02*
X-96698Y160630D01*
X-102953Y161221D02*
X-102831Y161343D01*
X-97410D01*
X-94807Y164492D02*
X-94488Y164173D01*
X-98653Y164492D02*
X-94807D01*
X-102953Y163189D02*
X-99955D01*
X-98653Y164492D01*
X-102953Y165354D02*
X-100591Y167717D01*
X-94095D01*
X-102953Y170571D02*
X-99114D01*
X-97638Y172047D01*
Y172441D01*
X-94413Y173941D02*
X-94095Y173622D01*
X-102953Y172638D02*
X-99562D01*
X-98259Y173941D01*
X-94413D01*
X-102953Y174606D02*
X-100743D01*
X-98184Y177165D02*
X-94095D01*
X-100743Y174606D02*
X-98184Y177165D01*
X-102953Y176772D02*
X-101575D01*
X-99138Y179209D01*
Y179361D01*
X-97397Y181102D02*
X-94094D01*
X-99138Y179361D02*
X-97397Y181102D01*
X-124803Y52756D02*
X-121063D01*
X-124803Y43307D02*
X-121063D01*
X-109449Y58366D02*
Y60827D01*
X-100000Y58268D02*
Y60827D01*
X-77953Y150984D02*
Y152905D01*
X-77709Y153150D01*
X-88583Y144193D02*
X-88383Y144393D01*
Y144485D01*
X-88583Y148327D02*
X-88383Y148127D01*
Y148035D02*
Y148127D01*
Y148035D02*
X-87008Y146660D01*
Y145860D02*
X-86408Y145260D01*
Y145160D02*
Y145260D01*
X-87008Y146660D02*
X-86920D01*
X-86221Y147360D01*
X-185827Y203642D02*
X-182677D01*
X-190847Y214567D02*
X-179134D01*
X-138976Y106299D02*
Y109055D01*
Y106299D02*
X-137795Y105118D01*
X-140157Y100197D02*
X-139764Y99803D01*
X-140157Y100197D02*
Y102756D01*
X-181890Y119685D02*
X-181496Y120079D01*
X-177657D01*
X-187795Y132874D02*
Y138189D01*
D67*
X177953Y193701D02*
Y196850D01*
X0Y171752D02*
X787Y170965D01*
X6353Y163833D02*
X8366Y165847D01*
X3248Y160728D02*
X3543Y161024D01*
X3248Y158661D02*
Y160728D01*
X94488Y76279D02*
X97539D01*
X97146Y68799D02*
X97539Y68405D01*
X13780Y122441D02*
X16517Y119703D01*
X6594Y132283D02*
Y135531D01*
X-18504Y123228D02*
X-15378D01*
X-25197Y170177D02*
Y170571D01*
X-80709Y162205D02*
Y165354D01*
X-171063Y62205D02*
Y67126D01*
X9843Y117421D02*
Y119685D01*
X-48917Y103740D02*
X-44094D01*
X-57480Y104331D02*
X-55709D01*
X-55118Y103740D01*
X-84252Y144587D02*
X-83858Y144981D01*
X-97638Y138976D02*
X-97539Y138878D01*
X-94882D01*
X172244Y49902D02*
X172736Y50393D01*
Y59842D01*
X175689Y83465D02*
X178347D01*
X175689Y99606D02*
X178347D01*
X6979Y141446D02*
X10138D01*
X-3839Y159941D02*
X-2756Y161024D01*
X67815Y106693D02*
Y109350D01*
X-70472Y72441D02*
X-68602Y74311D01*
X91732Y74508D02*
Y76772D01*
Y74508D02*
X94095Y72146D01*
X90945Y77559D02*
X91732Y76772D01*
X85630Y77559D02*
X90945D01*
X66535Y69685D02*
Y73524D01*
Y76870D02*
X70965D01*
X71653Y77559D01*
X71653Y77559D01*
X75787D01*
X2756Y90158D02*
X5413D01*
X-24803Y75984D02*
X-24409Y76378D01*
X-21654D01*
X-176969Y60815D02*
Y62205D01*
X-179910Y57874D02*
X-176969Y60815D01*
X-180315Y57874D02*
X-179910D01*
X-178937Y60827D02*
Y62205D01*
X-179528Y60236D02*
X-178937Y60827D01*
X-183858Y60236D02*
X-179528D01*
X-185827Y58268D02*
X-183858Y60236D01*
X-181890Y48819D02*
Y51083D01*
X-187008Y66929D02*
X-186909Y66831D01*
X-181890Y56299D02*
X-180315Y57874D01*
X-181890Y54429D02*
Y56299D01*
X-192126Y68996D02*
X-190256Y70866D01*
X-192126Y59842D02*
Y68996D01*
Y59842D02*
X-190551Y58268D01*
X-188583D01*
X-185827D01*
X-190256Y66831D02*
X-190157Y66929D01*
X-190256Y63779D02*
Y66831D01*
X-176969Y47835D02*
Y50295D01*
X-177953Y46850D02*
X-176969Y47835D01*
X-186614Y46850D02*
X-177953D01*
X-2756Y160630D02*
Y161024D01*
X-3839Y158661D02*
Y159941D01*
X12992Y132776D02*
X15650Y135433D01*
X12992Y132283D02*
Y132776D01*
X6889Y160728D02*
X9055Y162894D01*
X6693Y160728D02*
X6889D01*
X12388Y125984D02*
X13780Y127376D01*
X6299Y126083D02*
Y128740D01*
X9843Y125984D02*
X12388D01*
X13780Y126083D02*
Y127376D01*
X21198Y159780D02*
X21255Y159837D01*
X16876Y159780D02*
X21198D01*
X16535Y159439D02*
X16876Y159780D01*
X7087Y151575D02*
X9744D01*
X16310Y156318D02*
X16535Y156093D01*
X12396Y156318D02*
X16310D01*
X11341Y155264D02*
X12396Y156318D01*
X11341Y153566D02*
Y155264D01*
X9744Y151969D02*
X11341Y153566D01*
X16142Y141446D02*
Y144587D01*
X13091Y147638D02*
X16142Y144587D01*
X19094Y94390D02*
X24114D01*
X24409Y94095D01*
X8760Y90158D02*
X11417D01*
X9843Y85039D02*
X11024Y86221D01*
X8760Y85039D02*
X9843D01*
X4232Y86221D02*
X5413Y85039D01*
X3150Y86221D02*
X4232D01*
X19094Y92323D02*
Y94390D01*
Y90354D02*
Y92323D01*
Y88189D02*
Y90354D01*
X-13780Y57874D02*
X-13583Y57677D01*
X-11024D01*
X-6890D02*
X-4823D01*
X-8858D02*
X-6890D01*
X-11024D02*
X-8858D01*
X119685Y176772D02*
Y180217D01*
X119291Y218898D02*
Y219291D01*
X132579Y152362D02*
X134252Y154035D01*
Y157087D01*
Y163386D02*
Y165860D01*
X135531Y167140D01*
Y167717D01*
X134252Y159055D02*
X135039Y159843D01*
X134252Y160630D02*
X135039Y159843D01*
X134252Y157087D02*
Y159055D01*
Y160630D02*
Y163386D01*
X12106Y181595D02*
X12992Y180709D01*
X9843Y181595D02*
X12106D01*
X6693Y151181D02*
X7087Y151575D01*
X6693Y154331D02*
X7972D01*
X7743Y158661D02*
X8563D01*
X7331Y159074D02*
X7743Y158661D01*
X3661Y159074D02*
X7331D01*
X6693Y160728D02*
Y160933D01*
X3248Y158661D02*
X3661Y159074D01*
X6693Y160728D02*
X6693Y160728D01*
X6693Y160728D02*
X6693Y160728D01*
X8563Y158661D02*
X9055Y159153D01*
X13091Y147638D02*
Y151969D01*
X-62008Y100591D02*
Y103665D01*
Y100591D02*
X-61811Y100394D01*
X-65354Y100393D02*
X-64642D01*
X-63976Y101059D01*
Y103665D01*
X-27953Y122942D02*
X-27747D01*
X-24803Y125886D01*
X-127165Y115354D02*
Y120866D01*
X3543Y129134D02*
X5906D01*
X6299Y128740D01*
X16461Y119703D02*
X16517D01*
X13780Y122441D02*
Y122736D01*
X394Y119685D02*
Y120768D01*
X2362Y122736D01*
X12734Y152718D02*
X13091Y152362D01*
Y151969D02*
Y152362D01*
X-26772Y89764D02*
Y91929D01*
Y87795D02*
Y89764D01*
Y85728D02*
Y87795D01*
X-23524Y96063D02*
X-22343Y94882D01*
X-20472D01*
X-26870Y94980D02*
X-25591Y93701D01*
X-26870Y94980D02*
Y96063D01*
X-26772Y92519D02*
X-25591Y93701D01*
X-26772Y91929D02*
Y92519D01*
X97539Y76279D02*
X97638Y76378D01*
X97933Y76083D01*
X100394D01*
X94488Y72146D02*
X97638D01*
X98228Y72736D01*
X100394D01*
X-77067Y79331D02*
X-75000D01*
X-74803Y79134D01*
X-80413Y77165D02*
Y81496D01*
X-83071Y77165D02*
X-80413D01*
X-52362D02*
X-50492Y75295D01*
Y74803D02*
Y75295D01*
X-21752Y129232D02*
X-21654Y129134D01*
X-24803Y129232D02*
X-21752D01*
X-15354Y129134D02*
X-15280Y129059D01*
Y126476D02*
Y129059D01*
X-18504Y122835D02*
Y123228D01*
X-15378D02*
X-15280Y123130D01*
X2362Y122736D02*
X6693D01*
X-6299Y120079D02*
X-5906Y119685D01*
X-6299Y120079D02*
Y122736D01*
X-15354Y163792D02*
X-12218Y166929D01*
X394Y170571D02*
X787Y170965D01*
X-6937Y171902D02*
Y174016D01*
X-8268Y170571D02*
X-6937Y171902D01*
X-11643Y175815D02*
X-10630Y174803D01*
X-12598Y172539D02*
Y174409D01*
X-13780Y175590D02*
X-12598Y174409D01*
X0Y171752D02*
Y174409D01*
X-11643Y175815D02*
Y180118D01*
X-18406Y154429D02*
X-17224Y153248D01*
X50689Y172441D02*
X52067Y173819D01*
X-16535Y180118D02*
X-15945Y179528D01*
X-22047Y68799D02*
X-21654D01*
X-24508D02*
X-22047D01*
X8760Y94488D02*
X10630D01*
X8316D02*
X8760D01*
X-22047Y72146D02*
X-21654D01*
X-24508D02*
X-22047D01*
X-180413Y163779D02*
X-180315Y163878D01*
X-177165D01*
X-127165Y120866D02*
X-124803D01*
X-24803Y68504D02*
X-24508Y68799D01*
X-24803Y72441D02*
X-24508Y72146D01*
X3150Y94095D02*
X3543Y94488D01*
X4970D01*
X10630D02*
X11024Y94095D01*
X3150Y70472D02*
X4724Y72047D01*
X5413D01*
X9449D02*
X11024Y70472D01*
X8760Y72047D02*
X9449D01*
X-37106Y77165D02*
Y81496D01*
X-39764D02*
X-37106D01*
X-33760Y77165D02*
X-31496D01*
X-33760Y81496D02*
X-31496D01*
X-21260Y172539D02*
X-20866D01*
X-22146D02*
X-21260D01*
X-182677Y221949D02*
Y222047D01*
Y219783D02*
Y221949D01*
X85827Y215354D02*
Y217618D01*
X-179528Y52756D02*
X-177264D01*
X-187599Y152756D02*
X-185039D01*
X-187795Y152559D02*
X-187599Y152756D01*
X-21443Y163386D02*
X-18688Y160630D01*
X-22343Y163386D02*
X-21443D01*
X-15354Y163792D02*
Y169291D01*
X-15945Y176772D02*
Y179528D01*
X-16929Y174213D02*
Y175787D01*
X-15945Y176772D01*
X-16929Y170866D02*
X-15354Y169291D01*
X-15341Y163779D02*
X-15333D01*
X-11936Y169193D02*
X-10418Y167674D01*
Y165567D02*
Y167674D01*
X-24803Y172047D02*
X-23228Y173622D01*
X-24803Y170571D02*
Y172047D01*
X-25689Y161516D02*
X-24803Y160630D01*
X-25689Y161516D02*
Y163386D01*
X-18688Y160630D02*
X-18504D01*
X-24803D02*
Y160840D01*
X-182677Y198031D02*
Y200295D01*
Y185531D02*
X-180413D01*
X177559Y203248D02*
Y205512D01*
X167323Y203543D02*
Y205512D01*
X177559Y199902D02*
X181890D01*
X177559Y197244D02*
X177953Y196850D01*
X186221Y199902D02*
X190157D01*
X181890D02*
X186221D01*
X181890Y197244D02*
Y199902D01*
X181299Y196653D02*
X181890Y197244D01*
X181299Y193701D02*
Y196653D01*
X157480Y186713D02*
Y189370D01*
X165354Y168701D02*
Y171653D01*
Y161221D02*
Y168701D01*
X-121588Y64567D02*
X-120473D01*
X-124140Y67120D02*
X-121588Y64567D01*
X-164961Y54429D02*
Y57087D01*
X-6693Y176772D02*
X-5118Y178347D01*
Y180610D01*
X-3150Y185925D02*
Y188189D01*
X-5118Y183957D02*
X-3150Y185925D01*
X-9842Y187007D02*
X-9449Y186614D01*
Y183957D02*
Y186614D01*
X-10236Y187007D02*
X-9842D01*
X-11643Y180118D02*
X-11150Y180610D01*
X-9449D01*
X-28346Y193307D02*
X-27461Y194193D01*
X-28572Y193082D02*
X-28346Y193307D01*
X-27461Y194193D02*
X-25591D01*
X-15748Y195669D02*
X-15354D01*
X-15157Y195866D01*
X-13189D01*
X-26772Y188081D02*
X-25591Y189262D01*
Y190847D01*
X-28572Y187336D02*
Y193082D01*
Y187336D02*
X-27953Y186717D01*
Y185433D02*
Y186717D01*
X-30709Y186221D02*
Y188189D01*
Y186221D02*
X-29921Y185433D01*
X-26772Y188081D02*
X-26664D01*
X-25984Y187402D01*
Y185433D02*
Y187402D01*
X160630Y168898D02*
X160827Y168701D01*
X162795D01*
X162598Y171653D02*
X162795Y171457D01*
Y168701D02*
Y171457D01*
X156693Y114961D02*
Y117618D01*
X161811Y147736D02*
Y150394D01*
X157087Y147736D02*
Y150394D01*
X-23228Y173622D02*
X-22146Y172539D01*
X-15354Y163792D02*
X-15341Y163779D01*
X-9055Y163779D02*
X-8268Y164567D01*
X-15945Y179528D02*
Y180118D01*
X-17913D02*
X-16535D01*
X-15354Y148031D02*
X-15059Y147736D01*
X-15354Y148031D02*
X-15354Y148031D01*
X-15354Y148031D02*
Y149902D01*
X-17224Y153248D02*
X-15354D01*
X-7185Y159350D02*
X-5906Y160630D01*
X-7185Y158661D02*
Y159350D01*
X37697Y144498D02*
X37795Y144596D01*
X37697Y141732D02*
Y144498D01*
X41752Y139370D02*
Y141024D01*
X41043Y141732D02*
X41752Y141024D01*
X54331Y168898D02*
X55118Y168110D01*
X52067Y168898D02*
X54331D01*
X46063Y170125D02*
X47290Y168898D01*
X48720D01*
X50689Y172441D02*
X50787D01*
X52067Y173819D02*
Y175197D01*
X46063Y175591D02*
X46457Y175197D01*
X48720D01*
X-26772Y38583D02*
X-26575Y38386D01*
X-23524D01*
X-9252D02*
X-7283D01*
X-11319D02*
X-9252D01*
X-17323D02*
X-11319D01*
X-19488D02*
X-17323D01*
X-21457D02*
X-19488D01*
X-23524D02*
X-21457D01*
X-5118D02*
Y42126D01*
X6353Y163833D02*
X6639D01*
X8366Y165847D02*
X9055D01*
X3543Y160630D02*
Y161024D01*
X-98Y160138D02*
X394Y160630D01*
X-98Y158661D02*
Y160138D01*
X44094Y83071D02*
Y85335D01*
Y88681D02*
Y90551D01*
X7972Y154331D02*
X9055Y155413D01*
X9350Y148031D02*
X9744Y147638D01*
X6693Y148031D02*
X9350D01*
X13484Y141446D02*
X16142D01*
X6693Y141732D02*
X6979Y141446D01*
X9843Y129134D02*
X9941Y129232D01*
Y132283D01*
X9843Y132382D02*
X9941Y132283D01*
X9843Y132382D02*
Y135433D01*
X6398Y135728D02*
X6594Y135531D01*
X394Y128051D02*
X2362Y126083D01*
X394Y128051D02*
Y129134D01*
X-6299Y126083D02*
X-5906Y126476D01*
Y129134D01*
X-2756D02*
X-1969Y128347D01*
Y126083D02*
Y128347D01*
X-45669Y193307D02*
X-39862D01*
X-36516D02*
X-34252D01*
X-39862Y144193D02*
X-37795Y142126D01*
X-40551Y144193D02*
X-39862D01*
X-40551Y138976D02*
X-40157Y138583D01*
X-40551Y138976D02*
Y140847D01*
X394Y154331D02*
X1280Y155217D01*
X3150D01*
X-492D02*
X394Y154331D01*
X-2362Y155217D02*
X-492D01*
X-18504Y154331D02*
X-18406Y154429D01*
X-6791Y155217D02*
X-5906Y154331D01*
X-7874Y155217D02*
X-6791D01*
X-7874Y151870D02*
X-7185Y151181D01*
X-5906D01*
X394D02*
X1083Y151870D01*
X3150D01*
X-295D02*
X394Y151181D01*
X-2362Y151870D02*
X-295D01*
X295Y148130D02*
X394Y148031D01*
X-2362Y148130D02*
X295D01*
X-5906Y144882D02*
X-5807Y144783D01*
X-2362D01*
X394Y144882D02*
X492Y144783D01*
Y141339D02*
Y144783D01*
X6398Y135728D02*
Y137402D01*
X3051Y135925D02*
X3543Y135433D01*
X3051Y135925D02*
Y137402D01*
X-2362Y135039D02*
Y135335D01*
X-4429Y137402D02*
X-2362Y135335D01*
X-787Y137402D02*
X394Y138583D01*
X-1083Y137402D02*
X-787D01*
X-5906Y141339D02*
X-2854D01*
X-6594Y140650D02*
X-5906Y141339D01*
X-9449Y140650D02*
X-6594D01*
X-12205Y135433D02*
X-10334Y137303D01*
X-9449D01*
X-12697Y138091D02*
X-12205Y138583D01*
X-14961Y138091D02*
X-12697D01*
X-18504Y141732D02*
X-18209Y141437D01*
X-14961D01*
X-12205Y141732D02*
X-11713Y142224D01*
Y144882D01*
X-15059D02*
Y147736D01*
X-68602Y181890D02*
Y185827D01*
X-65256D02*
X-58661D01*
X-9941Y161122D02*
X-9420Y160601D01*
X-11811Y161122D02*
X-9941D01*
X-18504Y135433D02*
X-17815Y134744D01*
X-16142D01*
X-18504Y132283D02*
X-17618Y131398D01*
X-16142D01*
X-9055Y129134D02*
Y129823D01*
X-9843Y130610D02*
X-9055Y129823D01*
X-7579Y133957D02*
X-5906Y132283D01*
X-9843Y133957D02*
X-7579D01*
X-5906Y119685D02*
X-5807D01*
X-2756Y122736D01*
X18996Y135433D02*
X21260D01*
X3543Y141732D02*
X3937Y142126D01*
Y143209D01*
X5020Y146555D02*
X6693Y144882D01*
X3937Y146555D02*
X5020D01*
X-11811Y154724D02*
Y157776D01*
X-12205Y154331D02*
X-11811Y154724D01*
X-11909Y164075D02*
X-10418Y165567D01*
X-12598Y169193D02*
X-11936D01*
X-8268Y170571D02*
X-3937D01*
X-2756Y163779D02*
X394Y166929D01*
Y167224D01*
X-5906Y163779D02*
X-3937Y165748D01*
Y167224D01*
X-8268Y164567D02*
Y167224D01*
X67716Y109055D02*
Y109449D01*
X67815Y109350D01*
X132933Y82244D02*
X132972Y82284D01*
X117913Y82244D02*
X132933D01*
X132736Y87244D02*
X132972Y87008D01*
X127913Y87244D02*
X132736D01*
X132854Y92244D02*
X132972Y92126D01*
X117913Y92244D02*
X132854D01*
X132972Y97244D02*
X132972Y97244D01*
X127913Y97244D02*
X132972D01*
X172677Y59901D02*
X172736Y59842D01*
X176083D02*
X178740D01*
X126476Y62205D02*
X129921D01*
X117913Y62244D02*
X117953Y62205D01*
X123130D01*
X97244Y94882D02*
X97638D01*
X96949Y94587D02*
X97244Y94882D01*
X94488Y94587D02*
X96949D01*
X94390Y91339D02*
X94488Y91240D01*
X92126Y91339D02*
X94390D01*
X91142Y90354D02*
X92126Y91339D01*
X88583Y90354D02*
X91142D01*
X94488Y68799D02*
X97146D01*
X94095Y72146D02*
X94488D01*
X92027Y79626D02*
X94488D01*
X91142Y80512D02*
X92027Y79626D01*
X88583Y80512D02*
X91142D01*
X88583Y80512D02*
X88583Y80512D01*
X97539Y68405D02*
X97638Y68504D01*
X89173Y66535D02*
X89862Y67224D01*
Y72047D01*
X80807Y61024D02*
X84252D01*
X79232Y59449D02*
X80807Y61024D01*
X79232Y55216D02*
Y59449D01*
X-73622Y76772D02*
X-72047D01*
X-68602Y80216D01*
Y80315D01*
X-65256Y80807D02*
X-63386Y82677D01*
X-65256Y80315D02*
Y80807D01*
X-77067Y79331D02*
Y81496D01*
Y77165D02*
Y79331D01*
X-90945Y85039D02*
X-88681D01*
X-85335Y94488D02*
X-83071D01*
X-73228Y88583D02*
X-70177D01*
X-63779D02*
X-63386Y88189D01*
X-66831Y88583D02*
X-63779D01*
X-57874Y88189D02*
Y92028D01*
Y95374D02*
Y98032D01*
Y98425D01*
X-68602Y74311D02*
Y74803D01*
X-70472Y72441D02*
X-70079D01*
X-63386Y76673D02*
Y77165D01*
X-65256Y74803D02*
X-63386Y76673D01*
X-57874Y73327D02*
Y77165D01*
Y66929D02*
Y69980D01*
X-45669Y72933D02*
Y73327D01*
X-47146Y74803D02*
X-45669Y73327D01*
X-37598Y93898D02*
X-37402Y94095D01*
X-37598Y92126D02*
Y93898D01*
Y89961D02*
Y92126D01*
Y87992D02*
Y89961D01*
Y85925D02*
Y87992D01*
X-42913Y83858D02*
X-42126Y84646D01*
X-45571Y83858D02*
X-42913D01*
X-52362Y82677D02*
Y83071D01*
X-51575Y83858D01*
X-48917D01*
X-132677Y104724D02*
Y105118D01*
X-133071Y105512D02*
X-132677Y105118D01*
X-133071Y105512D02*
Y109055D01*
X-124409Y71653D02*
X-124140Y71384D01*
Y67120D02*
Y71384D01*
X-104724Y41634D02*
Y46063D01*
X-59842Y195374D02*
Y197795D01*
X-60827Y192028D02*
X-59842D01*
X-64173Y195374D02*
X-60827Y192028D01*
X-66929Y192913D02*
X-66929D01*
X-66929D02*
X-66043Y192028D01*
X-64173D01*
X-19980Y136909D02*
X-18504Y135433D01*
X-70866Y181890D02*
X-68602D01*
X-63386Y181777D02*
X-61122D01*
X-65143D02*
X-63386D01*
Y179528D02*
Y181777D01*
X-65256Y181890D02*
X-65143Y181777D01*
X-57776D02*
X-55118D01*
X-174016Y70079D02*
X-171063Y67126D01*
Y50295D02*
X-169390D01*
X-169095Y50000D01*
X70276Y84449D02*
X72835D01*
X70079Y84646D02*
X70276Y84449D01*
X69882Y84646D02*
X70079D01*
X80709Y85433D02*
X83465Y88189D01*
Y88583D01*
X-14961Y104232D02*
X-10630D01*
X-8661Y102264D01*
X1969Y107579D02*
X7087D01*
X787Y108760D02*
X1969Y107579D01*
X-19980Y180118D02*
X-17913D01*
X-15945D02*
X-13780D01*
X-11643D01*
X-19980Y158268D02*
X-19193Y157480D01*
X-18406D01*
X-24114Y151181D02*
X-23327Y151969D01*
X-24803Y151181D02*
X-24114D01*
X-19980Y151969D02*
X-19291D01*
X-18504Y151181D01*
X-24803Y144882D02*
X-24114D01*
X-23327Y145669D01*
X-19980D02*
X-19291D01*
X-18504Y144882D01*
X-19980Y136909D02*
Y137795D01*
X-24803Y138583D02*
X-24114D01*
X-23327Y137795D01*
X-103937Y64567D02*
X-100000D01*
X-117323Y40551D02*
Y43307D01*
X-34843Y103740D02*
X-32283D01*
X-35039Y103937D02*
X-34843Y103740D01*
X-26083Y102067D02*
Y103740D01*
Y102067D02*
X-24803Y100787D01*
X-28150Y100197D02*
Y103740D01*
Y100197D02*
X-27165Y99213D01*
X-30118Y98228D02*
Y103740D01*
X-31102Y97244D02*
X-30118Y98228D01*
X-41929Y99016D02*
Y103740D01*
Y99016D02*
X-41732Y98819D01*
X-39961Y100591D02*
Y103740D01*
Y100591D02*
X-39961D01*
X-37894Y99311D02*
Y103740D01*
Y99311D02*
X-37402Y98819D01*
X-50984Y100984D02*
Y103740D01*
Y100984D02*
X-50394Y100394D01*
X-52953Y100591D02*
Y103740D01*
X-53150Y100394D02*
X-52953Y100591D01*
X-68382Y103665D02*
X-66142D01*
X-68504Y103543D02*
X-68382Y103665D01*
X-59941D02*
X-59276Y104331D01*
X-57480D01*
X-56595Y140945D02*
Y141831D01*
X-55118Y143307D01*
X-59941Y140945D02*
Y142028D01*
X-58661Y143307D01*
X-58169Y134350D02*
X-56299D01*
X-58661Y133858D02*
X-58169Y134350D01*
X-56299Y131004D02*
X-54724Y129429D01*
Y129134D02*
Y129429D01*
X-58760Y121546D02*
Y124236D01*
X-58661Y124335D01*
X-55413Y121546D02*
Y124114D01*
X-55118Y124409D01*
X-83858Y122441D02*
Y125098D01*
X-84252Y122047D02*
X-83858Y122441D01*
X-83563Y118504D02*
Y121358D01*
X-84252Y122047D02*
X-83563Y121358D01*
X-80216Y118504D02*
Y119783D01*
X-79134Y120866D01*
X-83858Y128445D02*
Y130709D01*
Y152570D02*
X-80895D01*
X-83858Y155917D02*
X-83847D01*
X-83858Y140847D02*
X-81398D01*
X-80709Y140157D01*
X-83858Y165354D02*
Y167618D01*
Y170965D02*
X-83760D01*
X-82284Y172441D01*
X-58366Y165957D02*
Y168898D01*
X-58661Y165661D02*
X-58366Y165957D01*
X-55020Y166634D02*
Y168898D01*
X-55905Y165748D02*
X-55020Y166634D01*
X-58366Y155905D02*
Y158563D01*
X-58268Y158661D01*
X-55020Y155905D02*
Y158563D01*
X-55118Y158661D02*
X-55020Y158563D01*
X-101575Y132677D02*
Y133366D01*
Y132677D02*
X-100394Y131496D01*
X-101575Y136713D02*
Y138976D01*
X-135039Y105512D02*
Y109055D01*
X-126772D02*
X-124803D01*
X-122441D01*
X-142913Y96063D02*
X-139764D01*
X-138976Y116929D02*
X-137008Y114961D01*
X-140551Y116929D02*
X-138976D01*
X-37106Y142126D02*
X-34350Y144882D01*
X-37795Y142126D02*
X-37106D01*
X-31004Y144882D02*
X-30315D01*
X-29753Y145444D01*
Y146231D01*
X-27953Y148031D01*
X-83847Y155917D02*
X-80709Y159055D01*
X-80895Y152570D02*
X-80709Y152756D01*
Y155905D02*
X-78126D01*
X-77953Y155732D01*
X-80685Y159079D02*
X-77953D01*
X-80709Y159055D02*
X-80685Y159079D01*
X-55020Y146555D02*
Y149213D01*
X-55118Y146457D02*
X-55020Y146555D01*
X-58366Y146752D02*
Y149213D01*
X-58661Y146457D02*
X-58366Y146752D01*
X-113386Y125689D02*
Y127953D01*
Y120079D02*
Y122343D01*
X-77953Y155732D02*
X-77746D01*
X-73931Y151918D01*
Y146162D02*
Y151918D01*
Y146162D02*
X-71471Y143702D01*
Y142567D02*
Y143702D01*
Y142567D02*
X-70425Y141521D01*
X-68945D01*
X-60201Y150265D01*
Y150561D01*
X-59400Y151363D01*
X-57170D01*
X-55020Y149213D01*
X-75422Y144672D02*
X-73931Y146162D01*
X-110630Y122441D02*
X-109843Y123228D01*
X-113386Y122343D02*
X-110728D01*
X-110630Y122441D01*
X-31004Y148130D02*
Y150394D01*
X-31102Y148031D02*
X-31004Y148130D01*
X-34350Y144882D02*
Y150394D01*
X-62598Y157579D02*
X-62500D01*
X-61516Y158661D02*
X-58268D01*
X-62598Y157579D02*
X-61516Y158661D01*
X-62598Y154232D02*
X-61811Y153445D01*
Y152756D02*
Y153445D01*
X-109843Y123228D02*
X-94882D01*
X-75422Y132846D02*
Y144672D01*
X-76209Y132058D02*
X-75422Y132846D01*
X-77953Y134252D02*
Y137303D01*
Y134252D02*
X-77559Y133858D01*
X-77953Y140650D02*
Y142913D01*
X-77559Y143307D01*
X-84055Y159252D02*
Y162205D01*
Y159252D02*
X-83858Y159055D01*
X-81454Y132058D02*
X-76209D01*
X-94882Y123228D02*
X-85433Y132677D01*
X-82073D01*
X-81454Y132058D01*
X-80709Y133858D02*
Y135138D01*
X-82185Y136614D02*
X-80709Y135138D01*
X-87795Y136614D02*
X-85532D01*
X-151969Y109055D02*
X-140945D01*
X-153150Y107874D02*
X-151969Y109055D01*
X-84252Y144587D02*
X-83858Y144193D01*
X-83858Y144981D02*
Y149606D01*
X-79921Y149606D02*
X-77953Y147638D01*
X-80709Y149606D02*
X-79921D01*
X-180540Y196231D02*
X-179528Y197244D01*
X-186389Y196231D02*
X-180540D01*
X-190945Y200787D02*
X-186389Y196231D01*
X-187795Y109252D02*
X-183268D01*
X-183071Y109449D01*
X-174311Y120079D02*
X-171653D01*
D68*
X190551Y203248D02*
Y205906D01*
X186221Y203248D02*
X190551D01*
X-107283Y147736D02*
Y149803D01*
Y151772D01*
Y153937D01*
Y156693D01*
Y159153D01*
Y161221D01*
Y163189D01*
Y165354D01*
Y168110D01*
Y170571D01*
Y172638D01*
Y174606D01*
Y176772D01*
D69*
X-94095Y64961D02*
X-92520D01*
X-93307Y30216D02*
X-92519Y31004D01*
X-84646Y64173D02*
Y64961D01*
Y59005D02*
Y64173D01*
X-92520Y56890D02*
Y57677D01*
Y41339D02*
Y56890D01*
X171653Y170079D02*
X183858D01*
X169291Y172441D02*
X171653Y170079D01*
X169291Y172441D02*
Y192126D01*
X170866Y193701D01*
X173819D01*
X167323Y137795D02*
X168110Y138583D01*
Y146063D01*
X166437Y144390D02*
X168110Y146063D01*
X161811Y144390D02*
X166437D01*
X150394Y146063D02*
X152067Y144390D01*
X157087D01*
Y140157D02*
X159449Y137795D01*
X157087Y140157D02*
Y144390D01*
X156693Y127165D02*
X159449Y129921D01*
X156693Y120965D02*
Y127165D01*
X150394Y119291D02*
X152067Y120965D01*
X156693D01*
X131496Y41339D02*
Y49213D01*
X118504Y45276D02*
X123524D01*
X136319Y92126D02*
Y97244D01*
Y87008D02*
Y92126D01*
Y82284D02*
Y87008D01*
Y75817D02*
Y82284D01*
X134646Y74144D02*
X136319Y75817D01*
X140945Y44035D02*
Y63780D01*
X146457Y69291D01*
Y74144D01*
Y81890D01*
X140945Y87401D02*
X146457Y81890D01*
X140945Y87401D02*
Y105571D01*
X-110335Y30216D02*
X-93307D01*
X-113386Y27165D02*
X-110335Y30216D01*
X-113779Y27165D02*
X-113386D01*
X-115354D02*
X-113779D01*
X-121457Y21063D02*
X-115354Y27165D01*
X-122047Y21063D02*
X-121457D01*
X-92520Y41339D02*
X-92519Y41339D01*
X-131102Y83465D02*
X-127953D01*
X-127165Y82677D01*
X-126772D01*
X-130315Y92323D02*
X-123031D01*
X-122835Y92520D01*
Y88583D02*
Y92520D01*
Y88583D02*
X-121653Y87402D01*
X-108268D01*
X-113583Y35236D02*
Y43307D01*
X-113779Y35039D02*
X-113583Y35236D01*
X-85974Y57677D02*
X-84646Y59005D01*
X-100000Y68307D02*
X-97441D01*
X-94095Y64961D01*
X-139764Y89764D02*
Y92323D01*
Y89764D02*
X-138976Y88976D01*
Y83465D02*
Y88976D01*
X-92520Y57677D02*
X-85974D01*
D70*
X-116929Y107874D02*
X-108268Y99213D01*
Y69488D02*
Y87402D01*
X-109449Y68307D02*
X-108268Y69488D01*
X-115079Y68307D02*
X-109449D01*
X-116266Y67120D02*
X-115079Y68307D01*
X-116266Y61542D02*
Y67120D01*
Y61542D02*
X-113674Y58949D01*
Y52847D02*
Y58949D01*
X-108268Y52756D02*
X-107087Y51575D01*
X-113583Y52756D02*
X-108268D01*
X-113674Y52847D02*
X-113583Y52756D01*
X-124016Y121260D02*
Y123721D01*
X-116929Y107874D02*
Y112992D01*
X-124803Y120866D02*
X-116929Y112992D01*
X-108268Y87402D02*
Y99213D01*
D71*
X6693Y116142D02*
X8760Y114075D01*
X9843D01*
X-18462Y169291D02*
X-16804Y167633D01*
Y166225D02*
Y167633D01*
X-17033Y165996D02*
X-16804Y166225D01*
X-17033Y162394D02*
Y165996D01*
X-21161Y169291D02*
X-19210Y171243D01*
X-21260Y169193D02*
X-21161Y169291D01*
X-18462D01*
X-20472Y175984D02*
X-19210Y174722D01*
Y171243D02*
Y174722D01*
X157185Y183071D02*
X157480Y183366D01*
X154724Y183071D02*
X157185D01*
X153839Y183957D02*
X154724Y183071D01*
X151772Y183957D02*
X153839D01*
X157480Y178839D02*
Y183366D01*
X152756Y171653D02*
Y178740D01*
X149803Y181693D02*
X152756Y178740D01*
X149803Y181693D02*
Y183957D01*
X-22638Y190748D02*
X-20669D01*
X-23130Y190256D02*
X-22638Y190748D01*
X-23130Y187402D02*
Y190256D01*
Y179921D02*
Y187402D01*
X-20669Y190748D02*
Y195866D01*
X-23917Y179134D02*
X-23130Y179921D01*
X-25984Y179134D02*
X-23917D01*
X-26772Y181102D02*
X-25984Y180315D01*
Y179134D02*
Y180315D01*
X-26280Y176772D02*
X-25984Y177067D01*
Y179134D01*
X-34252Y179429D02*
X-32579Y181102D01*
X-26772D01*
X-26280Y175197D02*
Y176772D01*
X-25492Y175984D02*
X-20472D01*
X-26280Y175197D02*
X-25492Y175984D01*
X-17033Y162394D02*
X-15312Y160672D01*
D115*
X224409Y230315D02*
Y261811D01*
X-196851Y230315D02*
X196850D01*
Y261811D02*
X224409D01*
X196850Y230315D02*
X224410D01*
X196850D02*
Y261811D01*
X-196851Y230315D02*
X132283D01*
X-224409Y230315D02*
Y261811D01*
Y230315D02*
X-196850D01*
X-196850Y230315D02*
Y261811D01*
X-224410Y261811D02*
X-193307D01*
X-196851Y261811D02*
X196850D01*
X224410Y-31496D02*
Y-0D01*
X196851Y0D02*
X224410D01*
X224410Y0D01*
X196851Y-31496D02*
Y-0D01*
Y-31496D02*
X224410D01*
X224410Y0D02*
X224410Y-0D01*
X-224409Y-31496D02*
X-196850D01*
X-224409D02*
Y-0D01*
X-196850D01*
Y-31496D02*
Y-0D01*
Y-31496D02*
X196851D01*
X-196850Y0D02*
X196851D01*
X-224409Y250000D02*
X-224409Y-31496D01*
X196850Y250000D02*
X196851Y-19685D01*
X224410Y250000D02*
X224410Y-19685D01*
X-196850Y-31496D02*
Y250000D01*
D116*
X-151575Y201181D02*
D03*
X-159449D02*
D03*
X-127953D02*
D03*
X-135827D02*
D03*
X-143701D02*
D03*
X-167323D02*
D03*
X-175197D02*
D03*
D117*
X-150000Y11811D02*
D03*
X126378D02*
D03*
X50000Y218504D02*
D03*
X-150000D02*
D03*
D118*
X142520Y18898D02*
D03*
D119*
X166142D02*
D03*
D120*
X82480Y139961D02*
D03*
Y202953D02*
D03*
D121*
X166929Y225590D02*
D03*
Y117323D02*
D03*
D122*
X175197Y129921D02*
D03*
X112205Y137795D02*
D03*
Y129921D02*
D03*
X120079Y137795D02*
D03*
Y129921D02*
D03*
X127953Y137795D02*
D03*
Y129921D02*
D03*
X135827Y137795D02*
D03*
Y129921D02*
D03*
X143701Y137795D02*
D03*
Y129921D02*
D03*
X151575Y137795D02*
D03*
Y129921D02*
D03*
X159449Y137795D02*
D03*
Y129921D02*
D03*
X167323Y137795D02*
D03*
Y129921D02*
D03*
X104331D02*
D03*
Y137795D02*
D03*
X96457D02*
D03*
Y129921D02*
D03*
D123*
X175197Y137795D02*
D03*
D124*
X-185335Y6693D02*
D03*
Y32677D02*
D03*
D125*
X-155512Y42913D02*
D03*
Y94882D02*
D03*
D126*
X117913Y52244D02*
D03*
X127913Y57244D02*
D03*
X117913Y62244D02*
D03*
X127913Y67244D02*
D03*
X117913Y72244D02*
D03*
X127913Y77244D02*
D03*
X117913Y82244D02*
D03*
X127913Y87244D02*
D03*
X117913Y92244D02*
D03*
X127913Y97244D02*
D03*
X172244Y49902D02*
D03*
X166260Y59901D02*
D03*
X172244Y89705D02*
D03*
X166260Y99705D02*
D03*
D127*
X140945Y105571D02*
D03*
Y44035D02*
D03*
D128*
X152953Y97303D02*
D03*
Y52303D02*
D03*
D129*
X-64960Y40551D02*
D03*
X-74803D02*
D03*
X-82677D02*
D03*
X-92519D02*
D03*
X-64960Y30216D02*
D03*
X-74803D02*
D03*
X-82677D02*
D03*
X-92519D02*
D03*
X89173Y66535D02*
D03*
X-122047Y34843D02*
D03*
X-92520Y70669D02*
D03*
X55709Y135039D02*
D03*
Y100394D02*
D03*
X89567D02*
D03*
X-114961Y94291D02*
D03*
D130*
X-104724Y19390D02*
D03*
Y41634D02*
D03*
X-52756D02*
D03*
Y19390D02*
D03*
D131*
X29921Y220797D02*
D03*
X43376Y25197D02*
D03*
D132*
X29921Y206762D02*
D03*
D133*
X-76772Y204724D02*
D03*
D134*
X-66772D02*
D03*
X-56772D02*
D03*
X-46772D02*
D03*
X-36772D02*
D03*
X-26772D02*
D03*
X-16772D02*
D03*
X-6772D02*
D03*
X3228D02*
D03*
X13228D02*
D03*
X-76772Y214724D02*
D03*
X-66772D02*
D03*
X-56772D02*
D03*
X-46772D02*
D03*
X-36772D02*
D03*
X-26772D02*
D03*
X-16772D02*
D03*
X-6772D02*
D03*
X3228D02*
D03*
X13228D02*
D03*
D135*
X57411Y25197D02*
D03*
D136*
X-16929Y78347D02*
D03*
X-1181Y85827D02*
D03*
X9843Y119685D02*
D03*
X-46457Y103937D02*
D03*
X-97638Y138976D02*
D03*
X-92126Y144488D02*
D03*
X178347Y83465D02*
D03*
Y99606D02*
D03*
X0Y187795D02*
D03*
X-6299Y187402D02*
D03*
X91732Y74508D02*
D03*
X92126Y91339D02*
D03*
X-7480Y107874D02*
D03*
X12598Y103543D02*
D03*
X79528Y97244D02*
D03*
X2756Y90158D02*
D03*
X-787Y81890D02*
D03*
X-24803Y75984D02*
D03*
X-162992Y218110D02*
D03*
X-181890Y48819D02*
D03*
X-180315Y57874D02*
D03*
X-188583Y51968D02*
D03*
X-190157Y66929D02*
D03*
X-176575Y42913D02*
D03*
X-186614Y46850D02*
D03*
X-2756Y160630D02*
D03*
X27165Y147244D02*
D03*
X70866Y143307D02*
D03*
X12992Y144882D02*
D03*
Y138583D02*
D03*
Y135433D02*
D03*
X12992Y132283D02*
D03*
X12992Y129134D02*
D03*
X9843Y125984D02*
D03*
X20472Y154330D02*
D03*
X22441Y150787D02*
D03*
X21255Y159837D02*
D03*
X19291Y162598D02*
D03*
X22489Y155743D02*
D03*
X12691Y158118D02*
D03*
X13141Y154518D02*
D03*
X9843Y144882D02*
D03*
X23228Y85039D02*
D03*
X24409Y94095D02*
D03*
X11417Y90158D02*
D03*
X0D02*
D03*
X11024Y86221D02*
D03*
X-13780Y57874D02*
D03*
X-16535Y94095D02*
D03*
X2756Y98425D02*
D03*
X-17323Y98031D02*
D03*
X105118Y92520D02*
D03*
X119291Y186221D02*
D03*
X119685Y176772D02*
D03*
X119291Y218898D02*
D03*
X137795Y170374D02*
D03*
X135039Y159843D02*
D03*
X132283D02*
D03*
X124803Y168898D02*
D03*
X169685Y157874D02*
D03*
X10236Y174409D02*
D03*
X12598Y113386D02*
D03*
X26772D02*
D03*
X27165Y151968D02*
D03*
X28740Y157874D02*
D03*
X29134Y161024D02*
D03*
X25591Y157480D02*
D03*
X26772Y160630D02*
D03*
X33465Y155512D02*
D03*
X6693Y151181D02*
D03*
Y154331D02*
D03*
X6585Y157274D02*
D03*
X6693Y160933D02*
D03*
X12992Y54724D02*
D03*
X8661Y62205D02*
D03*
X7087Y53337D02*
D03*
X-76772Y116535D02*
D03*
X-42520Y123228D02*
D03*
X-27953Y129134D02*
D03*
X-81102Y105905D02*
D03*
X-94488D02*
D03*
X-61811Y100394D02*
D03*
X-65354Y100393D02*
D03*
X-67716Y94882D02*
D03*
X6693Y116142D02*
D03*
X-24803Y122942D02*
D03*
X-27953D02*
D03*
X-66535Y117323D02*
D03*
X-86221Y114567D02*
D03*
X-114961Y105905D02*
D03*
X2756Y113386D02*
D03*
X3543Y129134D02*
D03*
X16461Y119703D02*
D03*
X394Y119685D02*
D03*
Y34252D02*
D03*
X-24803Y80315D02*
D03*
X-16142Y86221D02*
D03*
X-12992Y94095D02*
D03*
X-20472Y94882D02*
D03*
X-25591Y93701D02*
D03*
X-103150Y192126D02*
D03*
X-96850D02*
D03*
X97244Y76378D02*
D03*
X-83071Y77165D02*
D03*
X-42126Y76772D02*
D03*
X-18504Y122835D02*
D03*
X12992Y180709D02*
D03*
X-40945Y129196D02*
D03*
Y135495D02*
D03*
X-46850Y134646D02*
D03*
X-45963Y130315D02*
D03*
X-27953Y132283D02*
D03*
X27165Y165748D02*
D03*
X96063Y190945D02*
D03*
X-184252Y190157D02*
D03*
X-132283Y191732D02*
D03*
X-6937Y174016D02*
D03*
X-10630Y174803D02*
D03*
X-3937Y174015D02*
D03*
X0Y174409D02*
D03*
X1727Y176924D02*
D03*
X-13780Y175590D02*
D03*
X3150Y178740D02*
D03*
X-177165Y146457D02*
D03*
X-70472Y199606D02*
D03*
X-13316Y188621D02*
D03*
X-18214Y188381D02*
D03*
X18110Y187402D02*
D03*
X17323Y10630D02*
D03*
X27165Y189764D02*
D03*
X-127165Y115354D02*
D03*
X-39764Y81496D02*
D03*
X-31496Y77165D02*
D03*
X-41732Y8661D02*
D03*
X-172047Y168898D02*
D03*
X85827Y215354D02*
D03*
X-179528Y52756D02*
D03*
X-175984Y116535D02*
D03*
X-34646Y34646D02*
D03*
X-178740Y138583D02*
D03*
X-176772Y190945D02*
D03*
X-185039Y152756D02*
D03*
X-178740Y176378D02*
D03*
X20866Y181496D02*
D03*
X-21324Y166936D02*
D03*
X-18504Y166929D02*
D03*
X-15333Y163779D02*
D03*
X-11733Y163645D02*
D03*
X-21654Y160630D02*
D03*
X-27953Y163779D02*
D03*
X-27953Y160630D02*
D03*
X-24803Y160630D02*
D03*
X-27953Y157480D02*
D03*
X-31102D02*
D03*
X-27953Y154330D02*
D03*
X-31102Y160630D02*
D03*
X-40157Y164173D02*
D03*
X-44488Y164960D02*
D03*
X11811Y190157D02*
D03*
X2165Y192913D02*
D03*
X5118Y176378D02*
D03*
X22047Y166929D02*
D03*
X-182677Y219783D02*
D03*
X-190748Y225394D02*
D03*
X-182677Y198031D02*
D03*
X-190748Y182087D02*
D03*
X-180413Y185531D02*
D03*
Y163779D02*
D03*
X-190945Y160433D02*
D03*
X-171653Y142126D02*
D03*
X-163779Y132283D02*
D03*
X-31890Y110630D02*
D03*
X-168110Y208563D02*
D03*
X-166437Y222146D02*
D03*
X-172047Y224410D02*
D03*
X-27953Y166929D02*
D03*
X175984Y150394D02*
D03*
X141339Y198425D02*
D03*
X145276Y201575D02*
D03*
X141339Y204724D02*
D03*
X150787Y203150D02*
D03*
X161417Y175984D02*
D03*
X177559Y205512D02*
D03*
X167323D02*
D03*
X187795Y130315D02*
D03*
X190551Y205906D02*
D03*
X177559Y197244D02*
D03*
X188583Y192913D02*
D03*
X160630Y161221D02*
D03*
X150787Y191732D02*
D03*
Y187795D02*
D03*
X142913D02*
D03*
Y191732D02*
D03*
X157480Y189370D02*
D03*
X90551Y164567D02*
D03*
X89764Y118110D02*
D03*
X165354Y171653D02*
D03*
X161811Y154331D02*
D03*
X150394D02*
D03*
X-124409Y71653D02*
D03*
X-164961Y57087D02*
D03*
X-91220Y184917D02*
D03*
X3937Y188189D02*
D03*
X-6693Y176772D02*
D03*
X-3150Y188189D02*
D03*
X-10236Y187007D02*
D03*
X-23130Y187402D02*
D03*
X-15748Y195669D02*
D03*
X-16142Y190551D02*
D03*
X-15945Y187008D02*
D03*
X-19980D02*
D03*
X-30709Y188189D02*
D03*
X-26772Y188081D02*
D03*
X187795Y176378D02*
D03*
X181496D02*
D03*
X175197D02*
D03*
X189764Y105905D02*
D03*
X183858D02*
D03*
X160630Y168898D02*
D03*
X162598Y171653D02*
D03*
X175984Y146063D02*
D03*
X142520Y119291D02*
D03*
X156693Y114961D02*
D03*
X161811Y150394D02*
D03*
X157087D02*
D03*
X-48819Y174016D02*
D03*
X-32677Y190157D02*
D03*
X-33858Y185827D02*
D03*
X-23228Y173622D02*
D03*
X-18898Y163385D02*
D03*
X-12218Y166929D02*
D03*
X-9055Y163779D02*
D03*
X-15312Y160672D02*
D03*
X-15354Y157480D02*
D03*
X-5906Y160630D02*
D03*
X131496Y41339D02*
D03*
X34252Y58268D02*
D03*
X24803Y180709D02*
D03*
X37795Y144596D02*
D03*
X41752Y139370D02*
D03*
X74803Y170079D02*
D03*
X27165Y172835D02*
D03*
X35039Y170079D02*
D03*
Y175591D02*
D03*
X40551D02*
D03*
Y170079D02*
D03*
X59842Y172441D02*
D03*
X63386Y170866D02*
D03*
X50787Y172441D02*
D03*
X46063Y175591D02*
D03*
X55118Y159055D02*
D03*
X59055D02*
D03*
X71653D02*
D03*
X67716Y160236D02*
D03*
Y154724D02*
D03*
X46063Y170125D02*
D03*
X118504Y45276D02*
D03*
X71653Y146063D02*
D03*
X-26772Y38583D02*
D03*
X-5118Y42126D02*
D03*
X-23622Y27165D02*
D03*
X-21413Y21654D02*
D03*
X-16142Y24803D02*
D03*
X-8661Y22835D02*
D03*
X-7087Y30315D02*
D03*
X6693Y170079D02*
D03*
X6639Y163833D02*
D03*
X3543Y163779D02*
D03*
X20079Y168504D02*
D03*
X12992Y166929D02*
D03*
X3543Y166929D02*
D03*
Y160630D02*
D03*
X44094Y90551D02*
D03*
X-81496Y177165D02*
D03*
X16142Y141446D02*
D03*
X44488Y140157D02*
D03*
X60236Y137795D02*
D03*
X9843Y138582D02*
D03*
X-34252Y193307D02*
D03*
X-40157Y138583D02*
D03*
X-15354Y148031D02*
D03*
X-2362Y135039D02*
D03*
X-5906Y141339D02*
D03*
X-156299Y70866D02*
D03*
X-154331Y75197D02*
D03*
X-152362Y77953D02*
D03*
X-150787Y73228D02*
D03*
X12992Y160630D02*
D03*
X19610Y171653D02*
D03*
X21260Y135433D02*
D03*
X6693Y144882D02*
D03*
X-12205Y154331D02*
D03*
Y151181D02*
D03*
X-18110Y177165D02*
D03*
X-9843Y177953D02*
D03*
X-31102Y166929D02*
D03*
X-38976Y168110D02*
D03*
X-41339Y167323D02*
D03*
X-50394Y164567D02*
D03*
X-50000Y154330D02*
D03*
Y157480D02*
D03*
X-46457Y155905D02*
D03*
X-38976Y150787D02*
D03*
X-41339Y153149D02*
D03*
X-43307Y155905D02*
D03*
X-44882Y160630D02*
D03*
X-46457Y163385D02*
D03*
X-45669Y170472D02*
D03*
X-48819Y170941D02*
D03*
X-51181Y173622D02*
D03*
X-60630Y177559D02*
D03*
X-32677Y175197D02*
D03*
X-9420Y160601D02*
D03*
X67716Y109055D02*
D03*
X84252Y73622D02*
D03*
X87795Y75197D02*
D03*
X178740Y59842D02*
D03*
X129921Y62205D02*
D03*
X97638Y94882D02*
D03*
Y68504D02*
D03*
X74311Y70472D02*
D03*
X84252Y61024D02*
D03*
X61024Y81496D02*
D03*
X66929Y87402D02*
D03*
X-73622Y76772D02*
D03*
X-63386Y82677D02*
D03*
X-74803Y79134D02*
D03*
X-90945Y94488D02*
D03*
X-83071Y85039D02*
D03*
X-90945D02*
D03*
X-83071Y94488D02*
D03*
X-73228Y88583D02*
D03*
X-57874Y88189D02*
D03*
Y98032D02*
D03*
X-70079Y72441D02*
D03*
X-57874Y77165D02*
D03*
Y66929D02*
D03*
X-45669Y72933D02*
D03*
X-31496Y81496D02*
D03*
X-37402Y94095D02*
D03*
X-42126Y84646D02*
D03*
X-52362Y82677D02*
D03*
X-63386Y88189D02*
D03*
Y77165D02*
D03*
X-52362D02*
D03*
Y88189D02*
D03*
X-57874Y82677D02*
D03*
X-29921Y60236D02*
D03*
X-42126Y80709D02*
D03*
X-29921Y94095D02*
D03*
X-41732D02*
D03*
X51575Y77165D02*
D03*
X62598Y73622D02*
D03*
X-2756Y177165D02*
D03*
X-47244Y49606D02*
D03*
X-47638Y94882D02*
D03*
X-49508Y111024D02*
D03*
X-52196Y113779D02*
D03*
X-32677Y115354D02*
D03*
X-59449Y111417D02*
D03*
X-132677Y104724D02*
D03*
X-99213Y51575D02*
D03*
X70079Y64173D02*
D03*
Y66535D02*
D03*
X-98032Y76378D02*
D03*
X-74803Y86730D02*
D03*
X38583Y83071D02*
D03*
X39370Y89764D02*
D03*
X44094Y83071D02*
D03*
Y77559D02*
D03*
X38583D02*
D03*
Y72047D02*
D03*
X44094D02*
D03*
X20954Y85039D02*
D03*
X66535Y69685D02*
D03*
X74410Y66535D02*
D03*
X59055Y59055D02*
D03*
X62992D02*
D03*
Y66929D02*
D03*
X59055D02*
D03*
X25591Y51968D02*
D03*
X46850Y138583D02*
D03*
X48425Y145669D02*
D03*
X49606Y151181D02*
D03*
X62205Y139764D02*
D03*
X64173Y149213D02*
D03*
X77953Y141339D02*
D03*
X71653Y154724D02*
D03*
X70473Y168110D02*
D03*
X59055D02*
D03*
X55118D02*
D03*
X56299Y175197D02*
D03*
X-59842Y197795D02*
D03*
X-66929Y192913D02*
D03*
X94095Y120079D02*
D03*
X96850Y122835D02*
D03*
X87008Y124409D02*
D03*
X-56693Y114173D02*
D03*
X-129921Y96457D02*
D03*
X-20866Y101969D02*
D03*
X-22047Y111417D02*
D03*
X99606Y160630D02*
D03*
X-18504Y132283D02*
D03*
Y135433D02*
D03*
X-49606Y184252D02*
D03*
X-53543Y188189D02*
D03*
X-45669D02*
D03*
X-53543Y180315D02*
D03*
X-45669D02*
D03*
X-53543Y193307D02*
D03*
X-99213Y212324D02*
D03*
X-99606Y214567D02*
D03*
X-91339Y182677D02*
D03*
X-74803Y181890D02*
D03*
X-63386Y179528D02*
D03*
X-92126Y205118D02*
D03*
X-85827D02*
D03*
X-88976Y207480D02*
D03*
X-85827Y209842D02*
D03*
X-92126D02*
D03*
X-81890Y199213D02*
D03*
X-87402D02*
D03*
Y193701D02*
D03*
X-81890D02*
D03*
Y188189D02*
D03*
X-87402D02*
D03*
X-70866Y181890D02*
D03*
Y189764D02*
D03*
X-74803D02*
D03*
X-85827Y181496D02*
D03*
X-67323Y56693D02*
D03*
X-120473Y64567D02*
D03*
X-177559Y66535D02*
D03*
Y73622D02*
D03*
X-170472D02*
D03*
Y66535D02*
D03*
X-187008Y66929D02*
D03*
X-148425Y35827D02*
D03*
X-151181D02*
D03*
X84252Y14173D02*
D03*
Y6299D02*
D03*
X92126D02*
D03*
Y14173D02*
D03*
Y22047D02*
D03*
X84252D02*
D03*
X76378D02*
D03*
Y14173D02*
D03*
Y6299D02*
D03*
X-175394Y32283D02*
D03*
X-170571Y14567D02*
D03*
X-175394Y7087D02*
D03*
X-184744Y15551D02*
D03*
Y23819D02*
D03*
X-169095Y50000D02*
D03*
X31496Y25591D02*
D03*
X29528Y9843D02*
D03*
X45276Y16535D02*
D03*
Y9449D02*
D03*
X49606Y16535D02*
D03*
Y9449D02*
D03*
X47638Y12992D02*
D03*
X25197Y10630D02*
D03*
X72146Y22047D02*
D03*
X68504Y15354D02*
D03*
X97638Y29921D02*
D03*
X103543Y43701D02*
D03*
X110630D02*
D03*
X80315Y35039D02*
D03*
X72441D02*
D03*
X64567D02*
D03*
X56693Y42913D02*
D03*
X64567D02*
D03*
X72441D02*
D03*
X80315D02*
D03*
X76378Y46850D02*
D03*
Y38976D02*
D03*
X68504D02*
D03*
Y46850D02*
D03*
X60630D02*
D03*
X84645Y35039D02*
D03*
X38583Y14961D02*
D03*
X16535Y15748D02*
D03*
X37402Y36220D02*
D03*
X56693Y35039D02*
D03*
X60630Y38976D02*
D03*
X35433Y40157D02*
D03*
X31890Y40551D02*
D03*
X42913Y36614D02*
D03*
X52756Y46850D02*
D03*
X48819Y42913D02*
D03*
X69882Y84646D02*
D03*
X78740Y81890D02*
D03*
X83465Y88583D02*
D03*
X-13780Y114567D02*
D03*
X-8268Y74410D02*
D03*
X-14567Y111024D02*
D03*
X-16535Y74410D02*
D03*
X-9055Y94488D02*
D03*
Y90945D02*
D03*
Y86614D02*
D03*
X-12992D02*
D03*
X-5118Y94488D02*
D03*
X-20866Y97638D02*
D03*
X-5906Y119685D02*
D03*
X-2756Y111811D02*
D03*
X-8661Y102264D02*
D03*
X787Y108760D02*
D03*
X-28346Y193307D02*
D03*
X-35827Y173622D02*
D03*
X-24803Y135433D02*
D03*
X-45276Y153543D02*
D03*
X-37795Y152756D02*
D03*
X-27953Y151181D02*
D03*
X-58661Y143307D02*
D03*
Y146457D02*
D03*
X-58268Y158661D02*
D03*
X-55118D02*
D03*
X-58661Y165661D02*
D03*
X-55905Y165748D02*
D03*
X-57087Y172441D02*
D03*
X-54724Y129134D02*
D03*
X-73228Y135433D02*
D03*
X-27953Y148031D02*
D03*
Y144882D02*
D03*
Y141732D02*
D03*
X-31102D02*
D03*
X-54724Y138583D02*
D03*
X-58661Y133858D02*
D03*
X-31102Y138583D02*
D03*
X-48578Y141732D02*
D03*
X-45669Y142520D02*
D03*
X-65748Y139058D02*
D03*
X-34252Y138583D02*
D03*
X-65748Y141258D02*
D03*
X-34252Y141732D02*
D03*
X-61811Y143307D02*
D03*
X-66535Y135827D02*
D03*
X-55118Y146457D02*
D03*
Y143307D02*
D03*
X-50394Y147244D02*
D03*
X-49213Y138976D02*
D03*
X-69291Y139370D02*
D03*
X-24803Y141732D02*
D03*
X-73228Y132677D02*
D03*
X-27953Y138583D02*
D03*
X-61811Y133858D02*
D03*
X-71260Y131102D02*
D03*
X-50394Y133858D02*
D03*
X-61811Y130709D02*
D03*
X-27953Y135433D02*
D03*
X-31102Y132283D02*
D03*
X-65748Y129134D02*
D03*
X-77587Y124775D02*
D03*
X-58661Y124335D02*
D03*
X-55118Y124409D02*
D03*
X-61811Y127559D02*
D03*
X-34252Y129134D02*
D03*
X-73622Y128659D02*
D03*
Y126459D02*
D03*
X-37795Y129528D02*
D03*
X-24803Y138583D02*
D03*
Y144882D02*
D03*
X-24803Y148031D02*
D03*
X-24803Y151181D02*
D03*
Y154331D02*
D03*
Y157480D02*
D03*
X-9055Y196457D02*
D03*
X-2756Y198031D02*
D03*
X-7812Y198324D02*
D03*
X-31102Y129134D02*
D03*
X-21654Y132283D02*
D03*
X-21654Y129134D02*
D03*
X-15354D02*
D03*
X-9055D02*
D03*
X-5906D02*
D03*
X394D02*
D03*
X9843D02*
D03*
Y135433D02*
D03*
X6693Y141732D02*
D03*
Y148031D02*
D03*
X394Y160630D02*
D03*
X-5906Y132283D02*
D03*
X3543Y135433D02*
D03*
X394Y138583D02*
D03*
X6693Y135433D02*
D03*
X394Y144882D02*
D03*
Y148031D02*
D03*
Y154331D02*
D03*
X-5906Y154331D02*
D03*
Y151181D02*
D03*
X394D02*
D03*
X-5906Y144882D02*
D03*
Y148031D02*
D03*
X-18504Y144882D02*
D03*
Y151181D02*
D03*
Y154331D02*
D03*
Y160630D02*
D03*
X-5906Y163779D02*
D03*
X-2756D02*
D03*
X3543Y141732D02*
D03*
X-2756Y129134D02*
D03*
X-18504Y141732D02*
D03*
X-12205D02*
D03*
Y138583D02*
D03*
X-12205Y135433D02*
D03*
X-79134Y120866D02*
D03*
X-83858Y130709D02*
D03*
X-73622Y140157D02*
D03*
X-80709Y143307D02*
D03*
X-77559D02*
D03*
X-80709Y140157D02*
D03*
Y165354D02*
D03*
X-83858D02*
D03*
X-82284Y172441D02*
D03*
X-18406Y157480D02*
D03*
X-24803Y132283D02*
D03*
X-37402Y116535D02*
D03*
X-27953Y125984D02*
D03*
X-21654D02*
D03*
Y122835D02*
D03*
X-18504Y125984D02*
D03*
X-4724Y90158D02*
D03*
X-9084Y123200D02*
D03*
X-4724Y70472D02*
D03*
X-12205Y129134D02*
D03*
X-12205Y125984D02*
D03*
X-16535Y70472D02*
D03*
X-12598D02*
D03*
Y74410D02*
D03*
X-12598Y78347D02*
D03*
X-24803Y68504D02*
D03*
Y72441D02*
D03*
X3150Y70472D02*
D03*
Y74410D02*
D03*
Y78347D02*
D03*
Y86221D02*
D03*
Y94095D02*
D03*
X11024Y94095D02*
D03*
Y78346D02*
D03*
Y70472D02*
D03*
X-24409Y11024D02*
D03*
X7874Y26772D02*
D03*
X5906Y25197D02*
D03*
X0Y24803D02*
D03*
X-15748Y11024D02*
D03*
X1969Y22835D02*
D03*
X9449Y20472D02*
D03*
X3937Y19685D02*
D03*
X6693Y11417D02*
D03*
X-29429Y48819D02*
D03*
X-6102D02*
D03*
X3543Y45276D02*
D03*
X-126772Y82677D02*
D03*
X-122835Y100394D02*
D03*
X-166535Y111024D02*
D03*
Y101575D02*
D03*
Y106299D02*
D03*
X-161811Y111024D02*
D03*
Y106299D02*
D03*
Y101575D02*
D03*
X-168110Y120472D02*
D03*
X-164961Y117323D02*
D03*
X-168110Y45350D02*
D03*
Y47550D02*
D03*
X-103937Y64567D02*
D03*
X-134252Y55118D02*
D03*
X-144882D02*
D03*
X-117323Y40551D02*
D03*
X394Y163779D02*
D03*
X-23228Y107480D02*
D03*
X-29528Y114567D02*
D03*
X-35039Y103937D02*
D03*
X-24803Y100787D02*
D03*
X-27165Y99213D02*
D03*
X-31102Y97244D02*
D03*
X-20866Y113779D02*
D03*
X-26378Y116142D02*
D03*
X-41732Y98819D02*
D03*
X-39961Y100591D02*
D03*
X-37402Y98819D02*
D03*
X-74803Y84530D02*
D03*
X-40157Y122441D02*
D03*
X-44882Y122834D02*
D03*
X-47244Y120079D02*
D03*
X-51919Y123228D02*
D03*
X-61811Y113779D02*
D03*
X-31102Y119685D02*
D03*
X-50394Y100394D02*
D03*
X-53150D02*
D03*
X-68504Y103543D02*
D03*
X-57480Y104331D02*
D03*
X-68504Y108268D02*
D03*
X-70079Y94095D02*
D03*
X-70040Y105118D02*
D03*
X-77953Y110236D02*
D03*
X-84252Y122047D02*
D03*
X-94882Y148031D02*
D03*
Y151181D02*
D03*
Y153543D02*
D03*
Y155905D02*
D03*
X-98032Y147638D02*
D03*
X-98031Y150787D02*
D03*
Y153937D02*
D03*
X-98032Y157480D02*
D03*
Y159843D02*
D03*
X-94488Y160630D02*
D03*
X-98031Y162992D02*
D03*
X-94488Y164173D02*
D03*
X-98031Y166141D02*
D03*
X-94095Y167717D02*
D03*
X-98031Y169291D02*
D03*
X-94095Y170866D02*
D03*
X-97638Y172441D02*
D03*
X-94095Y173622D02*
D03*
X-97638Y175590D02*
D03*
X-94095Y177165D02*
D03*
X-97638Y178740D02*
D03*
X-94094Y181102D02*
D03*
X-107283Y168110D02*
D03*
Y156693D02*
D03*
X-99606Y181496D02*
D03*
X-118504Y156693D02*
D03*
Y168110D02*
D03*
X-100787Y142126D02*
D03*
X-100394Y131496D02*
D03*
X-107480Y127559D02*
D03*
Y131496D02*
D03*
X-100394Y127559D02*
D03*
X-101575Y138976D02*
D03*
X-135039Y105512D02*
D03*
X-126772Y109055D02*
D03*
X-122441D02*
D03*
X-142913Y96063D02*
D03*
X-124803Y52756D02*
D03*
Y43307D02*
D03*
X-109449Y58366D02*
D03*
X-100000Y58268D02*
D03*
X-140551Y116929D02*
D03*
Y112992D02*
D03*
X-133465D02*
D03*
Y116929D02*
D03*
X-98425Y205118D02*
D03*
Y209842D02*
D03*
X-95276Y207480D02*
D03*
Y213779D02*
D03*
X-110630Y215354D02*
D03*
X-106693D02*
D03*
Y207480D02*
D03*
X-110630D02*
D03*
X-93701Y188189D02*
D03*
X-101969Y179528D02*
D03*
X-103150Y185039D02*
D03*
X-106299Y188189D02*
D03*
X-96850Y185039D02*
D03*
X-95276Y197638D02*
D03*
X-103150Y218110D02*
D03*
X-94882Y128347D02*
D03*
Y144488D02*
D03*
X-37795Y142126D02*
D03*
X-83858Y159055D02*
D03*
X-80709D02*
D03*
Y152756D02*
D03*
Y155905D02*
D03*
X-77709Y153150D02*
D03*
X-61811Y152756D02*
D03*
X-113386Y127953D02*
D03*
Y120079D02*
D03*
X-73622Y142913D02*
D03*
X-110630Y122441D02*
D03*
X-105905Y120669D02*
D03*
X-100000D02*
D03*
X-107087Y116142D02*
D03*
X-100787D02*
D03*
X-122441Y177953D02*
D03*
X-119685Y212205D02*
D03*
X-109449Y222441D02*
D03*
X-31102Y148031D02*
D03*
X-124409Y220079D02*
D03*
X-77559Y133858D02*
D03*
X-80709D02*
D03*
X-87795Y136614D02*
D03*
X-86408Y145160D02*
D03*
X-83858Y149606D02*
D03*
X-86221Y147360D02*
D03*
X-86023Y150985D02*
D03*
X-80709Y149606D02*
D03*
X-34252Y163779D02*
D03*
X-31102D02*
D03*
X-185827Y203642D02*
D03*
X-179528Y197244D02*
D03*
X-182283Y194094D02*
D03*
X-19685Y104331D02*
D03*
X-137795Y105118D02*
D03*
X-140157Y102756D02*
D03*
X-173622Y103937D02*
D03*
X-181890Y119685D02*
D03*
X-183071Y109449D02*
D03*
X-171653Y120079D02*
D03*
X-176378Y128347D02*
D03*
X56693Y172441D02*
D03*
X65994Y175197D02*
D03*
X-131102Y211811D02*
D03*
D165*
X-27953Y166929D02*
D03*
X-24803Y135433D02*
D03*
D166*
X136221Y157087D02*
D03*
X134252D02*
D03*
X132283D02*
D03*
Y163386D02*
D03*
X134252D02*
D03*
X136221Y163386D02*
D03*
X-29921Y179134D02*
D03*
X-25984D02*
D03*
Y185433D02*
D03*
X-27953D02*
D03*
X-29921D02*
D03*
D167*
X119291Y219291D02*
D03*
Y190945D02*
D03*
X96063Y219291D02*
D03*
Y190945D02*
D03*
D168*
X186614Y146063D02*
D03*
X186713Y130315D02*
D03*
D169*
X186614Y105905D02*
D03*
Y117717D02*
D03*
D170*
X-124803Y109055D02*
D03*
Y120866D02*
D03*
D171*
X123524Y45276D02*
D03*
X131496Y49213D02*
D03*
Y41339D02*
D03*
D172*
X181496Y176378D02*
D03*
Y162205D02*
D03*
D173*
X-187795Y152559D02*
D03*
Y176181D02*
D03*
Y109252D02*
D03*
Y132874D02*
D03*
D174*
X-100000Y64567D02*
D03*
Y68307D02*
D03*
Y60827D02*
D03*
X-109449D02*
D03*
Y68307D02*
D03*
X-139764Y96063D02*
D03*
Y92323D02*
D03*
Y99803D02*
D03*
X-130315D02*
D03*
Y92323D02*
D03*
D175*
X88583Y80512D02*
D03*
Y82480D02*
D03*
Y84449D02*
D03*
X72835D02*
D03*
X88583Y90354D02*
D03*
Y88386D02*
D03*
Y86417D02*
D03*
X72835Y90354D02*
D03*
Y88386D02*
D03*
Y86417D02*
D03*
Y82480D02*
D03*
Y80512D02*
D03*
X-166142Y65158D02*
D03*
Y67126D02*
D03*
Y69095D02*
D03*
Y71063D02*
D03*
X-181890Y65158D02*
D03*
Y67126D02*
D03*
Y69095D02*
D03*
Y71063D02*
D03*
Y73032D02*
D03*
Y75000D02*
D03*
X-166142D02*
D03*
Y73032D02*
D03*
D176*
X80709Y85433D02*
D03*
X-174016Y70079D02*
D03*
D177*
X85630Y77559D02*
D03*
X83661D02*
D03*
X81693D02*
D03*
X79724D02*
D03*
X77756D02*
D03*
X75787D02*
D03*
X77756Y93405D02*
D03*
X79724D02*
D03*
X85630D02*
D03*
X75787D02*
D03*
X81693D02*
D03*
X83661D02*
D03*
X-169095Y62205D02*
D03*
X-171063D02*
D03*
X-173031D02*
D03*
X-175000D02*
D03*
X-176969D02*
D03*
X-178937D02*
D03*
Y78051D02*
D03*
X-176969D02*
D03*
X-175000D02*
D03*
X-173031D02*
D03*
X-171063D02*
D03*
X-169095D02*
D03*
D178*
X146850Y189764D02*
D03*
D179*
X151772Y183957D02*
D03*
X149803D02*
D03*
X147835D02*
D03*
X145866D02*
D03*
X143898D02*
D03*
X141929D02*
D03*
X141929Y195522D02*
D03*
X143898D02*
D03*
X145866D02*
D03*
X147835D02*
D03*
X149803D02*
D03*
X151772D02*
D03*
D180*
X-137008Y114961D02*
D03*
D181*
X-133071Y109055D02*
D03*
X-135039D02*
D03*
X-137008D02*
D03*
X-138976D02*
D03*
X-140945D02*
D03*
Y120866D02*
D03*
X-138976D02*
D03*
X-137008D02*
D03*
X-135039D02*
D03*
X-133071D02*
D03*
D182*
X-8661Y102264D02*
D03*
X787D02*
D03*
Y108760D02*
D03*
X-8661D02*
D03*
D183*
X-175000Y50295D02*
D03*
X-173031D02*
D03*
X-171063D02*
D03*
X-171063Y55216D02*
D03*
X-173031D02*
D03*
X-175000D02*
D03*
X-176969D02*
D03*
Y50295D02*
D03*
D184*
X-170768Y52756D02*
D03*
X-177264D02*
D03*
D185*
X-18898Y163385D02*
Y163779D01*
X-20454Y165336D02*
X-18898Y163779D01*
X-22915Y165336D02*
X-20454D01*
X-24803Y167224D02*
X-22915Y165336D01*
D186*
X-184449Y64961D02*
D03*
D187*
X146850Y195866D02*
D03*
D188*
X143307Y199803D02*
D03*
D189*
X181890Y180709D02*
D03*
D190*
X155118Y167717D02*
D03*
D191*
X146850Y185630D02*
D03*
D192*
X145079Y176378D02*
D03*
D193*
X142323Y179331D02*
D03*
D194*
X142717Y154724D02*
D03*
D195*
X147638Y165354D02*
D03*
D196*
X178543Y127756D02*
D03*
D197*
X186708Y125197D02*
D03*
D198*
X182480Y164764D02*
D03*
D199*
X187205Y153150D02*
D03*
D200*
X175984Y146457D02*
D03*
D201*
X172835Y153543D02*
D03*
D202*
X169685Y157283D02*
D03*
D203*
X-46260Y192717D02*
D03*
D204*
X-50984Y184449D02*
D03*
D205*
X47441Y13189D02*
D03*
D206*
X43504Y24902D02*
D03*
D207*
X31693Y25000D02*
D03*
X43110Y36024D02*
D03*
D208*
X29331Y9843D02*
D03*
D209*
X68307Y14961D02*
D03*
D210*
X107234Y44291D02*
D03*
D211*
X97638Y29921D02*
D03*
D212*
X37402Y36220D02*
D03*
D213*
X-156496Y107087D02*
D03*
D214*
X-147343Y123425D02*
D03*
D215*
X-135925D02*
D03*
D216*
X-128150Y125591D02*
D03*
D217*
X-126181Y121112D02*
D03*
M02*
