M48
;Layer_Color=8847372
;FILE_FORMAT=2:5
INCH,LZ
;TYPE=PLATED
T1F00S00C0.00800
T2F00S00C0.00984
T4F00S00C0.02953
T5F00S00C0.03150
T7F00S00C0.03543
T9F00S00C0.04000
T10F00S00C0.04921
T11F00S00C0.06299
;TYPE=NON_PLATED
T12F00S00C0.10827
T13F00S00C0.12795
%
T01
X-0175394Y0007087
X0076378Y0006299
X0084252
X0092126
X0189764Y0105905
X0187795Y0130315
X0175984Y0146063
Y0150394
X0169685Y0157874
X0161811Y0154331
Y0150394
X0157087
X0150394Y0154331
X016063Y0161221
X0135039Y0159843
X0132283
X0099606Y016063
X0071653Y0159055
X0071653Y0154724
X0067716Y0154724
Y0160236
X0059055Y0159055
X0055118
X0049606Y0151181
X0048425Y0145669
X004685Y0138583
X0044488Y0140157
X0041752Y013937
X0037795Y0144596
X0033465Y0155512
X0064173Y0149213
X0071653Y0146063
X0070866Y0143307
X0077953Y0141339
X0062205Y0139764
X0060236Y0137795
X0067716Y0109055
X0066929Y0087402
X0069882Y0084646
X007874Y008189
X0083465Y0088583
X0092126Y0091339
X0097638Y0094882
X0105118Y009252
X0097244Y0076378
X0091732Y0074508
X0087795Y0075197
X0084252Y0073622
X0084252Y0061024
X007441Y0066535
X0074311Y0070472
X0070079Y0066535
Y0064173
X0066535Y0069685
X0062992Y0066929
X0059055
Y0059055
X0062992
X006063Y004685
X0056693Y0042913
X0052756Y004685
X0048819Y0042913
X0042913Y0036614
X0037402Y003622
X0035433Y0040157
X003189Y0040551
X0031496Y0025591
X0038583Y0014961
X0045276Y0016535
X0049606
X0047638Y0012992
X0049606Y0009449
X0045276
X0068504Y0015354
X0076378Y0014173
Y0022047
X0072146
X0084252
Y0014173
X0092126
Y0022047
X0097638Y0029921
X0084645Y0035039
X0080315Y0035039
X0072441
X0064567
Y0042913
X0072441
X0068504Y004685
X0076378
X0080315Y0042913
X0076378Y0038976
X0068504
X006063
X0056693Y0035039
X0062598Y0073622
X0061024Y0081496
X0051575Y0077165
X0044094Y0077559
Y0083071
X0038583
Y0077559
Y0072047
X0044094
Y0090551
X003937Y0089764
X0034252Y0058268
X0097638Y0068504
X0103543Y0043701
X011063
X0118504Y0045276
X0131496Y0041339
X0129921Y0062205
X017874Y0059842
X0178347Y0083465
Y0099606
X0183858Y0105905
X0156693Y0114961
X014252Y0119291
X0094095Y0120079
X009685Y0122835
X0087008Y0124409
X0089764Y011811
X0079528Y0097244
X0024409Y0094095
X0023228Y0085039
X0020954Y0085039
X0011024Y0086221
X0011417Y0090158
X0011024Y0094095
X000315Y0094095
X0002756Y0090158
X0
X-0004724
X-0005118Y0094488
X-0009055
Y0090945
Y0086614
X-0012992
X-0016142Y0086221
X-0016535Y0094095
X-0012992
X-0017323Y0098031
X-0020866Y0097638
X-0020472Y0094882
X-0025591Y0093701
X-0029921Y0094095
X-0031102Y0097244
X-0027165Y0099213
X-0024803Y0100787
X-0020866Y0101969
X-0019685Y0104331
X-0023228Y010748
X-0022047Y0111417
X-0020866Y0113779
X-001378Y0114567
X-0014567Y0111024
X-000748Y0107874
X-0008661Y0102264
X0002756Y0098425
X0000787Y010876
X-0002756Y0111811
X0002756Y0113386
X0006693Y0116142
X0009843Y0119685
Y0125984
Y0129134
X0012992
X0012992Y0132283
X0012992Y0135433
Y0138583
X0009843Y0138582
X0009843Y0135433
X0006693
X0003543
Y0129134
X0000394
X-0002756
X-0005906
Y0132283
X-0009055Y0129134
X-0012205
X-0015354
X-0018504Y0132283
X-0021654
X-0024803
X-0027953
Y0135433
X-0024803
Y0138583
Y0141732
X-0027953
X-0031102
Y0138583
X-0027953
Y0144882
Y0148031
X-0024803
X-0024803Y0151181
X-0027953
X-0027953Y015433
X-0024803Y0154331
Y015748
Y016063
X-0021654
X-0018504
X-0018898Y0163385
X-0015333Y0163779
X-0015312Y0160672
X-0015354Y015748
X-0018406Y015748
X-0018504Y0154331
Y0151181
Y0144882
Y0141732
Y0135433
X-0012205Y0135433
X-0012205Y0138583
Y0141732
X-0005906Y0141339
Y0144882
Y0148031
Y0151181
Y0154331
Y016063
X-0002756
X0000394
Y0163779
X0003543
X0006639Y0163833
X0006693Y0160933
X0003543Y016063
X0006585Y0157274
X0006693Y0154331
Y0151181
Y0148031
Y0144882
X0009843
X0012992
X0016142Y0141446
X0006693Y0141732
X0003543
X0000394Y0138583
X-0002362Y0135039
X0000394Y0144882
Y0148031
Y0151181
Y0154331
X-0012205
Y0151181
X-0015354Y0148031
X-0024803Y0144882
X-0031102Y0148031
Y015748
X-0027953
X-0027953Y016063
X-0031102Y016063
Y0163779
X-0027953
X-0034252
X-0040157Y0164173
X-0046457Y0163385
X-0044882Y016063
X-0046457Y0155905
X-0043307
X-0045276Y0153543
X-0041339Y0153149
X-0037795Y0152756
X-0038976Y0150787
X-0037795Y0142126
X-0034252Y0141732
Y0138583
X-0040157
X-0040945Y0135495
Y0129196
X-0037795Y0129528
X-0034252Y0129134
X-0031102Y0129134
X-0027953
X-0027953Y0125984
Y0122942
X-0024803
X-0021654Y0122835
X-0018504
Y0125984
X-0021654
X-0021654Y0129134
X-0031102Y0132283
X-0031102Y0119685
X-0032677Y0115354
X-0029528Y0114567
X-0026378Y0116142
X-003189Y011063
X-0035039Y0103937
X-0037402Y0098819
X-0039961Y0100591
X-0041732Y0098819
Y0094095
X-0037402
X-0047638Y0094882
X-0050394Y0100394
X-005315
X-0057874Y0098032
X-0061811Y0100394
X-0065354Y0100393
X-0068504Y0103543
X-007004Y0105118
X-0068504Y0108268
X-0066535Y0117323
X-0061811Y0113779
X-0059449Y0111417
X-0056693Y0114173
X-0052196Y0113779
X-0049508Y0111024
X-0046457Y0103937
X-005748Y0104331
X-0057874Y0088189
X-0063386
Y0082677
Y0077165
X-0057874
X-0052362
Y0082677
Y0088189
X-0057874Y0082677
X-0057874Y0066929
X-0070079Y0072441
X-0073622Y0076772
X-0074803Y0079134
Y008453
Y008673
X-0073228Y0088583
X-0070079Y0094095
X-0067716Y0094882
X-0083071Y0094488
X-0090945
Y0085039
X-0083071
Y0077165
X-0098032Y0076378
X-0103937Y0064567
X-01Y0058268
X-0099213Y0051575
X-0109449Y0058366
X-0120473Y0064567
X-0124409Y0071653
X-0124803Y0052756
Y0043307
X-0117323Y0040551
X-0122835Y0100394
X-0122441Y0109055
X-0114961Y0105905
X-0113386Y0120079
X-011063Y0122441
X-0105905Y0120669
X-0107087Y0116142
X-0100787
X-01Y0120669
X-0100394Y0127559
Y0131496
X-010748
Y0127559
X-0113386Y0127953
X-0094882Y0128347
X-0083858Y0130709
X-0080709Y0133858
X-0077559
X-0073228Y0132677
Y0135433
X-0073622Y0140157
X-0073622Y0142913
X-0077559Y0143307
X-0080709
Y0140157
Y0149606
Y0152756
Y0155905
Y0159055
X-0083858
X-0083858Y0149606
X-0086023Y0150985
X-0086221Y014736
X-0086408Y014516
X-0092126Y0144488
X-0094882Y0144488
Y0148031
Y0151181
Y0153543
Y0155905
X-0098032Y015748
Y0159843
X-0098031Y0162992
X-0094488Y0164173
Y016063
X-0098031Y0153937
Y0150787
X-0098032Y0147638
X-0100787Y0142126
X-0101575Y0138976
X-0097638
X-0087795Y0136614
X-0084252Y0122047
X-0079134Y0120866
X-0077587Y0124775
X-0073622Y0126459
Y0128659
X-007126Y0131102
X-0065748Y0129134
X-0061811Y0130709
Y0127559
Y0133858
X-0058661
X-0050394
X-004685Y0134646
X-0045963Y0130315
X-0044882Y0122834
X-004252Y0123228
X-0040157Y0122441
X-0037402Y0116535
X-0047244Y0120079
X-0051919Y0123228
X-0055118Y0124409
X-0058661Y0124335
X-0054724Y0129134
Y0138583
X-0055118Y0143307
Y0146457
X-0058661
Y0143307
X-0061811
X-0065748Y0141258
Y0139058
X-0069291Y013937
X-0066535Y0135827
X-0049213Y0138976
X-0048578Y0141732
X-0045669Y014252
X-0050394Y0147244
X-005Y015433
Y015748
X-0055118Y0158661
X-0058268
X-0061811Y0152756
X-0077709Y015315
X-0107283Y0156693
X-0118504
X-0086221Y0114567
X-0076772Y0116535
X-0077953Y0110236
X-0081102Y0105905
X-0094488
X-0042126Y0084646
X-0042126Y0080709
X-0039764Y0081496
X-0042126Y0076772
X-0045669Y0072933
X-0031496Y0077165
Y0081496
X-0024803Y0080315
Y0075984
Y0072441
Y0068504
X-0016535Y0070472
X-0012598
Y007441
X-0016535
X-0016929Y0078347
X-0012598
X-0008268Y007441
X-0004724Y0070472
X000315
Y007441
Y0078347
X-0000787Y008189
X-0001181Y0085827
X000315Y0086221
X0011024Y0078346
Y0070472
X0008661Y0062205
X0007087Y0053337
X0012992Y0054724
X0025591Y0051968
X0003543Y0045276
X-0005118Y0042126
X-0006102Y0048819
X-001378Y0057874
X-0029921Y0060236
X-0029429Y0048819
X-0026772Y0038583
X-0034646Y0034646
X-0023622Y0027165
X-0021413Y0021654
X-0016142Y0024803
X-0008661Y0022835
X-0007087Y0030315
X0000394Y0034252
X0Y0024803
X0001969Y0022835
X0003937Y0019685
X0009449Y0020472
X0007874Y0026772
X0005906Y0025197
X0006693Y0011417
X0017323Y001063
X0016535Y0015748
X0025197Y001063
X0029528Y0009843
X-0015748Y0011024
X-0024409
X-0041732Y0008661
X-0047244Y0049606
X-0067323Y0056693
X-0012205Y0125984
X-0009084Y01232
X-0005906Y0119685
X0000394
X0016461Y0119703
X0012598Y0113386
Y0103543
X0026772Y0113386
X002126Y0135433
X0022441Y0150787
X0022489Y0155743
X0020472Y015433
X0021255Y0159837
X0019291Y0162598
X0012992Y016063
X0012691Y0158118
X0013141Y0154518
X0025591Y015748
X002874Y0157874
X0029134Y0161024
X0026772Y016063
X0027165Y0151968
X0027165Y0147244
X-0002756Y0163779
X-0005906
X-0009055
X-0011733Y0163645
X-000942Y0160601
X-0127165Y0115354
X-0126772Y0109055
X-0132677Y0104724
X-0135039Y0105512
X-0137795Y0105118
X-0140157Y0102756
X-0142913Y0096063
X-0129921Y0096457
X-0126772Y0082677
X-0152362Y0077953
X-0154331Y0075197
X-0150787Y0073228
X-0156299Y0070866
X-0170472Y0073622
X-0177559
Y0066535
X-0170472
X-0164961Y0057087
X-0169095Y005
X-016811Y004755
Y004535
X-0176575Y0042913
X-018189Y0048819
X-0179528Y0052756
X-0180315Y0057874
X-0188583Y0051968
X-0186614Y004685
X-0187008Y0066929
X-0190157
X-0184744Y0023819
Y0015551
X-0170571Y0014567
X-0175394Y0032283
X-0151181Y0035827
X-0148425
X-0144882Y0055118
X-0134252
X-0133465Y0112992
Y0116929
X-0140551
Y0112992
X-0161811Y0111024
X-0166535
Y0106299
Y0101575
X-0161811
Y0106299
X-0164961Y0117323
X-016811Y0120472
X-0171653Y0120079
X-0175984Y0116535
X-018189Y0119685
X-0183071Y0109449
X-0173622Y0103937
X-0176378Y0128347
X-017874Y0138583
X-0177165Y0146457
X-0171653Y0142126
X-0163779Y0132283
X-0185039Y0152756
X-0190945Y0160433
X-0180413Y0163779
X-0172047Y0168898
X-017874Y0176378
X-0180413Y0185531
X-0184252Y0190157
X-0182283Y0194094
X-0182677Y0198031
X-0179528Y0197244
X-0176772Y0190945
X-0185827Y0203642
X-0182677Y0219783
X-0190748Y0225394
X-0172047Y022441
X-0166437Y0222146
X-0162992Y021811
X-016811Y0208563
X-0131102Y0211811
X-0132283Y0191732
X-0190748Y0182087
X-0122441Y0177953
X-0118504Y016811
X-0107283
X-0098031Y0169291
Y0166141
X-0094095Y0167717
Y0170866
Y0173622
Y0177165
X-0094094Y0181102
X-0091339Y0182677
X-009122Y0184917
X-009685Y0185039
X-0093701Y0188189
X-0087402
Y0193701
Y0199213
X-008189
Y0193701
Y0188189
X-0074803Y0189764
X-0070866
X-0066929Y0192913
X-0070472Y0199606
X-0059842Y0197795
X-0053543Y0193307
Y0188189
X-0049606Y0184252
X-0045669Y0188189
Y0180315
X-0053543
X-0051181Y0173622
X-0048819Y0174016
Y0170941
X-0045669Y0170472
X-0044488Y016496
X-0041339Y0167323
X-0038976Y016811
X-0035827Y0173622
X-0032677Y0175197
X-0031102Y0166929
X-0027953Y0166929
X-0021324Y0166936
X-0018504Y0166929
X-0012218Y0166929
X-001063Y0174803
X-001378Y017559
X-001811Y0177165
X-0023228Y0173622
X-002313Y0187402
X-001998Y0187008
X-0018214Y0188381
X-0015945Y0187008
X-0016142Y0190551
X-0013316Y0188621
X-0010236Y0187007
X-0006299Y0187402
X-000315Y0188189
X0Y0187795
X0003937Y0188189
X0002165Y0192913
X-0002756Y0198031
X-0007812Y0198324
X-0009055Y0196457
X-0015748Y0195669
X-0028346Y0193307
X-0034252
X-0032677Y0190157
X-0030709Y0188189
X-0026772Y0188081
X-0033858Y0185827
X-0009843Y0177953
X-0006693Y0176772
X-0006937Y0174016
X-0003937Y0174015
X0Y0174409
X0001727Y0176924
X000315Y017874
X0005118Y0176378
X0010236Y0174409
X0006693Y0170079
X0003543Y0166929
X0012992Y0166929
X0020079Y0168504
X0022047Y0166929
X0027165Y0165748
Y0172835
X001961Y0171653
X0020866Y0181496
X0024803Y0180709
X0027165Y0189764
X001811Y0187402
X0011811Y0190157
X0012992Y0180709
X-0002756Y0177165
X-006063Y0177559
X-0063386Y0179528
X-0070866Y018189
X-0074803
X-0081496Y0177165
X-0082284Y0172441
X-0080709Y0165354
X-0083858
X-0085827Y0181496
X-0099606Y0181496
X-0101969Y0179528
X-0097638Y017874
Y017559
Y0172441
X-010315Y0185039
X-0106299Y0188189
X-010315Y0192126
X-009685
X-0095276Y0197638
Y020748
X-0092126Y0205118
Y0209842
X-0088976Y020748
X-0085827Y0205118
Y0209842
X-0098425
X-0099213Y0212324
X-0099606Y0214567
X-0095276Y0213779
X-0098425Y0205118
X-0106693Y020748
X-011063
Y0215354
X-0106693
X-010315Y021811
X-0109449Y0222441
X-0124409Y0220079
X-0119685Y0212205
X-0057087Y0172441
X-0055905Y0165748
X-0058661Y0165661
X-0050394Y0164567
X0035039Y0170079
Y0175591
X0040551
Y0170079
X0046063Y0170125
Y0175591
X0050787Y0172441
X0056693
X0056299Y0175197
X0059842Y0172441
X0059055Y016811
X0055118
X0063386Y0170866
X0065994Y0175197
X0070473Y016811
X0074803Y0170079
X0090551Y0164567
X0096063Y0190945
X0119291Y0186221
X0119685Y0176772
X0124803Y0168898
X0137795Y0170374
X0142913Y0187795
Y0191732
X0150787
Y0187795
X015748Y018937
X0161417Y0175984
X0162598Y0171653
X0165354
X016063Y0168898
X0175197Y0176378
X0181496
X0177559Y0197244
Y0205512
X0167323
X0150787Y020315
X0145276Y0201575
X0141339Y0198425
Y0204724
X0119291Y0218898
X0085827Y0215354
X0190551Y0205906
X0188583Y0192913
X0187795Y0176378
T02
X-0069685Y0143307
Y014626
Y0150689
Y0154626
Y0158563
Y01625
X-0072146Y0160531
Y0156595
Y0152657
Y0148721
X-0067224
Y0152657
Y0156595
Y0160531
Y0164567
Y0168504
Y0172441
Y0176279
X-0069685Y0174311
Y0170472
Y0166535
X-0072047Y0168504
Y0164567
X-0072146Y0172441
Y0176279
T04
X-0175197Y0201181
X-0167323
X-0159449
X-0151575
X-0143701
X-0135827
X-0127953
T05
X0096457Y0129921
X0104331
X0112205
Y0137795
X0120079
Y0129921
X0127953
Y0137795
X0135827
Y0129921
X0143701
Y0137795
X0151575
Y0129921
X0159449
Y0137795
X0167323
Y0129921
X0175197
Y0137795
X0104331
X0096457
T07
X0117913Y0052244
Y0062244
Y0072244
Y0082244
Y0092244
X0127913Y0087244
Y0077244
Y0067244
Y0057244
Y0097244
X016626Y0099705
X0172244Y0089705
X016626Y0059901
X0172244Y0049902
X-006496Y0040551
X-0074803
X-0082677
X-0092519
Y0030216
X-0082677
X-0074803
X-006496
T09
X0089173Y0066535
X0102953
X0103347Y0100394
X0089567
X0069488
X0055709
Y0135039
X0069488
X-0114961Y0094291
Y0080512
X-009252Y0070669
Y005689
X-0122047Y0034843
Y0021063
X-0076772Y0204724
X-0066772
X-0056772
X-0046772
X-0036772
X-0026772
X-0016772
X-0006772
X0003228
X0013228
Y0214724
X0003228
X-0006772
X-0016772
X-0026772
X-0036772
X-0046772
X-0056772
X-0066772
X-0076772
T10
X0043376Y0025197
X0057411
X0029921Y0206762
Y0220797
T11
X0140945Y0044035
Y0105571
T12
X0126378Y0011811
X-015
Y0218504
X005
T13
X0152953Y0052303
Y0097303
M30
