M48
;Layer_Color=8847372
;FILE_FORMAT=2:5
INCH,LZ
;TYPE=PLATED
T3F00S00C0.01968
T6F00S00C0.03150
T8F00S00C0.03937
;TYPE=NON_PLATED
%
G90
G05
T03
G00X-0186713Y0006693
M15
G01X-0183957
M16
G00X-0186713Y0032677
M15
G01X-0183957
M16
T06
G00X008248Y0137008
M15
G01Y0142913
M16
G00X0163977Y0117323
M15
G01X0169882
M16
G00X0163977Y022559
M15
G01X0169882
M16
G00X008248Y02
M15
G01Y0205905
M16
T08
G00X014252Y0013976
M15
G01Y0023819
M16
G00X0166142Y0014961
M15
G01Y0022835
M16
G00X-0052756Y0016437
M15
G01Y0022342
M16
G00X-0052756Y0038681
M15
G01Y0044587
M16
G00X-0104724Y0038681
M15
G01Y0044587
M16
G00X-0104724Y0016437
M15
G01Y0022342
M16
G00X-0158465Y0042913
M15
G01X-0152559
M16
G00X-0158465Y0094882
M15
G01X-0152559
M16
M17
M30
